<svg width="44" height="44" viewBox="0 0 44 44" fill="none" xmlns="http://www.w3.org/2000/svg">
<g clip-path="url(#clip0_19_627)">
<path d="M21.5291 0.0125387C22.3633 -0.0788901 23.0865 0.335342 23.7088 1.07016L23.8329 1.22152L23.8377 1.22836L23.8436 1.23617C24.426 2.03947 24.9674 2.24507 25.3729 2.25277C25.8057 2.26079 26.213 2.04701 26.5028 1.78793C26.8808 1.45003 27.536 1.0064 28.2567 0.991054C28.6386 0.983099 29.0305 1.09691 29.3758 1.38949C29.6701 1.63897 29.9073 1.99807 30.0887 2.46469L30.1629 2.67074L30.1659 2.68148L30.1688 2.69125C30.4495 3.67187 30.8354 4.13067 31.2557 4.33773C31.6932 4.55303 32.2977 4.5625 33.162 4.34848L33.1805 4.34359L33.1991 4.34066C33.7773 4.2428 34.2739 4.20372 34.6903 4.24789C35.113 4.29283 35.4878 4.42795 35.7762 4.70394C36.0616 4.97738 36.2073 5.33675 36.2811 5.72055C36.3532 6.09559 36.3638 6.53381 36.3475 7.01644C36.3724 8.18268 36.5697 8.58734 36.744 8.74984C36.8263 8.8264 36.9392 8.88286 37.1239 8.92269C37.3194 8.96482 37.5529 8.98122 37.868 9.00082C37.9313 9.00475 37.9977 9.00897 38.0653 9.01352H38.078L38.0897 9.01547C39.2409 9.15038 40.1194 9.46821 40.5536 10.1688C40.9863 10.8678 40.8561 11.7541 40.5409 12.6805L40.5301 12.7108L40.5164 12.7401C40.164 13.4565 40.1041 13.8717 40.2049 14.1952C40.31 14.5319 40.6319 14.9106 41.4198 15.4334C41.9119 15.6955 42.3146 15.9344 42.6122 16.1717C42.9123 16.4112 43.1652 16.6955 43.2538 17.0633C43.3448 17.442 43.2363 17.7973 43.0643 18.1141C42.8949 18.4261 42.6305 18.7615 42.3153 19.1307L42.2928 19.158L42.2664 19.1815C41.6695 19.7086 41.5868 20.0728 41.6122 20.3358C41.644 20.6657 41.8492 21.0005 42.1649 21.4852C42.2605 21.632 42.3648 21.7912 42.4618 21.9549C42.5245 22.0609 42.592 22.1715 42.6639 22.2879C42.8203 22.5411 42.9974 22.8272 43.1414 23.1151C43.2844 23.4008 43.4131 23.7236 43.452 24.0555C43.4924 24.4008 43.4361 24.7675 43.1971 25.0975C42.9663 25.4161 42.6045 25.6469 42.1414 25.8114L42.1239 25.8172L42.1063 25.8221C41.2232 26.0653 40.8663 26.4504 40.7577 26.8631C40.6517 27.2659 40.738 27.8385 41.1131 28.6034L41.2918 28.9432L41.3163 28.9852L41.3309 29.0321C41.6375 29.9704 41.7403 30.7554 41.3319 31.3729C41.1325 31.674 40.8426 31.8846 40.5184 32.0487C40.1963 32.2116 39.8059 32.3456 39.37 32.4764L39.3114 32.494L39.2498 32.4969C38.6502 32.5254 38.2321 32.5679 37.9354 32.6356C37.641 32.7028 37.5194 32.7838 37.4588 32.8475C37.4008 32.9087 37.3433 33.0123 37.3045 33.2518C37.2643 33.5002 37.2542 33.8219 37.2401 34.2821C37.2356 34.4277 37.2299 34.5851 37.2235 34.7528L37.2264 34.8856C37.2377 35.4062 37.2472 35.8572 37.2245 36.2225C37.2022 36.5792 37.1462 36.9353 36.9696 37.2245C36.7711 37.5491 36.4658 37.7217 36.1053 37.7928C35.7714 37.8586 35.365 37.8436 34.8993 37.7928L34.8465 37.787L34.7957 37.7704C33.9797 37.5001 33.3974 37.5267 32.9735 37.7567C32.546 37.9888 32.1566 38.4941 31.8788 39.4569L31.8778 39.4559C31.7327 40.0125 31.5669 40.4712 31.3524 40.8211C31.1309 41.1823 30.8414 41.4543 30.4559 41.5789C30.0822 41.6996 29.6914 41.6569 29.3123 41.5487C28.9381 41.4417 28.5262 41.255 28.0799 41.0282C27.1175 40.5861 26.6554 40.5778 26.3895 40.6659C26.1074 40.7595 25.903 40.9958 25.5223 41.4862C25.4207 41.617 25.3083 41.7622 25.1844 41.911L25.1805 41.9159C24.4555 42.7656 23.7836 43.3293 23.033 43.3709C22.2662 43.4132 21.6316 42.9003 21.0243 42.2723L21.0047 42.2518L20.9872 42.2293C20.337 41.3808 19.9304 41.1377 19.6073 41.117C19.2628 41.0953 18.804 41.3062 17.995 41.9764L17.9754 41.992L17.9549 42.0057C17.4707 42.3323 17.0386 42.5686 16.6454 42.6922C16.2431 42.8186 15.8498 42.8363 15.4803 42.6844C15.1208 42.5364 14.8552 42.2564 14.6414 41.9373C14.4282 41.6189 14.2388 41.2178 14.0487 40.7694L14.037 40.742L14.0282 40.7137C13.7566 39.7795 13.4409 39.4776 13.2 39.3739C12.9349 39.2598 12.5786 39.2977 12.0125 39.4686L12.0008 39.4725C11.6761 39.5622 11.3078 39.6605 10.9432 39.7186C10.5808 39.7763 10.1847 39.7999 9.80942 39.7166C9.41994 39.6302 9.05435 39.4278 8.78598 39.0516C8.52618 38.6872 8.38862 38.2042 8.35531 37.6092V37.5985L8.35434 37.5877C8.34029 36.5109 8.17339 35.9837 7.91684 35.703C7.67352 35.437 7.24022 35.2775 6.33676 35.2635H6.31821L6.29965 35.2616C5.7154 35.2086 5.22576 35.1195 4.83481 34.9705C4.43786 34.8193 4.11023 34.5935 3.90317 34.2518C3.69811 33.9133 3.65182 33.5274 3.68149 33.1375C3.71068 32.7547 3.81591 32.3262 3.95981 31.8612C4.23997 30.7342 4.15612 30.2956 4.03207 30.0965C3.97355 30.0028 3.88015 29.9202 3.71274 29.8348C3.53522 29.7443 3.3138 29.6695 3.01449 29.5702L2.81528 29.5037L2.80356 29.4989C2.26467 29.2866 1.81957 29.0752 1.48031 28.8436C1.14005 28.6112 0.864726 28.3302 0.733244 27.9637C0.599455 27.5904 0.644144 27.2108 0.773283 26.8465C0.899857 26.4897 1.12139 26.1091 1.39731 25.6991L1.41488 25.6717L1.43637 25.6483C1.93796 25.0771 2.13421 24.5909 2.11996 24.1336C2.10543 23.6702 1.87143 23.1248 1.27035 22.4442C0.440348 21.6668 -0.0646469 20.8965 0.00668179 20.0789C0.0785475 19.2574 0.713254 18.6169 1.52817 18.0565L1.55746 18.037L1.58871 18.0213C1.99474 17.8186 2.23236 17.5988 2.37094 17.3934C2.50775 17.1904 2.56773 16.9729 2.57602 16.7411C2.59317 16.2596 2.38992 15.745 2.1766 15.2645C1.69296 14.5871 1.37032 13.6822 1.59653 12.8309C1.84351 11.9023 2.67751 11.246 4.08481 11.0262C5.09307 10.7833 5.54641 10.5057 5.77914 10.159C6.0235 9.79473 6.10846 9.23593 6.05844 8.19906C6.0333 7.67789 6.02504 7.21392 6.06918 6.82504C6.11308 6.43879 6.21502 6.06084 6.46371 5.76547C6.72469 5.45563 7.0861 5.30753 7.49594 5.25766C7.88338 5.21066 8.34981 5.24707 8.89438 5.33676C10.1771 5.41297 10.852 5.13499 11.2557 4.78695C11.681 4.42 11.8907 3.9118 12.12 3.31723C12.2931 2.8074 12.4816 2.37179 12.7049 2.02719C12.9328 1.67569 13.2145 1.39217 13.5799 1.23519C14.3149 0.919681 15.1363 1.21394 16.0057 1.72543L16.3055 1.88754C16.9797 2.2383 17.4743 2.3863 17.8709 2.37094C18.28 2.35487 18.6725 2.15934 19.1229 1.59262L19.1297 1.58383L19.1375 1.57602C19.8976 0.702062 20.6879 0.105093 21.5291 0.0125387ZM21.702 3.13754C11.6795 3.13754 3.55453 11.2625 3.55453 21.285C3.55478 31.3073 11.6797 39.4315 21.702 39.4315C31.7242 39.4314 39.8492 31.3072 39.8495 21.285C39.8495 11.2626 31.7244 3.13763 21.702 3.13754Z" fill="black"/>
<path d="M36 32C35.4783 31.4464 34.7883 29.6127 34 32.5C33.0073 30.0895 29.9182 31.9401 30 34C28.6116 30.98 26.3967 33.8847 27.2789 34.9967C28.1611 36.1087 24.7182 32.387 25 35.5002C22.5235 34.9633 21.123 37.6511 22.5 38.9999" stroke="black" stroke-width="0.45"/>
<path d="M6 29.5C6.6352 28.2712 10.0913 28.7734 9.94444 30.6069M9.94444 30.6069C10.5463 30.3776 11.8944 30.4005 12.4722 32.3268C12.9537 32.2121 13.9167 32.1204 13.9167 32.6708C14.6389 32.7854 15.9389 33.2899 15.3611 34.3907C16.7232 32.4531 19.9132 36.1897 18.6739 39M9.94444 30.6069C9.94444 30.3317 9.94444 27.2818 9.94444 24.4152M9.94444 24.4152L11.0278 23.7273M9.94444 24.4152H9.58333V23.7273L9.94444 23.4693M17.5143 34.3907C17.5143 34.1155 17.5278 27.0524 17.5278 24.0713M18.6111 35.973V24.0713M11.0278 23.7273L18.9722 24.0713L19.3333 23.7273V23.0393L17.8889 22.9795M11.0278 23.7273V30.3575M9.94444 23.4693L11.0278 22.6953M9.94444 23.4693V18.2236M17.8889 22.9795L11.0278 22.6953M17.8889 22.9795V18.9115L21.1389 19.0405M17.8889 22.9795C18.0092 21.9389 18.8278 19.6941 21.1389 19.0405M11.0278 22.6953V17.5356M9.94444 18.2236L11.0278 17.5356M9.94444 18.2236V17.1916M21.1389 19.0405H24.2157M11.0278 17.5356L33.4167 18.2236M11.0278 17.5356V16.1597M33.4167 18.2236V23.4693M33.4167 18.2236V17.5356L34.1389 16.8477M11.0278 16.1597L34.1389 16.8477M11.0278 16.1597V14.7838M11.0278 16.1597L9.94444 17.1916M9.94444 17.1916H8.86111L9.16849 16.3389L10.0981 15.5614M33.4167 23.4693H33.7778V24.4152H33.4167M33.4167 23.4693H26.9167M34.1389 16.8477H34.5V15.1278C34.1538 15.1226 33.7921 15.1172 33.4167 15.1117M11.0278 14.7838L10.0981 15.5614M11.0278 14.7838V12.3759M11.0278 14.7838C11.0973 14.7838 12.0465 14.7971 13.5556 14.8188M10.0981 15.5614V13.7518L11.0278 12.3759M33.4167 24.4152H26.9167M33.4167 24.4152V31.7466M26.9167 23.4693H25.8333M26.9167 23.4693V22.3514M33.4167 15.1117V12.3759M33.4167 15.1117C32.7351 15.1015 32.0088 15.0907 31.25 15.0795M26.9167 24.4152H25.8333M26.9167 24.4152V34.6621M25.8333 23.4693V24.4152M25.8333 23.4693C26.1944 22.8673 24.3889 19.9435 22.2222 19.9435C21.4282 19.9435 20.7555 20.3285 20.2247 20.8338M25.8333 23.4693L24.3889 23.8706M26.9167 22.3514V19.0405H26.5556H24.2157M26.9167 22.3514C26.3389 20.9754 24.9379 19.4992 24.2157 19.0405M25.8333 24.4152L24.3889 24.6445M25.8333 24.4152V34.1769M20.2247 20.8338C19.5969 21.4318 19.1679 22.1982 18.9722 22.6953M20.2247 20.8338C21.1313 20.5179 23.2333 20.683 24.3889 23.8706M24.3889 23.8706L23.6667 24.0713V24.7592L24.3889 24.6445M24.3889 24.6445V35.5M11.0278 12.3759H13.5556M13.5556 14.8188V12.3759M13.5556 14.8188C14.1874 14.828 14.9175 14.8385 15.7222 14.8503M33.4167 12.3759H33.7778V12.0319V11.688V11H11.0278L9.22222 13.0639L9.94444 13.7518M33.4167 12.3759H31.25M31.25 15.0795V12.3759M31.25 15.0795C30.6654 15.0707 30.0617 15.0618 29.4444 15.0526M13.5556 12.3759H15.7222M15.7222 14.8503V12.3759M15.7222 14.8503C16.2897 14.8586 16.8942 14.8674 17.5278 14.8767M15.7222 12.3759H17.5278M31.25 12.3759H29.4444M29.4444 12.3759H27.6389M29.4444 12.3759C29.4444 12.6511 29.4444 14.275 29.4444 15.0526M29.4444 15.0526C28.8533 15.0439 28.2498 15.035 27.6389 15.0259M17.5278 12.3759V14.8767M17.5278 12.3759H19.6944M17.5278 14.8767C18.2192 14.8868 18.9449 14.8975 19.6944 14.9085M19.6944 12.3759V14.9085M19.6944 12.3759H21.8611M19.6944 14.9085C20.3987 14.9189 21.1239 14.9296 21.8611 14.9404M21.8611 12.3759V14.9404M21.8611 12.3759H23.6667M21.8611 14.9404C22.4566 14.9492 23.0601 14.9581 23.6667 14.9671M23.6667 12.3759V14.9671M23.6667 12.3759H25.8333M23.6667 14.9671C24.387 14.9777 25.1119 14.9885 25.8333 14.9991M25.8333 12.3759V14.9991M25.8333 12.3759H27.6389M25.8333 14.9991C26.4391 15.0081 27.0425 15.0171 27.6389 15.0259M27.6389 12.3759C27.6389 12.6511 27.6389 14.2572 27.6389 15.0259M12.4722 14.0958V13.4079M14.6389 14.0958V13.4079M16.8056 14.0958V13.4079M18.6111 14.0958V13.4079M20.7778 14.0958V13.4079M22.9444 14.0958V13.4079M24.75 14.0958V13.4079M26.9167 14.0958V13.4079M28.7222 14.0958V13.4079M30.5278 14.0958V13.4079M32.3333 14.0958V13.4079M12.1111 21.3194V19.2555H16.8056V21.3194H12.1111ZM28 22.0074V19.9435H31.9722V22.0074H28Z" stroke="black" stroke-width="0.45"/>
<path d="M13.7398 32.1891V30.2973H14.0811M14.0811 30.2973L13.7398 29.1621L13.3985 28.027V26.8919L14.0811 25.3783L14.4223 24.6216H16.1286L16.4699 25V26.1351V26.8919L16.8112 27.2702V28.4054L16.1286 29.5405V29.9189L15.7874 30.2973M14.0811 30.2973H15.7874M15.7874 30.2973H16.4699V33.7027M28.4141 32.5V30.2973H28.7554M28.7554 30.2973L28.4141 29.1621L28.0729 28.027V26.8919L28.7554 25.3783L29.0967 24.6216H30.803L31.1442 25V26.1351V26.8919L31.4855 27.2702V28.4054L30.803 29.5405V29.9189L30.4617 30.2973M28.7554 30.2973H30.4617M30.4617 30.2973H31.1442V32" stroke="black" stroke-width="0.45"/>
</g>
<defs>
<clipPath id="clip0_19_627">
<rect width="44" height="44" fill="white"/>
</clipPath>
</defs>
</svg>
