<svg width="222" height="107" viewBox="0 0 222 107" fill="none" xmlns="http://www.w3.org/2000/svg">
<path d="M124.609 72.2825H125.114H125.745H126.249V72.784H124.609V72.2825Z" fill="black"/>
<path d="M129.908 58.6153C129.101 58.6153 128.731 58.6989 128.647 58.7407V58.2391L130.287 58.1137C130.245 58.1973 130.11 58.4147 129.908 58.6153Z" fill="black"/>
<path d="M123.095 61.3738L121.455 61.75L120.95 62.0007C120.235 62.0007 118.856 61.8001 119.058 60.9976C119.31 59.9945 120.32 60.8723 120.95 60.7469C121.581 60.6215 123.221 60.6215 123.095 61.3738Z" fill="black"/>
<path d="M122.717 68.6945L118.427 69.0224C118.514 68.7645 120.202 66.8558 121.254 65.7624C121.655 65.9177 121.995 66.5013 122.252 67.1416C122.475 67.6977 122.635 68.2964 122.717 68.6945Z" fill="black"/>
<path d="M118.175 68.6463L117.292 67.3924L115.778 67.43L115.453 67.4381L114.768 67.4551L114.39 67.4645L113.759 67.4802L113.002 67.499L112.245 67.5178C113.296 65.6877 116.509 62.7019 120.95 65.3995C119.772 66.7852 118.256 68.5652 118.175 68.6463Z" fill="black"/>
<path d="M117.292 74.2887C120.824 74.7902 121.707 71.7097 121.707 70.1067C122.024 70.1213 122.286 70.1331 122.464 70.1408C122.474 70.5268 122.43 71.0003 122.304 71.4993C122.218 71.8387 122.095 72.1898 121.926 72.5333C121.262 73.8769 119.89 75.1025 117.292 75.041C111.993 74.9156 111.614 68.4833 113.002 67.499L113.759 67.4802C112.119 69.4487 112.876 73.6617 117.292 74.2887Z" fill="black"/>
<path d="M137.983 68.1447C137.478 65.5367 134.124 65.3903 132.509 65.6432L132.091 64.7379C134.139 64.2852 138.437 64.6088 139.244 69.524C139.244 69.6055 139.245 69.6892 139.245 69.7747C139.246 70.3112 139.241 70.9199 139.144 71.5302C138.897 73.066 138.058 74.6118 135.207 75.041C131.876 75.5426 129.866 73.3274 129.277 72.1571C128.546 70.7778 127.97 67.4174 131.523 65.01L131.927 65.9017C129.202 67.6181 129.614 70.5364 130.161 71.7809C130.623 72.993 132.936 74.9738 135.081 74.2887C138.614 73.1602 138.614 71.4048 137.983 68.1447Z" fill="black"/>
<path d="M123.348 68.6463C122.927 67.5178 122.086 65.2106 122.086 65.01C122.086 64.9312 121.737 65.2611 121.254 65.7624M123.348 68.6463H124.105M123.348 68.6463L122.717 68.6945M129.908 58.6153C130.716 58.6153 130.749 59.3676 130.665 59.7438C130.455 59.8692 130.009 60.1952 129.908 60.4961C129.848 60.6766 129.935 61.107 130.052 61.5216M129.908 58.6153C129.101 58.6153 128.731 58.6989 128.647 58.7407V58.2391L130.287 58.1137M129.908 58.6153C130.11 58.4147 130.245 58.1973 130.287 58.1137M130.287 58.1137C130.707 58.2391 131.498 58.6654 131.296 59.3676C131.094 60.0698 130.791 60.4125 130.665 60.4961L131.031 61.3738M131.927 64.3831L132.179 64.1323L131.031 61.3738M131.927 64.3831L131.296 64.5085M131.927 64.3831L132.091 64.7379M134.072 69.0224C134.45 69.1478 135.182 69.549 135.081 70.1509C134.98 70.7528 134.282 70.9032 133.945 70.9032C133.651 70.8196 133.088 70.5521 133.188 70.1509C133.289 69.7497 133.483 69.5658 133.567 69.524M134.072 69.0224C134.24 69.7747 134.374 70.9283 133.567 69.524M134.072 69.0224L132.68 66.0131M133.567 69.524L132.091 66.2639M131.296 64.5085L130.918 64.1323L127.385 69.1478C127.269 69.292 127.092 69.4831 126.88 69.6673C126.775 69.7588 126.662 69.8487 126.543 69.9303C126.209 70.1603 125.834 70.3248 125.492 70.2763C125.534 70.6525 125.518 71.4048 125.114 71.4048M131.296 64.5085L131.523 65.01M125.114 71.4048L125.745 72.2825M125.114 71.4048L124.735 70.9032C124.777 70.5689 124.71 69.9001 124.105 69.9001C123.499 69.9001 123.936 70.6525 124.231 71.0286L124.672 71.6556M125.745 72.2825H126.249V72.784H124.609V72.2825H125.114M125.745 72.2825H125.114M125.114 72.2825L124.672 71.6556M124.672 71.6556C124.321 71.7332 123.733 71.7147 123.288 71.3326C123.144 71.2099 123.016 71.0496 122.915 70.8429C122.823 70.6534 122.753 70.4251 122.717 70.1509C122.702 70.1509 122.612 70.1473 122.464 70.1408M118.175 68.6463C118.032 68.7316 117.905 68.8458 117.796 68.9723M118.175 68.6463L117.292 67.3924L115.778 67.43L115.453 67.4381L114.768 67.4551L114.39 67.4645M118.175 68.6463C118.256 68.5652 119.772 66.7852 120.95 65.3995M120.95 62.0007L121.455 61.75M120.95 62.0007C120.235 62.0007 118.856 61.8001 119.058 60.9976C119.31 59.9945 120.32 60.8723 120.95 60.7469C121.581 60.6215 123.221 60.6215 123.095 61.3738L121.455 61.75M120.95 62.0007C121.101 62.3831 121.226 62.711 121.329 62.9915C121.848 64.4035 121.813 64.6131 121.707 64.5085C121.538 64.7079 121.343 64.9376 121.133 65.1845C121.073 65.2549 121.012 65.3267 120.95 65.3995M121.455 61.75L122.404 64.2209M124.105 68.6463H124.798H125.492C125.822 68.3918 126.389 67.8512 127.092 67.0162C128.005 65.9312 129.146 64.349 130.287 62.2515C130.219 62.0676 130.129 61.7981 130.052 61.5216M124.105 68.6463L123.912 68.1447L123.499 67.0689L122.591 64.7055L122.404 64.2209M118.427 69.9537C118.009 69.9341 117.619 69.9157 117.292 69.9001C117.352 69.6905 117.52 69.292 117.796 68.9723M118.427 69.9537C118.217 70.3538 117.594 70.9534 116.787 70.1509C115.979 69.3484 117.123 69.0308 117.796 68.9723M118.427 69.9537C119.353 69.9973 120.417 70.0472 121.254 70.0859M120.95 65.3995C116.509 62.7019 113.296 65.6877 112.245 67.5178L113.002 67.499M122.717 68.6945L118.427 69.0224C118.514 68.7645 120.202 66.8558 121.254 65.7624M122.717 68.6945C122.635 68.2964 122.475 67.6977 122.252 67.1416C121.995 66.5013 121.655 65.9177 121.254 65.7624M121.254 70.0859C121.415 70.0933 121.566 70.1003 121.707 70.1067M121.254 70.0859C121.263 70.5706 121.183 71.2067 120.95 71.8227C120.912 71.9232 120.87 72.0232 120.824 72.1218C120.662 72.4685 120.445 72.7992 120.164 73.0819C119.554 73.6936 118.637 74.0797 117.292 73.9125C113.254 73.411 112.497 69.1666 114.39 67.4645M114.39 67.4645L113.759 67.4802M121.707 70.1067C121.707 71.7097 120.824 74.7902 117.292 74.2887C112.876 73.6617 112.119 69.4487 113.759 67.4802M121.707 70.1067C122.024 70.1213 122.286 70.1331 122.464 70.1408M113.759 67.4802L113.002 67.499M122.464 70.1408C122.474 70.5268 122.43 71.0003 122.304 71.4993C122.218 71.8387 122.095 72.1898 121.926 72.5333C121.262 73.8769 119.89 75.1025 117.292 75.041C111.993 74.9156 111.614 68.4833 113.002 67.499M132.68 66.0131C134.069 65.8042 136.999 65.9379 137.604 68.1447C137.908 69.2498 138.029 70.2744 137.878 71.154C137.841 71.3722 137.787 71.5815 137.715 71.7809C137.537 72.2717 137.25 72.7024 136.834 73.0584C136.399 73.4301 135.822 73.7204 135.081 73.9125C132.76 74.5144 131.17 72.6587 130.665 71.6556C130.306 70.9905 129.972 69.7194 130.419 68.4175M132.68 66.0131L132.509 65.6432M132.091 66.2639L131.927 65.9017M132.091 66.2639C131.838 66.4469 131.616 66.6374 131.422 66.8332C130.966 67.2933 130.663 67.7823 130.473 68.2701M132.509 65.6432C134.124 65.3903 137.478 65.5367 137.983 68.1447C138.614 71.4048 138.614 73.1602 135.081 74.2887C132.936 74.9738 130.623 72.993 130.161 71.7809C129.614 70.5364 129.202 67.6181 131.927 65.9017M132.509 65.6432L132.091 64.7379M131.927 65.9017L131.523 65.01M132.091 64.7379C134.139 64.2852 138.437 64.6088 139.244 69.524C139.244 69.6055 139.245 69.6892 139.245 69.7747C139.246 70.3112 139.241 70.9199 139.144 71.5302C138.897 73.066 138.058 74.6118 135.207 75.041C131.876 75.5426 129.866 73.3274 129.277 72.1571C128.546 70.7778 127.97 67.4174 131.523 65.01M131.031 61.3738C130.878 61.4724 130.469 61.6399 130.052 61.5216M122.404 64.2209L122.129 63.5054M130.473 68.2701C130.454 68.3193 130.436 68.3684 130.419 68.4175M130.473 68.2701C130.451 68.3177 130.433 68.3668 130.419 68.4175" stroke="black" stroke-width="0.5"/>
<path d="M165.805 88.9215L165.341 88.7216L164.762 88.4716L164.299 88.2717L164.1 88.7322L165.606 89.382L165.805 88.9215Z" fill="black"/>
<path d="M166.354 74.2733C167.095 74.5932 167.402 74.8166 167.463 74.8883L167.661 74.4278L166.205 73.6628C166.211 73.7562 166.248 74.0091 166.354 74.2733Z" fill="black"/>
<path d="M171.517 79.5053L172.874 80.5005L173.238 80.9307C173.894 81.2139 175.24 81.5762 175.373 80.7594C175.538 79.7384 174.264 80.1444 173.734 79.7794C173.205 79.4143 171.699 78.7645 171.517 79.5053Z" fill="black"/>
<path d="M168.964 86.3769L172.773 88.3775C172.795 88.1064 172.001 85.6851 171.468 84.264C171.039 84.2481 170.495 84.6491 170.006 85.1352C169.581 85.5574 169.197 86.0438 168.964 86.3769Z" fill="black"/>
<path d="M173.153 88.1321L174.461 87.3307L175.836 87.965L176.131 88.1011L176.753 88.3879L177.097 88.5465L177.67 88.8108L178.357 89.128L179.045 89.4452C178.805 87.3483 177.037 83.3339 171.891 84.0513C172.424 85.7903 173.11 88.0253 173.153 88.1321Z" fill="black"/>
<path d="M171.729 93.6627C168.286 92.7236 168.696 89.5452 169.331 88.0734C169.034 87.9612 168.789 87.8682 168.622 87.8049C168.461 88.1554 168.314 88.6077 168.232 89.1157C168.176 89.4612 168.15 89.8324 168.169 90.215C168.246 91.7115 169.02 93.3804 171.431 94.3534C176.346 96.3377 179.242 90.5816 178.357 89.128L177.67 88.8108C178.396 91.2681 176.032 94.8365 171.729 93.6627Z" fill="black"/>
<path d="M155.165 79.8239C156.661 77.6292 159.799 78.8239 161.181 79.6956L161.924 79.0301C160.223 77.8031 156.149 76.3974 153.46 80.5905C153.428 80.6653 153.394 80.7421 153.36 80.8206C153.147 81.3128 152.91 81.8734 152.758 82.4725C152.375 83.9802 152.534 85.7322 154.981 87.2556C157.841 89.0357 160.564 87.7982 161.568 86.9569C162.786 85.9804 164.646 83.123 162.338 79.505L161.614 80.1637C163.436 82.8193 161.901 85.3355 160.906 86.2617C160.001 87.1913 157.093 88.0936 155.395 86.6148C152.598 84.1791 153.294 82.5673 155.165 79.8239Z" fill="black"/>
<path d="M168.404 86.0827C169.237 85.2131 170.923 83.428 171.003 83.2438C171.034 83.1715 171.224 83.6127 171.468 84.264M168.404 86.0827L167.709 85.7828M168.404 86.0827L168.964 86.3769M166.354 74.2733C165.613 73.9534 165.284 74.6308 165.212 75.0095C165.355 75.208 165.635 75.6839 165.609 76.0002C165.593 76.19 165.342 76.5503 165.071 76.885M166.354 74.2733C167.095 74.5932 167.402 74.8166 167.463 74.8883L167.661 74.4278L166.205 73.6628M166.354 74.2733C166.248 74.0091 166.211 73.7562 166.205 73.6628M166.205 73.6628C165.769 73.6113 164.875 73.6895 164.782 74.4142C164.689 75.1389 164.831 75.5736 164.914 75.7003L164.231 76.3614M162.215 78.7694L162.083 78.4392L164.231 76.3614M162.215 78.7694L162.745 79.1344M162.215 78.7694L161.924 79.0301M158.408 82.1793C158.011 82.1445 157.18 82.223 157.034 82.8156C156.888 83.4082 157.47 83.8229 157.779 83.9562C158.082 83.9961 158.706 83.9738 158.772 83.5654C158.838 83.157 158.733 82.9115 158.673 82.8398M158.408 82.1793C157.956 82.8034 157.375 83.8093 158.673 82.8398M158.408 82.1793L160.878 79.9675M158.673 82.8398L161.32 80.4313M162.745 79.1344L163.241 78.939L164.498 84.9437C164.547 85.1221 164.635 85.3677 164.756 85.6206C164.816 85.7462 164.884 85.8736 164.961 85.9955C165.177 86.3392 165.456 86.6388 165.789 86.7296C165.601 87.0583 165.318 87.7557 165.689 87.9157M162.745 79.1344L162.338 79.505M165.689 87.9157L164.762 88.4716M165.689 87.9157L166.235 87.6051C166.329 87.2815 166.656 86.6941 167.212 86.934C167.768 87.174 167.068 87.6914 166.649 87.9202L165.995 88.3209M164.762 88.4716L164.299 88.2717L164.1 88.7322L165.606 89.382L165.805 88.9215L165.341 88.7216M164.762 88.4716L165.341 88.7216M165.341 88.7216L165.995 88.3209M165.995 88.3209C166.287 88.5313 166.834 88.7474 167.395 88.573C167.574 88.5169 167.756 88.4206 167.93 88.2707C168.09 88.1334 168.244 87.9513 168.387 87.7141C168.4 87.72 168.484 87.7522 168.622 87.8049M173.153 88.1321C173.251 88.2671 173.321 88.4219 173.372 88.5813M173.153 88.1321L174.461 87.3307L175.836 87.965L176.131 88.1011L176.753 88.3879L177.097 88.5465M173.153 88.1321C173.11 88.0253 172.424 85.7903 171.891 84.0513M173.238 80.9307L172.874 80.5005M173.238 80.9307C173.894 81.2139 175.24 81.5762 175.373 80.7594C175.538 79.7384 174.264 80.1444 173.734 79.7794C173.205 79.4143 171.699 78.7645 171.517 79.5053L172.874 80.5005M173.238 80.9307C172.948 81.2221 172.703 81.4737 172.497 81.6904C171.462 82.7813 171.411 82.9876 171.549 82.9333C171.625 83.1835 171.714 83.4717 171.808 83.7815C171.835 83.8698 171.863 83.9599 171.891 84.0513M172.874 80.5005L171.023 82.3931M167.709 85.7828L167.072 85.5078L166.434 85.2329C166.233 84.8689 165.926 84.1476 165.611 83.1025C165.203 81.7445 164.782 79.8398 164.566 77.462C164.701 77.3198 164.89 77.1081 165.071 76.885M167.709 85.7828L168.084 85.3986L168.89 84.5746L170.66 82.7643L171.023 82.3931M172.404 89.2326C172.795 89.38 173.16 89.5175 173.467 89.6332C173.495 89.4169 173.498 88.9844 173.372 88.5813M172.404 89.2326C172.438 89.6832 172.772 90.4803 173.831 90.0634C174.891 89.6465 173.966 88.9017 173.372 88.5813M172.404 89.2326C171.536 88.9057 170.539 88.5299 169.755 88.2338M171.891 84.0513C177.037 83.3339 178.805 87.3483 179.045 89.4452L178.357 89.128M168.964 86.3769L172.773 88.3775C172.795 88.1064 172.001 85.6851 171.468 84.264M168.964 86.3769C169.197 86.0438 169.581 85.5574 170.006 85.1352C170.495 84.6491 171.039 84.2481 171.468 84.264M169.755 88.2338C169.605 88.1771 169.463 88.1234 169.331 88.0734M169.755 88.2338C169.556 88.6755 169.377 89.2913 169.346 89.9489C169.341 90.0562 169.34 90.1646 169.344 90.2735C169.356 90.6562 169.423 91.0456 169.57 91.4167C169.887 92.2199 170.576 92.9376 171.878 93.3173C175.783 94.4563 178.16 90.8592 177.097 88.5465M177.097 88.5465L177.67 88.8108M169.331 88.0734C168.696 89.5452 168.286 92.7236 171.729 93.6627C176.032 94.8365 178.396 91.2681 177.67 88.8108M169.331 88.0734C169.034 87.9612 168.789 87.8682 168.622 87.8049M177.67 88.8108L178.357 89.128M168.622 87.8049C168.461 88.1554 168.314 88.6077 168.232 89.1157C168.176 89.4612 168.15 89.8324 168.169 90.215C168.246 91.7115 169.02 93.3804 171.431 94.3534C176.346 96.3377 179.242 90.5816 178.357 89.128M160.878 79.9675C159.685 79.2253 156.943 78.1876 155.512 79.9739C154.796 80.8684 154.279 81.7612 154.069 82.6284C154.016 82.8436 153.983 83.0572 153.97 83.2688C153.939 83.7897 154.032 84.2988 154.273 84.7907C154.525 85.3044 154.94 85.7994 155.544 86.2694C157.437 87.7417 159.632 86.6677 160.493 85.9466C161.085 85.4781 161.896 84.4434 162.002 83.071M160.878 79.9675L161.181 79.6956M161.32 80.4313L161.614 80.1637M161.32 80.4313C161.479 80.6994 161.607 80.9623 161.708 81.2189C161.945 81.8222 162.029 82.3913 162.01 82.9143M161.181 79.6956C159.799 78.8239 156.661 77.6292 155.165 79.8239C153.294 82.5673 152.598 84.1791 155.395 86.6148C157.093 88.0936 160.001 87.1913 160.906 86.2617C161.901 85.3355 163.436 82.8193 161.614 80.1637M161.181 79.6956L161.924 79.0301M161.614 80.1637L162.338 79.505M161.924 79.0301C160.223 77.8031 156.149 76.3974 153.46 80.5905C153.428 80.6653 153.394 80.7421 153.36 80.8206C153.147 81.3128 152.91 81.8734 152.758 82.4725C152.375 83.9802 152.534 85.7322 154.981 87.2556C157.841 89.0357 160.564 87.7982 161.568 86.9569C162.786 85.9804 164.646 83.123 162.338 79.505M164.231 76.3614C164.331 76.5122 164.64 76.8281 165.071 76.885M171.023 82.3931L171.559 81.845M162.01 82.9143C162.008 82.967 162.005 83.0193 162.002 83.071M162.01 82.9143C162.011 82.9666 162.008 83.0188 162.002 83.071" stroke="black" stroke-width="0.5"/>
<path d="M72.6933 39.449H73.1606H73.7447H74.212V39.9211H72.6933V39.449Z" fill="black"/>
<path d="M77.5998 26.5858C76.8521 26.5858 76.5094 26.6645 76.4316 26.7038V26.2318L77.9502 26.1137C77.9113 26.1924 77.7867 26.397 77.5998 26.5858Z" fill="black"/>
<path d="M71.2915 29.182L69.7728 29.5361L69.3055 29.7721C68.6435 29.7721 67.3663 29.5833 67.5532 28.828C67.7868 27.8839 68.7214 28.71 69.3055 28.592C69.8896 28.474 71.4083 28.474 71.2915 29.182Z" fill="black"/>
<path d="M70.941 36.0721L66.9691 36.3807C67.0492 36.138 68.6123 34.3416 69.587 33.3124C69.9576 33.4586 70.2727 34.0079 70.5106 34.6106C70.7171 35.1339 70.8653 35.6974 70.941 36.0721Z" fill="black"/>
<path d="M66.7355 36.0267L65.9177 34.8466L64.5159 34.882L64.2152 34.8896L63.5813 34.9056L63.2308 34.9144L62.6467 34.9292L61.9458 34.9469L61.2449 34.9646C62.2184 33.2421 65.1934 30.432 69.3055 32.971C68.2149 34.2752 66.811 35.9504 66.7355 36.0267Z" fill="black"/>
<path d="M65.9177 41.3372C69.1887 41.8093 70.0064 38.9099 70.0064 37.4013C70.3 37.4149 70.5427 37.4261 70.7074 37.4334C70.7163 37.7966 70.6753 38.2423 70.5588 38.7119C70.4796 39.0313 70.3655 39.3618 70.2085 39.6851C69.5943 40.9497 68.3237 42.1032 65.9177 42.0453C61.0112 41.9273 60.6608 35.8733 61.9458 34.9469L62.6467 34.9292C61.1281 36.782 61.829 40.7472 65.9177 41.3372Z" fill="black"/>
<path d="M85.0763 35.5547C84.609 33.1 81.5029 32.9623 80.0083 33.2003L79.6208 32.3482C81.5172 31.9222 85.4969 32.2267 86.2445 36.8528C86.2445 36.9295 86.2447 37.0083 86.2448 37.0888C86.2455 37.5937 86.2417 38.1666 86.1511 38.741C85.9231 40.1865 85.1455 41.6413 82.5062 42.0453C79.4222 42.5173 77.5608 40.4325 77.0157 39.331C76.3381 38.0329 75.8054 34.8702 79.0951 32.6044L79.4689 33.4436C76.9456 35.059 77.3272 37.8056 77.8334 38.977C78.2618 40.1178 80.4035 41.9821 82.3894 41.3372C85.6604 40.2751 85.6604 38.623 85.0763 35.5547Z" fill="black"/>
<path d="M71.5251 36.0267C71.1357 34.9646 70.3569 32.7932 70.3569 32.6044C70.3569 32.5302 70.0338 32.8407 69.587 33.3124M71.5251 36.0267H72.226M71.5251 36.0267L70.941 36.0721M77.5998 26.5858C78.3474 26.5858 78.3786 27.2939 78.3007 27.6479C78.106 27.7659 77.6932 28.0727 77.5998 28.356C77.5437 28.5259 77.625 28.9309 77.7327 29.3212M77.5998 26.5858C76.8521 26.5858 76.5094 26.6645 76.4316 26.7038V26.2318L77.9502 26.1137M77.5998 26.5858C77.7867 26.397 77.9113 26.1924 77.9502 26.1137M77.9502 26.1137C78.3396 26.2318 79.0717 26.633 78.8848 27.2939C78.6979 27.9547 78.4175 28.2773 78.3007 28.356L78.6391 29.182M79.4689 32.0143L79.7026 31.7783L78.6391 29.182M79.4689 32.0143L78.8848 32.1323M79.4689 32.0143L79.6208 32.3482M81.4549 36.3807C81.8053 36.4987 82.4829 36.8764 82.3894 37.4428C82.296 38.0093 81.6496 38.1509 81.338 38.1509C81.0655 38.0722 80.5437 37.8205 80.6371 37.4428C80.7306 37.0652 80.9097 36.8921 80.9876 36.8528M81.4549 36.3807C81.6106 37.0888 81.7352 38.1745 80.9876 36.8528M81.4549 36.3807L80.1667 33.5485M80.9876 36.8528L79.6208 33.7845M78.8848 32.1323L78.5343 31.7783L75.2634 36.4987C75.1559 36.6345 74.9918 36.8143 74.7961 36.9877C74.6989 37.0738 74.5938 37.1584 74.4841 37.2352C74.1745 37.4517 73.8273 37.6065 73.5111 37.5609C73.55 37.9149 73.5344 38.623 73.1606 38.623M78.8848 32.1323L79.0951 32.6044M73.1606 38.623L73.7447 39.449M73.1606 38.623L72.8101 38.1509C72.8491 37.8362 72.7868 37.2068 72.226 37.2068C71.6653 37.2068 72.0703 37.9149 72.3429 38.2689L72.7517 38.859M73.7447 39.449H74.212V39.9211H72.6933V39.449H73.1606M73.7447 39.449H73.1606M73.1606 39.449L72.7517 38.859M72.7517 38.859C72.4264 38.932 71.8817 38.9146 71.4695 38.555C71.3371 38.4395 71.2184 38.2886 71.125 38.0941C71.0394 37.9158 70.9751 37.7009 70.941 37.4428C70.9273 37.4428 70.8442 37.4394 70.7074 37.4334M66.7355 36.0267C66.603 36.107 66.4862 36.2145 66.385 36.3335M66.7355 36.0267L65.9177 34.8466L64.5159 34.882L64.2152 34.8896L63.5813 34.9056L63.2308 34.9144M66.7355 36.0267C66.811 35.9504 68.2149 34.2752 69.3055 32.971M69.3055 29.7721L69.7728 29.5361M69.3055 29.7721C68.6435 29.7721 67.3663 29.5833 67.5532 28.828C67.7868 27.8839 68.7214 28.71 69.3055 28.592C69.8896 28.474 71.4083 28.474 71.2915 29.182L69.7728 29.5361M69.3055 29.7721C69.4449 30.132 69.5606 30.4406 69.656 30.7046C70.1363 32.0335 70.1039 32.2308 70.0064 32.1323C69.8497 32.32 69.669 32.5362 69.4748 32.7686C69.4194 32.8348 69.3629 32.9024 69.3055 32.971M69.7728 29.5361L70.6518 31.8617M72.226 36.0267H72.8685H73.5111C73.8159 35.7872 74.3416 35.2784 74.9922 34.4926C75.8377 33.4713 76.8939 31.9822 77.9502 30.0081C77.8879 29.835 77.8044 29.5814 77.7327 29.3212M72.226 36.0267L72.0476 35.5547L71.6649 34.5421L70.8242 32.3178L70.6518 31.8617M66.9691 37.2573C66.5822 37.2387 66.2214 37.2214 65.9177 37.2068C65.9735 37.0095 66.1293 36.6345 66.385 36.3335M66.9691 37.2573C66.7744 37.6338 66.1981 38.1981 65.4504 37.4428C64.7028 36.6876 65.762 36.3886 66.385 36.3335M66.9691 37.2573C67.8265 37.2983 68.8119 37.3452 69.587 37.3816M69.3055 32.971C65.1934 30.432 62.2184 33.2421 61.2449 34.9646L61.9458 34.9469M70.941 36.0721L66.9691 36.3807C67.0492 36.138 68.6123 34.3416 69.587 33.3124M70.941 36.0721C70.8653 35.6974 70.7171 35.1339 70.5106 34.6106C70.2727 34.0079 69.9576 33.4586 69.587 33.3124M69.587 37.3816C69.7353 37.3886 69.8759 37.3952 70.0064 37.4013M69.587 37.3816C69.5947 37.8378 69.5207 38.4366 69.3055 39.0163C69.2704 39.1109 69.2316 39.205 69.1887 39.2978C69.0381 39.6241 68.838 39.9354 68.5772 40.2014C68.0127 40.7771 67.164 41.1406 65.9177 40.9832C62.1795 40.5111 61.4785 36.5164 63.2308 34.9144M63.2308 34.9144L62.6467 34.9292M70.0064 37.4013C70.0064 38.9099 69.1887 41.8093 65.9177 41.3372C61.829 40.7472 61.1281 36.782 62.6467 34.9292M70.0064 37.4013C70.3 37.4149 70.5427 37.4261 70.7074 37.4334M62.6467 34.9292L61.9458 34.9469M70.7074 37.4334C70.7163 37.7966 70.6753 38.2423 70.5588 38.7119C70.4796 39.0313 70.3655 39.3618 70.2085 39.6851C69.5943 40.9497 68.3237 42.1032 65.9177 42.0453C61.0112 41.9273 60.6608 35.8733 61.9458 34.9469M80.1667 33.5485C81.4528 33.3518 84.1651 33.4777 84.7258 35.5547C85.0066 36.5947 85.1187 37.5591 84.9794 38.3869C84.9449 38.5923 84.8948 38.7893 84.8281 38.977C84.6638 39.4388 84.3981 39.8442 84.0123 40.1793C83.6095 40.5291 83.0756 40.8023 82.3894 40.9832C80.2399 41.5496 78.768 39.8031 78.3007 38.859C77.9686 38.2331 77.6589 37.0367 78.0728 35.8114M80.1667 33.5485L80.0083 33.2003M79.6208 33.7845L79.4689 33.4436M79.6208 33.7845C79.3868 33.9567 79.1814 34.136 79.0016 34.3203C78.5791 34.7533 78.2984 35.2136 78.1227 35.6727M80.0083 33.2003C81.5029 32.9623 84.609 33.1 85.0763 35.5547C85.6604 38.623 85.6604 40.2751 82.3894 41.3372C80.4035 41.9821 78.2618 40.1178 77.8334 38.977C77.3272 37.8056 76.9456 35.059 79.4689 33.4436M80.0083 33.2003L79.6208 32.3482M79.4689 33.4436L79.0951 32.6044M79.6208 32.3482C81.5172 31.9222 85.4969 32.2267 86.2445 36.8528C86.2445 36.9295 86.2447 37.0083 86.2448 37.0888C86.2455 37.5937 86.2417 38.1666 86.1511 38.741C85.9231 40.1865 85.1455 41.6413 82.5062 42.0453C79.4222 42.5173 77.5608 40.4325 77.0157 39.331C76.3381 38.0329 75.8054 34.8702 79.0951 32.6044M78.6391 29.182C78.4981 29.2748 78.1193 29.4325 77.7327 29.3212M70.6518 31.8617L70.3973 31.1882M78.1227 35.6727C78.105 35.7189 78.0884 35.7652 78.0728 35.8114M78.1227 35.6727C78.1027 35.7174 78.0861 35.7637 78.0728 35.8114" stroke="black" stroke-width="0.5"/>
<path d="M52.6092 101.282H53.1139H53.7447H54.2493V101.784H52.6092V101.282Z" fill="black"/>
<path d="M57.9082 87.6153C57.1007 87.6153 56.7306 87.6989 56.6465 87.7407V87.2391L58.2867 87.1137C58.2446 87.1973 58.11 87.4147 57.9082 87.6153Z" fill="black"/>
<path d="M51.0952 90.3738L49.455 90.75L48.9504 91.0007C48.2354 91.0007 46.856 90.8001 47.0579 89.9976C47.3102 88.9945 48.3195 89.8723 48.9504 89.7469C49.5812 89.6215 51.2214 89.6215 51.0952 90.3738Z" fill="black"/>
<path d="M50.7167 97.6945L46.427 98.0224C46.5135 97.7645 48.2017 95.8558 49.2544 94.7624C49.6546 94.9177 49.995 95.5013 50.2518 96.1416C50.4749 96.6977 50.635 97.2964 50.7167 97.6945Z" fill="black"/>
<path d="M46.1747 97.6463L45.2915 96.3924L43.7775 96.43L43.4528 96.4381L42.7682 96.4551L42.3897 96.4645L41.7589 96.4802L41.0019 96.499L40.2449 96.5178C41.2963 94.6877 44.5093 91.7019 48.9504 94.3995C47.7725 95.7852 46.2563 97.5652 46.1747 97.6463Z" fill="black"/>
<path d="M45.2915 103.289C48.8242 103.79 49.7074 100.71 49.7074 99.1067C50.0244 99.1213 50.2865 99.1331 50.4644 99.1408C50.474 99.5268 50.4297 100 50.3039 100.499C50.2184 100.839 50.0951 101.19 49.9256 101.533C49.2622 102.877 47.89 104.102 45.2915 104.041C39.9926 103.916 39.6141 97.4833 41.0019 96.499L41.7589 96.4802C40.1187 98.4487 40.8757 102.662 45.2915 103.289Z" fill="black"/>
<path d="M65.9828 97.1447C65.4781 94.5367 62.1236 94.3903 60.5094 94.6432L60.0909 93.7379C62.1389 93.2852 66.437 93.6088 67.2445 98.524C67.2445 98.6055 67.2447 98.6892 67.2448 98.7747C67.2455 99.3112 67.2414 99.9199 67.1436 100.53C66.8974 102.066 66.0575 103.612 63.2072 104.041C59.8764 104.543 57.8661 102.327 57.2773 101.157C56.5456 99.7778 55.9702 96.4174 59.5231 94.01L59.9268 94.9017C57.2016 96.6181 57.6138 99.5364 58.1605 100.781C58.6231 101.993 60.9362 103.974 63.081 103.289C66.6137 102.16 66.6136 100.405 65.9828 97.1447Z" fill="black"/>
<path d="M51.3475 97.6463C50.927 96.5178 50.0859 94.2106 50.0859 94.01C50.0859 93.9312 49.7369 94.2611 49.2544 94.7624M51.3475 97.6463H52.1045M51.3475 97.6463L50.7167 97.6945M57.9082 87.6153C58.7156 87.6153 58.7493 88.3676 58.6652 88.7438C58.4549 88.8692 58.0091 89.1952 57.9082 89.4961C57.8476 89.6766 57.9354 90.107 58.0517 90.5216M57.9082 87.6153C57.1007 87.6153 56.7306 87.6989 56.6465 87.7407V87.2391L58.2867 87.1137M57.9082 87.6153C58.11 87.4147 58.2446 87.1973 58.2867 87.1137M58.2867 87.1137C58.7072 87.2391 59.4979 87.6654 59.296 88.3676C59.0941 89.0698 58.7913 89.4125 58.6652 89.4961L59.0306 90.3738M59.9268 93.3831L60.1792 93.1323L59.0306 90.3738M59.9268 93.3831L59.296 93.5085M59.9268 93.3831L60.0909 93.7379M62.0717 98.0224C62.4502 98.1478 63.1819 98.549 63.081 99.1509C62.9801 99.7528 62.2819 99.9032 61.9455 99.9032C61.6511 99.8196 61.0876 99.5521 61.1885 99.1509C61.2894 98.7497 61.4829 98.5658 61.567 98.524M62.0717 98.0224C62.2399 98.7747 62.3745 99.9283 61.567 98.524M62.0717 98.0224L60.6804 95.0131M61.567 98.524L60.0909 95.2639M59.296 93.5085L58.9175 93.1323L55.3848 98.1478C55.2687 98.292 55.0915 98.4831 54.8802 98.6673C54.7752 98.7588 54.6617 98.8487 54.5432 98.9303C54.2089 99.1603 53.8339 99.3248 53.4924 99.2763C53.5344 99.6525 53.5176 100.405 53.1139 100.405M59.296 93.5085L59.5231 94.01M53.1139 100.405L53.7447 101.282M53.1139 100.405L52.7354 99.9032C52.7774 99.5689 52.7101 98.9001 52.1045 98.9001C51.4989 98.9001 51.9363 99.6525 52.2307 100.029L52.6723 100.656M53.7447 101.282H54.2493V101.784H52.6092V101.282H53.1139M53.7447 101.282H53.1139M53.1139 101.282L52.6723 100.656M52.6723 100.656C52.3209 100.733 51.7327 100.715 51.2875 100.333C51.1445 100.21 51.0162 100.05 50.9154 99.8429C50.8229 99.6534 50.7535 99.4251 50.7167 99.1509C50.7018 99.1509 50.6122 99.1473 50.4644 99.1408M46.1747 97.6463C46.0316 97.7316 45.9055 97.8458 45.7962 97.9723M46.1747 97.6463L45.2915 96.3924L43.7775 96.43L43.4528 96.4381L42.7682 96.4551L42.3897 96.4645M46.1747 97.6463C46.2563 97.5652 47.7725 95.7852 48.9504 94.3995M48.9504 91.0007L49.455 90.75M48.9504 91.0007C48.2354 91.0007 46.856 90.8001 47.0579 89.9976C47.3102 88.9945 48.3195 89.8723 48.9504 89.7469C49.5812 89.6215 51.2214 89.6215 51.0952 90.3738L49.455 90.75M48.9504 91.0007C49.1009 91.3831 49.2258 91.711 49.3289 91.9915C49.8476 93.4035 49.8126 93.6131 49.7074 93.5085C49.5381 93.7079 49.3429 93.9376 49.1331 94.1845C49.0733 94.2549 49.0123 94.3267 48.9504 94.3995M49.455 90.75L50.4043 93.2209M52.1045 97.6463H52.7984H53.4923C53.8215 97.3918 54.3893 96.8512 55.092 96.0162C56.0051 94.9312 57.1459 93.349 58.2867 91.2515C58.2194 91.0676 58.1292 90.7981 58.0517 90.5216M52.1045 97.6463L51.9118 97.1447L51.4985 96.0689L50.5905 93.7055L50.4043 93.2209M46.427 98.9537C46.0092 98.9341 45.6195 98.9157 45.2915 98.9001C45.3518 98.6905 45.52 98.292 45.7962 97.9723M46.427 98.9537C46.2168 99.3538 45.5943 99.9534 44.7869 99.1509C43.9794 98.3484 45.1233 98.0308 45.7962 97.9723M46.427 98.9537C47.353 98.9973 48.4173 99.0472 49.2544 99.0859M48.9504 94.3995C44.5093 91.7019 41.2963 94.6877 40.2449 96.5178L41.0019 96.499M50.7167 97.6945L46.427 98.0224C46.5135 97.7645 48.2017 95.8558 49.2544 94.7624M50.7167 97.6945C50.635 97.2964 50.4749 96.6977 50.2518 96.1416C49.995 95.5013 49.6546 94.9177 49.2544 94.7624M49.2544 99.0859C49.4145 99.0933 49.5664 99.1003 49.7074 99.1067M49.2544 99.0859C49.2627 99.5706 49.1827 100.207 48.9504 100.823C48.9125 100.923 48.8705 101.023 48.8242 101.122C48.6616 101.468 48.4454 101.799 48.1638 102.082C47.5541 102.694 46.6375 103.08 45.2915 102.913C41.2542 102.411 40.4972 98.1666 42.3897 96.4645M42.3897 96.4645L41.7589 96.4802M49.7074 99.1067C49.7074 100.71 48.8242 103.79 45.2915 103.289C40.8757 102.662 40.1187 98.4487 41.7589 96.4802M49.7074 99.1067C50.0244 99.1213 50.2865 99.1331 50.4644 99.1408M41.7589 96.4802L41.0019 96.499M50.4644 99.1408C50.474 99.5268 50.4297 100 50.3039 100.499C50.2184 100.839 50.0951 101.19 49.9256 101.533C49.2622 102.877 47.89 104.102 45.2915 104.041C39.9926 103.916 39.6141 97.4833 41.0019 96.499M60.6804 95.0131C62.0694 94.8042 64.9987 94.9379 65.6043 97.1447C65.9076 98.2498 66.0286 99.2744 65.8782 100.154C65.8408 100.372 65.7868 100.582 65.7147 100.781C65.5373 101.272 65.2504 101.702 64.8337 102.058C64.3986 102.43 63.8221 102.72 63.081 102.913C60.7595 103.514 59.1698 101.659 58.6652 100.656C58.3065 99.9905 57.972 98.7194 58.419 97.4175M60.6804 95.0131L60.5094 94.6432M60.0909 95.2639L59.9268 94.9017M60.0909 95.2639C59.8382 95.4469 59.6163 95.6374 59.4222 95.8332C58.9659 96.2933 58.6627 96.7823 58.4729 97.2701M60.5094 94.6432C62.1236 94.3903 65.4781 94.5367 65.9828 97.1447C66.6136 100.405 66.6137 102.16 63.081 103.289C60.9362 103.974 58.6231 101.993 58.1605 100.781C57.6138 99.5364 57.2016 96.6181 59.9268 94.9017M60.5094 94.6432L60.0909 93.7379M59.9268 94.9017L59.5231 94.01M60.0909 93.7379C62.1389 93.2852 66.437 93.6088 67.2445 98.524C67.2445 98.6055 67.2447 98.6892 67.2448 98.7747C67.2455 99.3112 67.2414 99.9199 67.1436 100.53C66.8974 102.066 66.0575 103.612 63.2072 104.041C59.8764 104.543 57.8661 102.327 57.2773 101.157C56.5456 99.7778 55.9702 96.4174 59.5231 94.01M59.0306 90.3738C58.8783 90.4724 58.4693 90.6399 58.0517 90.5216M50.4043 93.2209L50.1294 92.5054M58.4729 97.2701C58.4538 97.3193 58.4358 97.3684 58.419 97.4175M58.4729 97.2701C58.4513 97.3177 58.4334 97.3668 58.419 97.4175" stroke="black" stroke-width="0.5"/>
<path d="M21.2449 105.614C10.7449 103.114 -7.35511 95.6138 4.24489 85.6138M21.2449 105.614C0.844885 102.014 12.7449 88.1138 21.2449 81.6138M21.2449 105.614C19.2792 105.146 17.0471 104.502 14.7934 103.7M21.2449 105.614C18.5633 105.141 16.4398 104.489 14.7934 103.7M21.2449 105.614H201.563M4.24489 85.6138C8.24489 83.9471 17.2449 80.8138 21.2449 81.6138M4.24489 85.6138C10.5782 56.2804 20.3448 24.1136 24.7448 18.1136C29.1448 12.1136 35.5782 11.6136 38.2449 12.1136L36.5218 20.1137M4.24489 85.6138C-5.18346 93.7416 5.00876 100.218 14.7934 103.7M21.2449 81.6138C13.8622 87.2593 3.91471 98.4873 14.7934 103.7M21.2449 81.6138L36.5218 20.1137M201.563 105.614C203.447 105.146 205.585 104.502 207.745 103.7M201.563 105.614C204.133 105.141 206.167 104.489 207.745 103.7M207.745 103.7C217.121 100.218 226.887 93.7416 217.852 85.6138M207.745 103.7C218.169 98.4873 208.637 87.2593 201.563 81.6138M217.852 85.6138C214.02 83.9471 205.396 80.8138 201.563 81.6138M217.852 85.6138C211.784 56.2804 194.593 24.1136 190.376 18.1136C186.16 12.1136 179.996 11.6136 177.441 12.1136L179.401 21.6137M201.563 81.6138L179.401 21.6137M36.5218 20.1137L71.7449 20.4835M179.401 21.6137L174.245 21.5596M68.2449 85.1138L71.2449 81.1138L77.7449 81.6138M68.2449 85.1138L75.2449 86.1137M68.2449 85.1138L69.2449 94.6138H76.2449M75.2449 86.1137L77.7449 81.6138M75.2449 86.1137L76.2449 94.6138M77.7449 81.6138L79.2449 93.1138L76.2449 94.6138M38.2449 63.6138L44.2449 59.1138V43.1137M38.2449 63.6138L32.7449 61.1138V45.6137M38.2449 63.6138V48.1137M44.2449 43.1137L38.2449 48.1137M44.2449 43.1137L41.8074 41.6137M38.2449 48.1137L32.7449 45.6137M32.7449 45.6137L34.2449 44.6137M34.2449 44.6137V43.1137M34.2449 44.6137L37.7449 46.6137M34.2449 43.1137L38.7449 39.6137L41.8074 41.6137M34.2449 43.1137L37.7449 44.6137M41.8074 41.6137V43.6137L37.7449 46.6137M41.8074 41.6137L37.7449 44.6137M37.7449 46.6137V44.6137M77.2449 24.6137L83.2449 20.1137V4.11374M77.2449 24.6137L71.7449 22.1137V20.4835M77.2449 24.6137V9.11374M83.2449 4.11374L77.2449 9.11374M83.2449 4.11374L80.8074 2.61374M77.2449 9.11374L71.7449 6.61374M71.7449 6.61374L73.2449 5.61374M71.7449 6.61374V20.4835M73.2449 5.61374V4.11374M73.2449 5.61374L76.7449 7.61374M73.2449 4.11374L77.7449 0.613739L80.8074 2.61374M73.2449 4.11374L76.7449 5.61374M80.8074 2.61374V4.61374L76.7449 7.61374M80.8074 2.61374L76.7449 5.61374M76.7449 7.61374V5.61374M162.878 10.6613L166.426 5.21474L174.784 6.75788M162.878 10.6613L170.745 12.1136M162.878 10.6613L163.038 21.442M174.784 6.75788L170.745 12.1136M174.784 6.75788L174.792 20.4875L171.426 24.9506M170.745 12.1136L171.426 24.9506M171.426 24.9506L163.067 23.4074L163.038 21.442M163.038 21.442L82.7449 20.599M10.7449 77.1137L17.2449 51.1137M14.7934 77.1137L19.2449 61.1138" stroke="black"/>
<path d="M70.7449 103.114L95.2449 88.1137L90.7449 83.1137H80.7449M83.2449 80.6137L84.2449 72.1137H89.7449L89.2449 80.6137H85.2449M69.2449 81.1137H64.7449L67.2449 71.6137H82.2449L80.7449 81.1137H78.7449M62.7449 90.1137L64.7449 83.1137H67.7449M60.7449 85.1137H34.7449L31.2449 97.6137L38.7449 100.114M28.2449 104.614L29.2449 101.114L36.7449 102.614L36.2449 104.614M25.2449 104.114L26.7449 100.114L13.7449 91.6137M16.7449 88.6137L27.7449 96.1137L36.2449 71.6137H25.7449M45.7449 49.1137L56.2449 50.1137L62.7449 43.6137C61.2449 43.6137 58.0449 42.9137 57.2449 40.1137H41.7449M32.7449 40.1137H34.7449M33.7449 37.6137H57.7449C57.9116 36.4471 58.4449 34.1137 59.2449 34.1137L38.2449 21.6137M45.2449 22.1137L47.2449 23.6137L47.7449 21.6137M52.7449 22.1137L51.7449 26.1137L62.2449 31.6137M81.2449 27.6137L88.7449 23.1137V22.1137M91.2449 22.1137V23.1137L114.745 22.6137M91.2449 48.6137L83.7449 44.1137C84.9116 43.4471 87.7449 41.6137 87.7449 40.1137H108.245L107.745 57.6137M114.745 62.1137L110.245 59.6137L110.745 40.6137H122.745V57.6137M77.2449 103.614L85.7449 98.6137L88.2449 100.114H106.745V103.114M108.745 104.114C108.745 103.314 109.412 90.4471 109.745 84.1137L118.745 78.1137H122.745V103.614M128.245 104.114V99.1137L147.745 98.6137V104.114M150.745 103.614V98.1137L159.745 90.6137L180.745 101.114L179.745 103.614M183.745 98.1137C183.345 98.1137 183.078 97.6137 178.245 95.1137M160.245 75.6137V71.6137H141.745C142.145 73.2137 140.578 75.2804 139.745 76.1137L151.245 82.6137M161.245 23.1137V24.1137L169.745 28.6137M175.745 38.6137H183.245L184.245 48.1137L178.745 48.6137L169.745 43.1137L173.745 40.1137M162.745 47.6137L161.245 49.1137L169.745 54.6137L177.745 50.1137C174.745 48.4471 168.745 45.0137 168.745 44.6137M127.245 55.1137L127.745 49.1137H140.745V59.6137L137.245 62.1137M173.745 72.1137L174.745 75.6137L187.745 82.1137C187.412 79.2804 186.745 73.2137 186.745 71.6137M163.745 72.1137H169.745L171.245 77.1137L188.745 86.1137L189.745 91.6137M174.745 61.1137L174.245 58.1137L172.245 55.6137L179.745 51.1137H184.245L187.245 68.1137H181.745M163.745 68.6137H162.745V62.1137L169.745 57.1137L171.245 58.1137L171.745 61.1137M193.745 91.6137L192.745 85.1137H200.745M197.745 82.6137H191.245L189.745 72.1137H192.745M191.245 68.1137H189.745L186.745 51.1137M30.2449 62.1137L29.2449 68.6137H36.7449L54.2449 52.1137L46.2449 51.6137M92.2449 81.1137L93.2449 72.1137H108.245C108.412 73.7804 109.445 77.1137 112.245 77.1137L98.2449 86.1137L92.2449 81.1137ZM68.2449 68.6137H82.7449L84.2449 57.6137H70.7449L68.2449 68.6137ZM71.2449 55.1137H88.2449L92.7449 57.1137L96.2449 54.6137L78.7449 44.1137H74.2449L71.2449 55.1137ZM85.2449 68.6137L86.7449 57.6137L92.2449 60.1137L91.2449 68.6137H85.2449ZM39.2449 71.6137L35.7449 82.1137H61.7449L64.2449 71.6137H39.2449ZM44.2449 68.6137L54.2449 57.1137L67.7449 57.6137L64.7449 68.6137H44.2449ZM68.7449 55.1137H56.2449L66.2449 44.1137H71.2449L68.7449 55.1137ZM89.7449 25.1137L82.2449 30.6137C85.2449 31.1137 88.5449 34.8137 87.7449 37.6137V38.1137H98.7449L99.2449 25.1137H89.7449ZM106.745 97.1137C106.745 96.3137 107.078 88.7804 107.245 85.1137L88.2449 97.1137L89.7449 98.1137H106.745V97.1137ZM148.745 96.1137C151.578 94.1137 157.145 90.0137 156.745 89.6137C156.345 89.2137 141.912 81.7804 134.745 78.1137H127.745L128.245 96.1137H148.745ZM141.745 68.6137H159.745L159.245 61.1137L167.745 55.6137L159.245 50.6137L140.245 64.6137C140.745 65.6137 141.745 67.8137 141.745 68.6137ZM101.745 38.1137V31.1137L123.245 31.6137V38.1137H101.745ZM101.745 29.1137V25.1137L123.245 24.6137V29.6137H101.745V29.1137ZM127.245 29.1137V24.1137L147.245 25.6137L147.745 29.6137H127.245V29.1137ZM127.245 32.1137V36.6137L148.745 35.1137L148.245 31.6137H127.245V32.1137ZM151.745 35.1137L150.245 25.6137L159.245 26.1137L168.245 30.6137V33.6137L151.745 35.1137ZM142.745 45.1137L154.245 36.6137L142.745 38.1137V45.1137ZM127.245 46.1137V38.1137H139.745L140.245 46.1137H127.245ZM143.245 57.6137L171.245 38.1137L169.745 35.6137L158.245 36.6137L143.245 48.1137V57.6137ZM94.7449 68.6137L95.2449 59.6137L99.2449 56.6137L111.245 64.6137C110.245 65.9471 108.345 68.6137 108.745 68.6137C109.145 68.6137 99.5782 68.6137 94.7449 68.6137Z" stroke="black"/>
</svg>
