<svg width="45" height="58" viewBox="0 0 45 58" fill="none" xmlns="http://www.w3.org/2000/svg">
<g clip-path="url(#clip0_19_617)">
<path d="M42 49L44 48.5V45.5C38.4 42.7 41.6667 40.3333 44 39.5V36.5C38.4 33.3 41.6667 30.8333 44 30V28.5V27.0263C41.6667 26.2076 38.4 23.7842 44 20.6404V17.693C41.6667 16.8743 38.4 14.5491 44 11.7982V8.85088L42 8.35965M41 51C40.8333 52.1667 41.2 54.6 44 55V57H39C38.8333 55.8333 38 54 36 54C34 54 33.1667 55.8333 33 57H30C30 54.6 27.6667 54 26.5 54C24.5 53.6 23.6667 55.8333 23.5 57H20.5C18.5 51.4 15.6667 54.6667 14.5 57H11C11 54.2 8.66667 53.8333 7.5 54M2.5 49L0.5 48.5V45.5C6.1 42.7 2.83333 40.3333 0.5 39.5L0.500008 36.5C6.10001 33.3 2.83334 30.8333 0.500008 30V28.5V27.0263C2.83334 26.2076 6.10001 23.7842 0.500008 20.6404L0.5 17.693C2.83333 16.8743 6.1 14.5491 0.5 11.7982V8.85088L2.5 8.35965M3.5 51C3.66667 52.1667 3.3 54.6 0.5 55L0.500008 57H5C4.83333 56.5 4.7 55.4 5.5 55M41 6.39474C40.8333 5.24854 41.2 2.85789 44 2.46491V0.5H39C38.8333 1.6462 38 3.44737 36 3.44737C34 3.44737 33.1667 1.6462 33 0.5H30C30 2.85789 27.6667 3.44737 26.5 3.44737C24.5 3.84035 23.6667 1.6462 23.5 0.5H20.5C18.5 6.00175 15.6667 2.7924 14.5 0.5H11C11 3.25088 8.66667 3.61111 7.5 3.44737M3.5 6.39474C3.66667 5.24854 3.3 2.85789 0.5 2.46491L0.500008 0.5H5C4.83333 0.991228 4.7 2.07193 5.5 2.46491M37.5 49.5V7.5H8V49.5H37.5Z" stroke="black"/>
<path d="M14.5 45.5L14.9354 44.5904M14.9354 44.5904C15.7728 44.2114 17.5021 43.4079 17.7198 43.226M14.9354 44.5904H16.8158L15.6398 43.1638M14.9354 44.5904L15.6398 43.1638M17.7198 43.226L18.5 41.6342M17.7198 43.226L17.3855 43.9082M17.7198 43.226L15.6398 43.1638M15.6398 43.1638L15.9459 42.5438M16.3947 41.6342V40.7246M16.3947 41.6342H17.0263M16.3947 41.6342L15.9459 42.5438M16.3947 40.7246V39.815H17.2368M16.3947 40.7246H17.0263M17.0263 41.6342V40.7246M17.0263 41.6342H17.6579M15.9459 42.5438H18.0789M17.2368 39.815H19.1316M17.2368 39.815L17.8263 37.541M17.2368 39.815L19.4811 37.9292M17.0263 40.7246H17.6579M17.6579 41.6342V40.7246M17.6579 41.6342H18.2895M25.2368 41.6342V40.7246M25.2368 41.6342H24.6053M25.2368 41.6342L25.6962 42.5438M25.2368 40.7246V39.815H24.6053M25.2368 40.7246H24.6053M24.6053 41.6342H23.9737M24.6053 41.6342V40.7246M25.6962 42.5438H23.5851M25.6962 42.5438L26.0406 43.226M24.6053 39.815H22.7105M24.6053 39.815L23.9316 37.541M24.6053 39.815L22.2895 37.541M24.6053 40.7246H23.9737M23.9737 41.6342H23.3421M23.9737 41.6342V40.7246M26.0406 43.226L26.5 44.1356C25.6579 43.8649 23.964 43.3039 23.9253 43.226M26.0406 43.226H23.9253M26.0406 43.226L24.6053 44.5904L24.2242 43.8256M23.1316 41.6342L23.9253 43.226M23.9253 43.226L24.2242 43.8256M24.2242 43.8256C21.2246 41.3946 18.4154 42.8677 17.3855 43.9082M17.3855 43.9082L17.0263 44.5904M19.1316 39.815H22.7105M19.1316 39.815C19.1387 39.778 18.2642 38.2836 17.8263 37.541M19.1316 39.815L19.4811 37.9292M17.8263 37.541L18.4158 35.267M17.8263 37.541L19.8301 36.0435M19.4811 37.9292L18.4158 35.267M19.4811 37.9292L19.8301 36.0435M22.7105 39.815L23.9316 37.541M22.7105 39.815L22.2895 37.541M18.4158 35.267H19.9737M18.4158 35.267L18.5632 34.6985M19.8301 36.0435L19.9737 35.267M22.9211 34.13H18.7105L18.6941 34.1942M22.9211 34.13L23.0895 34.6985M22.9211 34.13L23.3421 33.2204H18.5632M18.6941 34.1942L18.5632 34.6985M18.6941 34.1942L18.2895 33.2204H18.5632M23.0895 34.6985L23.2579 35.267M23.0895 34.6985H18.5632M18.5632 33.2204V32.7656H18.9211M23.2579 35.267L23.9316 37.541M23.2579 35.267L22.2895 37.541M23.2579 35.267H21.8684M18.9211 32.7656H22.7105M18.9211 32.7656L20.8158 30.719M18.9211 32.7656L19.1261 30.719M23.9316 37.541L21.8684 35.267M22.2895 37.541L21.8684 35.267M21.8684 35.267H19.9737M17.2368 45.5C18.2196 44.0598 20.9421 41.9071 23.9737 44.8178C24.4007 45.2093 24.5324 45.3806 24.3519 45.5M17.6579 40.7246H18.2895M23.9737 40.7246H23.5526H23.3421M18.2895 40.7246V41.6342M18.2895 40.7246H21.4474M18.2895 41.6342H18.9211M21.4474 40.7246V41.6342M21.4474 40.7246H22.079M18.9211 41.6342V40.952M18.9211 41.6342H19.5526M21.4474 41.6342H20.8158M21.4474 41.6342H22.079M22.079 40.7246V41.6342M22.079 40.7246H22.7105M19.5526 41.6342V40.952M19.5526 41.6342H20.1842M20.1842 41.6342V40.952M20.1842 41.6342H20.8158M20.8158 41.6342V40.952M22.079 41.6342H22.7105M22.7105 40.7246V41.6342M22.7105 40.7246H23.3421M22.7105 41.6342H23.3421M23.3421 40.7246V41.6342M22.7105 32.7656H23.0895H23.2579M22.7105 32.7656L20.8158 30.719M22.7105 32.7656L22.3606 29.2685M20.8158 30.719L19.2714 29.2685M20.8158 30.719L22.3606 29.2685M19.1261 30.719L19.2714 29.2685M19.1261 30.719L20.8158 32.7656L22.5 30.719L20.8158 29.3546M19.1261 30.719L20.8158 29.3546M22.3606 29.2685L22.2326 27.9902M19.2714 29.2685L20.6053 27.9902M19.2714 29.2685L19.3943 28.0393M20.8158 29.3546L19.3943 28.0393M20.8158 29.3546L22.2326 27.9902M19.7632 24.3518L19.8044 23.4422M19.7632 24.3518L20.8158 25.4888M19.7632 24.3518H20.8158M19.7632 24.3518L19.6402 25.581M19.8044 23.4422H21.8276M19.8044 23.4422C19.94 23.4422 21.1379 21.8553 21.7198 21.0618M19.8044 23.4422L19.8907 21.5264L19.9118 21.0618M20.8158 25.4888L21.8684 24.3518M20.8158 25.4888L22.1147 26.8102M20.8158 25.4888L19.5173 26.8102M20.8158 24.3518H21.8684M20.8158 24.3518L21.9918 25.581M20.8158 24.3518L19.6402 25.581M19.6402 25.581L19.5173 26.8102M19.6402 25.581L20.8158 26.8102M21.8276 23.4422L21.8684 24.3518M21.8276 23.4422L21.7198 21.0618M21.8276 23.4422L19.9118 21.0618M21.7198 21.0618L19.9775 19.6106M21.7198 21.0618L21.6604 19.7411M19.9118 21.0618L19.9775 19.6106M19.9118 21.0618L21.6604 19.7411M21.8684 24.3518L21.9918 25.581M22.1147 26.8102L21.9918 25.581M22.1147 26.8102L21.0263 27.9902M22.1147 26.8102L22.2326 27.9902M19.5173 26.8102L20.6053 27.9902M19.5173 26.8102L19.3943 28.0393M21.9918 25.581L20.8158 26.8102M20.8158 26.8102L19.3943 28.0393M20.8158 26.8102L22.2326 27.9902M20.1842 13.8914H19.9737V14.5736M20.1842 13.8914V13.2092L20.8158 12.527M20.1842 13.8914H21.4474M19.9737 14.5736V14.801L20.1842 15.0284L20.1505 15.7789M19.9737 14.5736H21.6579M20.8158 12.527L21.4474 13.2092V13.8914M20.8158 12.527V9.5M21.4474 13.8914H21.6579V14.5736M20.1505 15.7789H21.4815M20.1505 15.7789L20.092 17.075M20.1505 15.7789L21.5413 17.0997M21.6579 14.5736V14.801L21.4474 15.0284L21.4815 15.7789M21.4815 15.7789L20.092 17.075M21.4815 15.7789L21.5413 17.0997M20.092 17.075L21.6006 18.4204M20.092 17.075L20.0347 18.3428M21.5413 17.0997L21.6006 18.4204M21.5413 17.0997L20.0347 18.3428M21.6006 18.4204L19.9775 19.6106M21.6006 18.4204L21.6604 19.7411M20.0347 18.3428L19.9775 19.6106M20.0347 18.3428L21.6604 19.7411M20.6053 27.9902H21.0263M21.0263 27.9902L22.2895 29.2685" stroke="black" stroke-width="0.5"/>
<path d="M33.1897 46.5296C32.9378 46.0413 32.0297 46.3755 31.8772 47.0601C31.8181 47.3254 31.3708 45.4239 30.3088 47.0442C29.2467 48.6646 30.8534 44.8749 28.2148 47.295M20.5237 46.4135C20.5319 45.598 20.9115 44.2426 22.3644 45.3447C22.7914 44.4791 23.7659 44.6339 24.1997 44.8195C24.1163 44.4562 24.2624 43.7871 25.515 44.0172C26.1533 42.9363 27.1751 43.5809 27.6062 44.0383L28.6518 44.0489C29.0086 43.2369 30.0842 41.9973 31.5328 43.5343C32.1842 41.1486 33.2093 41.467 33.6404 41.9244C34.0851 42.4735 34.1954 43.0193 33.999 44.6657C35.0364 43.7213 36.0647 43.4262 36.4779 43.8394M21.0219 48.8652C20.6124 47.9911 21.2107 47.4172 21.5611 47.2395C21.6912 46.2678 23.2373 45.7452 23.1323 46.9835C24.1779 46.9941 23.6387 48.6198 23.636 48.8916M24.7007 46.9994C25.1382 46.8226 25.9576 46.7946 25.7354 48.0972C25.917 47.3741 26.4342 46.2013 27.0506 47.295C27.4711 47.0817 27.745 47.5738 27.8294 47.8465M11.7564 46.9044L11.7509 47.448M11.7509 47.448L11.7372 48.8071M11.7509 47.448C11.2281 47.4428 10.2358 47.324 10.4493 46.8912C9.91013 46.6925 9.21052 45.9428 10.3209 45.8039C9.81904 45.674 8.79205 43.5406 10.4493 44.2525C10.4113 43.7771 11.3776 43.107 11.7864 43.9143C12.2266 43.4657 13.051 42.9484 12.8266 44.4685C13.8787 43.8267 13.2559 45.1072 12.8129 45.8276C13.6026 45.2919 13.0634 46.9176 12.802 46.9149C13.0045 47.5694 12.1857 47.543 11.7509 47.448ZM15.2901 46.9044L15.2846 47.448M15.2846 47.448L15.2709 48.8072M15.2846 47.448C14.7618 47.4428 13.7695 47.324 13.983 46.8912C13.639 46.4346 13.1596 45.578 13.994 45.8039C13.9967 45.5321 13.2316 43.6214 14.269 44.4474C14.5359 43.9064 15.1197 43.0424 15.3201 43.9143C15.7603 43.4657 16.5847 42.9484 16.3603 44.4685C17.4125 43.8267 16.7896 45.1072 16.3466 45.8276C17.1363 45.2919 16.5971 46.9176 16.3357 46.9149C16.5383 47.5694 15.7194 47.543 15.2846 47.448ZM17.1472 44.2046C17.67 44.2099 18.6612 44.4374 18.4433 45.3051C19.1562 45.3123 18.9983 45.9846 19.1579 46.313M19.1579 46.313C19.1739 46.3459 19.1931 46.3753 19.2166 46.4003C19.1963 46.3679 19.1768 46.3389 19.1579 46.313ZM19.1579 46.313C18.7001 45.6839 18.6679 46.917 18.171 46.3898C17.7571 45.9506 16.9493 46.5587 16.5971 46.9176" stroke="black" stroke-width="0.7"/>
</g>
<defs>
<clipPath id="clip0_19_617">
<rect width="45" height="58" fill="white"/>
</clipPath>
</defs>
</svg>
