<svg width="147" height="83" viewBox="0 0 147 83" fill="none" xmlns="http://www.w3.org/2000/svg">
<path d="M11.4675 31.3501C6.264 36.3214 -2.86192 46.039 3.90268 43.4453C7.51306 42.061 11.6431 40.2388 15.9214 38.0827C24.14 33.9406 32.9054 28.5661 39.5832 22.6953C44.0836 18.7388 47.6359 14.5569 49.4337 10.375C50.0052 8.23829 44.3602 7.52185 34.4735 14.2656L35.5575 15.5625C37.1475 14.6979 40.3274 13.2281 40.3274 14.2656C40.3274 15.3031 38.5343 17.3738 37.6377 18.2794C33.8644 23.4796 20.1125 32.0185 13.6593 35.664C12.913 34.5767 12.106 33.0834 11.4675 31.3501Z" fill="black"/>
<path d="M34.4735 14.2656C44.3602 7.52185 50.0052 8.23829 49.4337 10.375C47.6359 14.5569 44.0836 18.7388 39.5832 22.6953M34.4735 14.2656C27.3186 7.13277 18.8628 10.375 18.2124 11.6719C17.692 12.7094 15.8274 14.2656 14.9602 14.914C7.15486 21.6578 10.8407 31.5573 13.6593 35.664M34.4735 14.2656L35.5575 15.5625M13.6593 35.664C20.1125 32.0185 33.8644 23.4796 37.6377 18.2794M13.6593 35.664C12.913 34.5767 12.106 33.0834 11.4675 31.3501C6.264 36.3214 -2.86192 46.039 3.90268 43.4453C7.51306 42.061 11.6431 40.2388 15.9214 38.0827M35.5575 15.5625L37.7257 18.1562C37.697 18.1971 37.6676 18.2382 37.6377 18.2794M35.5575 15.5625C37.1475 14.6979 40.3274 13.2281 40.3274 14.2656C40.3274 15.3031 38.5343 17.3738 37.6377 18.2794M15.9214 38.0827C18.8532 39.8702 25.6274 42.6672 29.2699 39.5547C32.9124 36.4422 34.6903 35.2318 35.1239 35.0156C37.4463 32.2057 41.5896 25.8078 39.5832 22.6953M15.9214 38.0827C24.14 33.9406 32.9054 28.5661 39.5832 22.6953M14.9602 23.9922L14.3097 26.5859H16.9115L18.2124 25.289V22.6953L15.9214 22.0469L14.5761 22.6953M22.3916 25.289C22.0826 24.4245 22.2451 22.5656 25.3673 22.0469C28.4894 21.5281 28.8363 19.3191 28.6195 18.2794M23.4159 16.2109L22.3916 14.2656L24.7168 12.9687L26.0177 14.914L24.3993 18.1562L22.3916 17.5078L20.1637 16.2109M26.0177 36.9609L27.3186 34.3672H29.9203V36.3125L28.6195 36.9609" stroke="black"/>
<path d="M130.739 27.8828L127.487 36.9609L130.739 35.6641L136.593 29.8281V23.9922L130.739 27.8828Z" fill="black"/>
<path d="M112.527 24.6406V22.0469L117.73 14.2656L122.934 12.9688L118.381 20.75L112.527 24.6406Z" fill="black"/>
<path d="M118.381 29.1797V23.9922L110.575 29.1797V21.3984L115.128 12.9688L123.584 9.72656L128.788 2.59375H135.292L143.748 1.29688L145.049 7.78125L144.398 12.3203L139.195 21.3984V30.4766L131.389 38.2578L124.235 40.2031L126.836 32.4219L124.235 33.0703L122.283 31.7734M118.381 29.1797C118.164 29.3958 116.169 30.0875 112.527 31.125C108.884 32.1625 105.372 33.2865 104.071 33.7188L102.77 40.2031L106.022 35.6641L111.876 34.3672L106.022 38.2578L104.071 47.3359L108.624 41.5L110.575 40.8516L108.624 44.7422L106.022 47.9844C106.239 48.6328 106.412 50.5781 105.372 53.1719C104.331 55.7656 104.504 55.5495 104.721 55.1172C106.022 53.8203 108.754 50.8375 109.274 49.2812C109.795 47.725 111.659 46.9036 112.527 46.6875L115.128 41.5V46.6875C114.044 47.9844 111.876 50.8375 111.876 51.875C111.876 52.9125 116.212 49.7135 118.381 47.9844L120.332 44.0938V36.3125L122.283 39.5547L123.584 36.9609L122.283 31.7734M118.381 29.1797L122.283 31.7734M130.739 27.8828L127.487 36.9609L130.739 35.6641L136.593 29.8281V23.9922L130.739 27.8828ZM112.527 24.6406V22.0469L117.73 14.2656L122.934 12.9688L118.381 20.75L112.527 24.6406ZM124.885 29.1797L120.332 26.5859V22.0469L130.739 6.48438L140.496 4.53906L141.796 9.07812L141.146 13.6172L135.292 21.3984L124.885 29.1797Z" stroke="black"/>
<path d="M59.1903 73.9219V80.4063L58.5398 81.0547C51.6018 79.1094 37.7257 71.0688 37.7257 54.4688C37.7257 33.7188 55.9381 24.6406 66.3451 23.9922C76.7522 23.3438 96.9159 32.4219 96.2655 50.5781C95.615 68.7344 84.5575 77.8125 76.1018 80.4063H74.8009L74.1504 68.7344L72.1991 66.1406C76.3186 66.1406 84.8177 63.8063 85.8584 54.4688C87.1593 42.7969 81.9558 46.6875 82.6062 43.4453C83.2566 40.2031 83.2566 37.6094 82.6062 36.3125C82.0858 35.275 77.1858 37.6094 74.8009 38.9063C71.9823 38.0417 65.0442 36.8313 59.8407 38.9063C57.8894 37.6094 53.5965 35.275 52.0354 36.3125C50.4743 37.35 50.9513 41.5 51.385 43.4453C49.6504 45.3906 46.7018 50.5781 48.7832 55.7656C51.385 62.25 53.3363 64.1953 61.1416 66.1406L59.8407 70.0313C58.323 70.4636 54.7673 70.8094 52.6858 68.7344C50.0841 66.1406 49.4336 62.8985 44.8805 65.4922C44.4469 65.9245 44.1 66.7891 46.1814 66.7891C48.2628 66.7891 50.0841 70.2474 50.7345 71.9766C52.0354 73.2735 52.4257 74.4406 59.1903 73.9219Z" fill="black" stroke="black"/>
</svg>
