<svg width="412" height="237" viewBox="0 0 412 237" fill="none" xmlns="http://www.w3.org/2000/svg">
<g>
<rect width="412" height="237" fill="white"/>
<path d="M411 237H0V0H411V237Z" fill="white" fill-opacity="0.59"/>
<path d="M6 133H-1.5L-2 -2.5H414L413 120.5H407V97.5L401 96.5V88.5H391.5V96.5L388 97.5L388.5 131.5H375.5V124.5H356V128.5H354L353.5 125.5H339V128.5H335.5V171.5H285V116.5L286.5 114.5L286 86.5L282.5 76.5L280.5 81.5L278 82L273.5 65L268 81.5L265.5 82L263.5 76L260 87V115L261.5 116.5L261 144.5H254L254.5 140.5L255 129.5L253 103.5L251.5 92L249.5 82L245.5 70C245.167 69.5 238.9 59.4 238.5 59C238.1 58.6 237 58.5 236.5 58.5L234 59L230 64.5L225.5 74.5L225 76.4L220.5 93.5L218 112V126.5H217H214.5V132H207.5V143.5H202.5L202 100.5H203V78H201.5V71.5C199.833 68.3333 196.5 61.4 196.5 61V52.5L192 36L187 53V61L182 71.5V77.5H180V100.5H181.5L182 142H177.536V131.356L177.5 131.5V129.5L175.5 121.5L174.5 129.5V140H172V136L171 133L170 135.5V139.5C170 140.3 166.667 139.833 165 139.5V135.5L163.5 132L162.5 135.5V139.5C162.5 139.9 158.833 139.667 157 139.5V135.5L156 132L154.5 135.5V139.5H151V117.5L152 116V115.5V103V87.5L148.5 77L146.5 82.5H143.5L139 65.5L134.5 82.5H131.5L129.5 77L126 88V102H125.5H109V111H105.5V130L104.5 130.5L89 33L86.5 15L84 8V29.5L81.5 13L69 115.5L66.5 115L61.5 116.5V96.5L54 94.5L39.5 97V89H36V84H33.5L30 85L32 84.5V88.5L25.5 91.5V96.5H23.5V102H25.5V129.5H22.5V127L16.5 128.5V114.5H6V133Z" fill="white" id="city-skyline"/>
<path d="M169 194C169.5 194 171 195.5 176.5 194.5C182 193.5 179.5 191 189 193C198.5 195 196.5 196.5 204 195C211.5 193.5 211 193.5 215 194C219 194.5 220.5 194 224 193.5C227.5 193 229 194 232 194C235 194 237 193 237.5 192.5M196 209C196.5 209 198 207.5 203 207.5C208 207.5 209.5 209.5 211.5 209.5C213.5 209.5 215.5 207 218.5 207.5C221.5 208 227 211.5 233 208.5M224.5 220C226.5 220.167 231 220.1 233 218.5C235.5 216.5 239 221 243 220.5C247 220 248 217.5 252 218C256 218.5 256 219 258.5 219.5C261 220 264 220 265.5 219.5M261.5 211C262.5 211 265 208.5 270 209.5C275 210.5 273 211.5 276 211C278.4 210.6 281 209.833 282 209.5M315.5 193C316.667 193.5 319.8 194.3 323 193.5C326.2 192.7 328.667 193.167 329.5 193.5C330.333 194 332.6 194.9 335 194.5C338 194 342 192 345 192.5C348 193 347.5 195.5 352.5 195C357.5 194.5 359.5 192 364.5 192.5C369.5 193 369 196 375.5 194.5C382 193 382 189.5 387.5 192C393 194.5 396 194 399.5 193C403 192 404 193.5 406 193.5C408 193.5 408.5 193.5 410 193M391.5 204.5C395.1 202.9 397.333 203.167 398 203.5C398.167 203.833 399 204.4 401 204C403 203.6 404.167 203.167 404.5 203M398 214C398.833 213.167 400.8 211.7 402 212.5C403.5 213.5 404.5 215 407.5 214C409.9 213.2 410.5 212.667 410.5 212.5M316 207.5C316.5 207.5 330.5 208.5 330.5 202.5C330.5 197.7 327.833 200.167 326.5 202L321.5 215L319 219.5C317.5 221.333 314.3 224.2 313.5 221C312.7 217.8 316.167 217 318 217C318.833 216.833 320.9 217 322.5 219C324.1 221 326.833 221.167 328 221L332.5 218.5M332.5 218.5C332.667 219 333.2 220 334 220C335 220 336.5 220.5 338 217.5C339.5 214.5 339 212 338.5 212C338.07 211.57 336.164 211.141 334.685 212.297M332.5 218.5C332 217.5 333.5 213 334 213C334.211 212.718 334.442 212.486 334.685 212.297M334.685 212.297C334.456 213.365 334.7 215.3 337.5 214.5C341 213.5 342.5 210.094 343.5 212.297C344.3 214.059 343.5 218.167 343 220C344.333 216.031 347.3 208.934 348.5 212.297C350 216.5 345.5 220 349.5 218.5C353.5 217 353 215.5 355.5 214M355.5 214C358 212.5 359.5 211.5 360.5 212.5C361.3 213.3 363.833 206.167 365 202.5C364.032 205.242 362.503 209.287 361 212.688M355.5 214C354.833 215 353.6 217.2 354 218C354.5 219 355 219.5 357 219C357.826 219.206 359.397 216.314 361 212.688M361 212.688C360.167 215.292 359.2 220.1 362 218.5C364.435 217.108 365.902 213.538 367.58 212M367.58 212C368.314 211.328 369.087 211.044 370 211.5C372.4 212.7 372.333 216 372 217.5C371.5 219 370 221.6 368 220C366.094 218.475 366.81 214.407 367.482 212.297M367.58 212C367.548 212.094 367.515 212.193 367.482 212.297M367.482 212.297C367.321 212.865 367.4 214 369 214C371 214 378 212.5 378.5 211.5C378.9 210.7 377 216.833 376 220C377.5 216 381.8 209.3 383 212.5C384.2 215.7 383 218 383 219C383 220 382.6 221.5 385 219.5C387.4 217.5 389 216.333 389.5 216" stroke="black"/>
<path d="M236.5 168C236.5 167 235.5 152.5 236.5 152.5C237.3 152.5 243.5 152.5 246.5 152.5V145H254M257 145H254M214.5 166.5C214.5 166.154 214.5 146.366 214.5 132.5M216 126.5H214.5C214.5 128.288 214.5 130.321 214.5 132.5M214.5 132.5C214.1 132.5 209.333 132.5 207 132.5V143.5M207 143.5H202M207 143.5H208.5V169.5M203.5 147.5H206.5M204 150.5H206M204 153.711H206.5M204 156.5H206M204 159.5H206.5M221.5 168C219.5 161.2 218.333 142.5 218 134C217.833 131.167 217.6 122.8 218 112C218.4 101.2 221.5 88.5 223 83.5C224.5 77 228.9 63 234.5 59C240.1 55 247.167 73.6667 250 83.5C252.5 101.5 256.8 139 254 145" stroke="black"/>
<path d="M82.5 205C85.4387 204.866 88.5391 204.777 91.7095 204.724M82.5 205C82.5 208.167 82.5 214.6 82.5 215M82.5 205C78.5917 205.178 75.285 205.622 72.5 206.238M128.5 215H120.5M120.5 215V205M120.5 215H111M111 215C111 214.6 111 208.011 111 204.766M111 215L101.5 215M111 204.766C120.151 204.93 128.286 205.252 133 205.5C139.5 206.833 152.6 210.5 153 214.5C153 214.9 153 217 153 218M111 204.766C107.918 204.711 104.721 204.674 101.5 204.664M101.5 204.664V215M101.5 204.664C98.2284 204.653 94.9328 204.67 91.7095 204.724M101.5 215L91.5 215M91.5 215L91.7095 204.724M91.5 215L82.5 215M82.5 215L72.5 215M72.5 215L59 215C59.389 212.666 62.7434 208.396 72.5 206.238M72.5 215V206.238M44.5 217.5V221.5M37 231C36.3333 230.667 35 229.3 35 226.5M167 219.5C166.026 218.201 163.629 215.986 159.579 213.5M155 203.5C165.167 206.833 184.9 214.4 182.5 218M155 203.5C154.482 203.517 153.982 203.535 153.5 203.554M155 203.5C151.8 202.41 147.667 201.713 146 201.5C134.5 201 111.4 200 111 200M153.5 210.234C150.044 208.601 145.897 206.969 141 205.5C140.521 205.021 142.429 203.991 153.5 203.554M153.5 210.234V203.554M153.5 210.234C155.157 211.017 156.655 211.801 158 212.567M158 212.567V206.5C162.5 207.833 171.2 211 170 213M158 212.567C158.552 212.881 159.078 213.193 159.579 213.5M159.579 213.5C160.716 213.1 166 213.333 168.5 213.5M166 215C166.8 215.4 174.667 216.5 178.5 217M19 226.5C19.3333 226.333 20.6 226 23 226C26 226 24.5 227.5 28 226M6 206.5C6.66667 205.445 8.6 203.469 11 204C14 204.664 13.5 208 18 206.5C21.6 205.3 24.8333 205.825 26 206.238M13 231C13.5 230.5 15.2 229.6 18 230C21.5 230.5 21 231 22 231C23 231 24.5 229.5 27 230C29.5 230.5 31 232 32.5 231M36 231.5C36.8333 230.833 39.3 229.6 42.5 230C46.5 230.5 46.5 231 49.5 231C52.5 231 56 229.5 57.5 230C59.1 230 62.1667 231 63.5 231.5C64 231.833 65.5 232.4 67.5 232C70 231.5 70.5 230 75.5 230.5C80.5 231 81 232 84.5 231.5C88 231 87.5 229.5 91 230C94.5 230.5 96 233 100 231.5C104 230 102 230 105.5 230C109 230 109.5 232.5 115.5 231.5C121.5 230.5 122 230 126.5 230.5C131 231 131 233 137.5 231.5C144 230 146.5 231 148.5 231.5C150.5 232 150.5 231 154 230.5C156.8 230.1 159.5 232 160.5 233" stroke="black"/>
<path d="M1 193C1.83333 192.167 4.1 190.6 6.5 191C9.5 191.5 8.5 195 16 194C22.8 191.6 25.8333 191.667 26.5 192C29 193.167 35.2 194.8 40 192C42.5 191 45 193 50.5 193C56 193 53.5 190 62 192C70.5 194 73 193 73.5 193" stroke="black"/>
<path d="M169 191.064C160.5 189.064 163 192.064 157.5 192.064C152 192.064 149.5 190.064 147 191.064C142.2 193.864 136 192.231 133.5 191.064C132.833 190.731 129.8 190.664 123 193.064C121.667 192.586 118.1 191.916 114.5 193.064" stroke="black"/>
<path d="M301.5 189.687C293 187.687 295.5 190.688 290 190.688C284.5 190.688 282 188.688 279.5 189.687C274.7 192.487 268.5 190.854 266 189.687C265.333 189.354 262.3 189.288 255.5 191.687C254.167 191.209 250.6 190.539 247 191.687" stroke="black"/>
<path d="M259.5 186.5C260 186 272.5 176.5 287 186.5M125 186C125.5 185.5 138 176 152.5 186M219 120C220 118.5 218 121 222.5 114M218.5 134.5C220 131.333 224.2 123.3 229 116.5M219 147C224 138.667 235.3 120.3 240.5 113.5M221 159C223.333 153.833 229.8 141.2 237 132C246 120.5 247.5 115 248 114M225 167.5C225 166.5 229 157 238 143C247 129 254 119.5 254 117M247.5 143C247.943 142.113 252.317 136.118 254 131.284M254.5 129.5C254.387 130.067 254.215 130.666 254 131.284M252 142C252 141.5 246.5 130.5 243 125.5C239.5 120.5 234.5 116 234.5 113.5M243.5 113.5C244 114 254 129.069 254 131.284M226 113.5C226.5 114.5 229.5 121 235.5 129C241.5 137 244.5 142.5 245 144.5M220 114C221.833 119.333 226.4 131 230 135C234.5 140 240 150.5 240 151M218.5 127.5C220.667 133.333 226.8 147.4 234 157M220 146.5C221.333 149.833 225.5 158.7 231.5 167.5" stroke="black"/>
<path d="M254 185C248.5 182.833 231.1 178.2 205.5 177C186.3 177 166.167 182.333 158.5 185" stroke="black"/>
<path d="M25.5 91.5C27.5 91.5 31.6 91.5 32 91.5C32.4 91.5 35.1667 89.8333 36.5 89" stroke="black"/>
<path d="M225 76C227.684 75.5973 234.152 75.065 241.791 75.4997M247.5 76C245.553 75.7664 243.638 75.6048 241.791 75.4997M226 73.5C230 73 239.8 72.3 247 73.5M244 101.517C236.4 92.3167 231.5 80.35 230 75.5167C229.5 78.5334 222 89.5 221.5 89.5M250.5 101.339C242.9 92.1385 238 80.1718 236.5 75.3385C236.5 78.0093 226.5 93.9035 221.5 101.517M242.5 75.5426C243.357 78.3311 246.157 85.2349 250.5 90.5426M250.5 90.5L251 91M225 76.5C226.071 81.1474 229.571 92.6538 235 101.5M223 91C223.429 93.0449 224.829 98.1077 227 102M229.5 101.5C234.027 94.6664 242.823 79.8994 241.791 75.4997M237.5 101.5C240.833 97.3333 247.3 86.6 246.5 77M246.5 101.517C247.167 101.178 248.7 99 249.5 93M154 143.5H160.5V148.5M160.5 167.5V163.5M154.5 163.5H160.5M160.5 163.5V158.5M154.5 158.5H160.5M160.5 158.5V153.5M156 153.5H160.5M160.5 153.5V148.5M156 148.5H160.5M172 143.5H169M163.5 167.5V163.5M173.5 143.5V167.5M177.5 142V169M164 149H170.5M163.5 153.5V143.5H169M163.5 153.5H170M163.5 153.5V158.5M170 158.5H163.5M163.5 158.5V163.5M170 163.5H163.5M169 143.5V167" stroke="black"/>
<path d="M363.5 121.5C397 53 302 30.5 284.5 75L282 84L274 81L276.5 73C298.5 19 406 41.5 371.5 123L370 126.5L360.5 126L363.5 121.5Z" fill="white"/>
<path d="M29 166.5L29.5 169C30 169.5 31.1 170.5 31.5 170.5H33.5M29 166.5L29.5 165.5H32.5L34 166.5C36.5692 166.179 39.7778 165.561 43.5 164.593M29 166.5C27.1677 166.369 24.1689 165.971 20.5 165.197M126 113C122.87 116.378 119.697 119.563 116.5 122.564M34 169C51.1667 171 93.6 163.2 126 116M0.5 158.5C3.50502 159.951 6.55253 161.164 9.5 162.172M28 169C26.5 169 26 170 0.5 166.5M9.5 173.5V162.172M9.5 162.172C13.4631 163.527 17.2452 164.51 20.5 165.197M20.5 173.5V165.197M43.5 173.5V164.593M43.5 164.593C46.7936 163.737 50.4893 162.606 54.5 161.163M54.5 173V161.163M54.5 161.163C57.8027 159.976 61.3189 158.576 65 156.945M65 173V156.945M65 156.945C68.6845 155.312 72.5341 153.447 76.5 151.328M76.5 173V151.328M76.5 151.328C79.9238 149.499 83.4342 147.482 87 145.261M87 173V145.261M87 145.261C90.4576 143.108 93.9671 140.765 97.5 138.22M97.5 173V138.22M97.5 138.22C100.819 135.829 104.158 133.259 107.494 130.5M107.494 130.5V173M107.494 130.5C110.504 128.011 113.512 125.368 116.5 122.564M116.5 173V122.564M31 168.5L32 169L32.5 168.5L33 167.5L32.5 167H31L30.5 167.5L31 168.5Z" stroke="black"/>
<path d="M383 166.1L382.5 167.6C382 167.9 380.9 168.5 380.5 168.5H378.5M383 166.1L382.5 165.5H379.5H380.5C377.931 165.307 372.222 163.927 368.5 162.995M383 166.1C381.25 166.55 387.831 164.321 391.5 163.576M286 113C289.13 116.378 292.303 119.677 295.5 122.564M378 167.6C360.833 168.8 318.4 163.2 286 116M411.5 157.5C408.495 158.951 405.447 159.697 402.5 160.666M384 167.6C385.5 167.6 386 170 411.5 166.5M402.5 171.564V160.666M402.5 160.666C398.537 161.97 394.755 162.915 391.5 163.576M391.5 171.564V163.576M368.5 171.564V162.995M368.5 162.995C365.206 162.171 361.511 161.084 357.5 159.696M357.5 171.083V159.696M357.5 159.696C354.197 158.553 350.681 157.207 347 155.638M347 171.083V155.638M347 155.638C343.316 154.067 339.466 152.273 335.5 150.235M335.5 171.083V150.235M335.5 150.235C332.076 148.475 328.566 146.534 325 144.398M325 171.083V144.398M325 144.398C321.542 142.327 318.033 140.073 314.5 137.625M314.5 171.083V137.625M314.5 137.625C311.181 135.324 307.842 132.852 304.506 130.198M304.506 130.198V171.083M304.506 130.198C301.496 127.804 298.488 125.261 295.5 122.564M295.5 171.083V122.564M381 167.3L380 167.6L379.5 167.3L379 166.7L379.5 166.4H381L381.5 166.7L381 167.3Z" stroke="black"/>
<path d="M192 36C192 34.4 192 30.3333 192 28.5" stroke="black"/>
<path d="M335.5 148V128.5H339M339 128.5V125.5H354V128.5M339 128.5H344.5M354 128.5H356.5M354 128.5H344.5M356.5 128.5V124.5H375V131.5M356.5 128.5V156M375 131.5H388.5M375 131.5V161M388.5 131.5V97H391.5M388.5 131.5H391.5M391.5 97V88.5H401V97L407 97.5V121M391.5 97V131.5M411.5 121H399V157.5M394.5 131.5H391.5M395.5 133V162M344.5 153V128.5M364 129V159M367.5 129V154M371.5 129V159M377 136.5C377.8 136.5 388 136.5 393 136.5M349 132V134.5M353 132V134.5M349 137.5V140M353 137.5V140M349 143.5V146M353 143.5V146M349 149V151.5M353 149V151.5M403 147H407M401.5 141.5H408.5M402 136.5H409M402 130.5H409.5M401.5 126H410M74.5 119.5V146M69.5 143.5C69.9 143.5 74 143.5 76 143.5M68 138H76.5M69 132.5L78 133M68 126.5C68.8 126.9 75 127.333 78 127.5M68 121.5L77.5 122" stroke="black"/>
<path d="M187 61H196.5M187 53.5H196.5M181.5 77.5C181.9 77.5 194.667 77.5 201 77.5M182 71.5C182.4 71.5 194.833 71.5 201 71.5M182 118H201.5M201.5 121.5H181.5M181.5 135H202M202 138H181.5M181.5 152H202M202 155.5H181.5M74 113.5C74 112.3 77.6667 65.3333 79.5 42M84 29L85.5 113.5L85 131.5M82 131.5H87V139.5M96 132L90.5 53.5M4 136C4 136.8 4 149 4 155M9 136.5C9 136.9 9 149.667 9 156M13.5 136.5V159M15.5 153.5C14.7 153.1 5.5 153.333 1 153.5M1 147.5H15.5M1 143H15.5M1 138.5H15.5M30.5 146.5H39.5M55 146.5H52M52 146.5V157.5M52 146.5H45M45 146.5V160M45 146.5H39.5M46.5 154H30.5M33 148V160M33 161.5V160M33 160H30M39.5 146.5V160M25.5 102H31.5M25.5 96.5H31.5M32.5 102V136M36 104.5V139M28 141.5L55 141M42 127.5C42.4 127.9 49.1667 127.667 52.5 127.5M42 118.5C43.2 118.5 49.5 117.833 52.5 117.5M43 109C44.2 109.4 49.5 108.5 52 108M41 100.5L53.5 99L60 100M55.5 108C56.3 108 58.8333 108.667 60 109" stroke="black"/>
<path d="M191.5 84V88.5L194 90.5M190.5 56.5V61M189 56.5V61M192 56.5V61M193.5 56.5V61M195 56.5V61M184 96H199H199.5V80.5H184V96Z" stroke="black"/>
<path d="M181.5 169V112M181.5 103V100.5M181.5 100.5H180V77.5H182V71.5L187 61V53L192 36L196.5 53V61L201.5 71.5V78H203V100.5H201.5M181.5 100.5H201.5M201.5 100.5L202 169V170.5M188 97.5V99.5M185.5 97.5V99.5M190.5 97.5V99.5M193 97.5V99.5M195.5 97.5V99.5M198 97.5V99.5M188.1 74V78M185.5 74V78M190.7 74V78M193.3 74V78M195.9 74V78M198.5 74V78M187.6 113.5V116.5M185 113.5V116.5M190.2 113.5V116.5M192.8 113.5V116.5M195.4 113.5V116.5M198 113.5V116.5M187.6 123V134M185 123V134M190.2 123V134M192.8 123V134M195.4 123V134M198 123V134M187.6 139.5V150.5M185 139.5V150.5M190.2 139.5V150.5M192.8 139.5V150.5M195.4 139.5V150.5M198 139.5V150.5M187.6 157.5V166.5M185 157.5V166.5M190.2 157.5V166.5M192.8 157.5V166.5M195.4 157.5V166.5M198 157.5V166.5" stroke="black"/>
<path d="M153.5 139.5H154.5V135.5L156 132L157.5 135.5V139.5H162.5V135.5L163.5 132L165 135.5V139.5H170V135.5L171 132L172 135.5V140H174.5V129.5L175.5 121.5L177.5 129V142H182" stroke="black"/>
<path d="M1 133H6M6 133V114.5H9.5M6 133H15.5M9.5 114.5V130M9.5 114.5H16.5V128.5M16.5 128.5L15.5 129V133M16.5 128.5L22.5 127V130M15.5 133H18.5V161.5M22.5 130V149.5H28V130H22.5ZM25.5 129.5V102H23.5V96.5H25.5V91.5L32 88.5V84.5L29 85.5L33.5 84H36M37 84H36M36 84V89H39.5V97L39.5019 97.156M40 138.5L39.5019 97.156M39.5019 97.156L54 94.5M54 94.5L54.5 138M54 94.5L61.5 96.5V116.5M61.5 116.5L57.5 118V155.5M61.5 116.5L66.5 115M66.5 115V152M66.5 115L69 115.446M80.5 143V117.5L69 115.446M69 115.446L81.5 13L84 29C83.8333 21.6667 83.6 7.2 84 8C84.4 8.8 85.8333 13 86.5 15L104.5 131M106 130V111H109V124V102H122.5" stroke="black"/>
<path d="M211 111.5H152.5H152V108V103H152.5H175V102H180V103H201V100L203.5 102.5L206 98.5L209 102L211 100.5V103.5H232V102.5H236.5V103.5H259.5H260V111.5H259.5H211Z" fill="white"/>
<path d="M259.5 108H211M211 111.5H152.5H152V103H152.5H175V106M211 111.5H259.5H260V103.5H259.5H236.5M211 111.5V100.5L209 102L206 98.5L203.5 102.5L201 100V103M201 111V103M200.5 108H175M152 108H175M175 108V106M180 107.5C180 107.2 180 105.189 180 103.5C180 103.329 180 103.162 180 103M175 106V102H180C180 102.289 180 102.63 180 103M180 103H201M211 103.5H232M232 103.5V106.5V108M232 103.5V102.5H236.5V103.5M236.5 108V104.5V103.5" stroke="black"/>
<path d="M127.5 132.5H146M138.5 132.5H138H146M146 132.5C146 132.9 146 159 146 172M127 146H150.5M127.5 149.5H150.5M134.5 152.5V155.5M134.5 157.5V158.75V160M134.5 162V164M137.5 172.5C137.5 172.1 137.5 170 137.5 169L139 168L140.5 169V170.5V172M143 164.25V162.25M138 160V156L139 155L140 156V160M143 152.75V155.75M143 157.5V159V160.25M132 132.5V172M135 144H134.5V139.5L135.5 138.5L136 139.5V144H135ZM138.5 144H138V139.5L139 138.5L139.5 139.5V144H138.5ZM142 144H141.5V139.5L142.5 138.5L143 139.5V144H142ZM135 126H134.5V121.5L135.5 120.5L136 121.5V126H135ZM138.5 126H138V121.5L139 120.5L139.5 121.5V126H138.5ZM142 126H141.5V121.5L142.5 120.5L143 121.5V126H142Z" stroke="black"/>
<path d="M138.5 109.5H135V106.5H138.5M135 101C135 101.4 135 103.833 135 105M137 101V105M139 101V105M137 90V94M139 90V94.5" stroke="black"/>
<path d="M132 118L131.5 123V129H127H138" stroke="black"/>
<path d="M132 99C132 99.4 132 108.5 132 113H151.5H126" stroke="black"/>
<path d="M126 99H140" stroke="black"/>
<path d="M127 117.5L126 116V88.5M133 88.5H126M133 88.5V95.5M133 88.5L131.25 82.75M126 88.5V88L129.5 76.5V74V77L131.25 82.75M133 97V95.5M133 95.5H135V88.5L139 82M131.25 82.75H134.5L138 69.3333M139 61V65.5L138 69.3333M138 69.3333H139" stroke="black"/>
<path d="M127 117H151" stroke="black"/>
<path d="M127 172V120V117" stroke="black"/>
<path d="M138.5 109.5H143V106.5H138.5M143 101C143 101.4 143 103.833 143 105M141 101V105M139 101.5V105.5M141 90V94M139 90.5V95" stroke="black"/>
<path d="M146 118L146.5 123V129M146.5 129H151M146.5 129H138" stroke="black"/>
<path d="M146 99.5C146 99.9 146 109 146 113.5" stroke="black"/>
<path d="M151.5 99H139.5" stroke="black"/>
<path d="M151 117.5L152 116V88.5M145 88.5H152M145 88.5V95.5M145 88.5L146.75 82.75M152 88.5V88L148.5 76.5V74V77L146.75 82.75M145 97V95.5M145 95.5H143V88.5L139 82M146.75 82.75H143.5L140 69.3333M139 61V65.5L140 69.3333M140 69.3333H139" stroke="black"/>
<path d="M151 172.5V120.5V117.5" stroke="black"/>
<path d="M261.5 131.5H280M272.5 131.5H272H280M280 131.5C280 131.9 280 158 280 171M261 145H284.5M261.5 148.5H284.5M268.5 151.5V154.5M268.5 156.5V157.75V159M268.5 161V163M271.5 171.5C271.5 171.1 271.5 169 271.5 168L273 167L274.5 168V169.5V171M277 163.25V161.25M272 159V155L273 154L274 155V159M277 151.75V154.75M277 156.5V158V159.25M266 131.5V171M269 143H268.5V138.5L269.5 137.5L270 138.5V143H269ZM272.5 143H272V138.5L273 137.5L273.5 138.5V143H272.5ZM276 143H275.5V138.5L276.5 137.5L277 138.5V143H276ZM269 125H268.5V120.5L269.5 119.5L270 120.5V125H269ZM272.5 125H272V120.5L273 119.5L273.5 120.5V125H272.5ZM276 125H275.5V120.5L276.5 119.5L277 120.5V125H276Z" stroke="black"/>
<path d="M272.5 108.5H269V105.5H272.5M269 100C269 100.4 269 102.833 269 104M271 100V104M273 100V104M271 89V93M273 89V93.5" stroke="black"/>
<path d="M266 117L265.5 122V128H261H272" stroke="black"/>
<path d="M266 98C266 98.4 266 107.5 266 112H285.5H260" stroke="black"/>
<path d="M260 98H274" stroke="black"/>
<path d="M261 116.5L260 115V87.5M267 87.5H260M267 87.5V94.5M267 87.5L265.25 81.75M260 87.5V87L263.5 75.5V73V76L265.25 81.75M267 96V94.5M267 94.5H269V87.5L273 81M265.25 81.75H268.5L272 68.3333M273 60V64.5L272 68.3333M272 68.3333H273" stroke="black"/>
<path d="M261 116H285" stroke="black"/>
<path d="M261 171V119V116" stroke="black"/>
<path d="M272.5 108.5H277V105.5H272.5M277 100C277 100.4 277 102.833 277 104M275 100V104M273 100.5V104.5M275 89V93M273 89.5V94" stroke="black"/>
<path d="M280 117L280.5 122V128M280.5 128H285M280.5 128H272" stroke="black"/>
<path d="M280 98.5C280 98.9 280 108 280 112.5" stroke="black"/>
<path d="M285.5 98H273.5" stroke="black"/>
<path d="M285 116.5L286 115V87.5M279 87.5H286M279 87.5V94.5M279 87.5L280.75 81.75M286 87.5V87L282.5 75.5V73V76L280.75 81.75M279 96V94.5M279 94.5H277V87.5L273 81M280.75 81.75H277.5L274 68.3333M273 60V64.5L274 68.3333M274 68.3333H273" stroke="black"/>
<path d="M285 171.5V119.5V116.5" stroke="black"/>
<path d="M28 172.5V171H34V172.5" stroke="black"/>
<path d="M292.5 175.5H411.5" stroke="black"/>
<path d="M292 173C292 173.738 292 185.308 292 191" stroke="black"/>
<path d="M254.5 172.5V191.5" stroke="black"/>
<path d="M159.5 176L164 183V176L171.5 181.5V176L178 180V176L184 178.5V176L190.5 178.5V176" stroke="black"/>
<path d="M253 176L248.5 183V176L241 181.5V176L234.5 180V176L228.5 178.5V176L222 178.5V176" stroke="black"/>
<path d="M159.5 176L253 175" stroke="black"/>
<path d="M1 178.5L119.5 176.5" stroke="black"/>
<path d="M0.5 173.5L255.5 171.5H357.5H412" stroke="black"/>
<path d="M158.5 192.5V172" stroke="black"/>
<path d="M120.5 193V172.5" stroke="black"/>
<circle cx="192" cy="88" r="5.5" stroke="black"/>
<path d="M314 135.5C314 135.144 319.01 115.515 322.346 102.5M335.5 140L326.343 102M332.5 146.5C332.5 145.7 326.5 118 324 104.5L317 138.5M326.343 102L325.5 98.5L324.5 97.5L323.5 98C323.15 99.3644 322.761 100.881 322.346 102.5M326.343 102C326.367 101.925 326.422 101.825 326.5 101.71M328 97L327.25 96.25M328 97L365.5 81.5M328 97V99M326.5 95.5C334.167 84.5 349.8 62 351 60M326.5 95.5L327.25 96.25M326.5 95.5H325.5M324.5 95.5H323.75M324.5 95.5L325.5 52M324.5 95.5H325.5M321.5 97V97.5M321.5 97L285.5 76.5M321.5 97L322 96.5M321.5 99L322 100M321.5 99C310.333 101.833 287.9 107.5 287.5 107.5M321.5 99V98M322.5 101L322 100M361 69.5C360.6 69.9 338.333 87.5 327.25 96.25M369.5 90L328 98M370 100.5L328 99M328 99V99.5M368 110.5L328 99.5M328 99.5V100C327.758 100.242 327.392 100.624 327.064 101M362 121.5C361.6 121.5 339.167 107.5 328 100.5M350.5 125L327.064 101M327.064 101C326.841 101.255 326.636 101.507 326.5 101.71M339 124L326.5 101.71M307 131.5L322.346 102.5M299 123.5L322 100M291.5 116L321.5 99.5M287.5 98H321.5M321.5 98V97.5M287.5 89L321.5 97.5M290.5 67.5L322 96.5M322 96.5L322.5 96M301 58.5L322.5 96M322.5 96L323 95.5H323.75M313 54C313 54.8 320.167 82 323.75 95.5M338.5 54.5L325.5 95.5" stroke="black"/>
<path d="M284.5 75C302 30.5 397 53 363.5 121.5M276.5 73C298.5 19 406 41.5 371.5 123M295.5 129C298.5 129 304.5 129.2 304.5 130C304.5 130.8 311.167 141 314.5 146L324.5 145L335.5 159L346 155.5L357.5 166L368.5 163C368.5 164.667 368.5 167.9 368.5 167.5C368.5 167.1 361.167 161.667 357.5 159L347 163.5L335.5 150L325 153.5L314.5 138H304.5L295.5 123" stroke="black"/>
<path d="M391.5 168C393.9 166.8 399.833 162.833 402.5 161L411 166M411 158L402.5 168L391.5 163.5M1 166L9 162.5L20 168.5M20 165.196C19.2 165.439 12.6667 166.833 9.5 167.5L0.5 159M44 169C44.4 168.6 51.1667 163.833 54.5 161.5L65.5 164.5L76.5 152L87 154L97 139L107.5 138L116.5 123V129L107.5 130.5L97.5 146.5L87 145.5L76.5 160L65 157L54.5 167.5L43.5 165" stroke="black"/>
<path d="M71 226.5C69.4 226.5 44.3333 226.5 32 226.5C32.8333 225.833 34.8 223.9 36 221.5M36 221.5C37.5 218.5 36.5 219 38.5 217H39M36 221.5H51M44.5 213.5H41.75M44.5 213.5H54.5M44.5 213.5V215.25M39 217V213.5H41.75M39 217H41.75M41.75 217H44.5V215.25M41.75 217V213.5M51 205.5V221.5M51 221.5H128.5M166 221.5H140.5M130 205.5L128.5 216V221.5M128.5 221.5H140H140.5M131.5 207V215.5H136M140.5 215.5V208.5M140.5 215.5H136M140.5 215.5V221.5M140.5 215.5C146.167 216.833 158.8 219.5 164 219.5M136 215.5V207M141.5 214.5H153.5M164.5 219.5C169 220 179 220.4 183 218C183.833 217.667 185.2 217.7 184 220.5M184 220.5C184 221 175.5 224 176 229C172.842 228.5 165.373 227.8 160.763 229M184 220.5C178.667 221 166.6 222.4 165 224C164.573 224.427 163.782 224.125 160.763 229M159 232C159.66 230.827 160.244 229.837 160.763 229M115.5 226.5C126.667 226.667 149.8 226.6 153 225M44.5 215.25H55.5C56.1667 213.833 58.2 210.3 61 207.5L58.5 205.5H45.5C45.1667 204 46.1 201 52.5 201C55.8021 201 65.4576 201 76 201M76 201C76 195.8 82.3333 194.5 85.5 194.5H105.5L111 200L104.5 200.867M76 201C81.1682 201 86.5495 201 91.5 201M91.5 201C91.3333 199.5 91.3 196.5 92.5 196.5M91.5 201C93.7789 201 95.9665 201 98 201M98 201C100.003 201 101.856 201 103.5 201L104.5 200.867M98 201C98 200.2 98 196.667 98 195L104.5 200.867" stroke="black"/>
</g></svg>
