<svg width="71" height="57" viewBox="0 0 71 57" fill="none" xmlns="http://www.w3.org/2000/svg">
<g clip-path="url(#clip0_11_223)">
<path d="M69 48.5L71 48V45C65.4 42.2 68.6667 39.8333 71 39V36C65.4 32.8 68.6667 30.3333 71 29.5V28V26.5263C68.6667 25.7076 65.4 23.2842 71 20.1404V17.193C68.6667 16.3743 65.4 14.0491 71 11.2982V8.35088L69 7.85965M68 50.5C67.8333 51.6667 68.2 54.1 71 54.5V56.5H66.5C66.6667 56 66.8 54.9 66 54.5M64 53.5C62.8333 53.3333 60.5 53.7 60.5 56.5H57C55.8333 54.1667 53 50.9 51 56.5H48C47.8333 55.3333 47 53.1 45 53.5C43.8333 53.5 41.5 54.1 41.5 56.5C40.6667 56.5 38.9 56.5 38.5 56.5C38.3333 55.3333 37.5 53.5 35.5 53.5C33.5 53.5 32.6667 55.3333 32.5 56.5H29.5C29.5 54.1 27.1667 53.5 26 53.5C24 53.1 23.1667 55.3333 23 56.5H20C18 50.9 15.1667 54.1667 14 56.5H10.5C10.5 53.7 8.16667 53.3333 7 53.5M2 48.5L0 48L0 45C5.6 42.2 2.33333 39.8333 0 39L7.62939e-06 36C5.60001 32.8 2.33334 30.3333 7.62939e-06 29.5L7.62939e-06 28L7.62939e-06 26.5263C2.33334 25.7076 5.60001 23.2842 7.62939e-06 20.1404L0 17.193C2.33333 16.3743 5.6 14.0491 0 11.2982L0 8.35088L2 7.85965M3 50.5C3.16667 51.6667 2.8 54.1 0 54.5L7.62939e-06 56.5H4.5C4.33333 56 4.2 54.9 5 54.5M68 5.89474C67.8333 4.74854 68.2 2.35789 71 1.96491V0H66.5C66.6667 0.491228 66.8 1.57193 66 1.96491M64 2.94737C62.8333 3.11111 60.5 2.75088 60.5 0H57C55.8333 2.2924 53 5.50175 51 0H48C47.8333 1.1462 47 3.34035 45 2.94737C43.8333 2.94737 41.5 2.35789 41.5 0H38.5C38.3333 1.1462 37.5 2.94737 35.5 2.94737C33.5 2.94737 32.6667 1.1462 32.5 0H29.5C29.5 2.35789 27.1667 2.94737 26 2.94737C24 3.34035 23.1667 1.1462 23 0H20C18 5.50175 15.1667 2.2924 14 0H10.5C10.5 2.75088 8.16667 3.11111 7 2.94737M3 5.89474C3.16667 4.74854 2.8 2.35789 0 1.96491L7.62939e-06 0H4.5C4.33333 0.491228 4.2 1.57193 5 1.96491M63.5 49V7H7.5V49H63.5Z" stroke="black"/>
<g clip-path="url(#clip1_11_223)">
<path d="M40.8183 21.9011V23.0967L41.4825 23.628M40.5527 14.5949V15.7905M40.1541 14.5949V15.7905M40.9512 14.5949V15.7905M41.3497 14.5949V15.7905M41.7482 14.5949V15.7905M38.8257 25.0893H42.8109H42.9438V20.9712H38.8257V25.0893Z" stroke="black" stroke-width="0.5"/>
<circle cx="40.9512" cy="22.9638" r="1.34408" stroke="black" stroke-width="0.5"/>
<path d="M38.1615 44.0853V33.25M38.1615 27.3475L38.1615 31.6227M38.1615 26.5505V25.8863M38.1615 25.8863H37.763V19.7757H38.2944V18.1816L39.6228 15.392V13.2665L40.9512 8.75L42.1467 13.2665V15.392L43.4751 18.1816V19.9085H43.8736V25.8863H43.4751M38.1615 25.8863H43.4751M43.4751 25.8863L43.517 31.6227M43.608 44.4839V44.0853L43.5289 33.25M39.8885 25.0893V25.6206M39.2243 25.0893V25.6206M40.5527 25.0893V25.6206M41.2169 25.0893V25.6206M41.8811 25.0893V25.6206M42.5452 25.0893V25.6206M39.915 18.8458V19.9085M39.2243 18.8458V19.9085M40.6058 18.8458V19.9085M41.2966 18.8458V19.9085M41.9873 18.8458V19.9085M42.6781 18.8458V19.9085M39.7822 29.3401V30.1372M39.0914 29.3401V30.1372M40.473 29.3401V30.1372M41.1637 29.3401V30.1372M41.8545 29.3401V30.1372M42.5452 29.3401V30.1372M39.7822 33.1355V34.7866M39.0914 33.1355V34.7866M40.473 33.1355V34.7866M41.1637 33.1355V34.7866M41.8545 33.1355L41.8545 34.7866M42.5452 33.1355L42.5452 34.7866M39.7822 36.2478V39.1703M39.0914 36.2478V39.1703M40.473 36.2478V39.1703M41.1637 36.2478V39.1703M41.8545 36.2478V39.1703M42.5452 36.2478V39.1703M39.7822 41.03V43.4211M39.0914 41.03V43.4211M40.473 41.03V43.4211M41.1637 41.03V43.4211M41.8545 41.03V43.4211M42.5452 41.03V43.4211M39.7822 27.2147V28.0117M39.0914 27.2147V28.0117M40.473 27.2147V28.0117M41.1637 27.2147V28.0117M41.8545 27.2147V28.0117M42.5452 27.2147V28.0117" stroke="black" stroke-width="0.5"/>
<path d="M43.993 47.0384C42.9572 46.6303 39.6801 45.7577 34.8588 45.5317C31.2427 45.5317 27.4509 46.5361 26.007 47.0384" stroke="black" stroke-width="0.5"/>
<path d="M1.61756 43.5542L1.71173 44.025C1.8059 44.1192 2.01307 44.3075 2.0884 44.3075H2.46507M1.61756 43.5542L1.71173 43.3658H2.27674L2.55924 43.5542C3.04311 43.4937 3.64741 43.3774 4.34843 43.195M1.61756 43.5542C1.27248 43.5295 0.707704 43.4545 0.0167145 43.3087M19.8861 33.4782C19.2967 34.1145 18.699 34.7143 18.0969 35.2794M2.55924 44.025C5.79233 44.4017 13.784 42.9327 19.8861 34.0432M-3.74999 42.0475C-3.18404 42.3207 -2.61009 42.5493 -2.05497 42.7391M1.42923 44.025C1.14673 44.025 1.05256 44.2133 -3.74999 43.5542M-2.05497 44.8725V42.7391M-2.05497 42.7391C-1.30859 42.9943 -0.596275 43.1794 0.0167145 43.3087M0.0167145 44.8725V43.3087M4.34843 44.8725V43.195M4.34843 43.195C4.96873 43.0337 5.66477 42.8208 6.42012 42.5491M6.42012 44.7783V42.5491M6.42012 42.5491C7.04213 42.3254 7.70436 42.0619 8.39764 41.7547M8.39764 44.7783V41.7547M8.39764 41.7547C9.09155 41.4472 9.81657 41.0959 10.5635 40.6968M10.5635 44.7783V40.6968M10.5635 40.6968C11.2083 40.3524 11.8695 39.9723 12.541 39.5542M12.541 44.7783L12.541 39.5542M12.541 39.5542C13.1922 39.1487 13.8532 38.7074 14.5185 38.228M14.5185 44.7783L14.5185 38.228M14.5185 38.228C15.1436 37.7777 15.7725 37.2937 16.4008 36.7741M16.4008 36.7741L16.4008 44.7783M16.4008 36.7741C16.9677 36.3053 17.5342 35.8075 18.0969 35.2794M18.0969 44.7783L18.0969 35.2794M1.99424 43.9308L2.18257 44.025L2.27674 43.9308L2.37091 43.7425L2.27674 43.6483H1.99424L1.90007 43.7425L1.99424 43.9308Z" stroke="black" stroke-width="0.5"/>
<path d="M68.2883 43.4788L68.1941 43.7613C68.0999 43.8178 67.8928 43.9308 67.8174 43.9308H67.4408M68.2883 43.4788L68.1941 43.3658H67.6291H67.8174C67.3336 43.3295 66.2584 43.0695 65.5574 42.8941M68.2883 43.4788C67.9587 43.5636 69.1981 43.1437 69.8891 43.0035M50.0197 33.4782C50.6091 34.1145 51.2069 34.7358 51.8089 35.2794M67.3466 43.7613C64.1135 43.9873 56.1218 42.9327 50.0197 34.0432M73.6558 41.8592C73.0899 42.1324 72.5159 42.2729 71.9608 42.4555M68.4766 43.7613C68.7591 43.7613 68.8533 44.2133 73.6558 43.5542M71.9608 44.5078V42.4555M71.9608 42.4555C71.2144 42.701 70.5021 42.879 69.8891 43.0035M69.8891 44.5078V43.0035M65.5574 44.5078V42.8941M65.5574 42.8941C64.9371 42.7389 64.2411 42.5341 63.4857 42.2727M63.4857 44.4172V42.2727M63.4857 42.2727C62.8637 42.0575 62.2015 41.804 61.5082 41.5085M61.5082 44.4172V41.5085M61.5082 41.5085C60.8143 41.2127 60.0893 40.8747 59.3423 40.4909M59.3423 44.4172V40.4909M59.3423 40.4909C58.6975 40.1595 58.0364 39.7939 57.3648 39.3917M57.3648 44.4172V39.3917M57.3648 39.3917C56.7136 39.0016 56.0527 38.5771 55.3873 38.1159M55.3873 44.4172V38.1159M55.3873 38.1159C54.7623 37.6827 54.1334 37.2171 53.5051 36.7173M53.5051 36.7173V44.4172M53.5051 36.7173C52.9381 36.2663 52.3716 35.7874 51.8089 35.2794M51.8089 44.4172V35.2794M67.9116 43.7048L67.7233 43.7613L67.6291 43.7048L67.5349 43.5918L67.6291 43.5353H67.9116L68.0058 43.5918L67.9116 43.7048Z" stroke="black" stroke-width="0.5"/>
<path d="M45.0289 32.5366H35.8946M35.8946 33.1957H24.877H24.7828V31.5949H24.877H29.1145V32.1599M35.8946 33.1957H45.0289H45.123V31.689H45.0289H40.6972M35.8946 33.1957V31.124L35.5179 31.4065L34.9529 30.7474L34.4821 31.5007L34.0112 31.0299V31.5949M34.0112 33.1016V31.5949M33.9171 32.5366H29.1145M24.7828 32.5366H29.1145M29.1145 32.5366V32.1599M30.0562 32.4424C30.0562 32.3858 30.0562 32.0071 30.0562 31.689C30.0562 31.6569 30.0562 31.6254 30.0562 31.5949M29.1145 32.1599V31.4065H30.0562C30.0562 31.4609 30.0562 31.5252 30.0562 31.5949M30.0562 31.5949H34.0112M35.8946 31.689L39.8496 31.689M39.8496 31.689V32.254V32.5366M39.8496 31.689V31.5007H40.6972V31.689M40.6972 32.5366V31.8774V31.689" stroke="black" stroke-width="0.5"/>
<path d="M20.1686 37.1508H23.6528M22.2403 37.1508H22.1461H23.6528M23.6528 37.1508C23.6528 37.2261 23.6528 42.1417 23.6528 44.59M20.0744 39.6933H24.5003M20.1686 40.3525H24.5003M21.4869 40.9175V41.4825M21.4869 41.8592V42.0946V42.33M21.4869 42.7067V43.0833M22.0519 44.6842C22.0519 44.6088 22.0519 44.2133 22.0519 44.025L22.3344 43.8367L22.617 44.025V44.3075V44.59M23.0878 43.1304V42.7537M22.1461 42.33V41.5766L22.3344 41.3883L22.5228 41.5766V42.33M23.0878 40.9646V41.5296M23.0878 41.8592V42.1417V42.3771M21.0161 37.1508V44.59M21.5811 39.3166H21.4869V38.4691L21.6753 38.2808L21.7694 38.4691V39.3166H21.5811ZM22.2403 39.3166H22.1461V38.4691L22.3344 38.2808L22.4286 38.4691V39.3166H22.2403ZM22.8995 39.3166H22.8053V38.4691L22.9936 38.2808L23.0878 38.4691V39.3166H22.8995ZM21.5811 35.9266H21.4869V35.0791L21.6753 34.8907L21.7694 35.0791V35.9266H21.5811ZM22.2403 35.9266H22.1461V35.0791L22.3344 34.8907L22.4286 35.0791V35.9266H22.2403ZM22.8995 35.9266H22.8053V35.0791L22.9936 34.8907L23.0878 35.0791V35.9266H22.8995Z" stroke="black" stroke-width="0.5"/>
<path d="M22.2403 32.8191H21.5811V32.254H22.2403M21.5811 31.2182C21.5811 31.2935 21.5811 31.7518 21.5811 31.9715M21.9578 31.2182V31.9715M22.3344 31.2182V31.9715M21.9578 29.1465V29.8999M22.3344 29.1465V29.994" stroke="black" stroke-width="0.5"/>
<path d="M21.0161 34.4199L20.9219 35.3616V36.4916H20.0744H22.1461" stroke="black" stroke-width="0.5"/>
<path d="M21.0161 30.8415C21.0161 30.9169 21.0161 32.6307 21.0161 33.4782H24.6887H19.8861" stroke="black" stroke-width="0.5"/>
<path d="M19.8861 30.8415H22.5228" stroke="black" stroke-width="0.5"/>
<path d="M20.0744 34.3257L19.8861 34.0432V28.864M21.2044 28.864H19.8861M21.2044 28.864V30.1824M21.2044 28.864L20.8749 27.7811M19.8861 28.864V28.7698L20.5453 26.604V26.1331V26.6982L20.8749 27.7811M21.2044 30.4649V30.1824M21.2044 30.1824H21.5811V28.864L22.3345 27.6398M20.8749 27.7811H21.487L22.1461 25.2542M22.3345 23.6848V24.5323L22.1461 25.2542M22.1461 25.2542H22.3345" stroke="black" stroke-width="0.5"/>
<path d="M20.0744 34.2316H24.5945" stroke="black" stroke-width="0.5"/>
<path d="M20.0744 44.59V34.7966V34.2316" stroke="black" stroke-width="0.5"/>
<path d="M22.2403 32.8191H23.0878V32.254H22.2403M23.0878 31.2182C23.0878 31.2935 23.0878 31.7518 23.0878 31.9715M22.7111 31.2182V31.9715M22.3345 31.3124V32.0657M22.7111 29.1465V29.8999M22.3345 29.2407V30.0882" stroke="black" stroke-width="0.5"/>
<path d="M23.6528 34.4199L23.747 35.3616V36.4916M23.747 36.4916H24.5945M23.747 36.4916H22.1461" stroke="black" stroke-width="0.5"/>
<path d="M23.6528 30.9357C23.6528 31.011 23.6528 32.7249 23.6528 33.5724" stroke="black" stroke-width="0.5"/>
<path d="M24.6887 30.8415H22.4286" stroke="black" stroke-width="0.5"/>
<path d="M24.5945 34.3257L24.7828 34.0432V28.864M23.4645 28.864H24.7828M23.4645 28.864V30.1824M23.4645 28.864L23.7941 27.7811M24.7828 28.864V28.7698L24.1236 26.604V26.1331V26.6982L23.7941 27.7811M23.4645 30.4649V30.1824M23.4645 30.1824H23.0878V28.864L22.3345 27.6398M23.7941 27.7811H23.182L22.5228 25.2542M22.3345 23.6848V24.5323L22.5228 25.2542M22.5228 25.2542H22.3345" stroke="black" stroke-width="0.5"/>
<path d="M24.5945 44.6842V34.8907V34.3257" stroke="black" stroke-width="0.5"/>
<path d="M45.4055 36.9624H48.8897M47.4772 36.9624H47.3831H48.8897M48.8897 36.9624C48.8897 37.0378 48.8897 41.9533 48.8897 44.4017M45.3114 39.505H49.7372M45.4055 40.1641H49.7372M46.7239 40.7291V41.2941M46.7239 41.6708V41.9062V42.1417M46.7239 42.5183V42.895M47.2889 44.4958C47.2889 44.4205 47.2889 44.025 47.2889 43.8367L47.5714 43.6483L47.8539 43.8367V44.1192V44.4017M48.3247 42.9421V42.5654M47.3831 42.1417V41.3883L47.5714 41.2L47.7597 41.3883V42.1417M48.3247 40.7762V41.3412M48.3247 41.6708V41.9533V42.1887M46.253 36.9624V44.4017M46.818 39.1283H46.7239V38.2808L46.9122 38.0924L47.0064 38.2808V39.1283H46.818ZM47.4772 39.1283H47.3831V38.2808L47.5714 38.0924L47.6656 38.2808V39.1283H47.4772ZM48.1364 39.1283H48.0422V38.2808L48.2306 38.0924L48.3247 38.2808V39.1283H48.1364ZM46.818 35.7383H46.7239V34.8907L46.9122 34.7024L47.0064 34.8907V35.7383H46.818ZM47.4772 35.7383H47.3831V34.8907L47.5714 34.7024L47.6656 34.8907V35.7383H47.4772ZM48.1364 35.7383H48.0422V34.8907L48.2306 34.7024L48.3247 34.8907V35.7383H48.1364Z" stroke="black" stroke-width="0.5"/>
<path d="M47.4772 32.6307H46.818V32.0657H47.4772M46.818 31.0299C46.818 31.1052 46.818 31.5635 46.818 31.7832M47.1947 31.0299V31.7832M47.5714 31.0299V31.7832M47.1947 28.9582V29.7115M47.5714 28.9582V29.8057" stroke="black" stroke-width="0.5"/>
<path d="M46.253 34.2316L46.1589 35.1732V36.3033H45.3114H47.3831" stroke="black" stroke-width="0.5"/>
<path d="M46.2531 30.6532C46.2531 30.7285 46.2531 32.4424 46.2531 33.2899H49.9256H45.123" stroke="black" stroke-width="0.5"/>
<path d="M45.123 30.6532H47.7597" stroke="black" stroke-width="0.5"/>
<path d="M45.3114 34.1374L45.123 33.8549V28.6757M46.4414 28.6757H45.123M46.4414 28.6757V29.994M46.4414 28.6757L46.1118 27.5927M45.123 28.6757V28.5815L45.7822 26.4157V25.9448V26.5098L46.1118 27.5927M46.4414 30.2765V29.994M46.4414 29.994H46.818V28.6757L47.5714 27.4515M46.1118 27.5927H46.7239L47.383 25.0659M47.5714 23.4965V24.344L47.383 25.0659M47.383 25.0659H47.5714" stroke="black" stroke-width="0.5"/>
<path d="M45.3114 34.0432H49.8314" stroke="black" stroke-width="0.5"/>
<path d="M45.3114 44.4017V34.6082V34.0432" stroke="black" stroke-width="0.5"/>
<path d="M47.4772 32.6307H48.3247V32.0657H47.4772M48.3247 31.0299C48.3247 31.1052 48.3247 31.5635 48.3247 31.7832M47.9481 31.0299V31.7832M47.5714 31.124V31.8774M47.9481 28.9582V29.7115M47.5714 29.0523V29.8999" stroke="black" stroke-width="0.5"/>
<path d="M48.8897 34.2316L48.9839 35.1732V36.3033M48.9839 36.3033H49.8314M48.9839 36.3033H47.3831" stroke="black" stroke-width="0.5"/>
<path d="M48.8897 30.7474C48.8897 30.8227 48.8897 32.5366 48.8897 33.3841" stroke="black" stroke-width="0.5"/>
<path d="M49.9256 30.6532H47.6656" stroke="black" stroke-width="0.5"/>
<path d="M49.8314 34.1374L50.0198 33.8549V28.6757M48.7014 28.6757H50.0198M48.7014 28.6757V29.994M48.7014 28.6757L49.031 27.5927M50.0198 28.6757V28.5815L49.3606 26.4157V25.9448V26.5098L49.031 27.5927M48.7014 30.2765V29.994M48.7014 29.994H48.3247V28.6757L47.5714 27.4515M49.031 27.5927H48.4189L47.7597 25.0659M47.5714 23.4965V24.344L47.7597 25.0659M47.7597 25.0659H47.5714" stroke="black" stroke-width="0.5"/>
<path d="M49.8314 44.4958V34.7024V34.1374" stroke="black" stroke-width="0.5"/>
<path d="M51.2439 45.2492L73.6558 45.2492" stroke="black" stroke-width="0.5"/>
<path d="M51.1498 44.7783C51.1539 44.9309 51.2183 47.3206 51.25 48.4965" stroke="black" stroke-width="0.5"/>
<path d="M44.0872 44.6842L44.25 48.4965" stroke="black" stroke-width="0.5"/>
<path d="M26.1953 45.3434L27.0428 46.6617V45.3434L28.4554 46.3792V45.3434L29.6795 46.0967V45.3434L30.8096 45.8142V45.3434L32.0337 45.8142V45.3434" stroke="black" stroke-width="0.5"/>
<path d="M26.1953 45.3434L43.8047 45.155" stroke="black" stroke-width="0.5"/>
<path d="M-3.65582 45.8142L18.6619 45.4375" stroke="black" stroke-width="0.5"/>
<path d="M-3.74999 44.8725L44.2755 44.4958L63.4857 44.4958H73.75" stroke="black" stroke-width="0.5"/>
<path d="M26.007 48.4509V44.59" stroke="black" stroke-width="0.5"/>
<path d="M18.8502 48.5451V44.6842" stroke="black" stroke-width="0.5"/>
<path d="M51.8089 36.4916C52.3739 36.4916 53.504 36.5293 53.504 36.6799C53.504 36.8306 54.7595 38.7516 55.3873 39.6933L57.2707 39.505L59.3424 42.1417L61.3199 41.4825L63.4857 43.46L65.5574 42.895C65.5574 43.2089 65.5574 43.8178 65.5574 43.7425C65.5574 43.6672 64.1763 42.6439 63.4857 42.1417L61.5082 42.9892L59.3424 40.4466L57.3648 41.1058L55.3873 38.1866H53.504L51.8089 35.3616" stroke="black" stroke-width="0.5"/>
<path d="M69.8891 43.8367C70.3411 43.6107 71.4586 42.8636 71.9608 42.5183L73.5617 43.46M73.5617 41.9533L71.9608 43.8367L69.8891 42.9892M-3.65582 43.46L-2.14914 42.8008L-0.0774526 43.9308M-0.0774526 43.3086C-0.228121 43.3544 -1.45858 43.6169 -2.05497 43.7425L-3.74999 42.1417M4.4426 44.025C4.51793 43.9497 5.79233 43.0519 6.42012 42.6125L8.49181 43.1775L10.5635 40.8233L12.541 41.2L14.4244 38.3749L16.4019 38.1866L18.0969 35.3616V36.4916L16.4019 36.7741L14.5185 39.7875L12.541 39.5991L10.5635 42.33L8.39764 41.765L6.42012 43.7425L4.34843 43.2717" stroke="black" stroke-width="0.5"/>
<path d="M45.0289 47.3209C45.123 47.2267 47.4772 45.4375 50.2081 47.3209M19.6978 47.2267C19.7919 47.1325 22.1461 45.3434 24.877 47.2267" stroke="black" stroke-width="0.5"/>
<mask id="path-49-inside-1_11_223" fill="white">
<ellipse cx="29.3679" cy="36.5187" rx="0.0699709" ry="0.139942" transform="rotate(-14.5277 29.3679 36.5187)"/>
</mask>
<path d="M29.4357 36.5011L29.242 36.5513C29.2456 36.5652 29.2432 36.569 29.245 36.5603C29.246 36.556 29.2497 36.5404 29.2633 36.5212C29.2778 36.5007 29.3067 36.4725 29.3529 36.4605L29.403 36.6541L29.4532 36.8477C29.5847 36.8137 29.6254 36.6947 29.6362 36.6438C29.6499 36.5797 29.6451 36.5119 29.6293 36.4509L29.4357 36.5011ZM29.403 36.6541L29.3529 36.4605C29.399 36.4486 29.438 36.4592 29.4606 36.4701C29.4818 36.4803 29.4926 36.492 29.4956 36.4954C29.5014 36.5021 29.4974 36.4999 29.4938 36.4861L29.3002 36.5362L29.1066 36.5864C29.1224 36.6473 29.1511 36.709 29.1941 36.7583C29.2284 36.7976 29.3217 36.8818 29.4532 36.8477L29.403 36.6541ZM29.3002 36.5362L29.4938 36.4861C29.4902 36.4722 29.4926 36.4684 29.4908 36.477C29.4899 36.4814 29.4861 36.4969 29.4726 36.5161C29.458 36.5366 29.4292 36.5648 29.383 36.5768L29.3328 36.3832L29.2826 36.1896C29.1511 36.2237 29.1105 36.3426 29.0996 36.3936C29.0859 36.4576 29.0908 36.5254 29.1066 36.5864L29.3002 36.5362ZM29.3328 36.3832L29.383 36.5768C29.3368 36.5888 29.2979 36.5781 29.2752 36.5672C29.2541 36.5571 29.2432 36.5453 29.2403 36.5419C29.2345 36.5353 29.2385 36.5374 29.242 36.5513L29.4357 36.5011L29.6293 36.4509C29.6135 36.39 29.5847 36.3283 29.5417 36.279C29.5075 36.2398 29.4142 36.1555 29.2826 36.1896L29.3328 36.3832Z" fill="black" mask="url(#path-49-inside-1_11_223)"/>
<path d="M27.6959 36.4821C27.7441 36.5564 27.711 36.5866 27.6884 36.5925C27.6253 36.4884 27.4943 36.3175 27.4752 36.467C27.3989 36.2844 27.4853 35.9946 27.538 35.8725L27.4547 35.8668C27.2476 36.1011 27.3034 36.4331 27.3573 36.5699L27.3246 36.7229C27.1149 36.8061 27.0943 36.5778 27.1102 36.4532C27.0475 36.3971 26.971 36.2507 27.1667 36.1133C27.1647 35.8825 27.3398 35.8516 27.4276 35.865L27.4547 35.8668L27.538 35.8725L27.6985 35.7947C27.6927 35.7722 27.7131 35.7115 27.8415 35.6493C27.97 35.5871 28.0598 35.7011 28.0886 35.7659C28.1589 35.7116 28.3101 35.6724 28.3533 35.9504C28.6552 36.3347 28.311 36.2986 28.1011 36.2325C28.0549 36.3891 27.8787 36.3504 27.7963 36.3115C27.7913 36.3851 27.7642 36.5222 27.6959 36.4821Z" fill="black"/>
<path d="M28.6804 37.4919C28.7645 37.3979 28.9032 37.1523 28.7859 36.9225M28.6641 37.5684C28.6951 37.5484 28.767 37.4912 28.8071 37.4229C28.8573 37.3377 28.8987 37.2185 28.8899 37.1846C28.8829 37.1575 28.8686 37.0095 28.8624 36.9388L28.8536 36.9049M28.2703 37.1645L28.2452 37.2071L28.3205 37.0792M28.0345 37.3702L28.2138 37.5044L28.2389 37.4618L28.0596 37.3275L28.0508 37.2937L28.042 37.2598M28.0985 36.9199C28.1073 36.9538 28.1434 37.0095 28.2177 36.9613M28.2077 36.7832L28.3093 36.7569M28.1713 36.5035C28.1972 36.557 28.2626 36.6605 28.3168 36.6465M28.2905 36.5449L28.2729 36.4772M28.0195 36.6151L28.002 36.5474M27.8828 36.506C27.8883 36.4804 27.9212 36.431 28.0095 36.437M28.2127 36.3843L28.2805 36.3668L28.3143 36.358L28.2968 36.2903L28.3494 36.4935L28.3582 36.5273M27.538 35.8725L27.6985 35.7947C27.6927 35.7722 27.7131 35.7115 27.8415 35.6493C27.97 35.5871 28.0598 35.7011 28.0886 35.7659C28.1589 35.7116 28.3101 35.6724 28.3533 35.9504C28.6552 36.3347 28.311 36.2986 28.1011 36.2325C28.0549 36.3891 27.8787 36.3504 27.7963 36.3115C27.7913 36.3851 27.7642 36.5222 27.6959 36.4821C27.7441 36.5564 27.711 36.5866 27.6884 36.5925C27.6253 36.4884 27.4943 36.3175 27.4752 36.467C27.3989 36.2844 27.4853 35.9946 27.538 35.8725ZM27.538 35.8725L27.4547 35.8668M27.4547 35.8668L27.4276 35.865C27.3398 35.8516 27.1647 35.8825 27.1667 36.1133C26.971 36.2507 27.0475 36.3971 27.1102 36.4532C27.0943 36.5778 27.1149 36.8061 27.3246 36.7229L27.3573 36.5699C27.3034 36.4331 27.2476 36.1011 27.4547 35.8668Z" stroke="black" stroke-width="0.2"/>
<path d="M28.3492 39.0031L28.4105 39.658C28.4247 39.6664 28.4584 39.7035 28.4795 39.7847C27.9476 40.2984 26.9952 40.5187 26.5854 40.5647C26.4112 39.7063 26.3246 37.8566 27.3722 37.3249C27.5135 37.6377 27.8849 38.139 28.2201 37.6474M27.1978 37.7677C27.414 37.9044 27.8498 38.1915 27.8638 38.2456C27.8463 38.2419 27.8287 38.2499 27.8113 38.2672M26.9554 38.6452C27.1219 38.7763 27.4769 39.0398 27.5652 39.0458M27.5652 39.0458C27.5878 39.04 27.651 39.0143 27.7182 38.939M27.5652 39.0458C27.5748 38.9908 27.5875 38.9252 27.6027 38.8554M27.6027 38.8554C27.6532 38.6236 27.7308 38.3468 27.8113 38.2672M27.6027 38.8554C27.904 39.1013 28.3882 39.262 28.5915 38.6353M28.6529 37.2461C28.6706 37.4283 28.6809 37.5938 28.6846 37.7438M27.8113 38.2672L28.0432 38.3799M28.0432 38.3799L28.0268 38.4564M28.0432 38.3799C28.1306 38.0199 28.312 37.2694 28.3381 37.1469M28.5915 38.6353L28.629 38.6643M28.5915 38.6353C28.658 38.4305 28.6944 38.1415 28.6846 37.7438M28.7493 38.5944L28.6665 38.6933L28.629 38.6643M28.629 38.6643C28.6449 38.6192 28.6661 38.5641 28.69 38.505M28.6846 37.7438C28.7865 37.8259 29.004 37.9863 28.9498 38.0004C28.9071 38.0114 28.7791 38.2852 28.69 38.505M28.9588 38.2872L28.9238 37.1759L28.9991 37.0479M28.69 38.505C28.8122 38.6512 29.109 38.8947 29.3187 38.6999C29.5285 38.505 29.3636 37.6178 29.2549 37.1985C29.3361 37.0931 29.4863 36.8639 29.4381 36.7896" stroke="black" stroke-width="0.2"/>
<mask id="path-54-inside-2_11_223" fill="white">
<ellipse cx="27.4777" cy="36.7555" rx="0.174927" ry="0.244898" transform="rotate(-14.5277 27.4777 36.7555)"/>
</mask>
<path d="M27.647 36.7116L27.4534 36.7618C27.4611 36.7916 27.4571 36.8127 27.4541 36.8204C27.4528 36.8238 27.4531 36.8211 27.4584 36.8158C27.4642 36.81 27.4745 36.8027 27.4889 36.799L27.5391 36.9926L27.5893 37.1862C27.7148 37.1537 27.7916 37.0574 27.8276 36.9638C27.8637 36.8698 27.8668 36.7626 27.8406 36.6615L27.647 36.7116ZM27.5391 36.9926L27.4889 36.799C27.5033 36.7952 27.5159 36.7966 27.5238 36.7989C27.531 36.8009 27.5325 36.8031 27.5298 36.8008C27.5235 36.7955 27.5097 36.779 27.5019 36.7492L27.3083 36.7994L27.1147 36.8496C27.141 36.9507 27.1958 37.0429 27.273 37.1075C27.3499 37.1719 27.4638 37.2187 27.5893 37.1862L27.5391 36.9926ZM27.3083 36.7994L27.5019 36.7492C27.4942 36.7194 27.4983 36.6983 27.5012 36.6906C27.5025 36.6872 27.5022 36.6899 27.497 36.6952C27.4912 36.701 27.4808 36.7083 27.4664 36.712L27.4162 36.5184L27.3661 36.3248C27.2406 36.3574 27.1637 36.4536 27.1278 36.5472C27.0917 36.6412 27.0885 36.7484 27.1147 36.8496L27.3083 36.7994ZM27.4162 36.5184L27.4664 36.712C27.452 36.7158 27.4394 36.7144 27.4315 36.7121C27.4244 36.7101 27.4228 36.7079 27.4256 36.7102C27.4319 36.7155 27.4457 36.732 27.4534 36.7618L27.647 36.7116L27.8406 36.6615C27.8144 36.5603 27.7596 36.4681 27.6824 36.4035C27.6055 36.3391 27.4916 36.2923 27.3661 36.3248L27.4162 36.5184Z" fill="black" mask="url(#path-54-inside-2_11_223)"/>
<path d="M27.3661 36.6037C27.2791 36.3612 27.2239 35.8599 27.6985 35.7947C27.3438 35.9124 27.3843 36.2716 27.4684 36.4926M27.5015 36.5686C27.4903 36.546 27.479 36.5204 27.4684 36.4926M27.5303 36.9587L27.5479 37.0264M27.5479 37.0264C27.6608 36.9972 27.8366 36.8576 27.637 36.5335C27.5276 36.4462 27.4791 36.4698 27.4684 36.4926M27.5479 37.0264L27.4025 37.2736M27.3722 37.3249L27.4025 37.2736M27.4025 37.2736C27.4418 37.3484 27.503 37.4478 27.5722 37.5389M27.9981 37.4285L28.1925 37.5616M27.9981 37.4285L28.0107 37.5571C27.9304 37.6935 27.6849 37.6018 27.5722 37.5389M27.9981 37.4285L28.042 37.2598L28.0671 37.2172M28.1925 37.5616C28.1655 37.61 28.1325 37.6624 28.0884 37.7176C28.0011 37.827 27.894 37.8041 27.8513 37.779C27.765 37.7606 27.6619 37.6568 27.5722 37.5389M28.1925 37.5616C28.2324 37.4902 28.2592 37.4273 28.2891 37.3765L28.3381 37.1469C28.3117 37.0453 28.2724 36.8098 28.3256 36.6803C28.3921 36.5186 28.3319 36.4257 28.4247 36.3655C28.499 36.3174 28.6078 36.2819 28.653 36.2702M28.0671 37.2172L27.9229 37.2184M28.0671 37.2172C28.1211 37.2393 28.2372 37.2598 28.2703 37.1645M28.653 36.2702L28.6956 36.2953L28.7044 36.3292L28.6793 36.3718M28.653 36.2702L28.8338 36.2234M28.6793 36.3718L28.6455 36.3806L28.5865 36.432L28.5188 36.4496L28.4937 36.4922L28.4861 36.6026C28.5254 36.5683 28.6261 36.5013 28.7144 36.5073C28.8248 36.5148 28.8762 36.5738 28.8511 36.6164M28.6793 36.3718L28.8077 36.3386M28.8511 36.6164L28.8775 36.718M28.8511 36.6164C28.7859 36.5972 28.6404 36.5843 28.5802 36.6866M28.8775 36.718C28.801 36.7017 28.6464 36.6912 28.6404 36.7795M28.8775 36.718L28.8906 36.7688M28.9038 36.8196C28.8273 36.8033 28.6745 36.7995 28.6755 36.9149M28.9038 36.8196L28.9301 36.9212C28.9149 36.915 28.8948 36.9089 28.8731 36.9055M28.9038 36.8196L28.8906 36.7688M28.6617 37.2799C28.8122 37.0241 28.6855 37.093 28.7269 36.9739C28.7507 36.9054 28.8174 36.8967 28.8731 36.9055M29.0079 37.0818L28.8731 36.9055M28.8906 36.7688C28.9577 36.8418 29.0937 36.9945 29.1007 37.0216M28.9305 36.8127C28.9329 36.7784 28.9468 36.7379 28.9813 36.7374M29.1935 36.9614C29.1022 36.8132 29.0405 36.754 28.9999 36.7405M28.9999 36.7405C28.9931 36.7383 28.9869 36.7373 28.9813 36.7374M28.9999 36.7405C29.0113 36.6647 29.0809 36.5811 29.2674 36.8033M29.3114 36.8586C29.2961 36.8383 29.2814 36.8199 29.2674 36.8033M28.8077 36.3386L29.0857 36.2665L29.0697 36.2522M28.8077 36.3386L28.8338 36.2234M28.8338 36.2234L28.9917 36.1825L29.0697 36.2522M29.0697 36.2522L29.1828 36.2228L29.2388 36.2991L28.9766 36.4032L28.9253 36.4527L28.9216 36.562L28.9813 36.7374M29.2674 36.8033L29.3014 36.6805" stroke="black" stroke-width="0.2"/>
<mask id="path-57-inside-3_11_223" fill="white">
<ellipse cx="29.3679" cy="36.5187" rx="0.174927" ry="0.279884" transform="rotate(-14.5277 29.3679 36.5187)"/>
</mask>
<path d="M29.5372 36.4748L29.3436 36.525C29.3551 36.5693 29.3515 36.6033 29.3465 36.6192C29.3442 36.6267 29.3432 36.625 29.3485 36.619C29.3546 36.6121 29.3677 36.6013 29.3879 36.596L29.4381 36.7896L29.4883 36.9832C29.6259 36.9476 29.6982 36.8342 29.7281 36.7393C29.7589 36.6413 29.7581 36.5299 29.7308 36.4246L29.5372 36.4748ZM29.4381 36.7896L29.3879 36.596C29.4082 36.5908 29.4249 36.5938 29.4336 36.5969C29.4412 36.5996 29.4411 36.6015 29.4354 36.5961C29.4233 36.5847 29.4037 36.5567 29.3922 36.5124L29.1986 36.5626L29.005 36.6127C29.0323 36.718 29.0856 36.8157 29.1602 36.8864C29.2324 36.9549 29.3507 37.0189 29.4883 36.9832L29.4381 36.7896ZM29.1986 36.5626L29.3922 36.5124C29.3807 36.468 29.3843 36.4341 29.3893 36.4182C29.3917 36.4107 29.3927 36.4123 29.3874 36.4183C29.3813 36.4253 29.3681 36.4361 29.3479 36.4413L29.2977 36.2477L29.2475 36.0541C29.1099 36.0898 29.0376 36.2032 29.0078 36.2981C28.9769 36.3961 28.9777 36.5074 29.005 36.6127L29.1986 36.5626ZM29.2977 36.2477L29.3479 36.4413C29.3276 36.4466 29.3109 36.4435 29.3022 36.4404C29.2946 36.4377 29.2947 36.4358 29.3004 36.4412C29.3125 36.4527 29.3321 36.4806 29.3436 36.525L29.5372 36.4748L29.7308 36.4246C29.7036 36.3193 29.6502 36.2216 29.5756 36.1509C29.5034 36.0825 29.3851 36.0185 29.2475 36.0541L29.2977 36.2477Z" fill="black" mask="url(#path-57-inside-3_11_223)"/>
<path fill-rule="evenodd" clip-rule="evenodd" d="M26.6619 40.581L27.3692 41.9156C27.4172 41.8956 27.4727 41.8723 27.5321 41.847C27.7265 41.7644 27.963 41.6617 28.1158 41.5892C28.2126 41.5432 28.2759 41.5094 28.2736 41.5006C28.2666 41.4735 28.0968 41.0043 28.0128 40.7731L28.3953 40.8546L29.0125 40.5863C29.076 40.4132 29.2235 40.0618 29.3048 40.0407C29.3861 40.0196 28.7717 39.8897 28.4544 39.8274C28.2244 40.0556 27.5439 40.5259 26.6619 40.581Z" fill="black"/>
<path d="M27.5321 41.847C27.4727 41.8723 27.4172 41.8956 27.3692 41.9156L26.6619 40.581C27.5439 40.5259 28.2244 40.0556 28.4544 39.8274C28.7717 39.8897 29.3861 40.0196 29.3048 40.0407C29.2235 40.0618 29.076 40.4132 29.0125 40.5863L28.3953 40.8546L28.0128 40.7731C28.0968 41.0043 28.2666 41.4735 28.2736 41.5006C28.2759 41.5094 28.2126 41.5432 28.1158 41.5892M27.5321 41.847C27.589 41.9736 27.7148 42.2453 27.763 42.3196C27.8232 42.4124 27.8595 42.6921 27.9034 42.8614C27.9385 42.9969 28.2115 43.4924 28.3436 43.7232L28.474 44.0869C28.5392 44.1062 28.6729 44.1294 28.6859 44.0682C28.7022 43.9916 28.6257 43.9753 28.7863 43.8976C28.6551 43.4377 28.3838 42.484 28.3487 42.3485C28.3049 42.1792 28.1864 41.5825 28.1158 41.5892M27.5321 41.847C27.7265 41.7644 27.963 41.6617 28.1158 41.5892" stroke="black" stroke-width="0.2"/>
<path d="M28.3436 43.7232C28.4339 43.6998 28.6313 43.6342 28.6985 43.5589M28.474 44.0869C28.4693 44.1557 28.4668 44.2554 28.4738 44.34M28.7863 43.8976C28.7544 43.9254 28.8671 43.9795 28.9947 44.0243M28.4738 44.34C28.4818 44.4365 28.5021 44.5134 28.5454 44.5021C28.647 44.4758 29.0885 44.506 29.2578 44.4621C29.354 44.4613 29.5461 44.4308 29.5451 44.3154C29.5448 44.2837 29.5368 44.2559 29.5234 44.2315M28.4738 44.34C28.7721 44.3837 29.3996 44.4233 29.5234 44.2315M29.5234 44.2315C29.4754 44.1448 29.3579 44.103 29.2717 44.0971C29.2525 44.0958 29.2236 44.0905 29.1893 44.0823M28.8477 44.1347C28.8764 44.0911 28.946 44.008 28.9947 44.0243M28.9947 44.0243C29.0283 44.0361 29.0629 44.0473 29.0962 44.0572M28.9669 44.1761C28.9896 44.1307 29.0473 44.0435 29.0962 44.0572M29.0962 44.0572C29.1294 44.067 29.1611 44.0756 29.1893 44.0823M29.086 44.2175C29.1043 44.1646 29.1504 44.0635 29.1893 44.0823" stroke="black" stroke-width="0.2"/>
<path d="M28.1858 41.1619C28.2008 41.158 28.603 40.9871 29.0674 40.7889M29.0335 43.0384L29.1702 43.1476M29.0335 43.0384C28.934 42.9799 28.7084 42.9275 28.602 43.1864M29.0335 43.0384L28.9545 42.7336M29.0335 43.0384L29.1782 42.684M29.1702 43.1476C29.2109 43.1943 29.2554 43.2596 29.2879 43.3339M29.1702 43.1476C29.226 43.008 29.2906 42.8473 29.3602 42.6755M30.4047 40.6592C30.393 40.614 30.3593 40.5119 30.3182 40.4648C30.2874 40.4295 29.8646 41.4375 29.5005 42.3301M30.4047 40.6592C30.4921 40.6245 30.6651 40.5484 30.6581 40.5213M30.4047 40.6592L30.4223 40.7269L30.4988 40.7433M30.6581 40.5213C30.6511 40.4942 30.3626 40.0316 30.2192 39.8038M30.6581 40.5213L30.7095 40.5802L30.7271 40.648M30.2192 39.8038C30.1627 39.8184 30.0448 39.8562 30.0248 39.8903M30.2192 39.8038L30.2781 39.7523L30.2267 39.6934L30.0486 39.7034L29.994 39.7717M30.0248 39.8903C30.0089 39.9172 30.0737 40.0297 30.1299 40.116M30.0248 39.8903L29.957 39.9078L29.9395 39.8401L29.994 39.7717M30.1299 40.116C30.145 40.1391 30.1594 40.1603 30.1715 40.1775L30.1299 40.116ZM30.1299 40.116L28.1081 41.0014M28.9143 42.997C28.9073 42.9699 28.4675 42.0165 28.2485 41.5432M28.3224 42.2469L28.3475 42.2042C28.4629 42.4635 28.7021 42.987 28.7362 43.007L28.5155 42.992M29.1087 43.8863L28.9607 43.4548C28.9125 43.3806 28.867 43.4189 28.8503 43.4473L28.9732 43.9214M29.1087 43.8863L29.1525 44.0557M29.1087 43.8863C29.3746 43.7361 29.3648 43.5098 29.2879 43.3339M28.7775 43.8637C28.8315 43.8859 28.9461 43.9285 28.9732 43.9214M28.9732 43.9214C28.979 43.944 28.9925 43.9959 28.9995 44.023M28.3185 43.7658L26.9664 43.4295C26.8865 43.3538 26.7707 43.1766 26.9464 43.0733M26.9464 43.0733C26.9002 43.2298 26.9229 43.3083 26.9401 43.3279L28.1542 43.4108M26.9464 43.0733L27.3604 41.8818M27.4708 41.8893C27.3606 42.2139 27.1669 42.7917 27.0861 43.0547M28.0764 43.2503C27.945 43.2577 27.4529 43.2404 27.2005 43.2173M27.5322 42.1264C27.4553 42.3873 27.3031 42.9158 27.3101 42.9429C27.276 42.9228 27.2173 43.0031 27.1922 43.0457L27.0861 43.0547M27.6175 42.1766L27.3528 42.968C27.3638 42.9857 27.374 43.0086 27.3791 43.0334M27.0861 43.0547C27.0617 43.1342 27.0476 43.1849 27.0492 43.1912C27.0515 43.2001 27.1109 43.2091 27.2005 43.2173M27.2005 43.2173C27.3669 43.1915 27.3937 43.1046 27.3791 43.0334M27.3879 43.1035L28.0589 43.1826M27.3791 43.0334L27.9987 43.0897M29.2879 43.3339L29.3583 43.3157L29.2551 42.981M30.4988 40.7433L30.6342 40.7081L30.7271 40.648M30.4988 40.7433C30.4624 40.7888 30.4155 40.9239 30.5188 41.0995L31.5521 42.8556C31.6092 42.9066 31.7067 42.9592 31.6813 42.8046M30.7271 40.648C30.7864 40.6446 30.9175 40.6854 30.9666 40.875M30.8224 40.8762C30.6578 40.6876 30.6468 40.8495 30.6618 40.954L31.6347 42.6896M30.944 41.2061L31.7453 42.6248M31.7453 42.6248C31.7591 42.5851 31.809 42.536 31.8983 42.6575M31.7453 42.6248L31.6347 42.6896M31.1046 41.1284L31.8983 42.6575M31.8983 42.6575C31.8993 42.7729 31.8369 42.7457 31.8055 42.7177L31.6813 42.8046M31.6813 42.8046C31.6788 42.7894 31.6751 42.7722 31.67 42.7528L31.6347 42.6896M29.994 39.7717L29.7915 39.4086M29.7915 39.4086L29.631 39.4863C29.636 39.4128 29.6257 39.2709 29.5444 39.2919C29.4632 39.313 30.0349 39.0926 30.3309 38.9797C30.3878 39.0132 30.4761 39.0939 30.3748 39.149C30.3022 39.1886 30.1122 39.2721 29.9544 39.3397M29.7915 39.4086C29.8346 39.3906 29.892 39.3664 29.9544 39.3397M29.9544 39.3397C29.9596 39.3597 30.0929 39.5955 30.159 39.7109M29.001 42.2156C29.0303 42.0032 29.0936 41.5411 29.1127 41.3916C29.1318 41.242 29.2135 40.9438 29.252 40.8133L29.0674 40.7889M29.001 42.2156C29.0411 42.2775 29.1467 42.3875 29.2481 42.3323C29.254 42.2833 29.287 42.1905 29.3712 42.2112M29.001 42.2156C28.9717 42.2772 28.9363 42.3709 28.9251 42.4521M29.0674 40.7889C29.3264 40.6784 29.6047 40.5593 29.8461 40.456M29.2797 40.0833C29.4524 40.0988 29.7895 40.1541 29.7634 40.2765M29.8461 40.456C29.9525 40.4104 30.0517 40.3679 30.1388 40.3305L29.5449 41.7855M29.8461 40.456C29.8646 40.6079 29.8303 41.0865 29.5449 41.7855M29.5449 41.7855L29.3712 42.2112M29.3712 42.2112L29.2104 42.6052M29.1782 42.684L28.9959 42.6145C28.9271 42.6033 28.9138 42.534 28.9251 42.4521M29.1782 42.684L29.2104 42.6052M29.3283 42.7813C29.5724 42.8867 30.0399 43.0451 29.9567 42.8353C29.9522 42.8241 29.9477 42.8132 29.9432 42.8027M29.74 42.5384C29.7755 42.5494 29.8633 42.6177 29.9432 42.8027M29.74 42.5384L29.6094 42.6109M29.74 42.5384C29.721 42.5235 29.6976 42.5051 29.6729 42.4853M29.5005 42.3301C29.4523 42.4481 29.4052 42.5642 29.3602 42.6755M29.5005 42.3301C29.4964 42.3402 29.5914 42.4199 29.6729 42.4853M28.9251 42.4521C28.9519 42.4668 29.1264 42.5603 29.2104 42.6052M29.3602 42.6755C29.5278 42.761 29.8792 42.906 29.9432 42.8027M29.5215 42.5506C29.5532 42.525 29.6279 42.4762 29.6729 42.4853" stroke="black" stroke-width="0.2"/>
<path d="M27.4469 42.0762L27.7028 42.2267L27.5298 41.8379L27.4708 41.8893L27.4469 42.0762Z" fill="black"/>
<path d="M27.3604 41.8818L27.319 42.0009C27.2676 41.942 26.9954 41.8679 26.5802 41.9394C26.1651 42.0108 26.1023 42.6054 26.1474 42.9189C26.2352 43.2576 26.4053 43.6352 26.5374 43.866C27.1118 44.5484 27.5357 44.5108 27.9672 44.3628C28.1529 44.2424 28.2691 43.9473 28.3097 43.732L28.4577 44.1635L28.4501 44.2738C28.016 45.1091 27.2071 44.7767 26.6778 44.4078C26.1485 44.039 25.9367 43.082 25.884 42.8788C25.8313 42.6756 25.8778 42.1575 26.214 41.7813C26.483 41.4803 26.9984 41.5539 27.2225 41.6284L27.3604 41.8818Z" fill="black"/>
<path d="M28.7248 44.6364L28.6897 44.5009L29.224 44.4708L29.0898 44.6502L28.7248 44.6364Z" fill="black"/>
<path d="M29.5415 42.9068L29.4826 42.9582L29.2937 42.8736L29.3032 42.824L29.5415 42.9068Z" fill="black"/>
<path d="M29.1163 42.8001L28.9545 42.7336L29.0386 42.6396L29.1665 42.7148L29.1163 42.8001Z" fill="black"/>
<path d="M29.5532 39.3258L29.5971 39.4951L28.8696 39.7559C28.6789 39.6897 28.7492 39.5703 28.8082 39.5189L29.5106 39.3007L29.5532 39.3258Z" fill="black"/>
<path d="M30.9317 38.7879L30.3648 38.9709L30.4676 39.0888L30.282 39.2092C30.4935 39.1424 30.9234 39.0069 30.9505 38.9998C31.092 38.8764 30.997 38.8071 30.9317 38.7879Z" fill="black"/>
<path d="M30.9829 40.7985L30.653 40.9201L30.8424 41.2325C30.9862 41.1831 31.2892 41.0878 31.3504 41.1008C31.4116 41.1139 31.7505 41.2501 31.9123 41.3166L32.1431 41.5098C32.2714 41.6332 32.5419 41.9052 32.5971 42.0066C32.6911 42.0906 32.9946 42.8432 33.0297 42.9787C33.0648 43.1142 33.0434 43.5895 32.9606 43.8278C32.8778 44.0661 32.7097 44.2543 32.4475 44.3583C32.1854 44.4624 31.6749 44.3056 31.2823 44.0459C30.9683 43.8381 30.6707 43.3129 30.5612 43.0762C30.4108 42.6815 30.2227 41.7978 30.6743 41.4206C30.6603 41.3664 30.5364 41.1672 30.4762 41.0744C30.2379 40.9916 29.4826 42.9582 30.8671 44.1173C31.9748 45.0446 32.751 44.7857 33.0006 44.5403C33.211 44.3292 33.591 43.7223 33.4285 42.9838C33.2255 42.0606 32.4981 41.3455 32.404 41.2615C32.1903 40.8832 31.3676 40.7952 30.9829 40.7985Z" fill="black"/>
<path d="M29.2781 42.8666L29.2937 42.8736M29.2937 42.8736L29.4826 42.9582L29.5415 42.9068L29.3032 42.824L29.2937 42.8736ZM27.7028 42.2267C27.6687 42.2067 27.518 42.118 27.4469 42.0762L27.4708 41.8893L27.5298 41.8379L27.7028 42.2267ZM27.319 42.0009L27.3604 41.8818L27.2225 41.6284C26.9984 41.5539 26.483 41.4803 26.214 41.7813C25.8778 42.1575 25.8313 42.6756 25.884 42.8788C25.9367 43.082 26.1485 44.039 26.6778 44.4078C27.2071 44.7767 28.016 45.1091 28.4501 44.2738L28.4577 44.1635L28.3097 43.732C28.2691 43.9473 28.1529 44.2424 27.9672 44.3628C27.5357 44.5108 27.1118 44.5484 26.5374 43.866C26.4053 43.6352 26.2352 43.2576 26.1474 42.9189C26.1023 42.6054 26.1651 42.0108 26.5802 41.9394C26.9954 41.8679 27.2676 41.942 27.319 42.0009ZM28.6897 44.5009L28.7248 44.6364L29.0898 44.6502L29.224 44.4708L28.6897 44.5009ZM28.9545 42.7336L29.1163 42.8001L29.1665 42.7148L29.0386 42.6396L28.9545 42.7336ZM29.5971 39.4951L29.5532 39.3258L29.5106 39.3007L28.8082 39.5189C28.7492 39.5703 28.6789 39.6897 28.8696 39.7559L29.5971 39.4951ZM30.3648 38.9709L30.9317 38.7879C30.997 38.8071 31.092 38.8764 30.9505 38.9998C30.9234 39.0069 30.4935 39.1424 30.282 39.2092L30.4676 39.0888L30.3648 38.9709ZM30.653 40.9201L30.9829 40.7985C31.3676 40.7952 32.1903 40.8832 32.404 41.2615C32.4981 41.3455 33.2255 42.0606 33.4285 42.9838C33.591 43.7223 33.211 44.3292 33.0006 44.5403C32.751 44.7857 31.9748 45.0446 30.8671 44.1173C29.4826 42.9582 30.2379 40.9916 30.4762 41.0744C30.5364 41.1672 30.6603 41.3664 30.6743 41.4206C30.2227 41.7978 30.4108 42.6815 30.5612 43.0762C30.6707 43.3129 30.9683 43.8381 31.2823 44.0459C31.6749 44.3056 32.1854 44.4624 32.4475 44.3583C32.7097 44.2543 32.8778 44.0661 32.9606 43.8278C33.0434 43.5895 33.0648 43.1142 33.0297 42.9787C32.9946 42.8432 32.6911 42.0906 32.5971 42.0066C32.5419 41.9052 32.2714 41.6332 32.1431 41.5098L31.9123 41.3166C31.7505 41.2501 31.4116 41.1139 31.3504 41.1008C31.2892 41.0878 30.9862 41.1831 30.8424 41.2325L30.653 40.9201Z" stroke="black" stroke-width="0.2"/>
<path d="M19.75 16.25V18.75H23.75L19.75 16.25Z" fill="black"/>
<path d="M22.75 15.75L25.25 17.25V15.75H22.75Z" fill="black"/>
<path d="M22.75 12.75H25.25V11.25L22.75 12.75Z" fill="black"/>
<path d="M19.75 9.75V12.25L23.75 9.75H19.75Z" fill="black"/>
<path d="M12.75 9.75L16.75 12.25V9.75H12.75Z" fill="black"/>
<path d="M11.25 12.75H13.75L11.25 11.25V12.75Z" fill="black"/>
<path d="M11.25 17.25L13.75 15.75H11.25V17.25Z" fill="black"/>
<path d="M16.75 16.25L12.75 18.75H16.75V16.25Z" fill="black"/>
<path d="M17.25 18.75V15.25H11.25M11.25 15.25V15.75M11.25 15.25V13.25M11.25 17.25L13.75 15.75H11.25M11.25 17.25V15.75M11.25 17.25V18.3481M15.75 15.75L15.6171 15.8267M11.25 18.3481V18.75H11.75M11.25 18.3481L15.6171 15.8267M11.75 18.75L16.75 15.75L15.6171 15.8267M11.75 18.75H12.75M12.75 18.75L16.75 16.25V18.75M12.75 18.75H16.75M16.75 18.75H19.25M19.75 18.75V16.25L23.75 18.75M19.75 18.75H19.25M19.75 18.75H23.75M19.25 18.75V15.25H25.25M25.25 15.25V15.75M25.25 15.25V13.25M25.25 17.25L22.75 15.75H25.25M25.25 17.25V15.75M25.25 17.25V17.75M25.25 17.75L21.75 15.75H20.75L25.25 18.25M25.25 17.75V18.25M23.75 18.75H25.25V18.25M19.25 9.75V13.25H25.25M19.25 9.75H17.25M19.25 9.75H19.75M25.25 13.25V12.75M17.25 9.75V13.25H11.25M17.25 9.75H16.75M11.25 13.25V12.75M11.25 12.75H13.75L11.25 11.25M11.25 12.75V11.25M11.25 11.25V10.75M12.75 9.75H11.25V10.25M12.75 9.75L16.75 12.25V9.75M12.75 9.75H16.75M11.25 10.75L14.75 12.75C15.039 12.7231 15.6437 12.6855 15.75 12.75L11.25 10.25M11.25 10.75V10.25M19.75 9.75V12.25L23.75 9.75M19.75 9.75H23.75M23.75 9.75H24.5M25.25 12.75H22.75L25.25 11.25M25.25 12.75V11.25M25.25 11.25V10.25M25.25 10.25V9.75H24.5M25.25 10.25L20.75 12.75H19.75L24.5 9.75" stroke="black" stroke-width="0.3"/>
</g>
</g>
<defs>
<clipPath id="clip0_11_223">
<rect width="56.5" height="71" fill="white" transform="matrix(0 -1 1 0 0 56.5)"/>
</clipPath>
<clipPath id="clip1_11_223">
<rect width="41" height="55" fill="white" transform="matrix(0 -1 1 0 8.00001 48.5)"/>
</clipPath>
</defs>
</svg>
