<svg width="411" height="237" viewBox="0 0 411 237" fill="none" xmlns="http://www.w3.org/2000/svg">
<g clip-path="url(#clip0_13_262)">
<path d="M411 0H0V237H411V0Z" fill="white"/>
<path d="M413 -6.5L412 191V191.5L402 189.5L402.5 146L401.5 143H385L388 136H395.5V129.5L391 126L386.5 129L387 136L384.5 143H381.5V167V186.5L379 186L378.5 99.5H355.5V147L356 148.5H352.5L350 49.5H349.5L347 49V45L337.5 43L329 44.5L329.5 49L325 50L324 178L320 177.5L320.5 152L319 151.5V147.5L317.5 147V107L316 106.5L315.5 95.5L306.5 95L303 96V105L301.5 106.5V126.5H293.5V154H290V104L289.5 103L289 98.5L291 96.5L287 97L287.5 89L286.5 81.5L285.5 79L284.5 78.5V76L283 71.5V67L281 65V61L279.5 59L279 56L278.5 51.5L277.5 48.5L276.5 47.5L275 54L274.5 59L273 60L272.5 65L270.5 68L271 71L269.5 74.5V80H268L267 82.5L266.5 97H262.5L265 99V103.5H264V128H254.5V118H241.5L243.5 114.5L250 114L250.5 107.5L246 103L241.5 106.5V114H243L241 117.5H238V135.5H234.5V85H233V70H231V63.5L230 63V59.5H228V57H226V56L224.5 55L223 51L222 38.5L221.5 37V35L220.5 34.5L218.5 35L217.5 35.5V37L217 38V44V50L215.5 54L214 55L213.5 56.5H212L211.5 59.5L209 59L209.5 63L208 63.5L208.5 70H206V84.5L204.5 85V121.5L204 127L190.5 126.5L191.5 123H196.5V116L193.5 114.5L190 115.5L189.5 123H191L190 126.5L188 127V171H185.5V97.5L182 96.5L179.5 98V85L176.5 87L170 90.5L169.5 103.5L169 104.237V171H168H165.5L164 170.5L164.5 169.5L163.5 165.5V150L162.5 147.5L163 125L165 123L161.5 121H158L154 120L147.5 120.5L148 121.5L138.5 122.5L137.5 121.5L132 122V114.5L129 114V107H106V114H103V159H101.5V139H85L86.5 135.5H88H93L93.5 128.5L89.5 125.5L85.5 129V135.5H86L84.5 139H79V162V164.5L74.5 165L74 169H71L70.5 173.5L57.5 174L57 170.5L55.5 169.5L55 167.5L54.5 165L56 163V156V148L57.5 147.5L58.5 146.5V144.5V143.5L59.5 142L60.5 141.5L61.5 140.5V139.5V139V138V137L60.5 136L58 135L57 136H56L54 133L53 130.5L51 129L50.5 125V124L51 121.5L49.5 120L47.5 119.5L45 120L44 121.5V123.5L45 125.5L45.5 127L45 128L42.5 125L41.5 123V121C40.6667 117.833 39 111.4 39 111V109.5C39 109.1 39.3333 109 39.5 109L40 108.5H40.5V108L41 106.5H40.5H39.5V106L40 104.5V103L39.5 102L37 103.5L36 104.5C35.6 104.9 36.1667 105 36.5 105L37 105.5L37.5 106.5H36.5H35L34.5 107L35 108.5H36L36.5 110L37 112L37.5 116.5L38 124L37 125.5L36.5 128L37.5 129.5L38 130.5L39 132L39.5 133L39 135L40.5 137L40 138L39 140V142.5L40 143.5V144.5L39 147.5L40.5 149.5L40 153.5V155.5V158L39 161.5L39.5 167L35.5 172L36 174.5L-1.5 177L-6 -3.5L413 -6.5Z" fill="white" id="city-skyline"/>
<path d="M1.51968 184.732C40.1907 182.011 69.569 180.597 147.02 178.435" stroke="black"/>
<path d="M2.03928 180.684C33.3509 177.895 65.6851 176.732 146.501 175.287" stroke="black"/>
<path d="M2.03928 176.636C56.7524 173.311 89.1136 172.263 148.579 171.239" stroke="black"/>
<path d="M151.177 124.015C101.763 156.066 69.4415 167.745 2.03928 175.287M133.509 125.365C89.3307 153.063 60.0477 162.871 2.03928 173.038M2.03928 170.34C49.1085 160.601 74.6219 150.604 118.959 126.714M162.61 128.063C186.641 155.646 224.569 170.52 262.381 173.367M262.381 173.367C263.941 173.484 265.5 173.581 267.058 173.658M262.381 173.367C289.187 172.999 309.162 166.826 331.494 151.45M356.437 150.551C333.792 167.447 300.7 175.31 267.058 173.658M267.058 173.658C298.207 173.633 315.061 168.718 343.966 150.551M162.61 142.005C192.09 163.011 206.936 169.433 230.683 172.139M215.613 172.139C199.247 169.547 188.817 166.425 164.169 152.799M114.802 124.015L121.558 123.116L122.597 124.015L130.911 123.566L130.392 122.216L137.667 121.767L138.186 122.666L148.06 121.767L147.02 120.417L154.815 119.968L157.413 120.867H161.051L165.208 123.116L162.61 124.915V147.402L163.129 150.101V165.392L164.169 168.541V173.938" stroke="black"/>
<path d="M115.322 124.015L117.92 127.613V148.752L117.401 150.551V167.191L116.881 168.99V171.689M114.802 179.335L116.361 182.033M116.361 182.033V195.975L115.322 198.674V212.166L114.283 214.865V219.362M116.361 182.033H121.038M121.038 182.033V179.335M121.038 182.033V195.975L121.558 198.674V212.616L122.077 220.712M130.392 179.335L130.911 182.033V196.425L130.392 198.674V213.066L129.872 213.965V221.161" stroke="black"/>
<path d="M135.068 178.885L135.588 219.812M137.147 178.885L137.667 219.812M116.881 125.814L121.038 125.365M121.038 125.365L121.558 125.814M121.038 125.365L121.558 123.116M121.558 125.814L131.951 125.365V124.015L137.147 123.566L138.706 124.465L149.619 123.566L149.099 122.216L153.604 121.783M121.558 125.814V171.689M153.604 121.783L154.815 119.968M153.604 121.783L153.776 121.767L156.894 122.666H159.492M153.604 121.783V126.833L153.776 164.943L154.295 168.541V173.938M163.129 124.465L160.011 122.666H159.492M159.492 122.666V173.764C159.492 173.903 159.492 173.938 159.492 173.938M154.295 173.938H147.02L146.501 175.287V177.086M154.295 173.938L157.933 174.387H158.452M154.295 173.938L153.776 177.086M117.92 129.862H121.558M121.558 129.412L132.47 128.963M132.99 125.814V128.513M132.99 128.513H137.147M132.99 128.513V142.905M132.47 171.417V151.45L132.99 147.402V142.905M132.99 142.905C131.745 139.104 130.805 137.718 128.833 136.159C127.793 137.658 125.611 141.196 125.195 143.355C124.779 145.513 124.676 151.15 124.676 153.699V171.689M137.147 124.015V128.513M137.147 128.513V148.973L136.627 153.699V171.417M137.147 128.963L150.138 127.613M149.099 124.015L150.138 125.365V143.804L150.064 144.704M150.064 144.704L149.619 150.101V164.943L148.579 168.091V173.938M150.064 144.704C149.061 140.804 148.006 138.722 144.942 135.259C140.454 139.575 139.948 143.205 139.745 150.101V171.417M146.501 177.086L148.579 181.583V195.975L147.54 198.674V211.823L147.02 214.865V222.511M146.501 177.086H153.776M158.452 174.387H165.208L165.338 174.837M158.452 174.387L157.413 177.086M153.776 177.086V181.583V195.975L154.295 198.674V212.166L154.815 215.764V221.161M153.776 177.086H157.413M156.894 123.116V173.764C156.894 173.903 156.894 173.938 156.894 173.938M166.247 177.985L164.169 181.583V195.076L165.208 198.674V212.949L165.728 215.315V219.362M166.247 177.985L165.338 174.837M166.247 177.985C241.78 177.938 279.533 179.503 329.416 186.398M165.338 174.837C251.453 175.016 294.268 177.003 355.918 185.631M329.416 186.398C330.792 186.588 332.177 186.782 333.573 186.98L334.612 186.96M329.416 186.398L330.975 191.028V200.5M157.413 177.086L156.894 181.583V212.166L157.413 215.764V220.712M157.413 177.086L165.728 177.536M159.492 181.583V220.712M131.431 139.757C128.971 142.005 128.388 144.639 128.313 151V171.417M147.02 138.407C145.371 140.401 144.888 142.452 144.422 146.953C144.422 154.149 144.422 166.142 144.422 171.239M164.169 171.239C251.304 171.954 291.427 174.189 330.975 179.084M330.975 179.084V170.789L331.494 165.842V151.45L329.416 149.201H335.132L334.612 150.551V179.542M330.975 179.084C332.187 179.234 333.399 179.387 334.612 179.542M355.918 182.483C354.522 182.279 353.137 182.078 351.76 181.88M351.76 181.88C350.816 181.744 349.875 181.61 348.938 181.478M351.76 181.88C351.843 170.74 350.814 161.904 354.545 159.546M355.918 186.531L348.938 186.671M348.938 186.671L347.084 186.708L343.966 186.771M348.938 186.671V199.5M334.612 186.96L342.926 186.792L343.966 186.771M334.612 186.96V199.5M343.966 186.771V200M356.957 150.101L355.398 146.953H360.594M356.957 150.101V163.144L356.74 165.392M356.957 150.101L355.918 151M360.594 146.953L362.673 147.852M360.594 146.953L360.075 150.101V163.144V168.541L360.594 175.287V185.631M356.74 165.392L356.437 168.541V185.631M356.74 165.392C356.044 162.487 355.426 160.799 354.545 159.546M356.957 199.5V190.578L356.437 186.98V185.631M356.437 185.631H360.594M334.612 179.542C335.305 179.631 335.997 179.72 336.691 179.81M336.691 179.81C336.603 167.615 336.973 161.82 340.328 158.196C341.034 158.77 341.741 159.524 342.407 160.524M336.691 179.81C337.556 179.923 338.422 180.037 339.289 180.152M335.132 149.651H342.407M343.966 180.415V163.593M343.966 163.593V161.345L343.446 157.747V151L341.368 147.852H347.084L348.643 148.752H355.918M343.966 163.593C343.492 162.372 342.964 161.362 342.407 160.524M362.673 147.852L365.791 148.302L366.83 149.201L365.271 151V152.35M362.673 147.852V163.593L363.193 171.689V186.081M360.594 185.631L363.193 186.081M360.594 185.631L360.075 187.88V200M365.271 152.35C375.751 169.591 383.513 177.833 401.127 189.679M365.271 152.35V165.842M363.193 186.081H366.311M363.193 186.081V199.5M365.271 175.737L366.311 179.784V183.382L366.432 184.015M365.271 175.737V165.842M365.271 175.737C372.615 181.954 376.186 184.222 381.9 186.792M366.432 184.015L366.83 186.081V187.88L366.311 190.578M366.432 184.015L408.402 191.028M365.271 165.842C373.963 177.21 379.634 182.054 391.254 187.88M366.311 190.578C377.646 191.865 384.138 192.858 395.93 195.076M366.311 190.578V195.526M366.311 195.526V198.674H411M366.311 195.526H408.402M342.407 160.524C339.738 163.87 339.665 169.982 339.289 180.152M339.289 180.152C342.48 180.576 345.689 181.018 348.938 181.478M348.938 181.478C349.042 168.156 348.881 159.933 352.8 157.747C353.498 158.302 354.061 158.858 354.545 159.546M367.35 186.98C380.678 188.704 387.9 189.586 408.402 193.727M107.008 221.611C111.038 219.743 113.095 218.951 115.322 219.362C115.807 219.37 117.075 219.671 121.038 220.712C125.482 222.147 127.75 222.117 131.431 220.712C135.294 218.969 137.687 219.061 142.343 221.161C146.817 223.155 149.02 222.936 152.736 221.611C155.865 220.78 158 220.481 160.011 220.916M160.011 220.916C161.207 221.175 162.358 221.692 163.649 222.511M160.011 220.916C163.664 218.722 165.713 218.513 169.365 220.916C171.509 222.225 172.749 222.51 175.081 221.611C178.073 220.219 179.304 220.697 181.317 222.061C183.608 223.644 185.442 223.822 190.67 221.611" stroke="black"/>
<path d="M219.521 13V34.6818M219.521 34.6818C218.324 34.6686 217.93 35.0532 217.437 36.0369C217.255 37.0328 217.411 37.4272 217.958 37.8437M219.521 34.6818C220.745 34.7177 221.22 34.9014 221.604 35.5852C221.876 36.2138 221.916 36.6714 221.604 37.8437M221.604 37.8437H217.437L216.917 38.2955C216.951 49.4597 216.562 53.4867 214.833 55.0085M221.604 37.8437L222.125 38.2955C222.076 49.5457 222.766 52.6731 224.729 55.0085M225.771 56.8153L225.25 55.0085H213.792L213.271 56.8153M211.708 59.9773V56.8153H227.333H227.854V59.5256M227.854 59.5256H209.104V62.6875V63.1392M227.854 59.5256H229.417H229.937V63.1392M209.104 63.1392H229.937M209.104 63.1392H208.062V69.9148M229.937 63.1392H230.979V69.9148M205.979 84.821V69.9148H213.792V84.821M225.25 84.821V69.9148H233.062V84.821M234.625 155.507V146.705M234.625 146.705V84.821H223.687V146.705H215.354V84.821H204.417V126.83M234.625 146.705H237.75V155.287M204.417 155.507V146.705M204.417 146.705H201.292V155.507M204.417 146.705V126.83M204.417 126.83H196.604M200.25 155.507H212.229V160.707M212.229 164.321V167.483M200.25 158.901V162.966M200.25 169.29V171.548M212.229 169.741V171.097M227.07 166.58V155.507H238.466V162.966M238.466 162.966V169.29M238.466 162.966H244V170.645M227.07 168.386V172M235.667 135.412H241.396V162.062M182.021 96.5653V144.446M182.021 96.5653L185.146 97.4687V146.705M182.021 96.5653L179.417 98.1011M179.417 98.1011V85.2727L170.042 90.6932C169.437 92.3443 169.534 97.0955 169.521 103.937M179.417 98.1011L169.521 103.937M182.021 147.608V171.548M187.75 148.511V126.83H190.354M190.354 126.83L191.396 123.216M190.354 126.83H193.479M187.75 151.673V171.548M196.604 126.83H193.479M196.604 126.83L195.042 123.216M191.396 123.216H189.833V115.989L193.479 114.182L196.604 115.989V123.216H195.042M191.396 123.216H193.479M195.042 123.216H193.479M193.479 123.216V126.83M169 134.057V104.244L169.521 103.937M169 137.219V171.548M185.146 149.866V171.548M176.292 67.2045V87.0795" stroke="black"/>
<path d="M276.754 31V47.0292M276.754 47.0292C275.753 48.1258 275.499 49.8322 275.281 53.708M276.754 47.0292C277.776 47.8918 278.055 49.5282 278.228 53.708M274.298 59.0511C274.423 54.9615 274.541 52.7634 276.754 52.8175C278.328 52.68 278.781 54.4003 279.211 59.0511M274.298 59.0511C272.401 60.394 272.212 61.857 272.333 64.8394M274.298 59.0511C275.257 58.5704 276.006 58.3226 276.754 58.3189M279.211 59.0511C281.059 60.2054 281.225 61.7432 281.175 64.8394M279.211 59.0511C278.252 58.5555 277.503 58.3152 276.754 58.3189M276.754 58.3189V55.9343M270.86 71.5182C270.29 68.5417 270.07 67.1147 272.333 65.2847C273.224 64.6266 274.024 64.1226 274.789 63.7871M274.789 63.7871L274.298 61.7226M274.789 63.7871C275.459 63.4937 276.101 63.3292 276.754 63.3035M283.14 71.5182C283.387 68.8454 283.661 67.3074 281.667 65.2847C280.728 64.6094 279.896 64.114 279.124 63.7871M279.124 63.7871C278.281 63.43 277.51 63.2738 276.754 63.3035M279.124 63.7871L279.702 61.7226M269.386 79.0876C269.157 74.1334 269.755 72.1323 272.333 70.1825C273.038 69.6582 273.683 69.2414 274.298 68.9326M274.298 68.9326L273.316 66.6204M274.298 68.9326C275.15 68.5053 275.943 68.2848 276.754 68.2724M284.614 78.6423C284.295 74.1361 283.911 71.9077 281.667 70.1825C280.868 69.6574 280.147 69.241 279.476 68.9326M284.614 78.6423V79.9781V83.5401M284.614 78.6423C286.878 78.833 287.396 82.9957 287.091 96.4526M279.476 68.9326C278.49 68.4788 277.612 68.2593 276.754 68.2724M279.476 68.9326L280.491 66.6204M284.614 83.5401C284.632 79.2799 284.418 77.0198 281.175 74.635C280.653 74.3572 280.166 74.1187 279.702 73.9214M284.614 83.5401V96.4526M287.091 96.4526H282.158C281.812 87.8614 281.93 80.9111 280.491 79.797M287.091 96.4526L284.123 98.2336V103.577H289.035M287.091 96.4526C287.088 96.5999 287.084 96.7483 287.081 96.8978M279.702 73.9214C278.645 73.472 277.707 73.2359 276.754 73.2339M279.702 73.9214L280.684 71.9635M268.895 96.4526V83.9854C269.006 82.3744 269.067 81.0055 269.264 79.797M269.264 79.797C269.598 77.7474 270.322 76.1593 272.333 74.635C272.857 74.3486 273.345 74.1077 273.807 73.9109M269.264 79.797C266.349 79.2435 266.425 85.7718 266.438 96.4526M273.807 73.9109C274.887 73.4512 275.828 73.2319 276.754 73.2339M273.807 73.9109L272.825 71.9635M266.438 96.4526C266.438 96.7463 266.438 97.0431 266.439 97.3431H263L264.965 99.1241V103.131M266.438 96.4526H267.421M287.07 97.3431C287.074 97.1936 287.077 97.0451 287.081 96.8978M287.081 96.8978H291L289.035 98.6788V103.577M273.316 79.797C271.193 81.2544 271.839 88.06 271.842 96.4526H267.421M273.316 79.797C274.099 79.1956 274.819 78.7702 275.525 78.5334M273.316 79.797L271.842 78.5334M267.421 96.4526L269.877 98.6788V103.577H263.982V136.971M275.525 78.5334L274.789 75.9708M275.525 78.5334C276.484 78.212 277.419 78.2379 278.46 78.6423M280.491 79.797C279.756 79.2693 279.089 78.8867 278.46 78.6423M280.491 79.797L281.667 78.1971M278.46 78.6423L279.124 75.9708M289.035 103.577H290.018V153M276.754 63.3035V60.8321M276.754 68.2724V65.7299M276.754 70.6277V73.2339" stroke="black"/>
<path d="M254.486 128.182H262.765M237.927 135.455V117.727H241.032M241.032 117.727L243.619 114.091M241.032 117.727H244.137M254.486 139.545V117.727H250.863M254.486 139.545H256.038M254.486 139.545H250.346V166.364M250.863 117.727H244.137M250.863 117.727L248.276 114.091M244.137 166.364H253.451M253.451 172.273V157.727H256.038V154.091H258.108M258.108 154.091L259.143 149.545M258.108 154.091H262.248M267.422 154.091V157.727H268.975V172.727M267.422 154.091H262.248M267.422 154.091L265.352 149.545M262.248 154.091L262.005 153.558M265.352 149.545H267.94M265.352 149.545H264.835M258.108 141.818V149.545M266.905 141.818V149.545M257.073 149.545H259.143M259.143 149.545H260.178M260.178 149.545H264.835M260.178 149.545L262.005 153.558M264.835 149.545L262.005 153.558M271.044 172.727V163.182H274.149V154.091H278.806V147.273H283.463V154.091H293.295M293.295 154.091H295.365V161.818H296.917V167.273M293.295 154.091V126.364H300.54M298.987 166.364V132.727H300.54M300.54 132.727V129.091H309.337V132.727M300.54 132.727H309.337M311.406 161.818V132.727H309.337M301.057 137.727H308.819M301.057 141.818H308.819M301.057 146.364H308.819M301.057 151.364H308.819M301.057 155.455H308.819M301.057 160H308.819M311.406 165V170.455M311.406 172.727V177.273M298.987 168.182V176.364M298.987 184.545V194.545M300.54 187.727H308.819M300.54 191.364H308.819M311.406 185.909V194.545M301.575 127.727V106.364L303.127 105.455V95.9091L305.714 95M305.714 95L315.546 95.4545L316.064 106.364M305.714 95L305.197 105.455L304.162 106.818V127.727M305.714 106.364L317.616 106.818V147.273H313.994M318.133 147.273H318.651V151.818H320.203V178.636M241.549 107.273V114.091H243.619M243.619 114.091H244.654M250.346 107.273V114.091H248.276M248.276 114.091H247.759M244.654 114.091L244.137 117.727M244.654 114.091H246.206M246.206 114.091H247.759M246.206 114.091V117.273M247.759 114.091L248.276 117.273M271.044 182.273V195.455M268.975 181.818V194.545M253.451 180.909V195M216.194 194.091V185H227.06M227.06 185H233.787V188.636H236.375V181.818H244.137V194.545M227.06 185V180.455M212.571 180V194.091M168.07 191.818H179.971V195.909M183.076 195.455V180.455H191.873V186.818M186.181 194.091V187.273H208.949V194.091M166 195.455C175.243 195.985 184.774 195.938 212.571 195C229.043 194.531 238.354 194.288 261.213 195.455C264.732 195.685 270.138 195.795 294.33 195.909C313.19 195.794 322.174 195.658 329 195M166 200C221.498 198.988 257.556 198.711 329 198.636M258.108 141.364H266.905L262.765 138.636L258.108 141.364ZM245.689 103.182L241.032 106.818H250.863L245.689 103.182Z" stroke="black"/>
<path d="M291 221.812C293.566 226.615 295.457 225.749 296.558 223.913C300.9 214.379 303.339 209.018 304.895 207.804C305.844 224.254 306.212 224.654 307.674 223.212C312.389 209.752 315.036 202.38 319.981 204.302M323.157 209.204H317.202C316.389 211.934 315.776 214.11 315.331 215.858M315.331 215.858C314.111 220.649 314.155 222.231 314.82 223.212C316.13 223.68 317.968 222.986 321.172 221.812M315.331 215.858L321.172 215.508M326.333 208.854C325.186 218.81 324.613 224.095 326.333 221.812C327.221 220.883 327.966 219.739 330.303 215.158C331.703 213.164 331.891 221.812 331.891 221.812C332.073 225.844 334.488 219.254 338.64 208.154M345.787 211.656C348.064 208.671 349.081 207.673 350.154 207.804C351.481 207.933 351.123 209.261 350.154 212.006C348.658 216.248 349.026 216.969 350.154 217.609C352.975 218.544 354.887 215.765 358.491 208.854C356.22 218.002 354.917 222.066 352.536 227.065C350.548 229.787 349.595 231.958 346.581 230.567C345.128 229.514 344.658 228.906 344.993 227.765C345.136 225.599 347.808 223.797 353.33 220.411C359.046 217.889 360.74 217.493 360.873 217.609M369.133 213.407C369.077 214.079 368.982 214.593 368.813 215.158C366.735 220.388 365.529 222.279 363.255 222.512C361.857 222.726 361.332 222.055 360.873 219.36C360.771 216.369 361.017 214.903 362.064 212.706C362.924 211.29 363.576 210.342 364.22 209.79M369.133 213.407C369.173 212.929 369.194 212.37 369.21 211.656C369.037 210.314 368.501 209.72 366.034 209.204C365.345 209.126 364.785 209.305 364.22 209.79M369.133 213.407C364.502 213.829 362.996 213.384 364.049 210.255L364.22 209.79M369.133 213.407C371.708 212.643 372.909 211.471 374.768 208.504L373.832 211.656M373.832 211.656C375.767 208.568 376.843 207.993 378.738 209.79C379.151 210.264 379.243 210.667 379.135 211.656C378.789 213.685 377.47 214.628 373.704 215.668M373.832 211.656L372.55 215.972M370.401 223.212L372.55 215.972M372.55 215.972C372.959 215.869 373.343 215.768 373.704 215.668M373.704 215.668C374.924 219.841 375.786 221.188 377.547 221.812C379.371 222.263 381.023 220.305 384.296 215.668M382.311 223.212C382.979 220.464 383.536 218.036 383.989 215.972M383.989 215.972C384.83 212.145 385.315 209.566 385.487 208.504M383.989 215.972C384.229 215.832 384.463 215.69 384.693 215.548M384.693 215.548C389.004 212.872 391.52 209.886 392.633 208.154M384.693 215.548C386.143 216.228 386.76 217.75 387.869 220.411C389.2 223.44 390.251 223.785 392.236 223.913C394.253 223.986 395.294 223.262 397 220.761" stroke="black"/>
<path d="M337.43 9V43.1809M329.166 46.7789C335.612 44.146 339.469 44.206 346.728 46.7789M329.166 48.5779V44.9799C335.565 42.4959 340.399 42.6375 346.728 44.9799V48.5779M337.947 46.7789L325.033 49.9271L324 177.656L337.947 46.7789ZM337.947 46.7789L349.828 49.4774L352.411 146.623M337.947 46.7789L349.311 146.623M355.51 145.724V99.3995H378.755V168.661M358.093 103.447H376.172M358.093 107.945H376.172M358.093 112.442H376.172M358.093 116.94H376.172M358.609 122.337H376.172M358.609 127.734H376.172M358.609 132.681H376.172M358.609 137.628H376.172M358.609 143.025H376.172M368.94 147.523H376.172M367.907 152.47H376.172M370.49 156.967H376.172M373.589 161.465H376.172M379.788 143.025H384.954M384.954 143.025L387.536 135.829M384.954 143.025H390.636M384.954 143.025L394.252 135.829M402 188V143.025H397.351M397.351 143.025H390.636M397.351 143.025L397.157 142.575M381.338 144.824V171.359M385.47 146.173V150.221M390.636 146.173V150.221M395.801 146.173V150.221M385.47 152.47V156.068M385.47 158.317V161.465V161.915M385.47 164.613V168.211M385.47 170.46V173.608M390.636 152.47V156.068M395.801 152.47V156.068M390.636 158.317V161.915M395.801 158.317V161.915M390.636 164.613V168.211M395.801 164.613V168.211M390.636 170.46V173.608M395.801 170.46V173.608M395.801 176.307V179.455M386.503 129.083L390.636 125.935L395.285 129.083M386.503 129.083V135.829H387.536M386.503 129.083H395.285M395.285 129.083V135.829H394.252M387.536 135.829H390.636M387.536 135.829L397.157 142.575M394.252 135.829H390.636M394.252 135.829L397.157 142.575M390.636 135.829V143.025" stroke="black"/>
<path d="M132 120.676V114.294H128.864V107H105.864V114.294H103.25V133.441M103.25 136.176V141.191M103.25 143.926V149.853M103.25 152.132V159.426M103.25 159.426V171.735M103.25 159.426H93.3182V171.735M98.0227 138.912H101.682V142.559M101.682 144.382V150.765M101.682 153.044V159.426M93.3182 181.309V195.441M103.25 180.397V182.676M114.227 182.676H97.5V195.897M93.8409 138.912H89.1364M89.1364 138.912H84.9545M89.1364 138.912V135.721M79.2045 145.294V138.912H84.9545M84.9545 138.912L86.5227 135.721M79.2045 148.029V158.971M79.2045 161.706V164.897M79.2045 164.897V172.191M79.2045 164.897H73.9773V169H70.8409V173.559M79.2045 182.221V195.897M63 195.441C78.154 196.628 89.875 196.484 114.75 195.441M69.2727 182.676V194.985M93.3182 129.338V135.721H92.2727M92.2727 135.721H89.1364M92.2727 135.721L94.3636 139.368M85.4773 129.338V135.721H86.5227M86.5227 135.721H89.1364M63.5227 200L114.227 199.088M89.1364 125.691L85.4773 128.882H93.3182L89.1364 125.691Z" stroke="black"/>
<path d="M37.7236 106.526C36.8642 105.694 36.4335 105.253 36.1719 104.716C35.7798 103.857 36.6327 103.256 39.7926 102C40.3227 105.105 40.1335 106.273 38.2409 106.526M36.1719 108.789H35.1375C34.4868 107.255 34.235 106.508 35.1375 106.526H40.3098C41.2949 106.656 41 107.377 40.3098 108.789H39.2753M36.1719 108.789H39.2753M36.1719 108.789C37.1852 112.894 37.2454 114.131 37.2064 116.03M39.2753 108.789C38.8407 109.995 39.1293 111.141 39.7926 113.315M37.2064 116.03L39.7926 113.315M37.2064 116.03C37.4609 119.203 37.6928 121.334 38.1191 123.724M39.7926 113.315C41.2809 118.67 41.4272 120.536 41.3727 122.819M38.1191 123.724C38.2943 124.706 38.5022 125.732 38.7581 126.892C39.5919 126.67 40.1745 125.882 41.3443 123.724C41.3554 123.41 41.3657 123.111 41.3727 122.819M38.1191 123.724C36.2666 127.04 35.8976 128.428 37.7236 129.155M41.3727 122.819C42.4119 125.237 43.6243 126.726 45.4822 128.245M37.7236 129.155C39.4346 129.892 40.6353 128.487 42.896 125.082M37.7236 129.155C37.7377 130.923 38.1718 131.533 39.2753 132.323C38.9538 134.983 39.3232 136.048 40.827 137.302M45.4822 128.245C46.357 128.961 47.3751 129.683 48.5856 130.513M45.4822 128.245C45.4173 128.192 45.3784 127.799 45.7423 126.661M48.0683 134.134C42.0499 139.069 39.6497 141.567 40.1831 144.091M40.1831 144.091C40.2149 144.241 40.2572 144.392 40.3098 144.543C38.4407 147.592 38.706 148.525 40.3098 149.522M40.1831 144.091C36.3346 140.034 41.044 136.327 49.3527 129.817M44.4477 140.923C40.7569 146.798 39.6265 150.133 40.151 155.08M40.151 155.08C40.1933 155.479 40.2464 155.888 40.3098 156.311C42.2735 156.44 44.735 153.563 49.4575 147.711M40.151 155.08C38.6229 160.771 38.9305 165.513 39.2753 167.173L36.6892 170.341C35.9744 170.826 35.5595 171.321 35.4324 172.151M49.3527 129.817C49.3296 128.102 49.2732 127.371 49.1028 126.44M49.3527 129.817C49.4414 129.748 49.5305 129.678 49.62 129.608C50.0734 129.302 50.4771 129.137 50.8561 129.129M56.3441 136.397C55.4389 135.962 55.0038 135.251 54.2751 133.681C52.9094 130.483 51.9945 129.102 50.8561 129.129M50.8561 129.129C50.7522 126.733 50.5973 125.748 50.2159 124.376M54.7924 139.112L57.8958 135.039L62.0337 136.849L60.9992 138.66M60.9992 138.66C59.2105 138.235 58.684 138.89 58.9303 142.28M60.9992 138.66C62.4352 140.059 61.3616 140.856 58.9303 142.28M58.9303 142.28C58.7433 142.689 58.5754 143.04 58.413 143.343M58.413 143.343C57.677 144.714 57.0567 145.098 55.3096 145.449M58.413 143.343C58.6166 146.107 58.4065 147.374 55.8268 147.711M54.2751 137.755C56.1273 146.32 56.1514 152.207 55.8268 163.1C54.9993 163.462 54.7924 163.854 54.7924 164.005C54.0742 166.59 54.9352 167.716 55.8268 169.888M55.8268 169.888H40.827M55.8268 169.888C56.8823 169.873 57.2131 170.573 57.3264 172.151M51.1717 137.302C53.1666 139.113 52.7223 140.315 49.62 142.733L49.4575 147.711M49.4575 147.711L49.1028 158.574C51.3409 159.504 51.2349 160.173 47.5511 161.742C44.4234 162.736 43.45 163.439 42.896 164.91M35.4324 172.151C35.3332 172.8 35.4092 173.653 35.6547 174.867M35.4324 172.151H57.3264M57.3264 172.151C57.3548 172.548 57.3695 172.999 57.3785 173.509M49.1028 126.44C49.5588 125.923 49.7944 125.568 49.9833 125.082M49.1028 126.44C47.9219 127.716 47.1524 127.816 45.7423 126.661M49.1028 126.44C49.5391 125.644 49.933 124.988 50.2159 124.376M49.9833 125.082C47.9946 122.048 46.8187 121.895 44.5832 125.082M49.9833 125.082C50.0371 124.944 50.0871 124.795 50.1373 124.629C50.1442 122.966 49.9536 122.319 49.1028 121.914C48.6197 121.55 48.2104 121.425 47.0339 121.461C45.6255 121.5 44.9974 121.721 44.4477 122.819C44.3076 123.427 44.2647 123.805 44.3258 124.177M45.7423 126.661C45.6579 126.591 45.5713 126.518 45.4822 126.44C45.0302 125.99 44.7743 125.624 44.5832 125.082M50.2159 124.376C50.4561 123.855 50.6163 123.366 50.6545 122.847M44.5832 125.082C44.5346 124.944 44.4901 124.795 44.4477 124.629C44.3905 124.47 44.35 124.324 44.3258 124.177M44.3258 124.177C44.1454 123.762 44.0265 123.454 43.9677 123.12M43.9677 123.12C43.9282 122.895 43.9159 122.657 43.9305 122.367C44.1538 121.317 44.3715 120.905 44.9649 120.556C45.7206 120.16 46.5435 120.032 47.3129 120.053M43.9677 123.12L42.3788 123.272M47.3129 120.053C47.9747 120.071 48.5969 120.199 49.1028 120.362M47.3129 120.053L47.0339 116.483M50.6545 122.847C50.666 122.69 50.6664 122.53 50.6545 122.367C50.4964 121.443 50.6545 121.009 49.62 120.556C49.4668 120.489 49.293 120.423 49.1028 120.362M50.6545 122.847L54.2751 123.272M49.1028 120.362L51.689 117.841M53.7579 120.556L50.6545 121.461M42.3788 118.293L44.9649 120.362M41.8615 121.461H43.9677M38.2409 182.561V194.328M54.2751 181.656V194.328M58.9303 181.656V194.328M33.5858 182.561V194.328M34.6202 188.445C44.9733 188.037 50.6754 187.83 56.3441 188.445M29.9651 206.548V202.475C32.0017 200.972 32.5487 200.158 30.4824 198.854V197.044C32.0253 196.474 32.4645 195.87 32.5513 194.328H59.9647C60.1373 195.999 60.585 196.155 61.5164 196.139V197.949C60.4643 200.039 60.9045 200.982 62.5509 202.475V206.548M32.0341 198.854H59.4475M23.7583 211.074V206.548H43.4132M43.4132 206.548C43.4635 204.313 43.6359 203.273 44.9649 202.927C45.6832 202.684 46.2669 202.698 47.5511 202.927C48.7914 203.342 48.964 204.398 49.1028 206.548M43.4132 206.548H49.1028M68.2405 210.621V206.548H49.1028M2.03447 212.432H10.3102M10.3102 212.432V216.052C14.9982 215.332 25.9097 215.588 45.4822 216.052C58.8552 216.486 66.2265 216.413 79.1024 215.6V213.789M10.3102 212.432V211.074L79.1024 210.621V213.789M79.1024 213.789C90.4584 214.332 93.3893 215.181 94.1022 217.41C94.1538 217.567 94.1673 217.718 94.1425 217.863M94.1425 217.863C93.6484 220.747 77.9251 221.186 45.4822 221.484C37.3377 221.728 33.2853 221.618 26.8617 221.031C23.8585 220.974 22.4957 221.17 20.6549 221.936C17.691 222.999 15.8612 222.93 12.3792 221.936C8.73466 220.943 6.06208 221.029 1 221.484M94.1425 217.863C97.8098 218.672 98.4805 219.495 97.7228 221.484C96.571 223.275 95.3776 223.484 92.5505 222.841C86.8506 221.349 83.5733 221.465 77.5507 223.746C71.6278 225.777 68.2576 226.305 62.0337 224.652C57.1373 223.132 54.6515 223.151 50.6545 224.652C46.4541 226.23 43.7484 226.537 37.7236 225.104C33.182 224.082 29.9986 224.469 23.7583 226.009C17.8641 227.411 15.5419 227.247 12.3792 226.009C7.70488 224.46 5.33858 224.212 2.03447 226.009M5.13788 197.949C16.9317 198.163 23.2867 198.261 28.9307 197.949" stroke="black"/>
<path d="M187.96 209.545C190.828 212.475 192.95 212.426 197.288 210.515C201.012 208.501 202.655 208.673 205.061 210.515C207.504 212.184 209.025 211.926 211.798 211C215.825 208.955 217.137 209.428 219.053 211C220.9 212.422 222.472 212.246 225.79 211C229.406 209.307 231.449 209.597 235.118 211.97M87.0001 205.118C90.0395 203.415 91.7411 203.721 94.7733 205.603C96.6393 206.659 97.8164 206.868 100.474 205.603C103.085 204.465 104.212 204.47 105.656 205.603M243.118 220.47C248.485 217.816 250.811 217.374 254 219.5C256.248 221.118 258.318 220.894 262.81 219.015C266.292 217.691 268.566 217.894 273.174 219.985M225.79 227.56C226.814 229.825 228.287 230.252 232.526 229.5C236.496 228.332 238.065 228.232 240.3 228.53C244.611 230.01 245.478 230.022 246 229.5" stroke="black"/>
</g>
<defs>
<clipPath id="clip0_13_262">
<rect width="411" height="237" fill="white"/>
</clipPath>
</defs>
</svg>
