<svg width="56" height="64" viewBox="0 0 56 64" fill="none" xmlns="http://www.w3.org/2000/svg">
<g clip-path="url(#clip0_17_405)">
<path d="M35.439 51.7648C36.0688 52.2169 36.461 52.1472 37.1759 51.8962C38.2141 51.3424 38.5525 51.4705 39.0464 51.8962C39.5226 52.2815 39.9279 52.2337 40.7833 51.8962C41.7155 51.4377 42.2423 51.5161 43.1882 52.159M5 50.3028C5.78363 49.8416 6.22236 49.9245 7.00411 50.4342C7.48521 50.7203 7.78871 50.7769 8.47379 50.4342C9.14706 50.1259 9.43751 50.1274 9.80987 50.4342M45.2508 54.4616C46.6347 53.7426 47.2343 53.6229 48.0565 54.1988C48.636 54.6371 49.1699 54.5765 50.3279 54.0674C51.2257 53.7087 51.812 53.7636 53 54.3302M40.7833 56.3821C41.0473 56.9957 41.427 57.1114 42.5202 56.9077C43.5437 56.5913 43.9482 56.5641 44.5243 56.6449C45.6358 57.0459 45.8594 57.049 45.9939 56.9077M13.2893 53.6732C13.5534 54.2868 13.9331 54.4025 15.0262 54.1988C16.0497 53.8824 16.4543 53.8552 17.0303 53.936C18.1419 54.337 18.3655 54.3401 18.5 54.1988M2.99589 55.3686C3.77952 54.9074 4.21824 54.9903 5 55.5C5.4811 55.7861 5.78459 55.8427 6.46968 55.5" stroke="black" stroke-width="0.2"/>
<path d="M53 2.25H3C2.58579 2.25 2.25 2.58579 2.25 3V61C2.25 61.4142 2.58579 61.75 3 61.75H53C53.4142 61.75 53.75 61.4142 53.75 61V3C53.75 2.58579 53.4142 2.25 53 2.25Z" stroke="black" stroke-width="0.5"/>
<path d="M54 0.449997H2C1.14396 0.449997 0.449997 1.14396 0.449997 2V62C0.449997 62.856 1.14396 63.55 2 63.55H54C54.856 63.55 55.55 62.856 55.55 62V2C55.55 1.14396 54.856 0.449997 54 0.449997Z" stroke="black" stroke-width="0.9"/>
<path d="M23.4866 11.4259C23.0258 10.98 22.7949 10.7435 22.6547 10.4555C22.4445 9.99535 22.9017 9.67311 24.5957 9C24.8799 10.6643 24.7785 11.2903 23.7638 11.4259M22.6547 12.6388H22.1002C21.7514 11.8167 21.6164 11.4162 22.1002 11.4259H24.873C25.4011 11.4958 25.243 11.8823 24.873 12.6388H24.3184M22.6547 12.6388H24.3184M22.6547 12.6388C23.1979 14.8392 23.2302 15.5022 23.2093 16.5202M24.3184 12.6388C24.0854 13.2855 24.2401 13.8995 24.5957 15.0647M23.2093 16.5202L24.5957 15.0647M23.2093 16.5202C23.3457 18.2206 23.47 19.3628 23.6986 20.6442M24.5957 15.0647C25.3935 17.9351 25.472 18.9351 25.4428 20.159M23.6986 20.6442C23.7925 21.1706 23.904 21.7206 24.0411 22.3423C24.4881 22.223 24.8004 21.801 25.4275 20.6442C25.4335 20.4759 25.439 20.3156 25.4428 20.159M23.6986 20.6442C22.7055 22.4216 22.5077 23.1655 23.4866 23.5553M25.4428 20.159C25.9999 21.455 26.6498 22.2529 27.6458 23.0675M23.4866 23.5553C24.4038 23.95 25.0475 23.1973 26.2594 21.372M23.4866 23.5553C23.4941 24.5028 23.7268 24.8294 24.3184 25.2534C24.146 26.6787 24.3441 27.25 25.1502 27.9218M27.6458 23.0675C28.1148 23.451 28.6605 23.8383 29.3095 24.283M27.6458 23.0675C27.611 23.0387 27.5902 22.8285 27.7852 22.2181M29.0322 26.2237C25.8058 28.8688 24.5191 30.208 24.805 31.5607M24.805 31.5607C24.8221 31.6414 24.8448 31.7221 24.873 31.8032C23.871 33.4372 24.0132 33.9376 24.873 34.4717M24.805 31.5607C22.7419 29.3864 25.2666 27.3992 29.7207 23.9101M27.0912 29.8625C25.1127 33.0118 24.5067 34.7994 24.7878 37.4506M24.7878 37.4506C24.8105 37.6646 24.839 37.8842 24.873 38.1105C25.9257 38.1799 27.2452 36.6379 29.7769 33.5014M24.7878 37.4506C23.9686 40.5015 24.1336 43.0431 24.3184 43.9326L22.932 45.6307C22.5488 45.891 22.3264 46.1558 22.2583 46.6011M29.7207 23.9101C29.7083 22.9904 29.6781 22.5988 29.5867 22.0997M29.7207 23.9101C29.7682 23.8729 29.816 23.8354 29.864 23.7979C30.1071 23.634 30.3235 23.5456 30.5266 23.5409M33.4687 27.4367C32.9834 27.2037 32.7502 26.8227 32.3595 25.9811C31.6274 24.267 31.1369 23.5266 30.5266 23.5409M30.5266 23.5409C30.4709 22.257 30.3879 21.7288 30.1834 20.9933M32.6368 28.8922L34.3005 26.7089L36.5187 27.6793L35.9642 28.6496M35.9642 28.6496C35.0053 28.422 34.7231 28.7731 34.8551 30.5903M35.9642 28.6496C36.734 29.3995 36.1584 29.8266 34.8551 30.5903M34.8551 30.5903C34.7548 30.8095 34.6648 30.9974 34.5778 31.1596M34.5778 31.1596C34.1832 31.8949 33.8507 32.1007 32.9141 32.2884M34.5778 31.1596C34.6869 32.6414 34.5743 33.3207 33.1914 33.5014M32.3595 28.1644C33.3524 32.7555 33.3654 35.9107 33.1914 41.7493C32.7477 41.9434 32.6368 42.1537 32.6368 42.2345C32.2518 43.6202 32.7134 44.2235 33.1914 45.3882M33.1914 45.3882H25.1502M33.1914 45.3882C33.7572 45.3799 33.9345 45.7551 33.9952 46.6011M30.6959 27.9218C31.7653 28.8925 31.5271 29.5367 29.864 30.8329L29.7769 33.5014M29.7769 33.5014L29.5867 39.3235C30.7865 39.8223 30.7297 40.1806 28.7549 41.0216C27.0782 41.5546 26.5564 41.931 26.2594 42.7197M22.2583 46.6011C22.2051 46.9485 22.2459 47.4059 22.3774 48.0566M22.2583 46.6011H33.9952M33.9952 46.6011C34.0105 46.8135 34.0184 47.0557 34.0232 47.3289C33.9928 47.5798 33.9498 47.7359 33.7997 48.0566M22.3774 48.0566H33.7997M22.3774 48.0566H21.2683V48.5418V54.8491M33.7997 48.0566H34.8551V54.8491M29.5867 22.0997C29.8312 21.8227 29.9575 21.6322 30.0588 21.372M29.5867 22.0997C28.9537 22.7835 28.5412 22.8372 27.7852 22.2181M29.5867 22.0997C29.8206 21.673 30.0318 21.3217 30.1834 20.9933M30.0588 21.372C28.9926 19.7457 28.3623 19.6635 27.1639 21.372M30.0588 21.372C30.0876 21.298 30.1144 21.2183 30.1413 21.1294C30.145 20.2376 30.0428 19.8908 29.5867 19.6739C29.3278 19.4786 29.1084 19.412 28.4776 19.4313C27.7226 19.4522 27.3859 19.5707 27.0912 20.159C27.0161 20.4849 26.9931 20.6875 27.0259 20.8868M27.7852 22.2181C27.74 22.181 27.6936 22.1416 27.6458 22.0997C27.4035 21.8588 27.2663 21.6625 27.1639 21.372M30.1834 20.9933C30.3122 20.7144 30.3981 20.452 30.4186 20.1739M27.1639 21.372C27.1378 21.298 27.1139 21.2179 27.0912 21.1294C27.0605 21.0441 27.0388 20.9657 27.0259 20.8868M27.0259 20.8868C26.9292 20.6642 26.8654 20.4994 26.8339 20.3201M26.8339 20.3201C26.8127 20.1995 26.8061 20.0723 26.8139 19.9164C26.9337 19.3537 27.0504 19.133 27.3685 18.9461C27.7736 18.734 28.2147 18.6653 28.6272 18.6764M26.8339 20.3201L25.9821 20.4016M28.6272 18.6764C28.982 18.686 29.3155 18.7546 29.5867 18.8419M28.6272 18.6764L28.4776 16.7628M30.4186 20.1739C30.4248 20.0898 30.425 20.0043 30.4186 19.9164C30.3338 19.4213 30.4186 19.1887 29.864 18.9461C29.7819 18.9102 29.6887 18.8747 29.5867 18.8419M30.4186 20.1739L32.3595 20.4016M29.5867 18.8419L30.9731 17.4906M32.0823 18.9461L30.4186 19.4313M25.9821 17.7332L27.3685 18.8419M25.7048 19.4313H26.8339M23.7638 48.5418V54.8491M32.3595 48.0566V54.8491M21.8229 51.6954C27.373 51.4769 30.4298 51.3663 33.4687 51.6954M19.3274 61.3989V59.2157C20.4191 58.4101 20.7124 57.974 19.6046 57.275V56.3046C20.4318 55.9995 20.6672 55.6757 20.7138 54.8491H35.4096C35.5021 55.7445 35.7421 55.8284 36.2415 55.8194V56.7898C35.6774 57.9099 35.9134 58.4157 36.796 59.2157V61.3989M20.4365 57.275H35.1323M16 61.3989H26.5366M26.5366 61.3989C26.5636 60.2009 26.656 59.6435 27.3685 59.4582C27.7536 59.3276 28.0665 59.3354 28.7549 59.4582C29.4198 59.6806 29.5123 60.2466 29.5867 61.3989M26.5366 61.3989H29.5867M39.8461 61.3989H29.5867" stroke="black" stroke-width="0.7"/>
<path d="M11.5 4H19.5" stroke="black" stroke-width="0.7"/>
<path d="M11.5 5.5H19.5M11.5 7H19.5M11.5 8.5H19.5M4.14755 10H19.5M4.14758 11.5H19.5M4.14758 13H19.5" stroke="black" stroke-width="0.7"/>
<path d="M11.8496 8.84961H4.15039V3.65039H11.8496V8.84961ZM4.99023 7.0293L4.86719 7.40723C4.86588 7.41123 4.86258 7.41489 4.8584 7.41504H4.45996C4.45046 7.4152 4.4465 7.42692 4.4541 7.43262L4.77637 7.66699C4.77959 7.66955 4.78148 7.67379 4.78027 7.67773L4.65723 8.05566C4.65427 8.06477 4.66406 8.07272 4.67188 8.06738L4.99414 7.83301C4.99755 7.83066 5.00246 7.83066 5.00586 7.83301L5.32812 8.06738C5.33593 8.07271 5.34574 8.06477 5.34277 8.05566L5.21973 7.67773C5.2185 7.67379 5.22042 7.66955 5.22363 7.66699L5.5459 7.43262C5.5535 7.42692 5.54953 7.4152 5.54004 7.41504H5.1416C5.13742 7.41489 5.13412 7.41123 5.13281 7.40723L5.00977 7.0293C5.00678 7.02009 4.99323 7.02009 4.99023 7.0293ZM6.59082 7.0293L6.46777 7.40723C6.46643 7.41135 6.46234 7.41504 6.45801 7.41504H6.06055C6.05087 7.41504 6.04685 7.42693 6.05469 7.43262L6.37598 7.66699C6.3794 7.66955 6.3812 7.67366 6.37988 7.67773L6.25684 8.05566C6.25385 8.06487 6.26462 8.07307 6.27246 8.06738L6.59375 7.83301C6.5971 7.83057 6.60202 7.8308 6.60547 7.83301L6.92773 8.06738C6.93557 8.07307 6.94635 8.06487 6.94336 8.05566L6.82031 7.67773C6.81897 7.67361 6.82072 7.66954 6.82422 7.66699L7.14551 7.43262C7.15334 7.42693 7.14933 7.41504 7.13965 7.41504H6.74219C6.73786 7.41504 6.73376 7.41135 6.73242 7.40723L6.60938 7.0293C6.60638 7.02014 6.59386 7.02017 6.59082 7.0293ZM7.99023 7.0293L7.86719 7.40723C7.86588 7.41123 7.86258 7.41489 7.8584 7.41504H7.45996C7.45046 7.4152 7.4465 7.42692 7.4541 7.43262L7.77637 7.66699C7.77959 7.66955 7.78148 7.67379 7.78027 7.67773L7.65723 8.05566C7.65427 8.06477 7.66406 8.07272 7.67188 8.06738L7.99414 7.83301C7.99755 7.83066 8.00246 7.83066 8.00586 7.83301L8.32812 8.06738C8.33593 8.07271 8.34574 8.06477 8.34277 8.05566L8.21973 7.67773C8.2185 7.67379 8.22042 7.66955 8.22363 7.66699L8.5459 7.43262C8.5535 7.42692 8.54953 7.4152 8.54004 7.41504H8.1416C8.13742 7.41489 8.13412 7.41123 8.13281 7.40723L8.00977 7.0293C8.00678 7.02009 7.99323 7.02009 7.99023 7.0293ZM9.49023 7.0293L9.36719 7.40723C9.36588 7.41123 9.36258 7.41489 9.3584 7.41504H8.95996C8.95046 7.4152 8.9465 7.42692 8.9541 7.43262L9.27637 7.66699C9.27959 7.66955 9.28148 7.67379 9.28027 7.67773L9.15723 8.05566C9.15427 8.06477 9.16406 8.07272 9.17188 8.06738L9.49414 7.83301C9.49755 7.83066 9.50246 7.83066 9.50586 7.83301L9.82812 8.06738C9.83593 8.07271 9.84574 8.06477 9.84277 8.05566L9.71973 7.67773C9.7185 7.67379 9.72042 7.66955 9.72363 7.66699L10.0459 7.43262C10.0535 7.4269 10.0495 7.41516 10.04 7.41504H9.6416C9.63742 7.41489 9.63412 7.41123 9.63281 7.40723L9.50977 7.0293C9.50678 7.02009 9.49323 7.02009 9.49023 7.0293ZM10.9902 7.0293L10.8672 7.40723C10.8659 7.41123 10.8626 7.41488 10.8584 7.41504H10.46C10.4504 7.41516 10.4465 7.4269 10.4541 7.43262L10.7764 7.66699C10.7796 7.66955 10.7815 7.67378 10.7803 7.67773L10.6572 8.05566C10.6543 8.06478 10.6641 8.07274 10.6719 8.06738L10.9941 7.83301C10.9975 7.83068 11.0025 7.83068 11.0059 7.83301L11.3281 8.06738C11.3359 8.07274 11.3456 8.06478 11.3428 8.05566L11.2197 7.67773C11.2185 7.67378 11.2204 7.66955 11.2236 7.66699L11.5459 7.43262C11.5535 7.4269 11.5495 7.41516 11.54 7.41504H11.1416C11.1374 7.41488 11.1341 7.41123 11.1328 7.40723L11.0098 7.0293C11.0068 7.02009 10.9932 7.02009 10.9902 7.0293ZM5.59082 5.5293L5.46777 5.90723C5.46643 5.91135 5.46234 5.91504 5.45801 5.91504H5.06055C5.05087 5.91504 5.04685 5.92693 5.05469 5.93262L5.37598 6.16699C5.3794 6.16955 5.3812 6.17366 5.37988 6.17773L5.25684 6.55566C5.25385 6.56487 5.26462 6.57307 5.27246 6.56738L5.59375 6.33301C5.5971 6.33057 5.60202 6.3308 5.60547 6.33301L5.92773 6.56738C5.93557 6.57307 5.94635 6.56487 5.94336 6.55566L5.82031 6.17773C5.81897 6.17361 5.82072 6.16954 5.82422 6.16699L6.14551 5.93262C6.15334 5.92693 6.14933 5.91504 6.13965 5.91504H5.74219C5.73786 5.91504 5.73376 5.91135 5.73242 5.90723L5.60938 5.5293C5.60638 5.52014 5.59386 5.52017 5.59082 5.5293ZM7.09082 5.5293L6.96777 5.90723C6.96643 5.91135 6.96234 5.91504 6.95801 5.91504H6.56055C6.55087 5.91504 6.54685 5.92693 6.55469 5.93262L6.87598 6.16699C6.8794 6.16955 6.8812 6.17366 6.87988 6.17773L6.75684 6.55566C6.75385 6.56487 6.76462 6.57307 6.77246 6.56738L7.09375 6.33301C7.0971 6.33057 7.10202 6.3308 7.10547 6.33301L7.42773 6.56738C7.43557 6.57307 7.44635 6.56487 7.44336 6.55566L7.32031 6.17773C7.31897 6.17361 7.32072 6.16954 7.32422 6.16699L7.64551 5.93262C7.65334 5.92693 7.64933 5.91504 7.63965 5.91504H7.24219C7.23786 5.91504 7.23376 5.91135 7.23242 5.90723L7.10938 5.5293C7.10638 5.52014 7.09386 5.52017 7.09082 5.5293ZM8.59082 5.5293L8.46777 5.90723C8.46643 5.91135 8.46234 5.91504 8.45801 5.91504H8.06055C8.05087 5.91504 8.04685 5.92693 8.05469 5.93262L8.37598 6.16699C8.3794 6.16955 8.3812 6.17366 8.37988 6.17773L8.25684 6.55566C8.25385 6.56487 8.26462 6.57307 8.27246 6.56738L8.59375 6.33301C8.5971 6.33057 8.60202 6.3308 8.60547 6.33301L8.92773 6.56738C8.93557 6.57307 8.94635 6.56487 8.94336 6.55566L8.82031 6.17773C8.81897 6.17361 8.82072 6.16954 8.82422 6.16699L9.14551 5.93262C9.15334 5.92693 9.14933 5.91504 9.13965 5.91504H8.74219C8.73786 5.91504 8.73376 5.91135 8.73242 5.90723L8.60938 5.5293C8.60638 5.52014 8.59386 5.52017 8.59082 5.5293ZM10.0908 5.5293L9.96777 5.90723C9.96643 5.91135 9.96234 5.91504 9.95801 5.91504H9.56055C9.55087 5.91504 9.54685 5.92693 9.55469 5.93262L9.87598 6.16699C9.8794 6.16955 9.8812 6.17366 9.87988 6.17773L9.75684 6.55566C9.75385 6.56487 9.76462 6.57307 9.77246 6.56738L10.0938 6.33301C10.0971 6.33058 10.102 6.33081 10.1055 6.33301L10.4277 6.56738C10.4355 6.57307 10.4464 6.56487 10.4434 6.55566L10.3203 6.17773C10.319 6.17361 10.3207 6.16954 10.3242 6.16699L10.6455 5.93262C10.6534 5.92693 10.6492 5.91504 10.6396 5.91504H10.2422C10.2378 5.91504 10.2337 5.91135 10.2324 5.90723L10.1094 5.5293C10.1064 5.52013 10.0939 5.52017 10.0908 5.5293ZM4.99023 4.0293L4.86719 4.40723C4.86588 4.41123 4.86258 4.41489 4.8584 4.41504H4.45996C4.45046 4.4152 4.4465 4.42692 4.4541 4.43262L4.77637 4.66699C4.77959 4.66955 4.78148 4.67379 4.78027 4.67773L4.65723 5.05566C4.65427 5.06477 4.66406 5.07272 4.67188 5.06738L4.99414 4.83301C4.99755 4.83066 5.00246 4.83066 5.00586 4.83301L5.32812 5.06738C5.33593 5.07271 5.34574 5.06477 5.34277 5.05566L5.21973 4.67773C5.2185 4.67379 5.22042 4.66955 5.22363 4.66699L5.5459 4.43262C5.5535 4.42692 5.54953 4.4152 5.54004 4.41504H5.1416C5.13742 4.41489 5.13412 4.41123 5.13281 4.40723L5.00977 4.0293C5.00678 4.02009 4.99323 4.02009 4.99023 4.0293ZM6.49023 4.0293L6.36719 4.40723C6.36588 4.41123 6.36258 4.41489 6.3584 4.41504H5.95996C5.95046 4.4152 5.9465 4.42692 5.9541 4.43262L6.27637 4.66699C6.27959 4.66955 6.28148 4.67379 6.28027 4.67773L6.15723 5.05566C6.15427 5.06477 6.16406 5.07272 6.17188 5.06738L6.49414 4.83301C6.49755 4.83066 6.50246 4.83066 6.50586 4.83301L6.82812 5.06738C6.83593 5.07271 6.84574 5.06477 6.84277 5.05566L6.71973 4.67773C6.7185 4.67379 6.72042 4.66955 6.72363 4.66699L7.0459 4.43262C7.0535 4.42692 7.04953 4.4152 7.04004 4.41504H6.6416C6.63742 4.41489 6.63412 4.41123 6.63281 4.40723L6.50977 4.0293C6.50678 4.02009 6.49323 4.02009 6.49023 4.0293ZM7.99023 4.0293L7.86719 4.40723C7.86588 4.41123 7.86258 4.41489 7.8584 4.41504H7.45996C7.45046 4.4152 7.4465 4.42692 7.4541 4.43262L7.77637 4.66699C7.77959 4.66955 7.78148 4.67379 7.78027 4.67773L7.65723 5.05566C7.65427 5.06477 7.66406 5.07272 7.67188 5.06738L7.99414 4.83301C7.99755 4.83066 8.00246 4.83066 8.00586 4.83301L8.32812 5.06738C8.33593 5.07271 8.34574 5.06477 8.34277 5.05566L8.21973 4.67773C8.2185 4.67379 8.22042 4.66955 8.22363 4.66699L8.5459 4.43262C8.5535 4.42692 8.54953 4.4152 8.54004 4.41504H8.1416C8.13742 4.41489 8.13412 4.41123 8.13281 4.40723L8.00977 4.0293C8.00678 4.02009 7.99323 4.02009 7.99023 4.0293ZM9.49023 4.0293L9.36719 4.40723C9.36588 4.41123 9.36258 4.41489 9.3584 4.41504H8.95996C8.95046 4.4152 8.9465 4.42692 8.9541 4.43262L9.27637 4.66699C9.27959 4.66955 9.28148 4.67379 9.28027 4.67773L9.15723 5.05566C9.15427 5.06477 9.16406 5.07272 9.17188 5.06738L9.49414 4.83301C9.49755 4.83066 9.50246 4.83066 9.50586 4.83301L9.82812 5.06738C9.83593 5.07271 9.84574 5.06477 9.84277 5.05566L9.71973 4.67773C9.7185 4.67379 9.72042 4.66955 9.72363 4.66699L10.0459 4.43262C10.0535 4.4269 10.0495 4.41516 10.04 4.41504H9.6416C9.63742 4.41489 9.63412 4.41123 9.63281 4.40723L9.50977 4.0293C9.50678 4.02009 9.49323 4.02009 9.49023 4.0293ZM10.9902 4.0293L10.8672 4.40723C10.8659 4.41123 10.8626 4.41488 10.8584 4.41504H10.46C10.4504 4.41516 10.4465 4.4269 10.4541 4.43262L10.7764 4.66699C10.7796 4.66955 10.7815 4.67378 10.7803 4.67773L10.6572 5.05566C10.6543 5.06478 10.6641 5.07274 10.6719 5.06738L10.9941 4.83301C10.9975 4.83068 11.0025 4.83068 11.0059 4.83301L11.3281 5.06738C11.3359 5.07274 11.3456 5.06478 11.3428 5.05566L11.2197 4.67773C11.2185 4.67378 11.2204 4.66955 11.2236 4.66699L11.5459 4.43262C11.5535 4.4269 11.5495 4.41516 11.54 4.41504H11.1416C11.1374 4.41488 11.1341 4.41123 11.1328 4.40723L11.0098 4.0293C11.0068 4.02009 10.9932 4.02009 10.9902 4.0293Z" fill="black"/>
<path d="M19.65 13.5H4V3.5H19.65V13.5Z" stroke="black" stroke-width="0.1"/>
<path d="M14.125 14V16.3168M14.125 16.3168C13.8378 16.3138 13.7432 16.4008 13.625 16.6236C13.5811 16.8491 13.6186 16.9383 13.75 17.0327M14.125 16.3168C14.4189 16.3249 14.5328 16.3665 14.625 16.5213C14.6903 16.6636 14.6999 16.7672 14.625 17.0327M14.625 17.0327H13.625L13.5 17.1349C13.5083 19.6627 13.4149 20.5745 13 20.919M14.625 17.0327L14.75 17.1349C14.7382 19.6822 14.9039 20.3903 15.375 20.919M15.625 21.3281L15.5 20.919H12.75L12.625 21.3281M12.25 22.044V21.3281H16H16.125V21.9418M16.125 21.9418H11.625V22.6577V22.7599M16.125 21.9418H16.5H16.625V22.7599M11.625 22.7599H16.625M11.625 22.7599H11.375V24.294M16.625 22.7599H16.875V24.294M10.875 27.669V24.294H12.75V27.669M15.5 27.669V24.294H17.375V27.669M17.75 43.6735V41.6804M17.75 41.6804V27.669H15.125V41.6804H13.125V27.669H10.5V37.1804M17.75 41.6804H18.5V43.6236M10.5 43.6735V41.6804M10.5 41.6804H9.75V43.6735M10.5 41.6804V37.1804M10.5 37.1804H8.625M9.5 47.5V45.3622V43.6735H12.375V45.669V46.8963V47.6933M15.9369 47.4077V46.5895V43.6735H18.6717V45.3622M18.6717 45.3622V46.794M18.6717 45.3622H20V47.1008M18 39.1236H19.375M5.125 30.3281V41.169V47.6933M5.125 30.3281L5.875 30.5327V41.6804V47.6933M5.125 30.3281L4.5 30.6758M4.5 30.6758V27.7713L2.75 28.5M4.5 30.6758L2.75 31.5M6.5 47.6933V42.0895V37.1804H7.125M7.125 37.1804L7.375 36.3622M7.125 37.1804H7.875M8.625 37.1804H7.875M8.625 37.1804L8.25 36.3622M7.375 36.3622H7V34.7258L7.875 34.3167L8.625 34.7258V36.3622H8.25M7.375 36.3622H7.875M8.25 36.3622H7.875M7.875 36.3622V37.1804M3.75 23.6804V28.1804" stroke="black" stroke-width="0.3"/>
<path d="M42.9298 6V10.2044M42.9298 10.2044C42.6438 10.492 42.5713 10.9396 42.5088 11.9562M42.9298 10.2044C43.2218 10.4306 43.3014 10.8599 43.3509 11.9562M42.2281 13.3577C42.2637 12.285 42.2973 11.7084 42.9298 11.7226C43.3794 11.6866 43.5088 12.1378 43.6316 13.3577M42.2281 13.3577C41.686 13.7099 41.6319 14.0936 41.6667 14.8759M42.2281 13.3577C42.5021 13.2316 42.716 13.1666 42.9298 13.1656M43.6316 13.3577C44.1597 13.6604 44.2071 14.0638 44.193 14.8759M43.6316 13.3577C43.3576 13.2277 43.1437 13.1646 42.9298 13.1656M42.9298 13.1656V12.5401M41.2456 16.6277C41.0828 15.847 41.0199 15.4727 41.6667 14.9927C41.9213 14.8201 42.1499 14.6879 42.3684 14.5999M42.3684 14.5999L42.2281 14.0584M42.3684 14.5999C42.5596 14.5229 42.7432 14.4798 42.9298 14.4731M44.7544 16.6277C44.8249 15.9267 44.9032 15.5232 44.3333 14.9927C44.0653 14.8156 43.8274 14.6857 43.6068 14.5999M43.6068 14.5999C43.366 14.5062 43.1458 14.4653 42.9298 14.4731M43.6068 14.5999L43.7719 14.0584M40.8246 18.6131C40.7593 17.3137 40.93 16.7888 41.6667 16.2774C41.8679 16.1398 42.0523 16.0305 42.2281 15.9495M42.2281 15.9495L41.9474 15.3431M42.2281 15.9495C42.4713 15.8375 42.6981 15.7796 42.9298 15.7764M45.1754 18.4964C45.0844 17.3144 44.9744 16.7299 44.3333 16.2774C44.105 16.1397 43.8991 16.0304 43.7076 15.9495M45.1754 18.4964V18.8467V19.781M45.1754 18.4964C45.8224 18.5464 45.9703 19.6382 45.8832 23.1679M43.7076 15.9495C43.4257 15.8305 43.1749 15.7729 42.9298 15.7764M43.7076 15.9495L43.9973 15.3431M45.1754 19.781C45.1805 18.6636 45.1195 18.0708 44.193 17.4453C44.0438 17.3724 43.9046 17.3098 43.7719 17.2581M45.1754 19.781V23.1679M45.8832 23.1679H44.4737C44.3749 20.9145 44.4087 19.0914 43.9973 18.7992M45.8832 23.1679L45.0351 23.635V25.0365H46.4386M45.8832 23.1679C45.8822 23.2065 45.8813 23.2454 45.8803 23.2847M43.7719 17.2581C43.4699 17.1402 43.2021 17.0783 42.9298 17.0777M43.7719 17.2581L44.0526 16.7445M40.6842 23.1679V19.8978C40.7159 19.4753 40.7335 19.1162 40.7898 18.7992M40.7898 18.7992C40.8852 18.2616 41.0919 17.8451 41.6667 17.4453C41.8162 17.3701 41.9556 17.3069 42.0877 17.2553M40.7898 18.7992C39.9569 18.654 39.9787 20.3664 39.9822 23.1679M42.0877 17.2553C42.3963 17.1347 42.6652 17.0772 42.9298 17.0777M42.0877 17.2553L41.807 16.7445M39.9822 23.1679C39.9823 23.2449 39.9824 23.3228 39.9825 23.4015H39L39.5614 23.8686V24.9197M39.9822 23.1679H40.2632M45.8772 23.4015C45.8782 23.3622 45.8793 23.3233 45.8803 23.2847M45.8803 23.2847H47L46.4386 23.7518V25.0365M41.9474 18.7992C41.341 19.1815 41.5254 20.9666 41.5263 23.1679H40.2632M41.9474 18.7992C42.1713 18.6415 42.3768 18.5299 42.5786 18.4678M41.9474 18.7992L41.5263 18.4678M40.2632 23.1679L40.9649 23.7518V25.0365H39.2807V33.7956M42.5786 18.4678L42.3684 17.7956M42.5786 18.4678C42.8525 18.3835 43.1197 18.3903 43.417 18.4964M43.9973 18.7992C43.7874 18.6608 43.5967 18.5604 43.417 18.4964M43.9973 18.7992L44.3333 18.3796M43.417 18.4964L43.6068 17.7956M46.4386 25.0365H46.7193V38M42.9298 14.4731V13.8248M42.9298 15.7764V15.1095M42.9298 16.3942V17.0777" stroke="black" stroke-width="0.3"/>
<path d="M37.8 30.5325H39.2667M37.8 33.4545V27.8442H36.9806M37.8 33.4545H38.2M37.8 33.4545H36.7333V40.3506M33.7116 40.3506H37.5333M41.1333 37.1948V38.1299H41.5333V41.987V47.5974M41.1333 37.1948H39.8M41.1333 37.1948L40.6 36.026M39.8 37.1948H38.7333M39.8 37.1948L39.7375 37.0578M40.6 36.026H41.2667M40.6 36.026H40.4667M38.7333 34.039V36.026M41 34.039V36.026M38.4667 36.026H39M39 36.026L38.7333 37.1948M39 36.026H39.2667M38.7333 37.1948H38.2V38.1299H37.5333V44.0909V47.7143M39.2667 36.026H40.4667M39.2667 36.026L39.7375 37.0578M40.4667 36.026L39.7375 37.0578M48.7333 40.5844V39.1818H48.3333V37.1948H47.8M47.8 37.1948H45.2667V35.4416H44.0667V37.1948H42.8667V39.5325H42.0667V41.987V47.8312M47.8 37.1948V30.0649H49.6667M49.6667 31.7013H49.2667V40.3506V45.026V47.5974M49.6667 31.7013V30.7662H51.9333V31.7013M49.6667 31.7013H51.9333M51.9333 31.7013H52.4667V39.1818V41.987V45.3766V47.5974M49.8 32.987H51.8M49.8 34.039H51.8M49.8 35.2078H51.8M49.8 36.4935H51.8M49.8 37.5455H51.8M49.8 38.7143H51.8M49.8 45.8442H51.8M49.8 46.7792H51.8M49.9333 30.7662V24.9221L50.3333 24.6883V22.2338L51 22M51 22L53.3433 22.1493M51 22L50.8667 24.6883L50.6 25.039V30.5735M51 24.9221L53.3433 25.039M34.4667 25.1558V26.2421M36.7333 25.1558V26.9091H36.2M36.2 26.9091H36.0667M36.2 26.9091L36.5 27M33.3492 44.3247H35.1333V47.5M16.1651 46.8961H18.8953V47.9394M19.4 45.0627V43.974H21.6667V45.6104M35.5 48C36.4069 48.0593 41.833 47.9188 48.0667 47.9481C52.9263 47.9184 51.5844 48.0003 53.3433 47.8312M35.5 49C52.019 48.7751 38.3033 49.0729 53.3433 49M49.8 40H51.8M49.8 41.1403H51.8M49.8 42.1923H51.8M49.8 43.3611H51.8M49.8 44.6468H51.8M38.7333 33.9221H41L39.9333 33.2208L38.7333 33.9221ZM35.5333 24.1039L34.3333 25.039H36.8667L35.5333 24.1039Z" stroke="black" stroke-width="0.3"/>
<path d="M3.00001 48.0559C3.90694 48.1152 14.2663 47.9707 20.5 48M3 49.0559C19.519 48.831 5.46005 49.0729 20.5 49" stroke="black" stroke-width="0.3"/>
<path d="M19.3974 43.6699V34.1131H20.3245H21.7815H23.5033L23.4536 34M20.457 34.9045V35.9221M21.7815 34.9045V35.9221M23.106 34.9045V35.9221M20.457 36.4874V37.392M20.457 37.9573V38.7487V38.8618M20.457 39.5402V40.4447M20.457 41.01V41.8015M21.7815 36.4874V37.392M23.106 36.4874V37.392M21.7815 37.9573V38.8618M23.106 37.9573V38.8618M21.7815 39.5402V40.4447M23.106 39.5402V40.4447M21.7815 41.01V41.8015M23.106 41.01V41.8015M23.106 42.4799V43.2714M24 34.5V38V38.5M20.457 42.4799V43.2714M21.7815 42.4799V43.2714M23.106 44V44.5" stroke="black" stroke-width="0.3"/>
<mask id="mask0_17_405" style="mask-type:luminance" maskUnits="userSpaceOnUse" x="10" y="52" width="1" height="1">
<path d="M10.153 52.9042C10.1904 52.8945 10.205 52.826 10.1856 52.7512C10.1662 52.6763 10.1202 52.6235 10.0828 52.6332C10.0454 52.6429 10.0308 52.7114 10.0502 52.7863C10.0696 52.8611 10.1156 52.9139 10.153 52.9042Z" fill="white"/>
</mask>
<g mask="url(#mask0_17_405)">
<path d="M10.1856 52.7511L9.99204 52.8013C9.99564 52.8152 9.99319 52.819 9.99503 52.8103C9.99596 52.806 9.99974 52.7904 10.0133 52.7713C10.0278 52.7507 10.0567 52.7225 10.1028 52.7105L10.153 52.9041L10.2032 53.0977C10.3347 53.0637 10.3754 52.9447 10.3862 52.8938C10.3999 52.8297 10.395 52.7619 10.3793 52.701L10.1856 52.7511ZM10.153 52.9041L10.1028 52.7105C10.149 52.6986 10.1879 52.7092 10.2106 52.7201C10.2318 52.7303 10.2426 52.742 10.2456 52.7454C10.2514 52.7521 10.2474 52.7499 10.2438 52.7361L10.0502 52.7862L9.85657 52.8364C9.87237 52.8973 9.90109 52.959 9.94411 53.0083C9.97835 53.0476 10.0716 53.1318 10.2032 53.0977L10.153 52.9041ZM10.0502 52.7862L10.2438 52.7361C10.2402 52.7222 10.2426 52.7184 10.2408 52.727C10.2399 52.7314 10.2361 52.7469 10.2225 52.7661C10.208 52.7866 10.1792 52.8148 10.133 52.8268L10.0828 52.6332L10.0326 52.4396C9.9011 52.4737 9.86046 52.5926 9.84959 52.6436C9.83594 52.7076 9.84078 52.7754 9.85657 52.8364L10.0502 52.7862ZM10.0828 52.6332L10.133 52.8268C10.0868 52.8388 10.0479 52.8281 10.0252 52.8172C10.004 52.8071 9.9932 52.7953 9.99026 52.7919C9.98445 52.7853 9.98845 52.7874 9.99204 52.8013L10.1856 52.7511L10.3793 52.701C10.3635 52.64 10.3347 52.5783 10.2917 52.529C10.2575 52.4898 10.1642 52.4055 10.0326 52.4396L10.0828 52.6332Z" fill="black"/>
</g>
<path d="M8.44593 52.7321C8.49409 52.8064 8.46097 52.8366 8.4384 52.8425C8.37528 52.7384 8.24426 52.5675 8.22518 52.717C8.14894 52.5344 8.23527 52.2446 8.28797 52.1225L8.20468 52.1168C7.99754 52.3511 8.05343 52.6831 8.10727 52.8199L8.07464 52.9729C7.86491 53.0561 7.84428 52.8278 7.86018 52.7032C7.79748 52.6471 7.72098 52.5007 7.91667 52.3633C7.91469 52.1325 8.08979 52.1016 8.17759 52.115L8.20468 52.1168L8.28797 52.1225L8.44852 52.0447C8.44267 52.0222 8.46308 51.9615 8.59153 51.8993C8.71998 51.8371 8.80977 51.9511 8.83861 52.0159C8.90886 51.9616 9.06013 51.9224 9.10325 52.2004C9.40523 52.5847 9.06098 52.5486 8.8511 52.4825C8.80492 52.6391 8.62866 52.6004 8.5463 52.5615C8.54127 52.6351 8.51416 52.7722 8.44593 52.7321Z" fill="black"/>
<path d="M9.43043 53.7419C9.51448 53.6479 9.65323 53.4023 9.53586 53.1725M9.41412 53.8184C9.44506 53.7984 9.51698 53.7412 9.55712 53.6729C9.60731 53.5877 9.64871 53.4685 9.63994 53.4346C9.63291 53.4076 9.61863 53.2595 9.61237 53.1888L9.60359 53.1549M9.02032 53.4145L8.99523 53.4571L9.0705 53.3292M8.78449 53.6202L8.96384 53.7544L8.98893 53.7118L8.80958 53.5775L8.8008 53.5437L8.79203 53.5098M8.84851 53.1699C8.85729 53.2038 8.8934 53.2595 8.96766 53.2113M8.95765 53.0332L9.05925 53.0069M8.92131 52.7535C8.94722 52.807 9.0126 52.9105 9.06679 52.8965M9.04046 52.7949L9.02291 52.7272M8.76953 52.8651L8.75197 52.7974M8.63282 52.756C8.63826 52.7305 8.67121 52.681 8.75951 52.687M8.96271 52.6343L9.03045 52.6168L9.06431 52.608L9.04676 52.5403L9.09942 52.7435L9.10819 52.7773M8.28797 52.1225L8.44852 52.0447C8.44267 52.0222 8.46308 51.9615 8.59153 51.8993C8.71998 51.8371 8.80977 51.9511 8.83861 52.0159C8.90886 51.9616 9.06013 51.9224 9.10325 52.2004C9.40523 52.5847 9.06098 52.5486 8.8511 52.4825C8.80492 52.6391 8.62866 52.6004 8.5463 52.5615C8.54127 52.6351 8.51416 52.7722 8.44593 52.7321C8.49409 52.8064 8.46097 52.8366 8.4384 52.8425C8.37528 52.7384 8.24426 52.5675 8.22518 52.717C8.14894 52.5344 8.23527 52.2446 8.28797 52.1225ZM8.28797 52.1225L8.20468 52.1168M8.20468 52.1168L8.17759 52.115C8.08979 52.1016 7.91469 52.1325 7.91667 52.3633C7.72098 52.5007 7.79748 52.6471 7.86018 52.7032C7.84428 52.8278 7.86491 53.0561 8.07464 52.9729L8.10727 52.8199C8.05343 52.6831 7.99754 52.3511 8.20468 52.1168Z" stroke="black" stroke-width="0.2"/>
<path d="M9.0992 55.2531L9.16051 55.9081C9.17472 55.9164 9.20841 55.9535 9.22948 56.0348C8.6976 56.5484 7.74515 56.7688 7.33541 56.8147C7.16116 55.9563 7.07458 54.1067 8.12223 53.575C8.26351 53.8877 8.63487 54.389 8.97007 53.8974M7.94783 54.0177C8.16397 54.1544 8.59976 54.4415 8.6138 54.4957C8.59631 54.4919 8.57872 54.4999 8.56126 54.5172M8.56126 54.5172C8.48074 54.5968 8.40318 54.8736 8.35271 55.1054M8.56126 54.5172L8.79315 54.6299M7.7054 54.8953C7.87187 55.0263 8.22689 55.2898 8.31519 55.2959M8.31519 55.2959C8.33776 55.29 8.40097 55.2643 8.46821 55.189M8.31519 55.2959C8.32481 55.2408 8.33753 55.1752 8.35271 55.1054M8.35271 55.1054C8.65399 55.3513 9.13823 55.512 9.3415 54.8854M9.3415 54.8854L9.37899 54.9143M9.3415 54.8854C9.40795 54.6805 9.44437 54.3915 9.43457 53.9938M9.40287 53.4961C9.4206 53.6784 9.43087 53.8438 9.43457 53.9938M9.43457 53.9938C9.53644 54.0759 9.75395 54.2364 9.69976 54.2504C9.65705 54.2615 9.5291 54.5352 9.43998 54.7551M8.79315 54.6299L8.77684 54.7064M8.79315 54.6299C8.88057 54.2699 9.06195 53.5194 9.08805 53.397M9.37899 54.9143L9.41648 54.9433L9.49929 54.8445M9.37899 54.9143C9.39492 54.8692 9.41605 54.8141 9.43998 54.7551M9.43998 54.7551C9.56218 54.9012 9.859 55.1447 10.0687 54.9499C10.2785 54.7551 10.1136 53.8678 10.0049 53.4485C10.0861 53.3431 10.2363 53.1139 10.1881 53.0396M9.70879 54.5372L9.6738 53.4259L9.74908 53.298" stroke="black" stroke-width="0.2"/>
<mask id="mask1_17_405" style="mask-type:luminance" maskUnits="userSpaceOnUse" x="8" y="52" width="1" height="2">
<path d="M8.2891 53.2426C8.38262 53.2183 8.43093 53.0926 8.397 52.9616C8.36308 52.8307 8.25976 52.7442 8.16624 52.7684C8.07272 52.7927 8.02441 52.9185 8.05834 53.0494C8.09226 53.1803 8.19558 53.2668 8.2891 53.2426Z" fill="white"/>
</mask>
<g mask="url(#mask1_17_405)">
<path d="M8.397 52.9616L8.2034 53.0118C8.21111 53.0416 8.20709 53.0627 8.20414 53.0704C8.20284 53.0738 8.20312 53.0711 8.20837 53.0658C8.21418 53.06 8.22454 53.0527 8.23893 53.049L8.2891 53.2426L8.33927 53.4362C8.46478 53.4037 8.54161 53.3074 8.57755 53.2138C8.61366 53.1198 8.61682 53.0126 8.59061 52.9115L8.397 52.9616ZM8.2891 53.2426L8.23893 53.049C8.25332 53.0452 8.26593 53.0466 8.27384 53.0489C8.28099 53.0509 8.28254 53.0531 8.27975 53.0508C8.27345 53.0455 8.25965 53.029 8.25194 52.9992L8.05833 53.0494L7.86473 53.0996C7.89094 53.2007 7.94577 53.2929 8.02299 53.3575C8.09985 53.4219 8.21376 53.4687 8.33927 53.4362L8.2891 53.2426ZM8.05833 53.0494L8.25194 52.9992C8.24423 52.9695 8.24825 52.9483 8.2512 52.9406C8.2525 52.9372 8.25221 52.9399 8.24697 52.9452C8.24116 52.951 8.2308 52.9583 8.21641 52.962L8.16624 52.7684L8.11607 52.5748C7.99055 52.6074 7.91373 52.7036 7.87779 52.7972C7.84168 52.8912 7.83851 52.9984 7.86473 53.0996L8.05833 53.0494ZM8.16624 52.7684L8.21641 52.962C8.20201 52.9658 8.18941 52.9644 8.1815 52.9621C8.17435 52.9601 8.1728 52.9579 8.17558 52.9602C8.18188 52.9655 8.19568 52.982 8.2034 53.0118L8.397 52.9616L8.59061 52.9115C8.56439 52.8103 8.50957 52.7181 8.43235 52.6535C8.35549 52.5891 8.24158 52.5423 8.11607 52.5748L8.16624 52.7684Z" fill="black"/>
</g>
<path d="M8.11606 52.8537C8.02912 52.6112 7.97391 52.1099 8.44854 52.0447C8.09377 52.1624 8.13433 52.5216 8.21843 52.7426M8.21843 52.7426C8.229 52.7704 8.24027 52.796 8.25152 52.8186M8.21843 52.7426C8.22905 52.7198 8.27763 52.6962 8.38699 52.7835C8.58663 53.1076 8.41077 53.2472 8.29788 53.2764M8.28032 53.2087L8.29788 53.2764M8.29788 53.2764L8.15247 53.5236M8.15247 53.5236L8.12224 53.5749M8.15247 53.5236C8.19179 53.5984 8.25301 53.6978 8.32224 53.7889M8.32224 53.7889C8.43492 53.8518 8.68036 53.9435 8.76065 53.8071L8.74812 53.6785M8.32224 53.7889C8.41189 53.9068 8.51498 54.0106 8.60133 54.0291C8.64397 54.0541 8.75108 54.077 8.83839 53.9676C8.88248 53.9124 8.91551 53.86 8.94254 53.8116M8.74812 53.6785L8.94254 53.8116M8.74812 53.6785L8.79204 53.5098L8.81713 53.4672M8.94254 53.8116C8.98241 53.7402 9.00921 53.6773 9.03912 53.6265L9.08807 53.3969C9.06174 53.2953 9.02238 53.0598 9.07558 52.9303C9.14207 52.7686 9.08188 52.6757 9.1747 52.6155C9.24896 52.5674 9.35784 52.5319 9.403 52.5202M8.81713 53.4672L8.67289 53.4684M8.81713 53.4672C8.87106 53.4893 8.98721 53.5098 9.02033 53.4145M9.403 52.5202L9.44564 52.5453L9.45441 52.5792L9.42932 52.6218M9.403 52.5202L9.5838 52.4734M9.42932 52.6218L9.39546 52.6306L9.3365 52.682L9.26877 52.6996L9.24367 52.7422L9.23614 52.8526C9.27544 52.8183 9.37613 52.7513 9.46443 52.7573C9.5748 52.7648 9.62622 52.8238 9.60113 52.8664M9.42932 52.6218L9.55766 52.5886M9.5838 52.4734L9.55766 52.5886M9.5838 52.4734L9.74166 52.4325L9.81965 52.5022M9.60113 52.8664L9.62746 52.968M9.60113 52.8664C9.53591 52.8472 9.39042 52.8343 9.3302 52.9367M9.55766 52.5886L9.83573 52.5165L9.81965 52.5022M9.62746 52.968C9.55095 52.9517 9.39642 52.9412 9.39039 53.0295M9.62746 52.968L9.64062 53.0188M9.64062 53.0188L9.65379 53.0696M9.64062 53.0188C9.70772 53.0918 9.84367 53.2445 9.85069 53.2716M9.65379 53.0696C9.57728 53.0533 9.42451 53.0495 9.4255 53.1649M9.65379 53.0696L9.68012 53.1712C9.66494 53.165 9.64484 53.1589 9.62304 53.1555M9.62304 53.1555C9.56739 53.1467 9.50072 53.1554 9.47692 53.2239C9.43551 53.3431 9.5622 53.2741 9.41166 53.5299M9.62304 53.1555L9.75786 53.3318M9.68052 53.0627C9.68287 53.0284 9.6968 52.9879 9.73127 52.9874M9.73127 52.9874C9.7369 52.9873 9.74308 52.9883 9.74985 52.9905M9.73127 52.9874L9.67156 52.8121L9.67525 52.7027L9.72659 52.6532L9.98875 52.5492L9.93283 52.4728L9.81965 52.5022M9.94351 53.2114C9.8522 53.0632 9.79046 53.004 9.74985 52.9905M9.74985 52.9905C9.7613 52.9147 9.83093 52.8311 10.0174 53.0533M10.0174 53.0533C10.0314 53.0699 10.0461 53.0883 10.0614 53.1086M10.0174 53.0533L10.0514 52.9305" stroke="black" stroke-width="0.2"/>
<mask id="mask2_17_405" style="mask-type:luminance" maskUnits="userSpaceOnUse" x="9" y="52" width="2" height="2">
<path d="M10.1881 53.0396C10.2816 53.0154 10.326 52.8745 10.2872 52.7248C10.2485 52.5752 10.1412 52.4735 10.0477 52.4978C9.95417 52.522 9.90979 52.663 9.94857 52.8126C9.98734 52.9622 10.0946 53.0639 10.1881 53.0396Z" fill="white"/>
</mask>
<g mask="url(#mask2_17_405)">
<path d="M10.2872 52.7248L10.0936 52.775C10.1051 52.8193 10.1015 52.8533 10.0965 52.8692C10.0942 52.8767 10.0931 52.875 10.0984 52.869C10.1046 52.8621 10.1177 52.8513 10.1379 52.846L10.1881 53.0396L10.2383 53.2332C10.3759 53.1976 10.4482 53.0842 10.478 52.9893C10.5089 52.8913 10.5081 52.7799 10.4808 52.6746L10.2872 52.7248ZM10.1881 53.0396L10.1379 52.846C10.1582 52.8408 10.1749 52.8439 10.1836 52.8469C10.1912 52.8496 10.1911 52.8515 10.1854 52.8461C10.1733 52.8347 10.1537 52.8067 10.1422 52.7624L9.94857 52.8126L9.75496 52.8627C9.78225 52.968 9.83562 53.0657 9.91022 53.1364C9.98241 53.2049 10.1007 53.2689 10.2383 53.2332L10.1881 53.0396ZM9.94857 52.8126L10.1422 52.7624C10.1307 52.7181 10.1343 52.6841 10.1393 52.6682C10.1416 52.6607 10.1427 52.6623 10.1374 52.6683C10.1312 52.6753 10.1181 52.6861 10.0979 52.6914L10.0477 52.4977L9.99752 52.3041C9.85992 52.3398 9.78762 52.4532 9.75775 52.5481C9.72688 52.6461 9.72767 52.7574 9.75496 52.8627L9.94857 52.8126ZM10.0477 52.4977L10.0979 52.6914C10.0776 52.6966 10.0609 52.6935 10.0522 52.6904C10.0446 52.6877 10.0447 52.6858 10.0504 52.6912C10.0625 52.7027 10.0821 52.7306 10.0936 52.775L10.2872 52.7248L10.4808 52.6746C10.4536 52.5693 10.4002 52.4716 10.3256 52.4009C10.2534 52.3325 10.1351 52.2685 9.99752 52.3041L10.0477 52.4977Z" fill="black"/>
</g>
<path fill-rule="evenodd" clip-rule="evenodd" d="M7.41191 56.831L8.11917 58.1656C8.16716 58.1456 8.22266 58.1223 8.2821 58.097C8.47652 58.0144 8.713 57.9117 8.86582 57.8392C8.96263 57.7932 9.02586 57.7594 9.02357 57.7506C9.01655 57.7235 8.84677 57.2543 8.76276 57.0231L9.14531 57.1046L9.76245 56.8363C9.82602 56.6632 9.97349 56.3118 10.0548 56.2907C10.136 56.2696 9.52171 56.1397 9.20438 56.0774C8.9744 56.3056 8.29394 56.7759 7.41191 56.831Z" fill="black"/>
<path d="M8.2821 58.097C8.22266 58.1223 8.16716 58.1456 8.11917 58.1656L7.41191 56.831C8.29394 56.7759 8.9744 56.3056 9.20438 56.0774C9.52171 56.1397 10.136 56.2696 10.0548 56.2907C9.97349 56.3118 9.82602 56.6632 9.76245 56.8363L9.14531 57.1046L8.76276 57.0231C8.84677 57.2543 9.01655 57.7235 9.02357 57.7506C9.02586 57.7594 8.96263 57.7932 8.86582 57.8392M8.2821 58.097C8.33899 58.2236 8.46482 58.4953 8.51297 58.5696C8.57317 58.6624 8.60951 58.9421 8.65339 59.1114C8.68849 59.2469 8.96145 59.7424 9.09354 59.9732L9.22395 60.3369C9.28917 60.3562 9.42287 60.3794 9.43592 60.3182C9.45224 60.2417 9.37573 60.2253 9.53629 60.1476C9.40506 59.6877 9.13383 58.734 9.09872 58.5985C9.05484 58.4292 8.93636 57.8325 8.86582 57.8392M8.2821 58.097C8.47652 58.0144 8.713 57.9117 8.86582 57.8392" stroke="black" stroke-width="0.2"/>
<path d="M9.09355 59.9732C9.18386 59.9498 9.3813 59.8842 9.44853 59.8089M9.22395 60.337C9.21926 60.4057 9.2168 60.5054 9.2238 60.59M9.2238 60.59C9.23179 60.6865 9.25208 60.7634 9.2954 60.7521C9.397 60.7258 9.83851 60.756 10.0078 60.7121C10.104 60.7113 10.2961 60.6808 10.2951 60.5654C10.2948 60.5338 10.2868 60.5059 10.2734 60.4815M9.2238 60.59C9.52208 60.6337 10.1496 60.6733 10.2734 60.4815M9.53629 60.1476C9.50436 60.1755 9.61708 60.2295 9.74465 60.2743M9.74465 60.2743C9.69596 60.258 9.62641 60.3411 9.59773 60.3847M9.74465 60.2743C9.77827 60.2861 9.81292 60.2973 9.84623 60.3072M10.2734 60.4815C10.2254 60.3948 10.1079 60.353 10.0217 60.3471C10.0025 60.3458 9.97363 60.3405 9.93925 60.3323M9.93925 60.3323C9.91113 60.3256 9.87934 60.3171 9.84623 60.3072M9.93925 60.3323C9.90039 60.3135 9.85425 60.4146 9.83603 60.4675M9.84623 60.3072C9.79732 60.2935 9.73962 60.3808 9.71688 60.4261" stroke="black" stroke-width="0.2"/>
<path d="M8.93582 57.4119C8.95084 57.408 9.353 57.2371 9.81742 57.0389M9.81742 57.0389L10.002 57.0634C9.96353 57.1938 9.8818 57.4921 9.86271 57.6416C9.84363 57.7911 9.78028 58.2532 9.75098 58.4656M9.81742 57.0389C10.0764 56.9284 10.3547 56.8093 10.5961 56.706M9.7835 59.2884L9.9202 59.3976M9.7835 59.2884C9.684 59.2299 9.45839 59.1775 9.35199 59.4364M9.7835 59.2884L9.70451 58.9836M9.7835 59.2884L9.92818 58.934M9.9202 59.3976C9.96094 59.4443 10.0054 59.5096 10.0379 59.5839M9.9202 59.3976C9.97603 59.258 10.0406 59.0974 10.1102 58.9255M9.92818 58.934L9.74591 58.8645C9.67706 58.8533 9.66379 58.784 9.67507 58.7021M9.92818 58.934L9.96034 58.8552M10.0379 59.5839C10.1148 59.7598 10.1246 59.9862 9.85864 60.1364M10.0379 59.5839L10.1083 59.5657L10.0051 59.231M10.1102 58.9255C10.1552 58.8142 10.2023 58.6982 10.2505 58.5801M10.1102 58.9255C10.2778 59.011 10.6292 59.156 10.6932 59.0527M11.1547 56.9092C11.143 56.8641 11.1093 56.762 11.0682 56.7148C11.0374 56.6795 10.6145 57.6875 10.2505 58.5801M11.1547 56.9092C11.2421 56.8745 11.4151 56.7984 11.4081 56.7713M11.1547 56.9092L11.1723 56.977L11.2488 56.9933M10.2505 58.5801C10.2464 58.5902 10.3414 58.6699 10.4229 58.7353M11.4081 56.7713C11.4011 56.7442 11.1126 56.2817 10.9692 56.0538M11.4081 56.7713L11.4595 56.8302L11.4771 56.898M11.2488 56.9933L11.3842 56.9582L11.4771 56.898M11.2488 56.9933C11.2124 57.0388 11.1655 57.1739 11.2688 57.3495L12.3021 59.1056C12.3592 59.1566 12.4567 59.2092 12.4313 59.0546M10.9692 56.0538C10.9127 56.0684 10.7948 56.1062 10.7748 56.1403M10.9692 56.0538L11.0281 56.0024L10.9767 55.9434L10.7986 55.9534L10.744 56.0218M11.4771 56.898C11.5364 56.8946 11.6675 56.9354 11.7166 57.125M10.7748 56.1403C10.7589 56.1672 10.8237 56.2797 10.8799 56.366M10.7748 56.1403L10.707 56.1578L10.6895 56.0901L10.744 56.0218M10.744 56.0218L10.5415 55.6586M10.8799 56.366C10.895 56.3891 10.9094 56.4103 10.9215 56.4275L10.8799 56.366ZM10.8799 56.366L8.85807 57.2514M9.66435 59.247C9.65732 59.2199 9.21751 58.2666 8.99848 57.7932M9.07241 58.4969L9.0975 58.4543C9.21286 58.7135 9.45212 59.237 9.48623 59.2571L9.26547 59.242M9.85864 60.1364L9.71069 59.7049C9.66253 59.6306 9.61705 59.6689 9.60032 59.6973L9.72319 60.1715M9.85864 60.1364L9.90253 60.3057M9.72319 60.1715C9.69609 60.1785 9.58146 60.1359 9.52753 60.1137M9.72319 60.1715C9.72904 60.194 9.74249 60.246 9.74952 60.2731M9.06847 60.0158L7.71638 59.6795C7.63653 59.6039 7.52074 59.4267 7.69636 59.3233M7.69636 59.3233C7.65018 59.4798 7.67291 59.5583 7.69005 59.5779L8.9042 59.6609M7.69636 59.3233L8.11041 58.1318M8.22079 58.1393C8.11063 58.4639 7.91691 59.0417 7.8361 59.3047M7.8361 59.3047L7.9422 59.2958C7.96729 59.2531 8.026 59.1728 8.06012 59.1929C8.05309 59.1658 8.20526 58.6373 8.28222 58.3764M7.8361 59.3047C7.81167 59.3842 7.79756 59.4349 7.79919 59.4412C7.80149 59.4501 7.86089 59.4591 7.95051 59.4673M8.82644 59.5003C8.695 59.5077 8.20291 59.4905 7.95051 59.4673M7.95051 59.4673C8.11686 59.4415 8.14373 59.3546 8.12908 59.2835M8.36751 58.4266L8.10276 59.218C8.11381 59.2357 8.12397 59.2586 8.12908 59.2835M8.12908 59.2835L8.74869 59.3397M8.13785 59.3535L8.8089 59.4326M12.4313 59.0546L12.5555 58.9677C12.5869 58.9957 12.6493 59.0229 12.6483 58.9075M12.4313 59.0546C12.4288 59.0394 12.4251 59.0222 12.42 59.0028L12.3847 58.9397M11.5724 57.1263C11.4078 56.9376 11.3968 57.0995 11.4118 57.204L12.3847 58.9397M12.3847 58.9397L12.4953 58.8749M11.694 57.4562L12.4953 58.8749M12.4953 58.8749C12.5091 58.8351 12.559 58.7861 12.6483 58.9075M12.6483 58.9075L11.8545 57.3784M10.5415 55.6586L10.381 55.7364C10.386 55.6628 10.3757 55.5209 10.2944 55.5419C10.2131 55.563 10.7849 55.3426 11.0809 55.2297C11.1378 55.2632 11.2261 55.3439 11.1248 55.3991C11.0521 55.4386 10.8622 55.5222 10.7044 55.5897M10.5415 55.6586C10.5846 55.6406 10.642 55.6164 10.7044 55.5897M10.7044 55.5897C10.7095 55.6097 10.8429 55.8455 10.909 55.9609M9.75098 58.4656C9.79111 58.5275 9.89671 58.6375 9.99807 58.5823C10.004 58.5333 10.037 58.4406 10.1212 58.4612M9.75098 58.4656C9.72168 58.5272 9.68628 58.6209 9.67507 58.7021M10.1212 58.4612L10.2949 58.0355M10.1212 58.4612L9.96034 58.8552M9.67507 58.7021C9.70191 58.7169 9.87643 58.8103 9.96034 58.8552M10.5961 56.706C10.7025 56.6604 10.8016 56.6179 10.8888 56.5806L10.2949 58.0355M10.5961 56.706C10.6146 56.8579 10.5803 57.3365 10.2949 58.0355M10.0297 56.3334C10.2024 56.3489 10.5395 56.4041 10.5134 56.5265M10.0783 59.0314C10.3224 59.1367 10.7899 59.2951 10.7067 59.0854C10.7022 59.0741 10.6977 59.0632 10.6932 59.0527M10.6932 59.0527C10.6133 58.8677 10.5255 58.7994 10.49 58.7884M10.49 58.7884L10.3594 58.8609M10.49 58.7884C10.471 58.7736 10.4476 58.7551 10.4229 58.7353M10.4229 58.7353C10.3779 58.7262 10.3032 58.775 10.2715 58.8006" stroke="black" stroke-width="0.2"/>
<path d="M8.19693 58.3262L8.45279 58.4768L8.27975 58.0879L8.22079 58.1393L8.19693 58.3262Z" fill="black"/>
<path d="M8.11041 58.1318L8.06901 58.2509C8.01759 58.192 7.74542 58.118 7.33024 58.1894C6.91506 58.2608 6.85227 58.8554 6.89739 59.1689C6.98515 59.5076 7.15527 59.8852 7.28736 60.116C7.86175 60.7984 8.2857 60.7608 8.71719 60.6129C8.90284 60.4925 9.01911 60.1973 9.05969 59.982L9.20765 60.4135L9.20011 60.5239C8.76602 61.3592 7.95705 61.0267 7.42778 60.6579C6.89851 60.289 6.68665 59.332 6.63399 59.1288C6.58134 58.9256 6.62781 58.4076 6.964 58.0313C7.23296 57.7303 7.74838 57.804 7.97247 57.8784L8.11041 58.1318Z" fill="black"/>
<path d="M9.47475 60.8864L9.43965 60.7509L9.97398 60.7209L9.83975 60.9002L9.47475 60.8864Z" fill="black"/>
<path d="M10.2915 59.1568L10.2325 59.2082L10.0437 59.1236L10.0532 59.074L10.2915 59.1568Z" fill="black"/>
<path d="M9.86631 59.0501L9.70451 58.9836L9.78856 58.8896L9.91649 58.9649L9.86631 59.0501Z" fill="black"/>
<path d="M10.3032 55.5758L10.3471 55.7451L9.61957 56.006C9.42893 55.9397 9.49918 55.8203 9.55814 55.7689L10.2606 55.5507L10.3032 55.5758Z" fill="black"/>
<path d="M11.6817 55.0379L11.1148 55.2209L11.2176 55.3389L11.032 55.4592C11.2435 55.3924 11.6734 55.2569 11.7005 55.2499C11.842 55.1265 11.747 55.0571 11.6817 55.0379Z" fill="black"/>
<path d="M11.7329 57.0485L11.403 57.1701L11.5924 57.4825C11.7362 57.4332 12.0392 57.3378 12.1004 57.3508C12.1616 57.3639 12.5005 57.5002 12.6623 57.5666L12.8931 57.7598C13.0214 57.8832 13.2919 58.1552 13.3471 58.2566C13.4411 58.3406 13.7446 59.0932 13.7797 59.2287C13.8148 59.3642 13.7934 59.8396 13.7106 60.0779C13.6278 60.3162 13.4597 60.5043 13.1975 60.6084C12.9354 60.7124 12.4249 60.5556 12.0323 60.2959C11.7183 60.0882 11.4207 59.5629 11.3112 59.3263C11.1608 58.9316 10.9727 58.0478 11.4243 57.6706C11.4103 57.6164 11.2864 57.4172 11.2262 57.3244C10.9879 57.2416 10.2325 59.2082 11.6171 60.3674C12.7248 61.2947 13.501 61.0357 13.7506 60.7903C13.961 60.5792 14.341 59.9723 14.1785 59.2338C13.9755 58.3106 13.248 57.5956 13.154 57.5115C12.9403 57.1332 12.1176 57.0452 11.7329 57.0485Z" fill="black"/>
<path d="M10.0281 59.1166L10.0437 59.1236M10.0437 59.1236L10.2325 59.2082L10.2915 59.1568L10.0532 59.074L10.0437 59.1236ZM8.45279 58.4768C8.41868 58.4567 8.26801 58.368 8.19693 58.3262L8.22079 58.1393L8.27975 58.0879L8.45279 58.4768ZM8.06901 58.2509L8.11041 58.1318L7.97247 57.8784C7.74838 57.804 7.23296 57.7303 6.964 58.0313C6.62781 58.4076 6.58134 58.9256 6.63399 59.1288C6.68665 59.332 6.89851 60.289 7.42778 60.6579C7.95705 61.0267 8.76602 61.3592 9.20011 60.5239L9.20765 60.4135L9.05969 59.982C9.01911 60.1973 8.90284 60.4925 8.71719 60.6129C8.2857 60.7608 7.86175 60.7984 7.28736 60.116C7.15527 59.8852 6.98515 59.5076 6.89739 59.1689C6.85227 58.8554 6.91506 58.2608 7.33024 58.1894C7.74542 58.118 8.01759 58.192 8.06901 58.2509ZM9.43965 60.7509L9.47475 60.8864L9.83975 60.9002L9.97398 60.7209L9.43965 60.7509ZM9.70451 58.9836L9.86631 59.0501L9.91649 58.9649L9.78856 58.8896L9.70451 58.9836ZM10.3471 55.7451L10.3032 55.5758L10.2606 55.5507L9.55814 55.7689C9.49919 55.8203 9.42893 55.9397 9.61957 56.006L10.3471 55.7451ZM11.1148 55.2209L11.6817 55.0379C11.747 55.0571 11.842 55.1265 11.7005 55.2499C11.6734 55.2569 11.2435 55.3924 11.032 55.4592L11.2176 55.3389L11.1148 55.2209ZM11.403 57.1701L11.7329 57.0485C12.1176 57.0452 12.9403 57.1332 13.154 57.5115C13.248 57.5956 13.9755 58.3106 14.1785 59.2338C14.341 59.9723 13.961 60.5792 13.7506 60.7903C13.501 61.0357 12.7248 61.2947 11.6171 60.3674C10.2325 59.2082 10.9879 57.2416 11.2262 57.3244C11.2864 57.4172 11.4103 57.6164 11.4243 57.6706C10.9727 58.0478 11.1608 58.9316 11.3112 59.3263C11.4207 59.5629 11.7183 60.0882 12.0323 60.2959C12.4249 60.5556 12.9354 60.7124 13.1975 60.6084C13.4597 60.5043 13.6278 60.3162 13.7106 60.0779C13.7934 59.8396 13.8148 59.3642 13.7797 59.2287C13.7446 59.0932 13.4411 58.3406 13.3471 58.2566C13.2919 58.1552 13.0214 57.8832 12.8931 57.7598L12.6623 57.5666C12.5005 57.5002 12.1616 57.3639 12.1004 57.3508C12.0392 57.3378 11.7362 57.4332 11.5924 57.4825L11.403 57.1701Z" stroke="black" stroke-width="0.2"/>
<path d="M2.8 58.5C4.67852 58.4815 5.78349 58.4877 6.3 58.5M14.3 58.5C15.8598 58.2407 16.9305 58.2247 19.3 58.5" stroke="black" stroke-width="0.3"/>
<path d="M36.5 58C40.9948 58.2708 45.229 58.2819 53.3 58" stroke="black" stroke-width="0.3"/>
</g>
<defs>
<clipPath id="clip0_17_405">
<rect width="56" height="64" fill="white"/>
</clipPath>
</defs>
</svg>
