<svg width="134" height="96" viewBox="0 0 134 96" fill="none" xmlns="http://www.w3.org/2000/svg">
<path d="M117.166 50.3401L118.124 53C119.252 53.1667 121.708 53.3 122.508 52.5L123.008 52V49C132.208 45.4 133.508 41.5 133.008 40C131.408 28.8 119.342 25.3334 113.508 25C113.508 25.5 113.108 26.6 111.508 27C109.908 27.4 109.508 26.1667 109.508 25.5V25C106.708 25 103.842 26 103.008 26.5C95.2052 34.6934 91.2077 36.3365 90.0877 36.1411C93.6878 36.9644 97.7694 37.3132 102.008 36.6845C103.821 36.4157 105.663 35.968 107.508 35.3021C107.508 34.5348 107.308 32.7 106.508 31.5C108.175 30.8333 111.508 30.3 111.508 33.5L114.781 42.5C115.779 42.4045 117.349 42.5169 118.508 43.2319C119.516 42.8443 121.101 42.1611 122.508 41.4206V36.0161C124.047 37.0466 125.508 38.2425 125.508 39C125.508 39.6418 124.126 40.5692 122.508 41.4206C121.101 42.1611 119.516 42.8443 118.508 43.2319C119.373 43.765 120.008 44.6332 120.008 46C120.265 47.1523 119.891 49.2488 117.166 50.3401Z" fill="black"/>
<path d="M113.508 17.5C113.508 18.3 114.175 18.5 114.508 18.5C114.768 18.2407 115.296 17.9037 115.745 17.8889C117.533 15.4 115.999 13.9259 115.008 13.5C115.408 11.1 112.842 11.1667 111.508 11.5C108.708 9.1 107.342 10.5 107.008 11.5C106.508 11.3333 105.408 11.3 105.008 12.5C104.608 13.7 106.175 15 107.008 15.5C107.675 15.8334 109.308 16.3 110.508 15.5C111.708 14.7 113.008 15.1667 113.508 15.5V17.5Z" fill="black"/>
<path d="M101.008 62.5C99.0085 65.7 99.5085 81.1667 100.008 88.5C100.285 88.749 100.624 89.009 101.008 89.2494M101.008 62.5C103.456 62.6688 107.347 62.6154 111.008 61.8984M101.008 62.5C98.0085 62.3333 91.2085 61.3 88.0085 58.5C88.0085 58.1 85.6751 51.3333 84.5085 48M111.008 61.8984C109.508 64.9323 106.808 74.3 108.008 87.5C107.698 88.0691 107.362 88.5328 107.008 88.9056M111.008 61.8984C111.861 61.7314 112.702 61.5284 113.508 61.2838M113.508 61.2838C116.078 60.5046 118.306 59.3034 119.508 57.5L118.124 53M113.508 61.2838C113.342 67.5225 114.308 81.5 119.508 87.5C120.044 87.6784 120.543 87.813 121.008 87.9088M122.508 52.5C123.008 56 122.508 66 122.508 69.5C122.508 72.3 125.508 80.3333 127.008 84C127.008 84.6079 126.87 85.3544 126.508 86.0429M122.508 52.5C121.708 53.3 119.252 53.1667 118.124 53M122.508 52.5L123.008 52V49C132.208 45.4 133.508 41.5 133.008 40C131.408 28.8 119.342 25.3334 113.508 25M118.124 53L117.166 50.3401C119.891 49.2488 120.265 47.1523 120.008 46M101.008 89.2494C100.008 90.3329 97.6085 92.5 96.0085 92.5C94.4085 92.5 96.0085 93.8333 97.0085 94.5C98.6751 94.6667 102.408 94.7 104.008 93.5L104.508 93V94.5C105.342 94.5 107.008 94.3 107.008 93.5C107.008 92.7 107.008 90.1038 107.008 88.9056M101.008 89.2494C102.639 90.2699 105.083 90.9367 107.008 88.9056M121.008 87.9088C121.085 89.1059 120.616 91.7 118.124 92.5C115.632 93.3 117.342 94.1667 118.508 94.5C120.675 94.1667 125.108 92.9 125.508 90.5L126.008 91.5L128.508 90.5L126.508 86.0429M121.008 87.9088C124.177 88.561 125.787 87.4176 126.508 86.0429M79.0085 31.5C80.5385 32.5519 82.7792 33.7575 85.5085 34.772M79.0085 31.5C77.4085 28.8824 81.0085 27.4094 83.0085 27L85.5085 34.772M79.0085 31.5L81.7351 39.6799M111.508 33.5C110.18 34.2248 108.843 34.8205 107.508 35.3021M111.508 33.5C111.508 30.3 108.175 30.8333 106.508 31.5C107.308 32.7 107.508 34.5348 107.508 35.3021M111.508 33.5L114.781 42.5M107.508 35.3021C105.663 35.968 103.821 36.4157 102.008 36.6845M85.5085 34.772C86.8925 35.2864 88.4021 35.7517 90.0085 36.1229M90.0085 36.1229C90.0348 36.129 90.0613 36.135 90.0877 36.1411M90.0085 36.1229C90.0331 36.1301 90.0595 36.1362 90.0877 36.1411M113.508 25C113.508 25.5 113.108 26.6 111.508 27C109.908 27.4 109.508 26.1667 109.508 25.5M113.508 25V23.153M122.508 41.4371V41.4206M120.008 34.5C121.842 35.5 125.508 37.8 125.508 39M125.508 39C125.508 38.2425 124.047 37.0466 122.508 36.0161V41.4206M125.508 39C125.508 39.6418 124.126 40.5692 122.508 41.4206M118.508 43.2319C117.349 42.5169 115.779 42.4045 114.781 42.5M118.508 43.2319C119.516 42.8443 121.101 42.1611 122.508 41.4206M118.508 43.2319C119.373 43.765 120.008 44.6332 120.008 46M103.008 35.5L102.008 36.6845M102.008 36.6845C97.7694 37.3132 93.6878 36.9644 90.0877 36.1411M114.781 42.5L115.508 44.5C114.708 45.3 112.842 45.1667 112.008 45C110.408 45.4 111.008 46.5 111.508 47M114.781 42.5C116.524 42.3334 120.008 42.8 120.008 46M120.008 46C120.342 47.5 119.608 50.6 114.008 51C113.675 51 113.008 50.8 113.008 50M113.008 50C112.342 50 111.108 49.7 111.508 48.5M113.008 50C113.956 50 115.983 49.8 116.508 49M111.508 48.5C111.008 48.1667 110.308 47.4 111.508 47M111.508 48.5C112.842 48.6667 115.608 48.8 116.008 48M111.508 47C112.675 47.1667 115.108 47.3 115.508 46.5M84.5085 43C86.0085 42.5 85.0085 41.5 84.5085 41.5L82.0085 40.5L81.7351 39.6799M84.5085 43C85.0085 43 86.0085 44 85.0085 44.5M84.5085 43C83.6751 43 82.5085 43 82.0085 42.5M85.0085 44.5C86.0085 44.5 86.5085 45.5 85.0085 46M85.0085 44.5C84.3418 44.6667 83.5085 45 83.0085 44.5M85.0085 46C86.5085 46 85.3418 47.1667 84.5085 47.5C84.0085 47.6667 82.9085 47.9 82.5085 47.5C82.1085 47.1 81.0085 43 80.5085 41C80.4929 40.62 80.7164 39.8239 81.7351 39.6799M85.0085 46C84.6751 46.1667 83.9085 46.4 83.5085 46M109.508 24V25.5M109.508 24C107.842 23.1667 105.008 20.3 107.008 15.5M109.508 24C111.175 24.3334 114.508 24.1 114.508 20.5C115.675 20.6667 116.508 20.5 116.508 19C116.508 18.1389 116.161 17.8751 115.745 17.8889M109.508 25.5V25C106.708 25 103.842 26 103.008 26.5C95.2052 34.6934 91.2077 36.3365 90.0877 36.1411M107.008 15.5C107.675 15.8334 109.308 16.3 110.508 15.5C111.708 14.7 113.008 15.1667 113.508 15.5M107.008 15.5C106.175 15 104.608 13.7 105.008 12.5C105.408 11.3 106.508 11.3333 107.008 11.5C107.342 10.5 108.708 9.1 111.508 11.5C112.842 11.1667 115.408 11.1 115.008 13.5C115.999 13.9259 117.533 15.4 115.745 17.8889M113.508 17.5C113.508 18.3 114.175 18.5 114.508 18.5C114.768 18.2407 115.296 17.9037 115.745 17.8889M113.508 17.5C113.508 16.7 113.508 15.8334 113.508 15.5M113.508 17.5V15.5M107.508 19.5V18.5M110.508 19.5V18.5M105.508 58.5C106.008 58.5 110.508 58 111.508 57.5M108.508 59.5C109.175 59.5 110.808 59.4 112.008 59" stroke="black"/>
<path d="M43.5085 83H39.5085V88H64.5085M43.5085 83C42.3418 82 40.9085 79.7 44.5085 78.5M43.5085 83H65.5085M44.5085 78.5V69.5M44.5085 78.5H66.5085M43.5085 25.5V9.5M43.5085 9.5H42.0085C41.1751 8.83333 40.0085 7.2 42.0085 6M43.5085 9.5C49.0012 9.5 59.1554 9.5 63.0085 9.5M42.0085 6H38.5085V0.5H68.5085V6H65.5085M42.0085 6H65.5085M65.5085 6C66.1751 7.16667 66.9085 9.5 64.5085 9.5C64.3676 9.5 63.8319 9.5 63.0085 9.5M63.0085 9.5V14L65.0085 16V21M65.0085 21H68.5085V39L70.5085 40V60M65.0085 21L63.5085 22V33L64.5085 34L65.0085 74C65.1751 74.6667 65.8085 75.8 67.0085 75M65.5085 33.5L67.0085 34.5V39M48.0085 30V15.5C48.5085 14.6667 49.9085 13.5 51.5085 15.5V36M48.0085 64V74C48.5085 75.1667 49.9085 76.8 51.5085 74V56M70.0085 88H74.0085M56.5085 31V15.5C57.0085 14.6667 58.4085 13.5 60.0085 15.5V74C58.4085 76.8 57.0085 75.1667 56.5085 74V31Z" stroke="black"/>
<path fill-rule="evenodd" clip-rule="evenodd" d="M25.5085 58C29.1751 57.1667 36.5085 53.9 36.5085 47.5C36.5085 39.5 29.5085 34.5 25.5085 34.5C21.5085 34.5 12.5085 37.5 13.0085 47.5C13.4085 55.5 21.5085 57.8333 25.5085 58ZM18.0085 47.5C18.0085 51.1 22.5085 56 25.5085 57C28.5085 56.5 32.8353 51.5 32.5085 47.5C33.3085 39.9 28.1751 36.6667 25.5085 36C18.0085 38.5 18.0085 43 18.0085 47.5Z" fill="black"/>
<path d="M48.5084 45.5C48.5084 58 32.5085 80 28.5085 85.5C27.6586 86.6686 26.8134 87.3458 26.0085 87.6758H30.0085C30.5085 87.7839 31.8085 87.6 33.0085 86C40.6751 76.1667 53.9182 54.5151 53.5085 45.5C53.0085 34.5 45.5084 19.5 24.5085 22.5C35.5085 22 48.5084 33 48.5084 45.5Z" fill="black"/>
<path d="M24.5085 22.5C35.5085 22 48.5084 33 48.5084 45.5C48.5084 58 32.5085 80 28.5085 85.5C27.6586 86.6686 26.8134 87.3458 26.0085 87.6758M24.5085 22.5C13.5085 23 1.00845 30.5 0.508451 45.5C0.108451 57.5 14.0085 77.1667 21.0085 85.5C21.8653 86.8464 23.7828 88.5883 26.0085 87.6758M24.5085 22.5C45.5084 19.5 53.0085 34.5 53.5085 45.5C53.9182 54.5151 40.6751 76.1667 33.0085 86C31.8085 87.6 30.5085 87.7839 30.0085 87.6758H26.0085M25.5085 57C22.5085 56 18.0085 51.1 18.0085 47.5C18.0085 43 18.0085 38.5 25.5085 36C28.1751 36.6667 33.3085 39.9 32.5085 47.5C32.8353 51.5 28.5085 56.5 25.5085 57ZM25.5085 58C29.1751 57.1667 36.5085 53.9 36.5085 47.5C36.5085 39.5 29.5085 34.5 25.5085 34.5C21.5085 34.5 12.5085 37.5 13.0085 47.5C13.4085 55.5 21.5085 57.8333 25.5085 58Z" stroke="black"/>
<path d="M68.5085 68.5H70.0085H71.5085L78.5085 60H75.0085H74.5085L67.5085 68.5H68.5085Z" fill="black"/>
<path d="M70.0085 68.5L69.5085 72.1938H72.5085L71.5085 68.5H70.0085Z" fill="black"/>
<path d="M85.0085 60L78.0085 68.5H82.5085L89.5085 60H85.0085Z" fill="black"/>
<path d="M94.0085 61.5L88.5085 68.5H93.0085L98.0085 62.5C97.6537 62.4465 95.3418 61.6667 94.0085 61.5Z" fill="black"/>
<path d="M99.5085 89.5L100.008 87.5L99.5085 80.5H98.0085L96.5085 89.5H99.5085Z" fill="black"/>
<path d="M69.5085 89.5L70.5085 80.5L70.3139 79.5L69.5085 72.1938L66.5085 89.5H69.5085Z" fill="black"/>
<path d="M70.5085 80.5H73.5085H75.0085L82.0085 72.1938H77.6795H76.2079L70.3139 79.5L70.5085 80.5Z" fill="black"/>
<path d="M70.5085 80.5L69.5085 89.5H66.5085M70.5085 80.5H73.5085M70.5085 80.5L70.3139 79.5M73.5085 80.5L75.0085 89.5H76.5085M73.5085 80.5H78.0085M73.5085 80.5H75.0085M78.0085 80.5L79.5085 89.5H76.5085M78.0085 80.5H75.0085M78.0085 80.5H81.5085M68.5085 68.5L65.0085 89.5H66.5085M68.5085 68.5H70.0085M68.5085 68.5H67.5085M76.5085 68.5L77.6795 72.1938M76.5085 68.5H73.0085M76.5085 68.5H78.0085M77.6795 72.1938H76.2079M77.6795 72.1938H82.0085M76.5085 89.5C76.5085 89.1 75.5085 83.3333 75.0085 80.5M75.0085 80.5L82.0085 72.1938M74.0085 72.1938L73.0085 68.5M73.0085 68.5H71.5085M66.5085 89.5L69.5085 72.1938M70.0085 68.5L69.5085 72.1938M70.0085 68.5H71.5085M69.5085 72.1938H72.5085M69.5085 72.1938L70.3139 79.5M72.5085 72.1938L71.5085 68.5M72.5085 72.1938H76.2079M71.5085 68.5L78.5085 60M99.5085 72.1938H98.0085M99.5085 68.5H98.5085M67.5085 68.5L66.5085 60H71.5085M67.5085 68.5L74.5085 60M90.5085 60H90.0085H89.5085M74.5085 60H71.5085M74.5085 60H75.0085M78.5085 60H85.0085M78.5085 60H75.0085M78.0085 68.5L85.0085 60M78.0085 68.5H82.5085M85.0085 60H89.5085M82.5085 68.5L89.5085 60M82.5085 68.5H88.5085M88.5085 68.5L94.0085 61.5C95.3418 61.6667 97.6537 62.4465 98.0085 62.5L93.0085 68.5M88.5085 68.5H93.0085M93.0085 68.5H98.5085M70.3139 79.5L76.2079 72.1938M82.0085 72.1938H88.2521M81.5085 80.5L88.2521 72.1938M81.5085 80.5H88.5085M88.2521 72.1938H95.0085M88.5085 80.5L95.0085 72.1938M88.5085 80.5H95.5085M95.0085 72.1938H98.0085M95.5085 80.5L99.5085 75.5M95.5085 80.5H96.5085M96.5085 80.5L95.0085 89.5H96.5085M96.5085 80.5H98.0085M96.5085 89.5H99.5085L100.008 87.5L99.5085 80.5H98.0085M96.5085 89.5L98.0085 80.5M109.508 72.1938L110.508 80.5H109.008H108.508L110.008 89.5H108.508M71.5085 60L71.0085 56H74.0085L75.0085 60M98.0085 72.1938L98.5085 68.5" stroke="black"/>
</svg>
