<svg width="183" height="117" viewBox="0 0 183 117" fill="none" xmlns="http://www.w3.org/2000/svg">
<g clip-path="url(#clip0_7_49)">
<path d="M129.906 113.033C126.347 114.016 118.672 116.158 116.444 116.865M83.7177 107.285L92.3054 104.78M74.5652 111.265L65.7948 114.212M0.75 109.201L39.2789 123.644M2.7142 104.485L16.2209 101.832M24.25 107.285L13.5263 109.201M5.03522 96.232L14.7835 94.7582M2.7142 90.9264L25.4602 94.7582M28.25 82.9679L35.25 83.5M47.7138 93.5L50.9226 93.7948M105.905 103.601L79.315 100.064M47.9345 90.3281L51.824 90.5M2.25 88.8631L26.1357 92.8423M11.9983 78.8413H13.3909M11.9983 78.8413L2.25 78.2518M11.9983 78.8413L12.1176 81.4942M13.3909 78.8413L26.8528 80.0204M13.3909 78.8413L13.5263 81.9363M2.25 76.9193L35.5998 79.1607M26.8528 80.0204H27.9148M26.8528 80.0204V86.505M27.9148 80.0204L35.6726 80.5055M27.9148 80.0204V86.505M2.25 80.9046L12.1176 81.4942M12.1176 81.4942L12.2635 84.7365M2.25 83.8522L12.2635 84.7365M12.2635 84.7365L12.4094 87.9788M2.25 86.7998L12.4094 87.9788M12.4094 87.9788L12.4625 89.1578L13.8551 89.4526L13.7906 87.9788M13.7906 87.9788L26.8528 89.7473M13.7906 87.9788L13.6617 85.0312M26.8528 89.7473V91H27.9148V89.7473V86.505M26.8528 89.7473V86.505M27.9148 86.505L34.28 87.0945M13.6617 85.0312L26.8528 86.505M13.6617 85.0312L13.5263 81.9363M13.5263 81.9363L27.106 82.9679M56.9209 82H59.4878M65.7948 82.9679L117.372 87.0295M224.25 96.9193L181.432 92.7947M65.7948 81.4942L225.75 95.4193M92.3054 85.0312V88.5683M92.3054 97.1163V96.5267M94.1622 97.1163V96.5267M94.1622 85.0312V89.1578M67.1469 86.505L92.3054 88.5683M92.3054 88.5683V92.8423M71.2029 90.9264L92.3054 92.8423M92.3054 92.8423V96.5267M76.611 94.402L92.3054 96.5267M94.1622 89.1578L117.372 91.5159M94.1622 89.1578V93.137M117.372 91.5159V87.0295M117.372 91.5159V95.9372M117.372 87.0295L119.229 87.1966M119.229 87.1966V91.5159M119.229 87.1966L146.153 89.6197M94.1622 93.137L117.372 95.9372M94.1622 93.137V96.5267M117.372 95.9372V103.601L119.229 104.19V100.064M94.1622 96.5267L116.908 100.064M119.229 91.5159L146.153 94.7582M119.229 91.5159V95.9372M146.153 94.7582V89.6197M146.153 94.7582V100.064M146.153 89.6197L148.474 89.8286M148.474 89.8286L178.647 92.544M148.474 89.8286L148.356 94.7582M119.229 95.9372L146.153 100.064M119.229 95.9372V100.064M146.153 100.064V104.485M119.229 100.064L146.153 104.485M146.153 104.485V108.907L148.01 109.201L148.116 104.78M148.116 104.78L178.647 109.201M148.116 104.78L148.229 100.064M178.647 109.201V114.212L180.504 114.507L180.718 109.496M178.647 109.201V104.19M178.647 92.544L181.432 92.7947M178.647 92.544V98.59M181.432 92.7947L181.172 98.8848M148.356 94.7582L178.647 98.59M148.356 94.7582L148.229 100.064M178.647 98.59V104.19M181.172 98.8848L225.25 104.19M181.172 98.8848L180.933 104.485M148.229 100.064L178.647 104.19M180.933 104.485L225.75 109.496M180.933 104.485L180.718 109.496M180.718 109.496L223.75 115.419M109.481 104.485C139.964 109.693 201.393 120.284 203.25 120.992M143.368 138.972L175.862 121.581M203.25 126.002C173.386 119.911 113.287 107.845 111.802 108.317" stroke="black"/>
<mask id="path-2-inside-1_7_49" fill="white">
<ellipse cx="63.1916" cy="58.8243" rx="0.502679" ry="1.00536"/>
</mask>
<path d="M63.6943 58.8243H62.6943C62.6943 58.8966 62.6868 58.9594 62.6764 59.0087C62.6713 59.0331 62.6658 59.0523 62.661 59.0664C62.6587 59.0733 62.6566 59.0786 62.6551 59.0824C62.6543 59.0842 62.6537 59.0856 62.6533 59.0866C62.6531 59.087 62.6529 59.0874 62.6528 59.0876C62.6527 59.0879 62.6526 59.088 62.6526 59.088C62.6526 59.088 62.6527 59.0879 62.6528 59.0876C62.6529 59.0874 62.6531 59.087 62.6534 59.0865C62.654 59.0855 62.6548 59.0839 62.6561 59.0819C62.6585 59.0779 62.6626 59.0714 62.6688 59.0631C62.6807 59.0471 62.7037 59.0191 62.7414 58.9872C62.8192 58.9214 62.9741 58.8297 63.1916 58.8297V59.8297V60.8297C63.9132 60.8297 64.2974 60.2706 64.4415 59.9824C64.6155 59.6344 64.6943 59.2235 64.6943 58.8243H63.6943ZM63.1916 59.8297V58.8297C63.4091 58.8297 63.564 58.9214 63.6418 58.9872C63.6795 59.0191 63.7025 59.0471 63.7143 59.0631C63.7206 59.0714 63.7247 59.0779 63.7271 59.0819C63.7284 59.0839 63.7292 59.0855 63.7298 59.0865C63.7301 59.087 63.7303 59.0874 63.7304 59.0876C63.7305 59.0879 63.7306 59.088 63.7306 59.088C63.7306 59.088 63.7305 59.0879 63.7304 59.0876C63.7303 59.0874 63.7301 59.087 63.7299 59.0866C63.7295 59.0856 63.7289 59.0842 63.7281 59.0824C63.7266 59.0786 63.7245 59.0733 63.7222 59.0664C63.7174 59.0523 63.7119 59.0331 63.7068 59.0087C63.6963 58.9594 63.6889 58.8966 63.6889 58.8243H62.6889H61.6889C61.6889 59.2235 61.7677 59.6344 61.9417 59.9824C62.0858 60.2706 62.47 60.8297 63.1916 60.8297V59.8297ZM62.6889 58.8243H63.6889C63.6889 58.752 63.6963 58.6892 63.7068 58.6399C63.7119 58.6155 63.7174 58.5963 63.7222 58.5822C63.7245 58.5753 63.7266 58.57 63.7281 58.5662C63.7289 58.5644 63.7295 58.563 63.7299 58.562C63.7301 58.5616 63.7303 58.5612 63.7304 58.561C63.7305 58.5607 63.7306 58.5606 63.7306 58.5606C63.7306 58.5606 63.7305 58.5607 63.7304 58.561C63.7303 58.5612 63.7301 58.5616 63.7298 58.5621C63.7292 58.5631 63.7284 58.5646 63.7271 58.5667C63.7247 58.5707 63.7206 58.5771 63.7143 58.5855C63.7025 58.6015 63.6795 58.6295 63.6418 58.6614C63.564 58.7272 63.4091 58.8189 63.1916 58.8189V57.8189V56.8189C62.47 56.8189 62.0858 57.3779 61.9417 57.6662C61.7677 58.0142 61.6889 58.4251 61.6889 58.8243H62.6889ZM63.1916 57.8189V58.8189C62.9741 58.8189 62.8192 58.7272 62.7414 58.6614C62.7037 58.6295 62.6807 58.6015 62.6688 58.5855C62.6626 58.5771 62.6585 58.5707 62.6561 58.5667C62.6548 58.5646 62.654 58.5631 62.6534 58.5621C62.6531 58.5616 62.6529 58.5612 62.6528 58.561C62.6527 58.5607 62.6526 58.5606 62.6526 58.5606C62.6526 58.5606 62.6527 58.5607 62.6528 58.561C62.6529 58.5612 62.6531 58.5616 62.6533 58.562C62.6537 58.563 62.6543 58.5644 62.6551 58.5662C62.6566 58.57 62.6587 58.5753 62.661 58.5822C62.6658 58.5963 62.6713 58.6155 62.6764 58.6399C62.6868 58.6892 62.6943 58.752 62.6943 58.8243H63.6943H64.6943C64.6943 58.4251 64.6155 58.0142 64.4415 57.6662C64.2974 57.3779 63.9132 56.8189 63.1916 56.8189V57.8189Z" fill="black" mask="url(#path-2-inside-1_7_49)"/>
<path d="M51.63 55.5569C51.831 56.1601 51.5462 56.3109 51.3786 56.3109C51.1273 55.4731 50.5241 54.0488 50.1219 55.0542C49.9208 53.6467 51.0435 51.7868 51.63 51.0328L51.061 50.8431C49.1984 52.0989 48.9886 54.5089 49.1166 55.5569L48.6139 56.5622C47.0053 56.7633 47.2734 55.138 47.6085 54.3002C47.2734 53.7975 47.0053 52.6413 48.6139 52.0381C49.016 50.4295 50.2895 50.5301 50.8759 50.7814L51.061 50.8431L51.63 51.0328L52.8867 50.7814C52.8867 50.6139 53.138 50.2285 54.1434 50.0274C55.1487 49.8263 55.5676 50.7814 55.6514 51.2841C56.2379 51.0328 57.3605 51.0328 57.1594 53.0435C58.5669 56.2606 56.2379 55.3893 54.8974 54.5515C54.2942 55.5569 53.138 54.9704 52.6353 54.5515C52.4678 55.0542 52.0321 55.959 51.63 55.5569Z" fill="black"/>
<path d="M56.6568 64.3538C57.4108 63.8511 58.8183 62.3933 58.4161 60.5837M56.4054 64.8564C56.6568 64.7727 57.26 64.5046 57.6621 64.1024C58.1648 63.5997 58.6675 62.8457 58.6675 62.5944C58.6675 62.3933 58.835 61.3377 58.9188 60.835V60.5837M54.3947 61.3377L54.1434 61.589L54.8974 60.835M52.384 62.343L53.3893 63.5997L53.6407 63.3484L52.6353 62.0917V61.8404V61.589M53.6407 59.327C53.6407 59.5783 53.7915 60.0307 54.3947 59.8296M54.646 58.5729H55.4001M54.8974 56.5622C54.9812 56.9811 55.2492 57.8189 55.6514 57.8189M55.6514 57.0649V56.5622M53.6407 57.0649V56.5622M52.8867 56.0596C52.9704 55.892 53.2888 55.6071 53.892 55.8082M55.4001 55.8082H55.9027H56.1541V55.3055V56.8136V57.0649M51.63 51.0328L52.8867 50.7814C52.8867 50.6139 53.138 50.2285 54.1434 50.0274C55.1487 49.8263 55.5676 50.7814 55.6514 51.2841C56.2379 51.0328 57.3605 51.0328 57.1594 53.0435C58.5669 56.2606 56.2379 55.3893 54.8974 54.5515C54.2942 55.5569 53.138 54.9704 52.6353 54.5515C52.4678 55.0542 52.0321 55.959 51.63 55.5569C51.831 56.1601 51.5462 56.3109 51.3786 56.3109C51.1273 55.4731 50.5241 54.0488 50.1219 55.0542C49.9208 53.6467 51.0435 51.7868 51.63 51.0328ZM51.63 51.0328L51.061 50.8431M51.061 50.8431L50.8759 50.7814C50.2895 50.5301 49.016 50.4295 48.6139 52.0381C47.0053 52.6413 47.2734 53.7975 47.6085 54.3002C47.2734 55.138 47.0053 56.7633 48.6139 56.5622L49.1166 55.5569C48.9886 54.5089 49.1984 52.0989 51.061 50.8431Z" stroke="black"/>
<path d="M51.63 74.2659L50.8759 78.9314C50.9597 79.0152 51.1273 79.3336 51.1273 79.9368C46.5026 82.5507 39.4819 82.3664 36.5496 81.9475C36.8847 75.664 39.6159 62.6446 47.8599 60.835C48.2788 63.2646 49.9579 67.4201 53.1751 64.6051M45.8491 63.5997C47.1058 64.9402 49.6192 67.7217 49.6192 68.1238C49.5043 68.0664 49.3676 68.0903 49.215 68.179M42.5817 69.2658C43.5033 70.4769 45.4973 72.9496 46.1005 73.1506M46.1005 73.1506C46.268 73.1506 46.754 73.0855 47.3572 72.6834M46.1005 73.1506C46.2665 72.7853 46.4734 72.3515 46.7046 71.8939M46.7046 71.8939C47.4734 70.3726 48.5116 68.5877 49.215 68.179M46.7046 71.8939C48.3567 74.147 51.4347 76.1371 53.9777 72.1453M56.9081 62.5944C56.7029 63.8938 56.4762 65.0632 56.2315 66.1131M49.215 68.179L50.6246 69.3805M50.6246 69.3805L50.3733 69.8832M50.6246 69.3805C51.8813 67.0347 54.4952 62.142 54.8974 61.3377M53.9777 72.1453L54.1862 72.4143M53.9777 72.1453C54.809 70.8404 55.5831 68.8962 56.2315 66.1131M55.1487 72.1453L54.3947 72.6834L54.1862 72.4143M54.1862 72.4143C54.3783 72.1293 54.6246 71.784 54.8974 71.4166M56.2315 66.1131C56.7922 66.8671 58.0156 68.3752 57.6135 68.3752C57.2964 68.3752 55.9133 70.0485 54.8974 71.4166M57.1594 70.3859L58.9188 62.5944L59.6728 61.8403M54.8974 71.4166C55.4838 72.653 57.1092 74.8817 58.9188 73.9047C60.7285 72.9276 61.1809 66.46 61.1809 63.3484C61.9349 62.7619 63.3927 61.4382 63.1916 60.835" stroke="black"/>
<path d="M49.6194 55.8055C49.763 55.8056 49.94 55.8862 50.1008 56.1112C50.2611 56.3355 50.3762 56.6716 50.3762 57.0653C50.3762 57.4588 50.261 57.7942 50.1008 58.0184C49.94 58.2435 49.763 58.324 49.6194 58.3241C49.4758 58.3241 49.2988 58.2435 49.138 58.0184C48.9778 57.7942 48.8626 57.4588 48.8626 57.0653C48.8626 56.6716 48.9777 56.3355 49.138 56.1112C49.2988 55.8862 49.4758 55.8055 49.6194 55.8055Z" stroke="black"/>
<path d="M49.1166 55.8082C48.949 53.965 49.4685 50.3793 52.8867 50.7814C50.2075 50.96 49.8421 53.5317 50.0288 55.2197M50.1219 55.8082C50.0845 55.6304 50.0523 55.432 50.0288 55.2197M49.6193 58.5729V59.0756M49.6193 59.0756C50.4571 59.0756 51.9316 58.4221 51.1273 55.8082C50.5241 55.0039 50.1436 55.0808 50.0288 55.2197M49.6193 59.0756L48.1627 60.5322M47.8599 60.835L48.1627 60.5322M48.1627 60.5322C48.3012 61.1237 48.5479 61.9253 48.8652 62.6831M52.0258 62.6831L53.138 63.9593M52.0258 62.6831L51.8813 63.5997C51.077 64.404 49.5355 63.3238 48.8652 62.6831M52.0258 62.6831L52.6353 61.589L52.8867 61.3377M53.138 63.9593C52.8628 64.2473 52.5387 64.5518 52.1327 64.8564C51.3284 65.4596 50.6246 65.1078 50.3733 64.8564C49.806 64.5728 49.2763 63.6646 48.8652 62.6831M53.138 63.9593C53.5441 63.5343 53.8437 63.1453 54.1434 62.8457L54.8974 61.3377C54.8974 60.5836 55.0482 58.8745 55.6514 58.0702C56.4054 57.0649 56.1541 56.3109 56.9081 56.0595C57.5113 55.8585 58.3324 55.8082 58.6675 55.8082M52.8867 61.3377L51.8813 61.0863M52.8867 61.3377C53.2218 61.589 53.9926 61.9409 54.3947 61.3377M58.6675 55.8082L58.9188 56.0595V56.3109L58.6675 56.5622M58.6675 55.8082L60.0093 55.8082M58.6675 56.5622H58.4161L57.9135 56.8136H57.4108L57.1594 57.0649L56.9081 57.8189C57.2432 57.6514 58.0643 57.3665 58.6675 57.5676C59.4215 57.8189 59.6728 58.3216 59.4215 58.5729M58.6675 56.5622H59.6199M59.4215 58.5729V59.3269M59.4215 58.5729C59.0026 58.3216 58.014 57.9697 57.4108 58.5729M59.4215 59.3269C58.9188 59.0756 57.8632 58.7237 57.6621 59.3269M59.4215 59.3269V59.704M59.4215 60.081C58.9188 59.8296 57.8632 59.528 57.6621 60.3323M59.4215 60.081V60.835C59.3272 60.7643 59.1984 60.6856 59.053 60.6224M59.4215 60.081V59.704M56.9081 62.8457C58.4161 61.3377 57.4108 61.589 57.9135 60.835C58.2024 60.4015 58.6818 60.4612 59.053 60.6224M59.6728 62.0917L59.053 60.6224M59.4215 59.704C59.7566 60.3323 60.4269 61.6393 60.4269 61.8403M59.6199 60.081C59.6981 59.8465 59.8679 59.5902 60.1086 59.6486M61.1809 61.589C60.813 60.3935 60.4902 59.871 60.2321 59.704M60.2321 59.704C60.1891 59.6761 60.1479 59.6582 60.1086 59.6486M60.2321 59.704C60.4484 59.1974 61.0832 58.7416 61.98 60.6224M62.1862 61.0863C62.1161 60.9179 62.0473 60.7636 61.98 60.6224M59.6199 56.5622H61.6836L61.5976 56.4333M59.6199 56.5622L60.0093 55.8082M60.0093 55.8082L61.1809 55.8082L61.5976 56.4333M61.5976 56.4333H62.4376L62.6889 57.0649L60.6782 57.3162L60.2321 57.5676L60.0093 58.3216L60.1086 59.6486M61.98 60.6224L62.4376 59.8296" stroke="black"/>
<path d="M63.1917 57.3136C63.3041 57.3137 63.4819 57.3877 63.6566 57.6671C63.8269 57.9397 63.9486 58.3478 63.9486 58.8243C63.9486 59.3009 63.8269 59.709 63.6566 59.9816C63.4819 60.2609 63.3041 60.335 63.1917 60.3351C63.0793 60.3351 62.9016 60.261 62.7269 59.9816C62.5565 59.709 62.4349 59.3009 62.4349 58.8243C62.4349 58.3478 62.5565 57.9397 62.7269 57.6671C62.9016 57.3877 63.0793 57.3136 63.1917 57.3136Z" stroke="black"/>
<path fill-rule="evenodd" clip-rule="evenodd" d="M37.0523 82.1989L39.5657 92.7551C39.9355 92.7023 40.3636 92.6399 40.8224 92.5715C42.3233 92.3476 44.153 92.0591 45.3465 91.8302C46.1025 91.6852 46.6032 91.5641 46.6032 91.4984C46.6032 91.2974 46.2681 87.7283 46.1005 85.969L48.6139 87.2257L53.3894 86.4716C54.1434 85.3825 55.8022 83.2042 56.4054 83.2042C57.0086 83.2042 52.9705 81.1935 50.876 80.1881C48.8652 81.3611 43.2855 83.4053 37.0523 82.1989Z" fill="black"/>
<path d="M40.8224 92.5715C40.3636 92.6399 39.9355 92.7023 39.5657 92.7551L37.0523 82.1989C43.2855 83.4053 48.8652 81.3611 50.876 80.1881C52.9705 81.1935 57.0086 83.2042 56.4054 83.2042C55.8022 83.2042 54.1434 85.3825 53.3894 86.4716L48.6139 87.2257L46.1005 85.969C46.2681 87.7283 46.6032 91.2974 46.6032 91.4984C46.6032 91.5641 46.1025 91.6852 45.3465 91.8302M40.8224 92.5715C40.9899 93.5543 41.3753 95.6707 41.5764 96.2739C41.8277 97.0279 41.5764 99.0386 41.5764 100.295C41.5764 101.301 42.5817 105.238 43.0844 107.081L43.3358 109.846C43.7547 110.098 44.6427 110.5 44.8438 110.098C45.0951 109.595 44.5925 109.344 45.8492 109.092C45.7654 105.657 45.5978 98.5359 45.5978 97.5306C45.5978 96.2739 45.8492 91.9107 45.3465 91.8302M40.8224 92.5715C42.3233 92.3476 44.153 92.0591 45.3465 91.8302" stroke="black"/>
<path d="M43.0844 107.081C43.7547 107.081 45.2459 106.981 45.8492 106.579M43.3358 109.846C43.1792 110.316 42.9825 111.005 42.8787 111.606M45.8492 109.092C45.5768 109.228 46.2634 109.807 47.0698 110.349M42.8787 111.606C42.7603 112.291 42.763 112.862 43.0844 112.862C43.8384 112.862 46.8545 113.868 48.1112 113.868C48.7815 114.035 50.1722 114.169 50.3733 113.365C50.4284 113.145 50.4231 112.936 50.3733 112.743M42.8787 111.606C44.8742 112.447 49.1668 113.853 50.3733 112.743M50.3733 112.743C50.1959 112.053 49.454 111.55 48.8652 111.354C48.7344 111.311 48.543 111.222 48.3186 111.103M45.8492 110.852C46.1272 110.6 46.7605 110.148 47.0698 110.349M47.0698 110.349C47.2823 110.492 47.5031 110.632 47.7169 110.761M46.6032 111.354C46.843 111.08 47.4015 110.577 47.7169 110.761M47.7169 110.761C47.9295 110.889 48.1351 111.006 48.3186 111.103M47.3572 111.857C47.5792 111.522 48.0824 110.902 48.3186 111.103" stroke="black"/>
<path d="M46.6032 88.985C46.7147 88.985 49.8194 88.5214 53.4064 87.9797M49.1166 103.563L49.8706 104.568M49.1166 103.563C48.5301 102.976 47.0556 102.205 45.8492 103.814M49.1166 103.563V101.301M49.1166 103.563L50.7615 101.359M49.8706 104.568C50.0697 104.966 50.2615 105.501 50.3535 106.076M49.8706 104.568C50.5104 103.698 51.2492 102.697 52.0424 101.628M62.9403 89.4877C62.9403 89.1526 62.89 88.3818 62.6889 87.9797C62.5385 87.6787 57.7812 93.9268 53.6407 99.4782M62.9403 89.4877C63.6105 89.4039 64.951 89.1861 64.951 88.985M62.9403 89.4877L62.9403 89.9904L63.4429 90.2417M64.951 88.985C64.951 88.784 63.7781 85.0474 63.1916 83.2042M64.951 88.985L65.2023 89.4877V89.9904M63.1916 83.2042C62.7727 83.2042 61.8846 83.2545 61.6836 83.4556M63.1916 83.2042L63.6943 82.9529L63.4429 82.4502L62.1862 82.1989L61.6836 82.5759M61.6836 83.4556C61.5249 83.6142 61.773 84.5133 62.0083 85.2149M61.6836 83.4556H61.1809V82.9529L61.6836 82.5759M62.0083 85.2149C62.0712 85.4026 62.1332 85.5762 62.1862 85.7176L62.0083 85.2149ZM62.0083 85.2149L46.3518 87.7283M48.3626 103.06C48.3626 102.859 47.0221 95.4361 46.3518 91.7498M45.5978 96.7766L45.8492 96.5252C46.1843 98.5359 46.9048 102.608 47.1059 102.809L45.5978 102.306M48.1112 109.595L47.8599 106.327C47.6588 105.724 47.2734 105.909 47.1059 106.076V109.595M48.1112 109.595V110.852M48.1112 109.595C50.2312 109.03 50.5713 107.438 50.3535 106.076M45.8492 108.841C46.1843 109.092 46.9048 109.595 47.1059 109.595M47.1059 109.595C47.1059 109.762 47.1059 110.148 47.1059 110.349M42.8331 107.333L34.0362 102.557C33.6173 101.887 33.1314 100.446 34.5389 100.044M34.5389 100.044C33.9357 101.049 33.9524 101.636 34.0362 101.803L42.3304 104.568M34.5389 100.044L39.5657 92.5038M40.3197 92.7551C38.9687 94.8138 36.5802 98.483 35.5442 100.166M42.0791 103.311C41.1517 103.126 37.7605 102.119 36.0469 101.503M40.3197 94.5145C39.3143 96.1901 37.3036 99.5916 37.3036 99.7926C37.1026 99.5916 36.5496 100.044 36.2983 100.295L35.5442 100.166M40.8224 95.0172L37.555 100.044C37.5999 100.187 37.6293 100.365 37.6201 100.547M35.5442 100.166C35.2311 100.675 35.0416 101.003 35.0416 101.049C35.0416 101.115 35.4385 101.285 36.0469 101.503M36.0469 101.503C37.2503 101.623 37.5937 101.068 37.6201 100.547M37.555 101.049L42.0791 102.809M37.6201 100.547L41.8277 102.055M50.3535 106.076H50.876L50.7615 103.563M63.4429 90.2417H64.4483L65.2023 89.9904M63.4429 90.2417C63.1078 90.4931 62.5381 91.3476 62.9403 92.7551L66.9617 106.83C67.2668 107.288 67.8497 107.829 67.9517 106.708M65.2023 89.9904C65.6212 90.0742 66.459 90.5936 66.459 92.0011M65.4537 91.7498C64.6494 90.1412 64.2807 91.2471 64.197 92.0011L67.8348 105.825M65.705 94.2632L68.7211 105.573M68.7211 105.573C68.8886 105.322 69.3243 105.071 69.7264 106.076M68.7211 105.573L67.8348 105.825M66.9617 94.0118L69.7264 106.076M69.7264 106.076C69.5254 106.88 69.14 106.579 68.9724 106.327L67.9517 106.708M67.9517 106.708C67.9617 106.598 67.9671 106.471 67.9671 106.327L67.8348 105.825M61.6836 82.5759L60.9295 79.6855M60.9295 79.6855L59.6728 79.9368C59.8404 79.4341 60.0247 78.4288 59.4215 78.4288C58.8183 78.4288 63.1916 77.9261 65.4537 77.6747C65.7888 78.0099 66.2579 78.7304 65.4537 78.9314C64.8772 79.0756 63.4056 79.3143 62.1862 79.4998M60.9295 79.6855C61.2618 79.638 61.7043 79.573 62.1862 79.4998M62.1862 79.4998C62.1862 79.6483 62.6889 81.5286 62.9403 82.4502M50.3733 97.7819C50.9597 96.3577 52.2332 93.2578 52.6353 92.2524C53.0375 91.2471 54.1434 89.3201 54.6461 88.4823L53.4064 87.9797M50.3733 97.7819C50.5408 98.2846 51.077 99.2397 51.8813 99.0386C52.0111 98.7088 52.4077 98.1231 52.9557 98.4183M50.3733 97.7819C50.0584 98.1575 49.6435 98.745 49.4191 99.2899M53.4064 87.9797C55.4066 87.6776 57.5568 87.3513 59.4215 87.0676M56.1541 83.4556C57.327 83.8745 59.5723 84.8663 59.1702 85.6705M59.4215 87.0676C60.2434 86.9425 61.0099 86.8257 61.6836 86.723L54.9312 95.7712M59.4215 87.0676C59.2765 88.1575 58.1753 91.424 54.9312 95.7712M54.9312 95.7712L52.9557 98.4183M52.9557 98.4183L51.1273 100.868M50.7615 101.359L49.6193 100.547C49.1606 100.345 49.1931 99.839 49.4191 99.2899M50.7615 101.359L51.1273 100.868M51.63 102.306C53.138 103.479 56.1038 105.423 55.9028 103.814C55.892 103.728 55.8802 103.644 55.8676 103.563M54.9312 101.359C55.1583 101.499 55.6455 102.132 55.8676 103.563M54.9312 101.359L53.892 101.628M54.9312 101.359C54.8254 101.221 54.696 101.05 54.5603 100.868M53.6407 99.4782C53.0931 100.212 52.5563 100.934 52.0424 101.628M53.6407 99.4782C53.594 99.5409 54.1113 100.266 54.5603 100.868M49.4191 99.2899C49.5792 99.4406 50.6246 100.405 51.1273 100.868M52.0424 101.628C53.0544 102.524 55.2363 104.166 55.8676 103.563M53.3894 101.049C53.656 100.929 54.2636 100.724 54.5603 100.868" stroke="black"/>
<path d="M39.817 94.0118L41.3251 95.5198L40.8224 92.5038L40.3197 92.7551L39.817 94.0118Z" fill="black"/>
<path d="M39.5657 92.5038L39.063 93.2578C38.8117 92.7551 37.0523 91.7498 34.0362 91.4984C31.0201 91.2471 29.5121 95.2685 29.2608 97.5306C29.2608 100.044 29.7634 102.976 30.2661 104.819C33.0308 110.6 36.0469 111.103 39.3143 110.852C40.8224 110.349 42.1629 108.506 42.8331 107.081L43.0844 110.349L42.8331 111.103C38.309 116.13 33.2822 112.36 30.2661 108.841C27.25 105.322 27.5014 98.2846 27.5014 96.7765C27.5014 95.2685 28.7581 91.7498 31.7741 89.739C34.187 88.1305 37.6387 89.5715 39.063 90.4931L39.5657 92.5038Z" fill="black"/>
<path d="M44.0898 114.119V113.114L47.8599 113.868L46.6032 114.873L44.0898 114.119Z" fill="black"/>
<path d="M52.8867 103.563L52.384 103.814L51.2234 102.886L51.3786 102.557L52.8867 103.563Z" fill="black"/>
<path d="M50.1219 102.055L49.1166 101.301L49.8706 100.798L50.6246 101.552L50.1219 102.055Z" fill="black"/>
<path d="M59.4215 78.6801V79.9368L53.892 80.4395C52.6856 79.6352 53.3894 78.9314 53.892 78.6801L59.1702 78.4288L59.4215 78.6801Z" fill="black"/>
<path d="M69.9778 77.4234L65.705 77.6747L66.2077 78.6801L64.6996 79.1828C66.2915 79.099 69.5254 78.9314 69.7264 78.9314C70.9329 78.3282 70.3967 77.6747 69.9778 77.4234Z" fill="black"/>
<path d="M66.7104 91.4984L64.197 91.7498L64.951 94.2632C66.0401 94.1794 68.3189 94.0621 68.7211 94.2632C69.1232 94.4642 71.2345 96.0225 72.2398 96.7765L73.4965 98.5359C74.1668 99.6251 75.5575 102.004 75.7586 102.809C76.2613 103.563 77.0153 109.344 77.0153 110.349C77.0153 111.354 76.0099 114.622 75.0046 116.13C73.9992 117.638 72.4912 118.643 70.4805 118.894C68.4697 119.146 65.2023 117.135 62.9403 114.622C61.1306 112.611 60.008 108.422 59.6728 106.579C59.3377 103.563 59.6226 97.0782 63.4429 95.2685C63.4429 94.8664 62.9403 93.2578 62.6889 92.5038C61.1809 91.4984 52.384 103.814 59.9242 114.37C65.9563 122.815 71.8209 122.413 73.9992 121.156C75.8424 120.067 79.5789 116.532 79.78 111.103C80.0314 104.317 76.2613 98.0332 75.7586 97.2792C74.9543 94.2632 69.3913 92.1687 66.7104 91.4984Z" fill="black"/>
<path d="M51.1273 102.809L51.2234 102.886M51.2234 102.886L52.384 103.814L52.8867 103.563L51.3786 102.557L51.2234 102.886ZM41.3251 95.5198C41.124 95.3188 40.2359 94.4307 39.817 94.0118L40.3197 92.7551L40.8224 92.5038L41.3251 95.5198ZM39.063 93.2578L39.5657 92.5038L39.063 90.4931C37.6387 89.5715 34.187 88.1305 31.7741 89.739C28.7581 91.7498 27.5014 95.2685 27.5014 96.7765C27.5014 98.2846 27.25 105.322 30.2661 108.841C33.2822 112.36 38.309 116.13 42.8331 111.103L43.0844 110.349L42.8331 107.081C42.1629 108.506 40.8224 110.349 39.3143 110.852C36.0469 111.103 33.0308 110.6 30.2661 104.819C29.7634 102.976 29.2608 100.044 29.2608 97.5306C29.5121 95.2685 31.0201 91.2471 34.0362 91.4984C37.0523 91.7498 38.8117 92.7551 39.063 93.2578ZM44.0898 113.114V114.119L46.6032 114.873L47.8599 113.868L44.0898 113.114ZM49.1166 101.301L50.1219 102.055L50.6246 101.552L49.8706 100.798L49.1166 101.301ZM59.4215 79.9368V78.6801L59.1702 78.4288L53.892 78.6801C53.3894 78.9314 52.6856 79.6352 53.892 80.4395L59.4215 79.9368ZM65.705 77.6747L69.9778 77.4234C70.3967 77.6747 70.9329 78.3282 69.7264 78.9314C69.5254 78.9314 66.2915 79.099 64.6996 79.1828L66.2077 78.6801L65.705 77.6747ZM64.197 91.7498L66.7104 91.4984C69.3913 92.1687 74.9543 94.2632 75.7586 97.2792C76.2613 98.0332 80.0314 104.317 79.78 111.103C79.5789 116.532 75.8424 120.067 73.9992 121.156C71.8209 122.413 65.9563 122.815 59.9242 114.37C52.384 103.814 61.1809 91.4984 62.6889 92.5038C62.9403 93.2578 63.4429 94.8664 63.4429 95.2685C59.6226 97.0782 59.3377 103.563 59.6728 106.579C60.008 108.422 61.1306 112.611 62.9403 114.622C65.2023 117.135 68.4697 119.146 70.4805 118.894C72.4912 118.643 73.9992 117.638 75.0046 116.13C76.0099 114.622 77.0153 111.354 77.0153 110.349C77.0153 109.344 76.2613 103.563 75.7586 102.809C75.5575 102.004 74.1668 99.6251 73.4965 98.5359L72.2398 96.7765C71.2345 96.0225 69.1232 94.4642 68.7211 94.2632C68.3189 94.0621 66.0401 94.1794 64.951 94.2632L64.197 91.7498Z" stroke="black"/>
<path d="M0.700826 62.7545H39.9227M0.700826 64.5578H38.5702M0.25 66.3611C4.00688 66.6617 11.5206 67.9841 11.5206 70.8694M11.5206 70.8694C13.3239 69.7874 15.2775 70.4186 16.0289 70.8694M11.5206 70.8694V74.9268M0.25 67.2628C2.35385 67.8639 6.56156 69.4267 6.56156 70.8694C6.56156 72.312 6.56156 73.5743 6.56156 74.0252L11.5206 74.9268M11.5206 74.9268C12.7228 75.0771 15.3076 75.2875 16.0289 74.9268V70.8694M16.0289 70.8694C17.9314 69.0496 21.6735 66.8017 26.3979 66.4117M26.3979 66.4117C30.2563 66.0931 31.6141 66.5629 36.3161 69.9677L35.8652 70.8694L35.4144 73.1235H33.1603C33.1603 72.823 33.1603 71.8612 33.1603 70.4186C33.1603 68.9759 28.652 67.1462 26.3979 66.4117Z" stroke="black"/>
<path d="M0.25 53.738C0.851101 53.8883 2.0533 54.3691 2.0533 55.0905C2.80468 54.7899 4.48776 54.82 5.20908 57.3446C5.81018 57.1943 7.01239 57.0741 7.01239 57.7954C7.91404 57.9457 9.53701 58.6069 8.81569 60.0495C9.11624 60.1998 9.71734 60.6807 9.71734 61.402M10.1682 59.1479C10.5743 58.8473 11.4901 58.4266 11.9044 59.1479M25.0454 58.6971C25.4962 58.096 26.5782 57.0741 27.2995 57.7954C27.6001 57.1943 28.5619 56.0823 30.0045 56.4429M22.3405 62.3037C22.3405 61.943 22.3405 54.0385 22.3405 50.1314M23.6929 62.3037V50.1314M12.8731 62.3037C12.8731 61.943 12.8731 54.3391 12.8731 50.5822M12.8731 50.5822L14.2256 49.6806M12.8731 50.5822H12.4223V49.6806L12.8731 49.3424M14.2256 49.6806L24.1438 50.1314L24.5946 49.6806V48.7789L22.7913 48.7005M14.2256 49.6806V62.3037M14.2256 48.3281V41.5657M14.2256 48.3281L12.8731 49.3424M14.2256 48.3281L22.7913 48.7005M14.2256 41.5657L12.8731 42.4673M14.2256 41.5657L42.1768 42.4673M14.2256 41.5657V39.7624M12.8731 42.4673V49.3424M12.8731 42.4673V41.1149M42.1768 42.4673V49.3424M42.1768 42.4673V41.5657L43.0784 40.664M42.1768 49.3424H42.6276V50.5822H42.1768M42.1768 49.3424H34.0619M32.7095 49.3424V50.5822M32.7095 49.3424C33.1603 48.5535 30.9061 44.7215 28.2012 44.7215C27.2099 44.7215 26.37 45.226 25.7075 45.8884M32.7095 49.3424L30.9061 49.8684M32.7095 49.3424H34.0619M32.7095 50.5822L30.9061 50.8828M32.7095 50.5822V62.3037M32.7095 50.5822H34.0619M42.1768 50.5822H34.0619M42.1768 50.5822V60.9512M30.9061 50.8828L30.0045 51.033V50.1314L30.9061 49.8684M30.9061 50.8828V62.3037M34.0619 50.5822V62.7545M24.1438 48.3281C24.3881 47.6766 24.9237 46.672 25.7075 45.8884M25.7075 45.8884C26.8393 45.4744 29.4635 45.6907 30.9061 49.8684M22.7913 48.7005V43.369L26.8487 43.5381M22.7913 48.7005C22.9416 47.3366 23.9634 44.3946 26.8487 43.5381M34.0619 49.3424V47.8772M26.8487 43.5381H30.69M30.69 43.5381H33.6111H34.0619V47.8772M30.69 43.5381C31.5916 44.1392 33.3406 46.0739 34.0619 47.8772M14.2256 39.7624L43.0784 40.664M14.2256 39.7624V37.9591M14.2256 39.7624L12.8731 41.1149M43.0784 40.664H43.5293V38.4099C43.0972 38.4032 42.6455 38.3961 42.1768 38.3888M12.8731 41.1149H11.5206L11.9044 39.9973L13.065 38.9782M14.2256 37.9591L13.065 38.9782M14.2256 37.9591V34.8033M14.2256 37.9591C14.3124 37.9591 15.4975 37.9765 17.3814 38.005M13.065 38.9782V36.6066L14.2256 34.8033M14.2256 34.8033H17.3814M12.8731 36.6066L11.9715 35.705L14.2256 33H42.6276V33.9017V34.3525V34.8033H42.1768M42.1768 34.8033V38.3888M42.1768 34.8033H39.4718M42.1768 38.3888C41.326 38.3755 40.4191 38.3614 39.4718 38.3466M17.3814 34.8033V38.005M17.3814 34.8033H20.0863M17.3814 38.005C18.1703 38.017 19.0817 38.0309 20.0863 38.0463M20.0863 34.8033V38.0463M20.0863 34.8033H22.3405M20.0863 38.0463C20.7948 38.0571 21.5496 38.0687 22.3405 38.0809M22.3405 34.8033V38.0809M22.3405 34.8033H25.0454M22.3405 38.0809C23.2036 38.0941 24.1097 38.1081 25.0454 38.1226M25.0454 34.8033V38.1226M25.0454 34.8033H27.7504M25.0454 38.1226C25.9247 38.1362 26.83 38.1502 27.7504 38.1644M27.7504 34.8033V38.1644M27.7504 34.8033H30.0045M27.7504 38.1644C28.4939 38.1759 29.2472 38.1876 30.0045 38.1993M30.0045 34.8033V38.1993M30.0045 34.8033H32.7095M30.0045 38.1993C30.9039 38.2133 31.8088 38.2273 32.7095 38.2413M32.7095 34.8033V38.2413M32.7095 34.8033H34.9636M32.7095 38.2413C33.4658 38.2531 34.2191 38.2648 34.9636 38.2764M34.9636 34.8033C34.9636 35.164 34.9636 37.269 34.9636 38.2764M34.9636 34.8033H37.2177M34.9636 38.2764C35.7263 38.2882 36.4797 38.3 37.2177 38.3115M37.2177 34.8033C37.2177 35.164 37.2177 37.2924 37.2177 38.3115M37.2177 34.8033H39.4718M37.2177 38.3115C37.9883 38.3235 38.7421 38.3352 39.4718 38.3466M39.4718 34.8033V38.3466M16.0289 37.0574V36.1558M18.7339 37.0574V36.1558M21.4388 37.0574V36.1558M23.6929 37.0574V36.1558M26.3979 37.0574V36.1558M29.1028 37.0574V36.1558M31.357 37.0574V36.1558M34.0619 37.0574V36.1558M36.3161 37.0574V36.1558M38.5702 37.0574V36.1558M40.8243 37.0574V36.1558M15.5781 46.5248V43.8198H21.4388V46.5248H15.5781ZM35.4144 47.4264V44.7215H40.3735V47.4264H35.4144Z" stroke="black"/>
<path d="M16.9305 62.7545V58.6971H17.3814M20.5372 62.7545V58.6971H19.6355M17.3814 58.6971L16.9305 57.3446L16.4797 55.9921V54.6396L17.3814 52.8363L17.8322 51.9347H20.0863L20.5372 52.3855V53.738V54.6396L20.988 55.0905V56.4429L20.0863 57.7954V58.2463L19.6355 58.6971M17.3814 58.6971H19.6355M36.3161 62.7545V58.6971H36.7669M39.9227 62.7545V58.6971H39.021M36.7669 58.6971L36.3161 57.3446L35.8652 55.9921V54.6396L36.7669 52.8363L37.2177 51.9347H39.4718L39.9227 52.3855V53.738V54.6396L40.3735 55.0905V56.4429L39.4718 57.7954V58.2463L39.021 58.6971M36.7669 58.6971H39.021" stroke="black"/>
<path d="M18.7339 69.0661C19.0619 69.0458 28.1713 69.7967 32.7095 69.9677M20.3332 68.0823C20.6612 68.062 27.6389 68.3935 31.357 68.6152" stroke="black"/>
<path d="M63.25 71.4L141.21 76.1238M63.25 69.5714L147.312 74.6234M63.25 68.2469L148.668 72.748L144.665 67.1216L63.25 65M148.668 67.1216L203.25 68.622M149.346 68.2469L151.988 71.9978M155.11 71.9978L176.807 73.1231M179.519 73.1231L203.25 74.6234M184.943 76.4989L203.25 77.9993M187.655 79.8747L203.25 81" stroke="black"/>
<path d="M137.427 66.4255C137.427 66.1731 137.427 59.4981 137.427 54.2234M137.427 66.4255V54.2234M137.427 66.4255L137.142 53.8298M137.427 50.6809L139.691 47.1383M137.427 50.6809H145.195M137.427 50.6809C137.427 51.6966 137.427 52.9171 137.427 54.2234M137.427 50.6809V54.2234M140.698 45.5638V43.9894H141.924V45.5638H144.173M140.698 45.5638L139.691 47.1383M140.698 45.5638C140.171 45.5128 138.093 45.5426 137.12 45.5638M146.421 45.5638V41.234H150.919V42.0213H155.007M146.421 45.5638L145.195 48.3191M146.421 45.5638H145.297M155.007 42.0213V39.266H157.869V40.8404H162.775M155.007 42.0213V43.5957M162.775 40.8404V39.6596L164.001 38.0851V34.5426H165.228M162.775 40.8404L162.812 43.2021M165.228 34.5426L169.316 35.3298V36.117M165.228 34.5426L165.364 38.0851M169.316 36.117H166.863L166.454 36.5106L165.364 38.0851M169.316 36.117L177.084 35.5266M191.394 33.3617V32.1809L186.079 31H184.852V34.9362L179.128 35.3712M191.394 33.3617L203.25 32.5745M191.394 33.3617H188.123L184.443 39.266M184.443 39.266V43.2021M184.443 39.266L203.25 38.4787M184.443 67.6064V60.9149M163.184 67.2128L163.086 60.9149M153.372 66.8191C153.372 66.1075 153.372 59.2461 153.372 53.4362M153.372 48.3191C153.372 49.7434 153.372 51.5334 153.372 53.4362M153.372 48.3191L153.508 47.9255M153.372 48.3191H145.195M155.007 43.5957L153.508 47.9255M155.007 43.5957L162.812 43.2021M145.195 48.3191L145.31 53.4362M145.604 66.4255L145.319 53.8298M139.691 47.1383H145.195M139.691 47.1383H131.514M137.427 54.2234L145.319 53.8298M145.319 53.8298L145.31 53.4362M153.372 53.4362H145.31M138.245 60.9149H144.377M146.421 58.1596H152.145M146.421 62.883H152.145M153.508 47.9255H161.548M162.812 43.2021L162.83 44.383M162.83 44.383L162.848 45.5638M162.83 44.383L164.001 44.319M184.443 43.2021L164.001 44.319M184.443 43.2021V43.7926M184.443 44.383L162.848 45.5638M184.443 44.383V55.0106M184.443 44.383V43.7926M162.848 45.5638L163.086 60.9149M163.086 60.9149H184.443M184.443 60.9149V57.3723M186.079 61.7021H203.25M184.443 57.3723L203.25 56.9787M184.443 57.3723V55.0106M184.443 55.0106L203.25 54.617M164.001 44.319V40.0532M164.001 40.0532L165.364 38.0851M164.001 40.0532L182.399 38.8723M164.41 38.0851H165.364M184.852 42.0213L203.25 41.234M184.443 43.7926L203.25 43.2021M171.769 67.2128V62.883L172.587 62.0957H173.814L174.631 62.883V67.2128M194.256 67.6064V64.0638L195.073 62.883H196.709L197.526 64.0638V67.6064M199.162 68V64.4574M199.162 64.4574H202.432M199.162 64.4574H198.753L199.979 62.883H202.432M191.803 67.6064V64.0638M186.488 64.0638H186.079L186.896 62.883H191.803V64.0638M186.488 64.0638V67.6064M186.488 64.0638H191.803M177.084 62.883H176.675L177.493 62.0957H182.399V62.883M177.084 62.883V66.0319H182.399V62.883M177.084 62.883H182.399M164.819 62.883H164.41L165.228 62.0957H170.134V62.883M164.819 62.883V66.0319H170.134V62.883M164.819 62.883H170.134M157.46 66.8191V64.4574L158.278 64.0638H158.686L159.504 64.4574V66.8191M148.92 66.5L148.874 64.4574L149.442 64.0638H149.896L150.487 64.4574V66M140.698 66.4255V64.0638L141.106 63.6702H141.924L142.333 64.0638V66.4255M144.173 45.5638V43.9894H145.319L145.297 45.5638M144.173 45.5638H145.297M177.084 35.5266V33.3617H178.311M177.084 35.5266L178.311 35.4334M179.128 35.3712V33.3617H178.311M179.128 35.3712L178.311 35.4334M178.311 35.4334V33.3617M187.305 48.3191V45.9574H188.941V48.3191M187.305 48.3191H188.941M187.305 48.3191L186.896 48.7128V49.5H189.349V48.7128L188.941 48.3191M191.394 48.3191V45.9574H193.029V48.3191M191.394 48.3191H193.029M191.394 48.3191L190.985 48.7128V49.5H193.438V48.7128L193.029 48.3191M195.482 48.3191V45.9574H197.117V48.3191M195.482 48.3191H197.117M195.482 48.3191L195.073 48.7128V49.5H197.526V48.7128L197.117 48.3191M199.57 48.3191V45.9574H201.206V48.3191M199.57 48.3191H201.206M199.57 48.3191L199.162 48.7128V49.5H201.615V48.7128L201.206 48.3191M138.472 55V56.5385M140.127 55V56.5385M141.782 55V56.5385M143.438 55V56.5385M138.472 57.6923V59.2308M140.127 57.6923V59.2308M141.782 57.6923V59.2308M143.438 57.6923V59.2308M138.472 51.1538V52.6923M140.127 51.1538V52.6923M141.782 51.1538V52.6923M143.438 51.1538V52.6923M138.472 61.5385V62.3077M140.127 61.5385V62.3077M141.782 61.5385V62.3077M143.438 61.5385V62.3077M147.163 58.8462V61.1538M149.232 58.8462V61.1538M151.301 58.8462V61.1538M147.163 54.6154V56.9231M149.232 54.6154V56.9231M151.301 54.6154V56.9231M147.163 49.6154V51.9231M149.232 49.6154V51.9231M151.301 49.6154V51.9231M155.026 54.2308V56.5385M157.923 54.2308V56.5385M160.82 54.2308V56.5385M155.026 49.2308V51.5385M157.923 49.2308V51.5385M160.82 49.2308V51.5385M147.163 65V63.4615M151.715 65C151.715 64.6923 151.715 63.8462 151.715 63.4615M187.72 38.0769L189.79 35.7692M192.273 37.6923L193.928 35.7692M196.411 37.3077L198.067 35.3846M200.55 36.9231L202.205 35M167.028 38.9423L169.097 37.2115M171.58 38.6538L173.235 37.2115M175.719 38.3654L177.374 36.9231M179.857 38.0769L181.512 36.6346M129.25 50.6809L131.514 47.1383M129.25 50.6809H137.018M129.25 50.6809C129.25 51.6966 129.25 52.9171 129.25 54.2234M129.25 50.6809V54.2234M131.514 47.1383L132.521 45.5638V43.9894H133.747V45.5638H135.996M129.25 54.2234C129.25 59.4981 129.25 65.5159 129.25 65.7683V54.2234ZM129.25 54.2234L137.142 53.8298M137.142 53.8298L137.133 53.4362M130.068 60.9149H136.2M132.521 66.4255V64.0638L132.93 63.6702H133.747L134.156 64.0638V66.4255M135.996 45.5638V43.9894H137.142L137.12 45.5638M135.996 45.5638H137.12M130.295 55V56.5385M131.95 55V56.5385M133.606 55V56.5385M135.261 55V56.5385M130.295 57.6923V59.2308M131.95 57.6923V59.2308M133.606 57.6923V59.2308M135.261 57.6923V59.2308M130.295 51.1538V52.6923M131.95 51.1538V52.6923M133.606 51.1538V52.6923M135.261 51.1538V52.6923M130.295 61.5385V62.3077M131.95 61.5385V62.3077M133.606 61.5385V62.3077M135.261 61.5385V62.3077M154.598 57.3723H161.957V58.9468H154.598V57.3723ZM186.893 59.6154C186.893 59.3077 186.893 58.4615 186.893 58.0769H188.962V59.6154H186.893ZM191.031 59.6154V58.0769H193.1V59.6154H191.031ZM195.584 59.6154V58.0769H197.653V59.6154H195.584ZM199.722 59.6154V58.0769H201.791V59.6154H199.722ZM154.198 61.9231C154.198 61.6154 154.198 60.2564 154.198 59.6154H155.44V61.9231H154.198ZM157.095 61.9231V59.6154H158.337V61.9231H157.095ZM159.992 61.9231V59.6154H161.234V61.9231H159.992ZM187.306 54.2308V51.9231H188.548V54.2308H187.306ZM191.445 54.2308V51.9231H192.687V54.2308H191.445ZM195.584 54.2308V51.9231H196.825V54.2308H195.584ZM200.136 54.2308V51.9231H201.377V54.2308H200.136ZM164.958 48.8462H166.614V46.5385H164.958V48.8462ZM168.683 48.8462H170.338V46.5385H168.683V48.8462ZM172.408 48.8462H174.063V46.5385H172.408V48.8462ZM176.132 48.8462H177.788V46.5385H176.132V48.8462ZM179.857 48.8462H181.512V46.5385H179.857V48.8462ZM164.958 53.0769H166.614V50.7692H164.958V53.0769ZM168.683 53.0769H170.338V50.7692H168.683V53.0769ZM172.408 53.0769H174.063V50.7692H172.408V53.0769ZM176.132 53.0769H177.788V50.7692H176.132V53.0769ZM179.857 53.0769H181.512V50.7692H179.857V53.0769ZM164.958 58.0769H166.614V55.7692H164.958V58.0769ZM168.683 58.0769H170.338V55.7692H168.683V58.0769ZM172.408 58.0769H174.063V55.7692H172.408V58.0769ZM176.132 58.0769H177.788V55.7692H176.132V58.0769ZM179.857 58.0769H181.512V55.7692H179.857V58.0769Z" stroke="black"/>
<path d="M81.75 76.6551C82.1466 76.6551 82.5432 76.2734 83.3364 76.6551M73.25 78.9452C73.7788 78.6907 74.9157 78.3345 75.233 78.9452M104.709 81.583C105.37 81.4557 106.771 81.2776 107.088 81.583M94.0602 80.0563H95.25M110.474 78.1091C111.399 77.8547 113.25 77.4984 113.25 78.1091M114.342 83.907H117.119M145.278 84.6703C145.806 84.5431 146.943 84.365 147.261 84.6703M157.176 86.1971C157.969 86.1971 159.952 85.4337 160.745 86.1971C161.803 86.706 164.077 87.4948 164.711 86.5787M183.748 85.052C184.409 84.7976 185.89 84.4413 186.525 85.052C187.159 85.6627 188.376 85.5609 188.904 85.4337M188.111 83.907C188.904 84.0342 190.491 84.2123 190.491 83.907C190.491 83.5253 192.474 83.5253 192.474 83.907M193.664 85.4337C193.928 85.3065 194.615 85.1284 195.25 85.4337M132.586 76.6551C133.115 77.9273 134.49 80.5482 135.759 80.8535C137.346 81.2352 138.932 80.4719 141.312 81.2352C143.215 81.8459 146.6 81.9986 148.054 81.9986C150.037 81.9986 154.241 82.0749 155.193 82.3803C156.145 82.6856 160.084 83.0164 161.935 83.1436C164.579 83.1436 169.947 83.2963 170.264 83.907C170.66 84.6703 178.593 83.907 178.593 84.6703M132.586 76.6551C133.221 76.6551 137.61 76.6551 139.725 76.6551M132.586 76.6551C133.047 77.0989 134.915 77.7377 138.932 78.3892M178.593 84.6703L184.542 83.1436L184.938 81.2352M178.593 84.6703L177.799 82.7619M177.006 80.8535L177.799 82.7619M177.006 80.8535C176.336 80.841 175.675 80.8277 175.023 80.8137M177.006 80.8535C177.231 80.8308 177.476 80.8053 177.734 80.7776M184.938 81.2352L184.145 79.7085C184.388 79.9423 181.547 80.34 179.075 80.6279M184.938 81.2352C183.986 81.8459 179.782 82.5075 177.799 82.7619M177.799 82.7619C163.654 81.8714 135.204 79.8612 134.569 78.9452M139.725 76.6551L138.932 78.3892M139.725 76.6551L140.122 75.7009M138.932 78.3892C139.708 78.5151 140.565 78.6415 141.508 78.767M140.518 74.7467L147.49 75.2126M140.518 74.7467C140.518 74.3397 142.658 73.8896 149.407 74.0243M140.518 74.7467L140.122 75.7009M169.074 76.6551L164.641 76.3588M172.643 75.51C170.533 75.3209 168.552 75.1529 166.694 75.0042M172.643 75.51L179.782 75.7618L180.972 76.6551C180.457 76.6306 179.761 76.6218 179.075 76.6551M172.643 75.51C171.277 76.0961 170.692 76.625 170.505 77.0368M147.49 75.2126C147.624 75.2215 148.824 74.4242 149.407 74.0243M147.49 75.2126L151.227 75.4623M149.407 74.0243C150.568 74.0475 151.866 74.088 153.313 74.1491M151.227 75.4623L153.313 74.1491M151.227 75.4623L155.707 75.7618M153.313 74.1491C154.645 74.2052 156.103 74.2788 157.697 74.3722M155.707 75.7618C155.745 75.7643 157.05 74.8364 157.697 74.3722M155.707 75.7618L160.208 76.0625M157.697 74.3722C159.13 74.4562 160.672 74.5562 162.332 74.674M160.208 76.0625C160.32 76.0701 161.671 75.14 162.332 74.674M160.208 76.0625L164.641 76.3588M162.332 74.674C163.705 74.7715 165.157 74.8813 166.694 75.0042M164.641 76.3588L166.694 75.0042M173.437 80.7776L170.66 77.8001C170.477 77.6571 170.345 77.39 170.505 77.0368M173.437 80.7776C173.437 80.533 173.437 78.2948 173.437 77.2062M173.437 80.7776C173.959 80.7901 174.488 80.8022 175.023 80.8137M173.437 80.7776C171.932 80.7416 170.478 80.7016 169.074 80.6578M170.505 77.0368C170.75 77.0368 172.029 77.1149 173.437 77.2062M173.437 77.2062C173.963 77.2404 174.508 77.2764 175.023 77.3109M175.023 77.3109C175.615 77.3505 176.168 77.3881 176.61 77.4184C176.61 76.9167 177.824 76.7158 179.075 76.6551M175.023 77.3109V80.8137M177.799 77.8001L177.734 80.7776M177.734 80.7776C178.152 80.7329 178.607 80.6824 179.075 80.6279M179.075 76.6551V80.6279M140.122 75.7009L141.508 76.0625V78.767M141.508 78.767C142.745 78.9319 144.13 79.0952 145.674 79.2542M142.501 78.9452V76.0625L145.674 76.3588V79.2542M145.674 79.2542C146.061 79.2939 146.457 79.3334 146.864 79.3726M146.864 79.3726V76.3588L150.037 76.6551V79.6538M146.864 79.3726C147.86 79.4685 148.916 79.5624 150.037 79.6538M150.037 79.6538C150.426 79.6855 150.822 79.7168 151.227 79.7479M151.227 79.7479V76.6551L154.4 77.0368V79.9731M151.227 79.7479C152.235 79.8253 153.292 79.9005 154.4 79.9731M154.4 79.9731C154.828 80.0012 155.264 80.029 155.707 80.0563M155.707 80.0563V77.0368L159.159 77.3109V80.2519M155.707 80.0563C156.81 80.1241 157.96 80.1895 159.159 80.2519M159.159 80.2519C159.563 80.2729 159.973 80.2936 160.389 80.314M160.389 80.314V77.3109L163.522 77.4184V80.4561M160.389 80.314C161.4 80.3635 162.444 80.4109 163.522 80.4561M163.522 80.4561C163.914 80.4725 164.31 80.4886 164.711 80.5044M164.711 80.5044V77.4184L169.074 77.8001V80.6578M164.711 80.5044C166.11 80.5595 167.563 80.6108 169.074 80.6578" stroke="black"/>
<path d="M100.766 58.19L101.531 56.6495M104.097 51.6435L104.112 50.0954M104.097 51.6435L105.185 51.6544M104.097 51.6435L103.307 53.1838M119.331 51.7969L119.347 50.2488M119.331 51.7969L118.243 51.7859M119.331 51.7969L120.107 53.353M115.704 51.7604L117.044 54.4833M107.724 51.68L106.352 54.3756M104.393 58.2266L105.765 55.5309M105.579 48.5619L104.128 48.5473L104.112 50.0954M105.579 48.5619L108.843 48.5948M105.579 48.5619L106.633 44.7018M105.579 48.5619L109.477 45.3914M115.47 38.9849L108.215 38.9118L108.186 39.0208M115.47 38.9849L115.75 39.9554M115.47 38.9849L116.211 37.4441L107.977 37.3611M118.274 48.6897L119.362 48.7007L119.347 50.2488M118.274 48.6897L115.01 48.6569M118.274 48.6897L117.152 44.8078M118.274 48.6897L114.323 44.7793M105.481 58.2375C107.199 55.8034 111.927 52.1868 117.1 57.1934M105.765 55.5309C107.557 53.778 112.422 51.3196 117.549 55.5091M105.765 55.5309L106.352 54.3756M117.549 55.5091L118.192 56.8173L120.689 54.52M117.549 55.5091L117.044 54.4833M104.112 50.0954L105.2 50.1063M119.347 50.2488L118.259 50.2378M105.2 50.1063L105.185 51.6544M105.2 50.1063L106.289 50.1173M105.185 51.6544L106.273 51.6654M106.289 50.1173L106.273 51.6654M106.289 50.1173L107.377 50.1282M106.273 51.6654L107.361 51.6763M107.377 50.1282L107.361 51.6763M107.377 50.1282L112.818 50.183M107.361 51.6763L108.449 51.6873M108.461 50.5262L108.449 51.6873M108.449 51.6873L109.538 51.6983M109.549 50.5372L109.538 51.6983M109.538 51.6983L110.626 51.7092M110.637 50.5482L110.626 51.7092M110.626 51.7092L111.714 51.7202M111.726 50.5591L111.714 51.7202M111.714 51.7202L112.802 51.7311M112.818 50.183L112.802 51.7311M112.818 50.183L113.906 50.194M112.802 51.7311L113.89 51.7421M113.906 50.194L113.89 51.7421M113.906 50.194L114.994 50.205M113.89 51.7421L114.978 51.7531M114.994 50.205L114.978 51.7531M114.994 50.205L116.082 50.2159M114.978 51.7531L116.067 51.764M116.082 50.2159L116.445 50.2196L117.17 50.2269M116.082 50.2159L116.067 51.764M116.067 51.764L117.155 51.775M117.17 50.2269L117.155 51.775M117.17 50.2269L118.259 50.2378M117.155 51.775L118.243 51.7859M118.259 50.2378L118.243 51.7859M108.843 48.5948L115.01 48.6569M108.843 48.5948C108.856 48.5319 107.375 45.9733 106.633 44.7018M108.843 48.5948L109.477 45.3914M110.372 40.8689L107.688 40.8418M110.372 40.8689L113.637 40.9017M110.372 40.8689L110.111 42.188M116.031 40.9258L115.75 39.9554M116.031 40.9258L113.637 40.9017M116.031 40.9258L117.152 44.8078M116.031 40.9258L114.323 44.7793M107.688 40.8418L107.952 39.8768M107.688 40.8418L106.633 44.7018M107.688 40.8418L109.477 45.3914M107.952 39.8768L115.75 39.9554M107.952 39.8768L108.186 39.0208M113.637 40.9017L117.152 44.8078M113.637 40.9017L114.323 44.7793M115.01 48.6569L117.152 44.8078M115.01 48.6569L114.323 44.7793M108.186 39.0208L107.505 37.3564L107.977 37.3611M107.977 37.3611L107.985 36.5871L108.601 36.5933M116.074 36.6686L115.783 36.6656L115.13 36.6591M108.601 36.5933L115.13 36.6591M108.601 36.5933L111.901 33.143M108.601 36.5933L108.989 33.1136M110.197 22.288L110.283 20.7406M110.197 22.288L111.991 24.2414M110.197 22.288L112.01 22.3062M110.197 22.288L109.964 24.3778M115.13 36.6591L111.901 33.143M115.13 36.6591L114.587 30.7011M113.824 22.3245L113.769 20.7757M113.824 22.3245L111.991 24.2414M113.824 22.3245L114.015 24.4186M113.824 22.3245L112.01 22.3062M111.101 4.49209L110.739 4.48843L110.727 5.64951M111.101 4.49209L111.113 3.33101L112.213 2.18089L113.289 3.35293L113.278 4.51401M111.101 4.49209L113.278 4.51401M113.278 4.51401L113.64 4.51766L113.629 5.67874M110.727 5.64951L110.723 6.03654L111.082 6.42721L111.011 7.70409M110.727 5.64951L113.629 5.67874M113.629 5.67874L113.625 6.06576L113.258 6.44913L113.304 7.72718M111.011 7.70409L113.304 7.72718M111.011 7.70409L110.888 9.90884M111.011 7.70409L113.384 9.97603M113.304 7.72718L110.888 9.90884M113.304 7.72718L113.384 9.97603M110.283 20.7406L113.769 20.7757M110.283 20.7406C110.516 20.7429 112.608 18.0629 113.624 16.7226M110.283 20.7406L110.465 17.4815L110.509 16.6912M113.769 20.7757L113.624 16.7226M113.769 20.7757L110.509 16.6912M106.633 44.7018L110.111 42.188M110.111 42.188L109.477 45.3914M116.47 53.3163L120.107 53.353M120.107 53.353L120.689 54.52M120.689 54.52L121.465 56.0761C120.018 55.6008 117.109 54.6167 117.044 54.4833M120.689 54.52L117.044 54.4833M106.983 53.2208L103.307 53.1838M103.307 53.1838L102.769 54.2337M106.352 54.3756L102.769 54.2337M106.352 54.3756C105.974 54.6815 102.98 56.019 101.531 56.6495M102.769 54.2337L104.771 56.6821L101.531 56.6495M102.769 54.2337L101.531 56.6495M111.901 33.143L109.264 30.6475M111.901 33.143L114.587 30.7011M109.264 30.6475L111.585 28.495M109.264 30.6475L108.989 33.1136M109.264 30.6475L109.497 28.5576M111.585 28.495L109.73 26.4677M111.585 28.495L112.311 28.5023M114.587 30.7011L114.389 28.5232M112.311 28.5023L114.465 30.6999M112.311 28.5023L114.206 26.5128M114.206 26.5128L111.991 24.2414M114.206 26.5128L114.389 28.5232M114.206 26.5128L114.015 24.4186M111.991 24.2414L109.73 26.4677M109.73 26.4677L109.964 24.3778M109.73 26.4677L109.497 28.5576M108.989 33.1136L111.866 36.6262L114.803 33.1722L111.924 30.8208M108.989 33.1136L111.924 30.8208M111.924 30.8208L114.389 28.5232M111.924 30.8208L109.497 28.5576M114.389 28.5232L111.968 26.4903M111.968 26.4903L114.015 24.4186M111.968 26.4903L109.964 24.3778M111.968 26.4903L109.497 28.5576M114.015 24.4186L112.01 22.3062M112.01 22.3062L109.964 24.3778M113.624 16.7226L110.647 14.2223M113.624 16.7226L113.544 14.4737M110.647 14.2223L113.464 12.2249M110.647 14.2223L110.767 12.0656M110.647 14.2223L110.509 16.6912M113.464 12.2249L110.888 9.90884M113.464 12.2249L113.384 9.97603M113.464 12.2249L113.544 14.4737M110.888 9.90884L110.767 12.0656M113.384 9.97603L110.767 12.0656M110.767 12.0656L113.544 14.4737M113.544 14.4737L110.509 16.6912" stroke="black"/>
<path d="M128.896 62.175C128.254 62.3014 126.969 62.6342 126.966 62.9532C126.962 63.3521 126.221 60.5526 124.659 62.93C123.098 65.3075 125.46 59.7472 121.58 63.2978M129.353 55C128.719 54.3289 127.211 53.8617 126.253 57.362C124.123 55.1069 122.542 56.9257 122.017 58.117L120.479 58.1016C119.845 57.4304 118.343 56.4846 117.404 58.0706C115.562 57.7329 115.347 58.7146 115.47 59.2477C114.832 58.9753 113.399 58.7482 112.771 60.0182C110.635 58.4012 110.077 60.3899 110.065 61.5864M111.59 62.7984C111.075 63.0591 110.195 63.9011 110.797 65.1835M113.14 61.6174C113.524 61.6213 114.214 61.7878 113.9 62.4228C115.438 62.4383 114.645 64.8234 114.641 65.2223M116.207 62.446C116.85 62.1866 118.055 62.1455 117.728 64.0568C117.995 62.9958 118.756 61.2751 119.662 62.8797C120.281 62.5668 120.683 63.2888 120.808 63.6889M95.4535 61.8381L95.4454 62.6358M95.4254 64.6299L95.4454 62.6358M95.4454 62.6358C94.6767 62.628 93.2176 62.4538 93.5315 61.8187C93.0257 61.1489 92.3207 59.892 93.5476 60.2235C93.5516 59.8246 92.4265 57.0213 93.952 58.2332C94.3445 57.4395 95.203 56.1717 95.4977 57.4511C96.145 56.7928 97.3572 56.0339 97.0272 58.2642C98.5744 57.3225 97.6585 59.2012 97.0071 60.2583C98.1683 59.4723 97.3755 61.8575 96.9911 61.8536C97.2889 62.8139 96.0848 62.7752 95.4454 62.6358ZM102.369 62.3066L102.361 63.1043M102.361 63.1043L102.34 65.0984M102.361 63.1043C101.592 63.0965 100.133 62.9223 100.447 62.2873C99.9408 61.6174 99.2358 60.3605 100.463 60.692C100.467 60.2932 99.3416 57.4898 100.867 58.7017C101.26 57.908 102.118 56.6403 102.413 57.9196C103.06 57.2613 104.272 56.5024 103.942 58.7327C105.49 57.791 104.574 59.6697 103.922 60.7268C105.083 59.9408 104.291 62.326 103.906 62.3221C104.204 63.2824 103 63.2437 102.361 63.1043ZM105.1 58.3455C105.868 58.3532 107.326 58.687 107.005 59.9601C108.054 59.9707 107.821 60.9571 108.056 61.439M108.056 61.439C108.08 61.4872 108.108 61.5304 108.143 61.567C108.113 61.5195 108.084 61.4769 108.056 61.439ZM108.056 61.439C107.383 60.516 107.336 62.3251 106.605 61.5516C105.996 60.9073 104.808 61.7994 104.291 62.326" stroke="black"/>
<path d="M19.25 21.7215C20.0014 21.2706 21.6845 20.6395 22.4058 21.7215C22.5561 21.1204 23.2173 19.9182 24.6599 19.9182" stroke="black"/>
<path d="M85.0706 34.2608C85.9228 34.0573 87.7179 33.9624 88.0798 35.2114C88.4041 34.6835 89.3968 33.7363 90.7724 34.1708" stroke="black"/>
<path d="M95.8904 11.7196C96.7426 11.516 98.5377 11.4211 98.8996 12.6702C99.2239 12.1422 100.217 11.195 101.592 11.6296" stroke="black"/>
<path d="M52.6111 25.2263C53.4694 25.0498 55.2665 25.0116 55.5888 26.2714C55.9297 25.7539 56.9517 24.8385 58.3129 25.3163" stroke="black"/>
</g>
<defs>
<clipPath id="clip0_7_49">
<rect width="183" height="117" fill="white"/>
</clipPath>
</defs>
</svg>
