<svg width="224" height="217" viewBox="0 0 224 217" fill="none" xmlns="http://www.w3.org/2000/svg">
<path d="M87.6403 74.2071C87.6418 74.2074 87.6447 74.2082 87.6491 74.21C87.659 74.2141 87.678 74.2243 87.7038 74.2462C87.7577 74.2918 87.8275 74.3775 87.8971 74.5167C88.0365 74.7955 88.1374 75.2157 88.1374 75.7071C88.1374 76.1985 88.0365 76.6187 87.8971 76.8975C87.8275 77.0367 87.7577 77.1224 87.7038 77.168C87.678 77.1899 87.659 77.2001 87.6491 77.2042C87.6447 77.2059 87.6418 77.2068 87.6403 77.2071H87.6344C87.633 77.2068 87.6301 77.2059 87.6256 77.2042C87.6158 77.2001 87.5967 77.1899 87.571 77.168C87.5171 77.1224 87.4472 77.0367 87.3776 76.8975C87.2382 76.6187 87.1374 76.1985 87.1374 75.7071C87.1374 75.2157 87.2382 74.7955 87.3776 74.5167C87.4472 74.3775 87.5171 74.2918 87.571 74.2462C87.5967 74.2243 87.6158 74.2141 87.6256 74.21C87.6301 74.2082 87.633 74.2074 87.6344 74.2071H87.6403Z" stroke="black"/>
<path d="M137.637 166.707C133.804 168.374 125.537 172.007 123.137 173.207M111.137 178.707L92.6374 187.207M79.6374 193.207L42.1374 210.707M0.63736 191.207L42.1374 215.707M0.63736 152.207L13.6374 149.707M23.6374 147.207L35.1374 143.707M3.13736 138.207L13.6374 135.707M0.63736 129.207L25.1374 135.707M57.1374 143.707L63.1374 145.207M77.1374 147.707L79.1374 148.207M80.1374 143.707L82.6374 144.707M97.6374 151.707L106.637 154.707M55.6374 138.207L66.1374 140.707M0.13736 125.707L36.1374 133.707M10.6374 108.707H12.1374M10.6374 108.707L0.13736 107.707M10.6374 108.707L10.7659 113.207M12.1374 108.707L27.1374 110.707M12.1374 108.707L12.2832 113.957M0.13736 106.207L35.1374 109.707M27.1374 110.707H28.6374M27.1374 110.707V121.707M28.6374 110.707L35.1374 111.207M28.6374 110.707L28.3553 121.707M0.13736 112.207L10.7659 113.207M10.7659 113.207L10.9231 118.707M0.13736 117.207L10.9231 118.707M10.9231 118.707L11.0802 124.207M0.13736 122.207L11.0802 124.207M11.0802 124.207L11.1374 126.207L12.6374 126.707L12.5679 124.207M12.5679 124.207L27.1374 127.207M12.5679 124.207L12.429 119.207M27.1374 127.207V129.707L28.1374 130.207L28.2143 127.207M27.1374 127.207V121.707M28.2143 127.207L36.1374 128.707M28.2143 127.207L28.3553 121.707M28.3553 121.707L34.6374 122.707M12.429 119.207L27.1374 121.707M12.429 119.207L12.2832 113.957M12.2832 113.957L26.6374 115.707M64.1374 114.207C64.5374 114.207 66.9707 114.54 68.1374 114.707M64.1374 112.207L75.6374 113.707M89.6374 117.707L124.137 122.597M216.637 135.707L193.137 132.376M99.6374 117.207L216.137 132.707M97.1374 119.207V125.207M97.1374 139.707V138.707M99.1374 139.707V138.707M99.1374 119.207V126.207M74.6374 123.207V121.707M74.6374 120.207V121.707M73.1374 122.207V120.207M74.6374 121.707L82.6374 123.207M89.6374 124.207L97.1374 125.207M97.1374 125.207V132.457M92.1374 131.707L97.1374 132.457M97.1374 132.457V138.707M95.1374 138.707H97.1374M99.1374 126.207L124.137 130.207M99.1374 126.207V132.957M124.137 130.207V122.597M124.137 130.207V137.707M124.137 122.597L126.137 122.88M126.137 122.88V130.207M126.137 122.88L155.137 126.991M99.1374 132.957L124.137 137.707M99.1374 132.957V138.707M124.137 137.707V150.707L126.137 151.707V144.707M99.1374 138.707L123.637 144.707M126.137 130.207L155.137 135.707M126.137 130.207V137.707M155.137 135.707V126.991M155.137 135.707V144.707M155.137 126.991L157.637 127.345M157.637 127.345L190.137 131.951M157.637 127.345L157.51 135.707M126.137 137.707L155.137 144.707M126.137 137.707V144.707M155.137 144.707V152.207M126.137 144.707L155.137 152.207M155.137 152.207V159.707L157.137 160.207L157.251 152.707M157.251 152.707L190.137 160.207M157.251 152.707L157.373 144.707M190.137 160.207V168.707L192.137 169.207L192.368 160.707M190.137 160.207V151.707M190.137 131.951L193.137 132.376M190.137 131.951V142.207M193.137 132.376L192.857 142.707M157.51 135.707L190.137 142.207M157.51 135.707L157.373 144.707M190.137 142.207V151.707M192.857 142.707L216.637 148.207M192.857 142.707L192.599 152.207M157.373 144.707L190.137 151.707M192.599 152.207L216.137 157.207M192.599 152.207L192.368 160.707M192.368 160.707L216.637 166.707M115.637 152.207C148.471 161.04 214.637 179.007 216.637 180.207" stroke="black"/>
<path d="M0.63736 79.7071H51.1374M0.63736 81.7071H47.1374H48.1374M0.13736 83.7071C4.30403 84.0404 12.6374 85.5071 12.6374 88.7071M12.6374 88.7071C14.6374 87.5071 16.804 88.2071 17.6374 88.7071M12.6374 88.7071V93.2071M0.13736 84.7071C2.47069 85.3738 7.13736 87.1071 7.13736 88.7071C7.13736 90.3071 7.13736 91.7071 7.13736 92.2071L12.6374 93.2071M12.6374 93.2071C13.9707 93.3738 16.8374 93.6071 17.6374 93.2071V88.7071M17.6374 88.7071C19.7474 86.6888 23.8976 84.1958 29.1374 83.7632M43.6374 88.2071C38.4226 84.4309 33.4166 83.4099 29.1374 83.7632M43.6374 88.2071C44.1374 88.2071 44.6374 87.7071 45.6374 87.7071M43.6374 88.2071V89.7071L42.6374 91.7071L36.6374 91.2071C36.6374 90.8738 36.6374 89.8071 36.6374 88.2071C36.6374 86.6071 31.6374 84.5778 29.1374 83.7632" stroke="black"/>
<path d="M152.137 210.707L187.137 181.207" stroke="black"/>
<path d="M216.637 188.707C184.471 178.374 119.737 157.907 118.137 158.707" stroke="black"/>
<path d="M0.13736 69.7071C0.804026 69.8738 2.13736 70.4071 2.13736 71.2071C2.97069 70.8738 4.83736 70.9071 5.63736 73.7071C6.30403 73.5404 7.63736 73.4071 7.63736 74.2071C8.63736 74.3738 10.4374 75.1071 9.63736 76.7071C9.97069 76.8738 10.6374 77.4071 10.6374 78.2071M11.1374 75.7071C11.5878 75.3738 12.6035 74.9071 13.063 75.7071M27.6374 75.2071C28.1374 74.5404 29.3374 73.4071 30.1374 74.2071C30.4707 73.5404 31.5374 72.3071 33.1374 72.7071M24.6374 79.2071C24.6374 78.8071 24.6374 70.0404 24.6374 65.7071M26.1374 79.2071V65.7071M14.1374 79.2071C14.1374 78.8071 14.1374 70.3738 14.1374 66.2071M14.1374 66.2071L15.6374 65.2071M14.1374 66.2071H13.6374V65.2071L14.1374 64.8321M15.6374 65.2071L26.6374 65.7071L27.1374 65.2071V64.2071L25.1374 64.1201M15.6374 65.2071V79.2071M15.6374 63.7071V56.2071M15.6374 63.7071L14.1374 64.8321M15.6374 63.7071L25.1374 64.1201M15.6374 56.2071L14.1374 57.2071M15.6374 56.2071L46.6374 57.2071M15.6374 56.2071V54.2071M14.1374 57.2071V64.8321M14.1374 57.2071V55.7071M46.6374 57.2071V64.8321M46.6374 57.2071V56.2071L47.6374 55.2071M46.6374 64.8321H47.1374V66.2071H46.6374M46.6374 64.8321H37.6374M36.1374 64.8321V66.2071M36.1374 64.8321C36.6374 63.9571 34.1374 59.7071 31.1374 59.7071C30.038 59.7071 29.1065 60.2667 28.3716 61.0013M36.1374 64.8321L34.1374 65.4154M36.1374 64.8321H37.6374M36.1374 66.2071L34.1374 66.5404M36.1374 66.2071V79.2071M36.1374 66.2071H37.6374M46.6374 66.2071H37.6374M46.6374 66.2071V79.7071M34.1374 66.5404L33.1374 66.7071V65.7071L34.1374 65.4154M34.1374 66.5404V79.2071M37.6374 66.2071V79.7071M26.6374 63.7071C26.9083 62.9845 27.5023 61.8704 28.3716 61.0013M28.3716 61.0013C29.6269 60.5421 32.5374 60.7821 34.1374 65.4154M25.1374 64.1201V58.2071L29.6374 58.3946M25.1374 64.1201C25.304 62.6075 26.4374 59.3446 29.6374 58.3946M37.6374 64.8321V63.2071M29.6374 58.3946H33.8976M33.8976 58.3946H37.1374H37.6374V63.2071M33.8976 58.3946C34.8976 59.0613 36.8374 61.2071 37.6374 63.2071M15.6374 54.2071L47.6374 55.2071M15.6374 54.2071V52.2071M15.6374 54.2071L14.1374 55.7071M47.6374 55.2071H48.1374V52.7071C47.6581 52.6996 47.1572 52.6918 46.6374 52.6837M14.1374 55.7071H12.6374L13.063 54.4676L14.3502 53.3374M15.6374 52.2071L14.3502 53.3374M15.6374 52.2071V48.7071M15.6374 52.2071C15.7336 52.2071 17.048 52.2264 19.1374 52.258M14.3502 53.3374V50.7071L15.6374 48.7071M15.6374 48.7071H19.1374M14.1374 50.7071L13.1374 49.7071L15.6374 46.7071H47.1374V47.7071V48.2071V48.7071H46.6374M46.6374 48.7071V52.6837M46.6374 48.7071H43.6374M46.6374 52.6837C45.6937 52.6689 44.688 52.6532 43.6374 52.6369M19.1374 48.7071V52.258M19.1374 48.7071H22.1374M19.1374 52.258C20.0123 52.2713 21.0232 52.2867 22.1374 52.3038M22.1374 48.7071V52.3038M22.1374 48.7071H24.6374M22.1374 52.3038C22.9231 52.3158 23.7602 52.3287 24.6374 52.3422M24.6374 48.7071V52.3422M24.6374 48.7071H27.6374M24.6374 52.3422C25.5947 52.3569 26.5996 52.3724 27.6374 52.3884M27.6374 48.7071V52.3884M27.6374 48.7071H30.6374M27.6374 52.3884C28.6125 52.4035 29.6166 52.419 30.6374 52.4348M30.6374 48.7071V52.4348M30.6374 48.7071H33.1374M30.6374 52.4348C31.462 52.4476 32.2975 52.4605 33.1374 52.4736M33.1374 48.7071V52.4736M33.1374 48.7071H36.1374M33.1374 52.4736C34.1348 52.489 35.1385 52.5046 36.1374 52.5201M36.1374 48.7071V52.5201M36.1374 48.7071H38.6374M36.1374 52.5201C36.9762 52.5332 37.8117 52.5462 38.6374 52.559M38.6374 48.7071C38.6374 49.1071 38.6374 51.4417 38.6374 52.559M38.6374 48.7071H41.1374M38.6374 52.559C39.4833 52.5722 40.3189 52.5852 41.1374 52.5979M41.1374 48.7071C41.1374 49.1071 41.1374 51.4676 41.1374 52.5979M41.1374 48.7071H43.6374M41.1374 52.5979C41.9921 52.6112 42.828 52.6242 43.6374 52.6369M43.6374 48.7071V52.6369M17.6374 51.2071V50.2071M20.6374 51.2071V50.2071M23.6374 51.2071V50.2071M26.1374 51.2071V50.2071M29.1374 51.2071V50.2071M32.1374 51.2071V50.2071M34.6374 51.2071V50.2071M37.6374 51.2071V50.2071M40.1374 51.2071V50.2071M42.6374 51.2071V50.2071M45.1374 51.2071V50.2071M17.1374 61.7071V58.7071H23.6374V61.7071H17.1374ZM39.1374 62.7071V59.7071H44.6374V62.7071H39.1374Z" stroke="black"/>
<path d="M19.6374 87.2071C20.0374 87.2071 31.1374 88.2071 36.6374 88.7071M22.1374 85.7071C22.5374 85.7071 31.6374 86.7071 36.1374 87.2071M85.1374 91.2071L132.137 94.2071M85.1374 88.7071L141.137 92.2071M85.6374 87.2071L143.137 89.7071M146.637 88.7071L139.637 82.2071L88.6374 81.2071M143.137 82.2071L223.637 84.2071M144.137 83.7071L149.637 88.7071M152.637 88.7071L184.637 90.2071M188.637 90.2071L223.637 92.2071M196.637 94.7071L223.637 96.7071M200.637 99.2071L223.637 100.707" stroke="black"/>
<path d="M64.6374 69.2071C65.0374 70.4071 64.4707 70.7071 64.1374 70.7071C63.6374 69.0404 62.4374 66.2071 61.6374 68.2071C61.2374 65.4071 63.4707 61.7071 64.6374 60.2071L63.5055 59.8298C59.8001 62.328 59.3828 67.1222 59.6374 69.2071L58.6374 71.2071C55.4374 71.6071 55.9707 68.3738 56.6374 66.7071C55.9707 65.7071 55.4374 63.4071 58.6374 62.2071C59.4374 59.0071 61.9707 59.2071 63.1374 59.7071L63.5055 59.8298L64.6374 60.2071L67.1374 59.7071C67.1374 59.3738 67.6374 58.6071 69.6374 58.2071C71.6374 57.8071 72.4707 59.7071 72.6374 60.7071C73.804 60.2071 76.0374 60.2071 75.6374 64.2071C78.4374 70.6071 73.804 68.8738 71.1374 67.2071C69.9374 69.2071 67.6374 68.0404 66.6374 67.2071C66.304 68.2071 65.4374 70.0071 64.6374 69.2071Z" fill="black"/>
<path d="M74.6374 86.7071C76.1374 85.7071 78.9374 82.8071 78.1374 79.2071M74.1374 87.7071C74.6374 87.5404 75.8374 87.0071 76.6374 86.2071C77.6374 85.2071 78.6374 83.7071 78.6374 83.2071C78.6374 82.8071 78.9707 80.7071 79.1374 79.7071V79.2071M70.1374 80.7071L69.6374 81.2071L71.1374 79.7071M66.1374 82.7071L68.1374 85.2071L68.6374 84.7071L66.6374 82.2071V81.7071V81.2071M68.6374 76.7071C68.6374 77.2071 68.9374 78.1071 70.1374 77.7071M70.6374 75.2071H72.1374M71.1374 71.2071C71.304 72.0404 71.8374 73.7071 72.6374 73.7071M72.6374 72.2071V71.2071M68.6374 72.2071V71.2071M67.1374 70.2071C67.304 69.8738 67.9374 69.3071 69.1374 69.7071M72.1374 69.7071H73.1374H73.6374V68.7071V71.7071V72.2071M64.6374 60.2071L67.1374 59.7071C67.1374 59.3738 67.6374 58.6071 69.6374 58.2071C71.6374 57.8071 72.4707 59.7071 72.6374 60.7071C73.804 60.2071 76.0374 60.2071 75.6374 64.2071C78.4374 70.6071 73.804 68.8738 71.1374 67.2071C69.9374 69.2071 67.6374 68.0404 66.6374 67.2071C66.304 68.2071 65.4374 70.0071 64.6374 69.2071C65.0374 70.4071 64.4707 70.7071 64.1374 70.7071C63.6374 69.0404 62.4374 66.2071 61.6374 68.2071C61.2374 65.4071 63.4707 61.7071 64.6374 60.2071ZM64.6374 60.2071L63.5055 59.8298M63.5055 59.8298L63.1374 59.7071C61.9707 59.2071 59.4374 59.0071 58.6374 62.2071C55.4374 63.4071 55.9707 65.7071 56.6374 66.7071C55.9707 68.3738 55.4374 71.6071 58.6374 71.2071L59.6374 69.2071C59.3828 67.1222 59.8001 62.328 63.5055 59.8298Z" stroke="black"/>
<path d="M104.637 73.2071L105.671 71.2071M109.137 64.7071V62.7071M109.137 64.7071H110.637M109.137 64.7071L108.071 66.7071M130.137 64.7071V62.7071M130.137 64.7071H128.637M130.137 64.7071L131.228 66.7071M125.137 64.7071L127.022 68.2071M114.137 64.7071L112.284 68.2071M109.637 73.2071L111.49 69.7071M111.137 60.7071H109.137V62.7071M111.137 60.7071H115.637M111.137 60.7071L112.537 55.7071M111.137 60.7071L116.467 56.5608M124.637 48.2071H114.637L114.598 48.3483M124.637 48.2071L125.037 49.4571M124.637 48.2071L125.637 46.2071H114.287M128.637 60.7071H130.137V62.7071M128.637 60.7071H124.137M128.637 60.7071L127.037 55.7071M128.637 60.7071L123.137 55.7071M111.137 73.2071C113.471 70.0404 119.937 65.3071 127.137 71.7071M111.49 69.7071C113.936 67.4194 120.608 64.1804 127.732 69.5256M111.49 69.7071L112.284 68.2071M127.732 69.5256L128.637 71.2071L132.046 68.2071M127.732 69.5256L127.022 68.2071M109.137 62.7071H110.637M130.137 62.7071H128.637M110.637 62.7071V64.7071M110.637 62.7071H112.137M110.637 64.7071H112.137M112.137 62.7071V64.7071M112.137 62.7071H113.637M112.137 64.7071H113.637M113.637 62.7071V64.7071M113.637 62.7071H121.137M113.637 64.7071H115.137M115.137 63.2071V64.7071M115.137 64.7071H116.637M116.637 63.2071V64.7071M116.637 64.7071H118.137M118.137 63.2071V64.7071M118.137 64.7071H119.637M119.637 63.2071V64.7071M119.637 64.7071H121.137M121.137 62.7071V64.7071M121.137 62.7071H122.637M121.137 64.7071H122.637M122.637 62.7071V64.7071M122.637 62.7071H124.137M122.637 64.7071H124.137M124.137 62.7071V64.7071M124.137 62.7071H125.637M124.137 64.7071H125.637M125.637 62.7071H126.137H127.137M125.637 62.7071V64.7071M125.637 64.7071H127.137M127.137 62.7071V64.7071M127.137 62.7071H128.637M127.137 64.7071H128.637M128.637 62.7071V64.7071M115.637 60.7071H124.137M115.637 60.7071C115.654 60.6257 113.577 57.3399 112.537 55.7071M115.637 60.7071L116.467 56.5608M117.637 50.7071H113.937M117.637 50.7071H122.137M117.637 50.7071L117.296 52.4145M125.437 50.7071L125.037 49.4571M125.437 50.7071H122.137M125.437 50.7071L127.037 55.7071M125.437 50.7071L123.137 55.7071M113.937 50.7071L114.287 49.4571M113.937 50.7071L112.537 55.7071M113.937 50.7071L116.467 56.5608M114.287 49.4571H125.037M114.287 49.4571L114.598 48.3483M122.137 50.7071L127.037 55.7071M122.137 50.7071L123.137 55.7071M124.137 60.7071L127.037 55.7071M124.137 60.7071L123.137 55.7071M114.598 48.3483L113.637 46.2071H114.287M114.287 46.2071V45.2071H115.137M125.437 45.2071H125.037H124.137M115.137 45.2071H124.137M115.137 45.2071L119.637 40.7071M115.137 45.2071L115.624 40.7071M117.137 26.7071L117.235 24.7071M117.137 26.7071L119.637 29.2071M117.137 26.7071H119.637M117.137 26.7071L116.845 29.4098M124.137 45.2071L119.637 40.7071M124.137 45.2071L123.306 37.5178M122.137 26.7071L122.04 24.7071M122.137 26.7071L119.637 29.2071M122.137 26.7071L122.43 29.4098M122.137 26.7071H119.637M118.137 3.70709H117.637V5.20709M118.137 3.70709V2.20709L119.637 0.707092L121.137 2.20709V3.70709M118.137 3.70709H121.137M121.137 3.70709H121.637V5.20709M117.637 5.20709V5.70709L118.137 6.20709L118.057 7.85745M117.637 5.20709H121.637M121.637 5.20709V5.70709L121.137 6.20709L121.218 7.85745M118.057 7.85745H121.218M118.057 7.85745L117.918 10.7071M118.057 7.85745L121.36 10.7614M121.218 7.85745L117.918 10.7071M121.218 7.85745L121.36 10.7614M117.235 24.7071H122.04M117.235 24.7071C117.557 24.7071 120.402 21.2179 121.784 19.4732M117.235 24.7071L117.44 20.4947L117.49 19.4732M122.04 24.7071L121.784 19.4732M122.04 24.7071L117.49 19.4732M112.537 55.7071L117.296 52.4145M117.296 52.4145L116.467 56.5608M126.214 66.7071H131.228M131.228 66.7071L132.046 68.2071M132.046 68.2071L133.137 70.2071C131.137 69.6119 127.114 68.3785 127.022 68.2071M132.046 68.2071H127.022M113.137 66.7071H108.071M108.071 66.7071L107.344 68.0703M112.284 68.2071L107.344 68.0703M112.284 68.2071C111.767 68.6071 107.66 70.3738 105.671 71.2071M107.344 68.0703L110.137 71.2071H105.671M107.344 68.0703L105.671 71.2071M119.637 40.7071L115.969 37.5178M119.637 40.7071L123.306 37.5178M115.969 37.5178L119.137 34.7071M115.969 37.5178L115.624 40.7071M115.969 37.5178L116.261 34.8151M119.137 34.7071L116.553 32.1125M119.137 34.7071H120.137M123.306 37.5178L123.002 34.7071M120.137 34.7071L123.137 37.5178M120.137 34.7071L122.722 32.1125M122.722 32.1125L119.637 29.2071M122.722 32.1125L123.002 34.7071M122.722 32.1125L122.43 29.4098M119.637 29.2071L116.553 32.1125M116.553 32.1125L116.845 29.4098M116.553 32.1125L116.261 34.8151M115.624 40.7071L119.637 45.2071L123.637 40.7071L119.637 37.7071M115.624 40.7071L119.637 37.7071M119.637 37.7071L123.002 34.7071M119.637 37.7071L116.261 34.8151M123.002 34.7071L119.637 32.1125M119.637 32.1125L122.43 29.4098M119.637 32.1125L116.845 29.4098M119.637 32.1125L116.261 34.8151M122.43 29.4098L119.637 26.7071M119.637 26.7071L116.845 29.4098M121.784 19.4732L117.646 16.2823M121.784 19.4732L121.643 16.5693M117.646 16.2823L121.501 13.6653M117.646 16.2823L117.782 13.4947M117.646 16.2823L117.49 19.4732M121.501 13.6653L117.918 10.7071M121.501 13.6653L121.36 10.7614M121.501 13.6653L121.643 16.5693M117.918 10.7071L117.782 13.4947M121.36 10.7614L117.782 13.4947M117.782 13.4947L121.643 16.5693M121.643 16.5693L117.49 19.4732" stroke="black"/>
<path d="M143.137 82.2071C143.137 81.8865 143.137 73.4074 143.137 66.7071M143.137 62.2071L145.907 57.7071M143.137 62.2071H152.637M143.137 62.2071C143.137 63.4974 143.137 65.0477 143.137 66.7071M154.137 55.7071V50.2071H159.637V51.2071H164.637M154.137 55.7071L152.637 59.2071M154.137 55.7071H152.762M164.637 51.2071V47.7071H168.137V49.7071H174.137M164.637 51.2071V53.2071M174.137 49.7071V48.2071L175.637 46.2071V41.7071H177.137M174.137 49.7071L174.182 52.7071M177.137 41.7071L182.137 42.7071V43.7071M177.137 41.7071L177.304 46.2071M182.137 43.7071H179.137L178.637 44.2071L177.304 46.2071M182.137 43.7071L191.637 42.9571M209.137 40.2071V38.7071L202.637 37.2071H201.137V42.2071L194.137 42.7597M209.137 40.2071L223.637 39.2071M209.137 40.2071H205.137L200.637 47.7071M200.637 47.7071V52.7071M200.637 47.7071L223.637 46.7071M200.637 83.7071V75.2071M174.637 83.2071L174.518 75.2071M162.637 82.7071C162.637 81.8031 162.637 73.0873 162.637 65.7071M162.637 59.2071C162.637 61.0163 162.637 63.2901 162.637 65.7071M162.637 59.2071L162.804 58.7071M162.637 59.2071H152.637M164.637 53.2071L162.804 58.7071M164.637 53.2071L174.182 52.7071M152.637 59.2071L152.779 65.7071M153.137 82.2071L152.79 66.2071M145.907 57.7071L147.137 55.7071V53.7071H148.637V55.7071H151.387M145.907 57.7071H152.637M143.137 66.7071L152.79 66.2071M152.79 66.2071L152.779 65.7071M162.637 65.7071H152.779M144.137 75.2071H151.637M154.137 71.7071H161.137M154.137 77.7071H161.137M162.804 58.7071H172.637M174.182 52.7071L174.205 54.2071M174.205 54.2071L174.227 55.7071M174.205 54.2071L175.637 54.1258M200.637 52.7071L175.637 54.1258M200.637 52.7071V53.4571M200.637 54.2071L174.227 55.7071M200.637 54.2071V67.7071M200.637 54.2071V53.4571M174.227 55.7071L174.518 75.2071M174.518 75.2071H200.637M200.637 75.2071V70.7071M202.637 76.2071H223.637M200.637 70.7071L223.637 70.2071M200.637 70.7071V67.7071M200.637 67.7071L223.637 67.2071M175.637 54.1258V48.7071M175.637 48.7071L177.304 46.2071M175.637 48.7071L198.137 47.2071M176.137 46.2071H177.304M201.137 51.2071L223.637 50.2071M200.637 53.4571L223.637 52.7071M185.137 83.2071V77.7071L186.137 76.7071H187.637L188.637 77.7071V83.2071M212.637 83.7071V79.2071L213.637 77.7071H215.637L216.637 79.2071V83.7071M218.637 84.2071V79.7071M218.637 79.7071H222.637M218.637 79.7071H218.137L219.637 77.7071H222.637M209.637 83.7071V79.2071M203.137 79.2071H202.637L203.637 77.7071H209.637V79.2071M203.137 79.2071V83.7071M203.137 79.2071H209.637M191.637 77.7071H191.137L192.137 76.7071H198.137V77.7071M191.637 77.7071V81.7071H198.137V77.7071M191.637 77.7071H198.137M176.637 77.7071H176.137L177.137 76.7071H183.137V77.7071M176.637 77.7071V81.7071H183.137V77.7071M176.637 77.7071H183.137M167.637 82.7071V79.7071L168.637 79.2071H169.137L170.137 79.7071V82.7071M157.137 82.7071V79.7071L158.137 79.2071H158.637L159.637 79.7071V82.7071M147.137 82.2071V79.2071L147.637 78.7071H148.637L149.137 79.2071V82.2071M151.387 55.7071V53.7071H152.79L152.762 55.7071M151.387 55.7071H152.762M191.637 42.9571V40.2071H193.137M191.637 42.9571L193.137 42.8387M194.137 42.7597V40.2071H193.137M194.137 42.7597L193.137 42.8387M193.137 42.8387V40.2071M204.137 59.2071V56.2071H206.137V59.2071M204.137 59.2071H206.137M204.137 59.2071L203.637 59.7071V60.7071H206.637V59.7071L206.137 59.2071M209.137 59.2071V56.2071H211.137V59.2071M209.137 59.2071H211.137M209.137 59.2071L208.637 59.7071V60.7071H211.637V59.7071L211.137 59.2071M214.137 59.2071V56.2071H216.137V59.2071M214.137 59.2071H216.137M214.137 59.2071L213.637 59.7071V60.7071H216.637V59.7071L216.137 59.2071M219.137 59.2071V56.2071H221.137V59.2071M219.137 59.2071H221.137M219.137 59.2071L218.637 59.7071V60.7071H221.637V59.7071L221.137 59.2071M164.137 70.7071H173.137V72.7071H164.137V70.7071Z" stroke="black"/>
<path d="M145.137 68.2071V70.2071M147.137 68.2071V70.2071M149.137 68.2071V70.2071M151.137 68.2071V70.2071M145.137 71.7071V73.7071M147.137 71.7071V73.7071M149.137 71.7071V73.7071M151.137 71.7071V73.7071M145.137 63.2071V65.2071M147.137 63.2071V65.2071M149.137 63.2071V65.2071M151.137 63.2071V65.2071M145.137 76.7071V77.7071M147.137 76.7071V77.7071M149.137 76.7071V77.7071M151.137 76.7071V77.7071M155.637 73.2071V76.2071M158.137 73.2071V76.2071M160.637 73.2071V76.2071M155.637 67.7071V70.7071M158.137 67.7071V70.7071M160.637 67.7071V70.7071M155.637 61.2071V64.2071M158.137 61.2071V64.2071M160.637 61.2071V64.2071M165.137 67.2071V70.2071M168.637 67.2071V70.2071M172.137 67.2071V70.2071M165.137 60.7071V63.7071M168.637 60.7071V63.7071M172.137 60.7071V63.7071M155.637 81.2071V79.2071M161.137 81.2071C161.137 80.8071 161.137 79.7071 161.137 79.2071M204.637 46.2071L207.137 43.2071M210.137 45.7071L212.137 43.2071M215.137 45.2071L217.137 42.7071M220.137 44.7071L222.137 42.2071M179.637 47.3321L182.137 45.0821M185.137 46.9571L187.137 45.0821M190.137 46.5821L192.137 44.7071M195.137 46.2071L197.137 44.3321M203.637 74.2071C203.637 73.8071 203.637 72.7071 203.637 72.2071H206.137V74.2071H203.637ZM208.637 74.2071V72.2071H211.137V74.2071H208.637ZM214.137 74.2071V72.2071H216.637V74.2071H214.137ZM219.137 74.2071V72.2071H221.637V74.2071H219.137ZM164.137 77.2071C164.137 76.8071 164.137 75.0404 164.137 74.2071H165.637V77.2071H164.137ZM167.637 77.2071V74.2071H169.137V77.2071H167.637ZM171.137 77.2071V74.2071H172.637V77.2071H171.137ZM204.137 67.2071V64.2071H205.637V67.2071H204.137ZM209.137 67.2071V64.2071H210.637V67.2071H209.137ZM214.137 67.2071V64.2071H215.637V67.2071H214.137ZM219.637 67.2071V64.2071H221.137V67.2071H219.637ZM177.137 60.2071H179.137V57.2071H177.137V60.2071ZM181.637 60.2071H183.637V57.2071H181.637V60.2071ZM186.137 60.2071H188.137V57.2071H186.137V60.2071ZM190.637 60.2071H192.637V57.2071H190.637V60.2071ZM195.137 60.2071H197.137V57.2071H195.137V60.2071ZM177.137 65.7071H179.137V62.7071H177.137V65.7071ZM181.637 65.7071H183.637V62.7071H181.637V65.7071ZM186.137 65.7071H188.137V62.7071H186.137V65.7071ZM190.637 65.7071H192.637V62.7071H190.637V65.7071ZM195.137 65.7071H197.137V62.7071H195.137V65.7071ZM177.137 72.2071H179.137V69.2071H177.137V72.2071ZM181.637 72.2071H183.637V69.2071H181.637V72.2071ZM186.137 72.2071H188.137V69.2071H186.137V72.2071ZM190.637 72.2071H192.637V69.2071H190.637V72.2071ZM195.137 72.2071H197.137V69.2071H195.137V72.2071Z" stroke="black"/>
<path d="M110.137 73.2071C111.137 73.2071 113.037 73.6071 112.637 75.2071C114.137 75.2071 113.637 76.7071 114.137 77.2071C113.137 75.7071 113.137 78.2071 112.137 77.2071C111.337 76.4071 109.804 77.5404 109.137 78.2071M91.6374 97.7071C92.1374 97.7071 92.6374 97.2071 93.6374 97.7071M95.6374 99.2071C96.304 98.8738 97.7374 98.4071 98.1374 99.2071M100.137 103.707C100.971 103.54 102.737 103.307 103.137 103.707M101.137 96.7071H102.637M103.137 98.2071C104.304 97.8738 106.637 97.4071 106.637 98.2071M110.637 103.707H114.137M128.137 109.207C129.137 109.707 131.637 110.207 132.137 109.207C134.137 108.407 135.637 109.54 136.137 110.207M149.637 104.707C150.304 104.54 151.737 104.307 152.137 104.707M164.637 106.707C165.637 106.707 168.137 105.707 169.137 106.707C170.471 107.374 173.337 108.407 174.137 107.207M195.137 117.707C196.137 117.54 198.237 117.307 198.637 117.707C199.137 118.207 202.137 119.707 203.637 118.707M208.137 116.707C208.537 116.707 209.637 116.707 210.137 116.707M198.137 105.207C198.971 104.874 200.837 104.407 201.637 105.207C202.437 106.007 203.971 105.874 204.637 105.707M203.637 103.707C204.637 103.874 206.637 104.107 206.637 103.707C206.637 103.207 209.137 103.207 209.137 103.707M210.637 105.707C210.971 105.54 211.837 105.307 212.637 105.707M133.637 94.2071C134.304 95.8738 136.037 99.3071 137.637 99.7071C139.637 100.207 141.637 99.2071 144.637 100.207C147.037 101.007 151.304 101.207 153.137 101.207C155.637 101.207 160.937 101.307 162.137 101.707C163.337 102.107 168.304 102.54 170.637 102.707C173.971 102.707 180.737 102.907 181.137 103.707C181.637 104.707 191.637 103.707 191.637 104.707M133.637 94.2071C134.437 94.2071 139.971 94.2071 142.637 94.2071M133.637 94.2071C134.219 94.7885 136.573 95.6253 141.637 96.4787M191.637 104.707L199.137 102.707L199.637 100.207M191.637 104.707L190.637 102.207M189.637 99.7071L190.637 102.207M189.637 99.7071C188.792 99.6907 187.959 99.6733 187.137 99.6549M189.637 99.7071C189.921 99.6772 190.229 99.6439 190.555 99.6076M199.637 100.207L198.637 98.2071C198.944 98.5133 195.362 99.0344 192.246 99.4115M199.637 100.207C198.437 101.007 193.137 101.874 190.637 102.207M190.637 102.207C172.804 101.04 136.937 98.4071 136.137 97.2071M142.637 94.2071L141.637 96.4787M142.637 94.2071L143.137 92.9571M141.637 96.4787C142.616 96.6437 143.696 96.8093 144.884 96.9738M143.637 91.7071L152.426 92.3174M143.637 91.7071C143.637 91.1739 146.335 90.5843 154.843 90.7608M143.637 91.7071L143.137 92.9571M179.637 94.2071L174.048 93.819M184.137 92.7071C181.476 92.4593 178.979 92.2392 176.637 92.0445M184.137 92.7071L193.137 93.0368L194.637 94.2071C193.988 94.175 193.11 94.1635 192.246 94.2071M184.137 92.7071C182.415 93.4748 181.678 94.1677 181.442 94.7071M152.426 92.3174C152.595 92.3292 154.108 91.2846 154.843 90.7608M152.426 92.3174L157.137 92.6446M154.843 90.7608C156.307 90.7912 157.944 90.8443 159.768 90.9242M157.137 92.6446L159.768 90.9242M157.137 92.6446L162.786 93.0368M159.768 90.9242C161.447 90.9978 163.285 91.0941 165.295 91.2165M162.786 93.0368C162.833 93.0401 164.478 91.8247 165.295 91.2165M162.786 93.0368L168.46 93.4309M165.295 91.2165C167.101 91.3265 169.045 91.4575 171.137 91.6119M168.46 93.4309C168.602 93.4407 170.304 92.2223 171.137 91.6119M168.46 93.4309L174.048 93.819M171.137 91.6119C172.868 91.7396 174.7 91.8834 176.637 92.0445M174.048 93.819L176.637 92.0445M185.137 99.6076L181.637 95.7071C181.406 95.5198 181.24 95.1699 181.442 94.7071M185.137 99.6076C185.137 99.2872 185.137 96.3551 185.137 94.9291M185.137 99.6076C185.796 99.624 186.463 99.6398 187.137 99.6549M185.137 99.6076C183.241 99.5605 181.408 99.508 179.637 99.4507M181.442 94.7071C181.75 94.7071 183.363 94.8094 185.137 94.9291M185.137 94.9291C185.801 94.9738 186.488 95.021 187.137 95.0662M187.137 95.0662C187.884 95.1181 188.581 95.1673 189.137 95.2071C189.137 94.5498 190.668 94.2866 192.246 94.2071M187.137 95.0662V99.6549M190.637 95.7071L190.555 99.6076M190.555 99.6076C191.083 99.549 191.656 99.4828 192.246 99.4115M192.246 94.2071V99.4115M143.137 92.9571L144.884 93.4309V96.9738M144.884 96.9738C146.444 97.1897 148.19 97.4037 150.137 97.6119M146.137 97.2071V93.4309L150.137 93.819V97.6119M150.137 97.6119C150.625 97.664 151.125 97.7157 151.637 97.7671M151.637 97.7671V93.819L155.637 94.2071V98.1354M151.637 97.7671C152.892 97.8927 154.225 98.0157 155.637 98.1354M155.637 98.1354C156.128 98.1769 156.628 98.218 157.137 98.2586M157.137 98.2586V94.2071L161.137 94.7071V98.5538M157.137 98.2586C158.409 98.36 159.741 98.4586 161.137 98.5538M161.137 98.5538C161.677 98.5906 162.227 98.6269 162.786 98.6626M162.786 98.6626V94.7071L167.137 95.0662V98.9189M162.786 98.6626C164.176 98.7516 165.626 98.8372 167.137 98.9189M167.137 98.9189C167.647 98.9465 168.164 98.9736 168.688 99.0003M168.688 99.0003V95.0662L172.637 95.2071V99.1864M168.688 99.0003C169.962 99.0651 171.278 99.1273 172.637 99.1864M172.637 99.1864C173.132 99.2079 173.632 99.2291 174.137 99.2498M174.137 99.2498V95.2071L179.637 95.7071V99.4507M174.137 99.2498C175.9 99.3219 177.733 99.3891 179.637 99.4507M64.6374 106.426L63.1374 115.707C63.304 115.874 63.6374 116.507 63.6374 117.707C54.4374 122.907 40.4707 122.54 34.6374 121.707C35.304 109.207 40.7374 83.3071 57.1374 79.7071C57.9707 84.5404 61.3112 92.8071 67.7112 87.2071M53.1374 85.2071C55.6374 87.8738 60.6374 93.4071 60.6374 94.2071C60.4088 94.0928 60.1367 94.1404 59.8333 94.3167M46.6374 96.4787C48.4707 98.8882 52.4374 103.807 53.6374 104.207M53.6374 104.207C53.9707 104.207 54.9374 104.078 56.1374 103.278M53.6374 104.207C53.9677 103.48 54.3792 102.617 54.8392 101.707M54.8392 101.707C56.3686 98.6806 58.4338 95.1299 59.8333 94.3167M54.8392 101.707C58.1257 106.189 64.2489 110.148 69.3078 102.207M75.1374 83.2071C74.7292 85.7922 74.2781 88.1184 73.7915 90.2071M59.8333 94.3167L62.6374 96.7071M62.6374 96.7071L62.1374 97.7071M62.6374 96.7071C65.1374 92.0404 70.3374 82.3071 71.1374 80.7071M69.3078 102.207L69.7226 102.742M69.3078 102.207C70.9615 99.6112 72.5015 95.7437 73.7915 90.2071M71.6374 102.207L70.1374 103.278L69.7226 102.742M69.7226 102.742C70.1047 102.175 70.5947 101.488 71.1374 100.757M73.7915 90.2071C74.9068 91.7071 77.3406 94.7071 76.5406 94.7071C75.9099 94.7071 73.1583 98.036 71.1374 100.757M75.6374 98.7071L79.1374 83.2071L80.6374 81.7071M71.1374 100.757C72.304 103.217 75.5374 107.651 79.1374 105.707C82.7374 103.763 83.6374 90.8972 83.6374 84.7071C85.1374 83.5404 88.0374 80.9071 87.6374 79.7071" stroke="black"/>
<path d="M141.137 77.7071C140.304 77.8738 138.637 78.3071 138.637 78.7071C138.637 79.2071 137.637 75.7071 135.637 78.7071C133.637 81.7071 136.637 74.7071 131.637 79.2071M141.637 68.7071C140.804 67.8738 138.837 67.3071 137.637 71.7071C134.837 68.9071 132.804 71.2071 132.137 72.7071H130.137C129.304 71.8738 127.337 70.7071 126.137 72.7071C123.737 72.3071 123.471 73.5404 123.637 74.2071C122.804 73.8738 120.937 73.6071 120.137 75.2071C117.337 73.2071 116.637 75.7071 116.637 77.2071M118.637 78.7071C117.971 79.0404 116.837 80.1071 117.637 81.7071M120.637 77.2071C121.137 77.2071 122.037 77.4071 121.637 78.2071C123.637 78.2071 122.637 81.2071 122.637 81.7071M124.637 78.2071C125.471 77.8738 127.037 77.8071 126.637 80.2071C126.971 78.8738 127.937 76.7071 129.137 78.7071C129.937 78.3071 130.471 79.2071 130.637 79.7071M97.6374 77.7071V78.7071M97.6374 81.2071V78.7071M97.6374 78.7071C96.6374 78.7071 94.7374 78.5071 95.1374 77.7071C94.4707 76.8738 93.5374 75.3071 95.1374 75.7071C95.1374 75.2071 93.6374 71.7071 95.6374 73.2071C96.1374 72.2071 97.2374 70.6071 97.6374 72.2071C98.4707 71.3738 100.037 70.4071 99.6374 73.2071C101.637 72.0071 100.471 74.3738 99.6374 75.7071C101.137 74.7071 100.137 77.7071 99.6374 77.7071C100.037 78.9071 98.4707 78.8738 97.6374 78.7071ZM106.637 78.2071V79.2071M106.637 79.2071V81.7071M106.637 79.2071C105.637 79.2071 103.737 79.0071 104.137 78.2071C103.471 77.3738 102.537 75.8071 104.137 76.2071C104.137 75.7071 102.637 72.2071 104.637 73.7071C105.137 72.7071 106.237 71.1071 106.637 72.7071C107.471 71.8738 109.037 70.9071 108.637 73.7071C110.637 72.5071 109.471 74.8738 108.637 76.2071C110.137 75.2071 109.137 78.2071 108.637 78.2071C109.037 79.4071 107.471 79.3738 106.637 79.2071Z" stroke="black"/>
<path d="M60.6374 69.2071C61.1243 69.2071 61.6128 69.4823 61.9987 70.0225C62.3839 70.5618 62.6374 71.3328 62.6374 72.2071C62.6374 73.0814 62.3839 73.8524 61.9987 74.3917C61.6128 74.9319 61.1243 75.2071 60.6374 75.2071C60.1504 75.2071 59.6619 74.9319 59.276 74.3917C58.8908 73.8524 58.6374 73.0814 58.6374 72.2071C58.6374 71.3328 58.8908 70.5618 59.276 70.0225C59.6619 69.4823 60.1504 69.2071 60.6374 69.2071Z" stroke="black"/>
<path d="M59.6374 69.7071C59.304 66.0404 60.3374 58.9071 67.1374 59.7071C61.8077 60.0624 61.0807 65.1783 61.4521 68.5364M61.6374 69.7071C61.5629 69.3533 61.4988 68.9588 61.4521 68.5364M60.6374 75.2071V76.2071M60.6374 76.2071C62.304 76.2071 65.2374 74.9071 63.6374 69.7071C62.4374 68.1071 61.6805 68.26 61.4521 68.5364M60.6374 76.2071L57.7398 79.1047M57.1374 79.7071L57.7398 79.1047M57.7398 79.1047C58.0154 80.2815 58.506 81.8761 59.1374 83.3837M65.4249 83.3837L67.6374 85.9224M65.4249 83.3837L65.1374 85.2071C63.5374 86.8071 60.4707 84.6582 59.1374 83.3837M65.4249 83.3837L66.6374 81.2071L67.1374 80.7071M67.6374 85.9224C67.0899 86.4953 66.4452 87.1012 65.6374 87.7071C64.0374 88.9071 62.6374 88.2071 62.1374 87.7071C61.0088 87.1428 59.955 85.3362 59.1374 83.3837M67.6374 85.9224C68.4452 85.0769 69.0413 84.3032 69.6374 83.7071L71.1374 80.7071C71.1374 79.2071 71.4374 75.8071 72.6374 74.2071C74.1374 72.2071 73.6374 70.7071 75.1374 70.2071C76.3374 69.8071 77.9707 69.7071 78.6374 69.7071M67.1374 80.7071L65.1374 80.2071M67.1374 80.7071C67.804 81.2071 69.3374 81.9071 70.1374 80.7071M78.6374 69.7071L79.1374 70.2071V70.7071L78.6374 71.2071M78.6374 69.7071L81.3067 69.7071M78.6374 71.2071H78.1374L77.1374 71.7071H76.1374L75.6374 72.2071L75.1374 73.7071C75.804 73.3738 77.4374 72.8071 78.6374 73.2071C80.1374 73.7071 80.6374 74.7071 80.1374 75.2071M78.6374 71.2071H80.532M80.1374 75.2071V76.7071M80.1374 75.2071C79.304 74.7071 77.3374 74.0071 76.1374 75.2071M80.1374 76.7071C79.1374 76.2071 77.0374 75.5071 76.6374 76.7071M80.1374 76.7071V77.4571M80.1374 78.2071C79.1374 77.7071 77.0374 77.1071 76.6374 78.7071M80.1374 78.2071V79.7071C79.9498 79.5664 79.6935 79.4098 79.4043 79.2843M80.1374 78.2071V77.4571M75.1374 83.7071C78.1374 80.7071 76.1374 81.2071 77.1374 79.7071C77.7122 78.8448 78.6658 78.9636 79.4043 79.2843M80.6374 82.2071L79.4043 79.2843M80.1374 77.4571C80.804 78.7071 82.1374 81.3071 82.1374 81.7071M80.532 78.2071C80.6875 77.7407 81.0254 77.2307 81.5042 77.347M83.6374 81.2071C82.9056 78.8289 82.2634 77.7893 81.7499 77.4571M81.7499 77.4571C81.6644 77.4017 81.5824 77.366 81.5042 77.347M81.7499 77.4571C82.1801 76.4494 83.4431 75.5426 85.2271 79.2843M85.6374 80.2071C85.4977 79.872 85.3609 79.5651 85.2271 79.2843M80.532 71.2071H84.6374L84.4664 70.9507M80.532 71.2071L81.3067 69.7071M81.3067 69.7071L83.6374 69.7071L84.4664 70.9507M84.4664 70.9507H86.1374L86.6374 72.2071L82.6374 72.7071L81.7499 73.2071L81.3067 74.7071L81.5042 77.347M85.2271 79.2843L86.1374 77.7071" stroke="black"/>
<path d="M87.6374 72.2071C88.0931 72.2071 88.5814 72.504 88.9811 73.1436C89.3765 73.7762 89.6374 74.6812 89.6374 75.7071C89.6374 76.7329 89.3765 77.638 88.9811 78.2706C88.5814 78.9102 88.0931 79.2071 87.6374 79.2071C87.1816 79.2071 86.6934 78.9102 86.2936 78.2706C85.8983 77.638 85.6374 76.7329 85.6374 75.7071C85.6374 74.6812 85.8983 73.7762 86.2936 73.1436C86.6934 72.504 87.1816 72.2071 87.6374 72.2071Z" stroke="black"/>
<path fill-rule="evenodd" clip-rule="evenodd" d="M35.6374 122.207L40.6374 143.207C41.373 143.102 42.2246 142.978 43.1374 142.842C46.1232 142.396 49.7632 141.823 52.1374 141.367C53.6413 141.079 54.6374 140.838 54.6374 140.707C54.6374 140.307 53.9707 133.207 53.6374 129.707L58.6374 132.207L68.1374 130.707C69.6374 128.54 72.9374 124.207 74.1374 124.207C75.3374 124.207 67.304 120.207 63.1374 118.207C59.1374 120.54 48.0374 124.607 35.6374 122.207Z" fill="black"/>
<path d="M43.1374 142.842C42.2246 142.978 41.373 143.102 40.6374 143.207L35.6374 122.207C48.0374 124.607 59.1374 120.54 63.1374 118.207C67.304 120.207 75.3374 124.207 74.1374 124.207C72.9374 124.207 69.6374 128.54 68.1374 130.707L58.6374 132.207L53.6374 129.707C53.9707 133.207 54.6374 140.307 54.6374 140.707C54.6374 140.838 53.6413 141.079 52.1374 141.367M43.1374 142.842C43.4707 144.797 44.2374 149.007 44.6374 150.207C45.1374 151.707 44.6374 155.707 44.6374 158.207C44.6374 160.207 46.6374 168.04 47.6374 171.707L48.1374 177.207C48.9707 177.707 50.7374 178.507 51.1374 177.707C51.6374 176.707 50.6374 176.207 53.1374 175.707C52.9707 168.874 52.6374 154.707 52.6374 152.707C52.6374 150.207 53.1374 141.527 52.1374 141.367M43.1374 142.842C46.1232 142.396 49.7632 141.823 52.1374 141.367" stroke="black"/>
<path d="M47.6374 171.707C48.9707 171.707 51.9374 171.507 53.1374 170.707M48.1374 177.207C47.826 178.141 47.4346 179.512 47.2282 180.707M53.1374 175.707C52.5956 175.978 53.9615 177.129 55.5656 178.207M47.2282 180.707C46.9926 182.071 46.9978 183.207 47.6374 183.207C49.1374 183.207 55.1374 185.207 57.6374 185.207C58.9707 185.54 61.7374 185.807 62.1374 184.207C62.247 183.769 62.2364 183.354 62.1374 182.969M47.2282 180.707C51.1979 182.382 59.7374 185.179 62.1374 182.969M62.1374 182.969C61.7845 181.597 60.3085 180.597 59.1374 180.207C58.877 180.12 58.4963 179.943 58.0499 179.707M53.1374 179.207C53.6904 178.707 54.9504 177.807 55.5656 178.207M55.5656 178.207C55.9884 178.491 56.4277 178.77 56.853 179.026M54.6374 180.207C55.1144 179.662 56.2254 178.662 56.853 179.026M56.853 179.026C57.2758 179.281 57.6848 179.514 58.0499 179.707M56.1374 181.207C56.5791 180.54 57.5799 179.307 58.0499 179.707" stroke="black"/>
<path d="M54.6374 135.707C54.8592 135.707 61.0356 134.785 68.1712 133.707M59.6374 164.707L61.1374 166.707M59.6374 164.707C58.4707 163.54 55.5374 162.007 53.1374 165.207M59.6374 164.707V160.207M59.6374 164.707L62.9097 160.322M61.1374 166.707C61.5335 167.499 61.9149 168.562 62.098 169.707M61.1374 166.707C62.4102 164.976 63.8798 162.985 65.4577 160.857M87.1374 136.707C87.1374 136.04 87.0374 134.507 86.6374 133.707C86.338 133.108 76.8743 145.538 68.6374 156.582M87.1374 136.707C88.4707 136.54 91.1374 136.107 91.1374 135.707M87.1374 136.707L87.1374 137.707L88.1374 138.207M91.1374 135.707C91.1374 135.307 88.804 127.874 87.6374 124.207M91.1374 135.707L91.6374 136.707V137.707M87.6374 124.207C86.804 124.207 85.0374 124.307 84.6374 124.707M87.6374 124.207L88.6374 123.707L88.1374 122.707L85.6374 122.207L84.6374 122.957M84.6374 124.707C84.3218 125.023 84.8154 126.811 85.2833 128.207M84.6374 124.707H83.6374V123.707L84.6374 122.957M85.2833 128.207C85.4085 128.58 85.5318 128.926 85.6374 129.207L85.2833 128.207ZM85.2833 128.207L54.1374 133.207M58.1374 163.707C58.1374 163.307 55.4707 148.54 54.1374 141.207M52.6374 151.207L53.1374 150.707C53.804 154.707 55.2374 162.807 55.6374 163.207L52.6374 162.207M57.6374 176.707L57.1374 170.207C56.7374 169.007 55.9707 169.374 55.6374 169.707V176.707M57.6374 176.707V179.207M57.6374 176.707C61.8548 175.582 62.5313 172.416 62.098 169.707M53.1374 175.207C53.804 175.707 55.2374 176.707 55.6374 176.707M55.6374 176.707C55.6374 177.04 55.6374 177.807 55.6374 178.207M47.1374 172.207L29.6374 162.707C28.804 161.374 27.8374 158.507 30.6374 157.707M30.6374 157.707C29.4374 159.707 29.4707 160.874 29.6374 161.207L46.1374 166.707M30.6374 157.707L40.6374 142.707M42.1374 143.207C39.4497 147.303 34.6982 154.602 32.6374 157.951M45.6374 164.207C43.7924 163.838 37.0462 161.835 33.6374 160.61M42.1374 146.707C40.1374 150.04 36.1374 156.807 36.1374 157.207C35.7374 156.807 34.6374 157.707 34.1374 158.207L32.6374 157.951M43.1374 147.707L36.6374 157.707C36.7267 157.992 36.7852 158.345 36.7669 158.707M32.6374 157.951C32.0145 158.963 31.6374 159.614 31.6374 159.707C31.6374 159.838 32.427 160.175 33.6374 160.61M33.6374 160.61C36.0314 160.849 36.7144 159.744 36.7669 158.707M36.6374 159.707L45.6374 163.207M36.7669 158.707L45.1374 161.707M62.098 169.707H63.1374L62.9097 164.707M88.1374 138.207H90.1374L91.6374 137.707M88.1374 138.207C87.4707 138.707 86.3374 140.407 87.1374 143.207L95.1374 171.207C95.7443 172.118 96.9039 173.194 97.1067 170.964M91.6374 137.707C92.4707 137.874 94.1374 138.907 94.1374 141.707M92.1374 141.207C90.5374 138.007 89.804 140.207 89.6374 141.707L96.8742 169.207M92.6374 146.207L98.6374 168.707M98.6374 168.707C98.9707 168.207 99.8374 167.707 100.637 169.707M98.6374 168.707L96.8742 169.207M95.1374 145.707L100.637 169.707M100.637 169.707C100.237 171.307 99.4707 170.707 99.1374 170.207L97.1067 170.964M97.1067 170.964C97.1267 170.745 97.1374 170.494 97.1374 170.207L96.8742 169.207M84.6374 122.957L83.1374 117.207M83.1374 117.207L80.6374 117.707C80.9707 116.707 81.3374 114.707 80.1374 114.707C78.9374 114.707 87.6374 113.707 92.1374 113.207C92.804 113.874 93.7374 115.307 92.1374 115.707C90.9906 115.994 88.063 116.469 85.6374 116.838M83.1374 117.207C83.7983 117.113 84.6786 116.983 85.6374 116.838M85.6374 116.838C85.6374 117.133 86.6374 120.874 87.1374 122.707M62.1374 153.207C63.304 150.374 65.8374 144.207 66.6374 142.207C67.4374 140.207 69.6374 136.374 70.6374 134.707L68.1712 133.707M62.1374 153.207C62.4707 154.207 63.5374 156.107 65.1374 155.707C65.3956 155.051 66.1846 153.886 67.2747 154.473M62.1374 153.207C61.511 153.954 60.6855 155.123 60.2393 156.207M68.1712 133.707C72.1504 133.106 76.4278 132.457 80.1374 131.893M73.6374 124.707C75.9707 125.54 80.4374 127.513 79.6374 129.113M80.1374 131.893C81.7724 131.644 83.2971 131.412 84.6374 131.207L71.2045 149.207M80.1374 131.893C79.8488 134.061 77.6582 140.559 71.2045 149.207M71.2045 149.207L67.2747 154.473M67.2747 154.473L63.6374 159.347M62.9097 160.322L60.6374 158.707C59.725 158.306 59.7896 157.299 60.2393 156.207M62.9097 160.322L63.6374 159.347M64.6374 162.207C67.6374 164.54 73.5374 168.407 73.1374 165.207C73.1159 165.035 73.0925 164.869 73.0674 164.707M71.2045 160.322C71.6565 160.601 72.6257 161.861 73.0674 164.707M71.2045 160.322L69.1374 160.857M71.2045 160.322C70.9942 160.048 70.7367 159.709 70.4667 159.347M68.6374 156.582C67.548 158.042 66.4801 159.479 65.4577 160.857M68.6374 156.582C68.5444 156.706 69.5736 158.15 70.4667 159.347M60.2393 156.207C60.5577 156.507 62.6374 158.425 63.6374 159.347M65.4577 160.857C67.471 162.641 71.8115 165.907 73.0674 164.707M68.1374 159.707C68.6679 159.467 69.8764 159.059 70.4667 159.347" stroke="black"/>
<path d="M41.1374 145.707L44.1374 148.707L43.1374 142.707L42.1374 143.207L41.1374 145.707Z" fill="black"/>
<path d="M40.6374 142.707L39.6374 144.207C39.1374 143.207 35.6374 141.207 29.6374 140.707C23.6374 140.207 20.6374 148.207 20.1374 152.707C20.1374 157.707 21.1374 163.54 22.1374 167.207C27.6374 178.707 33.6374 179.707 40.1374 179.207C43.1374 178.207 45.804 174.54 47.1374 171.707L47.6374 178.207L47.1374 179.707C38.1374 189.707 28.1374 182.207 22.1374 175.207C16.1374 168.207 16.6374 154.207 16.6374 151.207C16.6374 148.207 19.1374 141.207 25.1374 137.207C29.9374 134.007 36.804 136.874 39.6374 138.707L40.6374 142.707Z" fill="black"/>
<path d="M49.6374 185.707V183.707L57.1374 185.207L54.6374 187.207L49.6374 185.707Z" fill="black"/>
<path d="M67.1374 164.707L66.1374 165.207L63.8284 163.36L64.1374 162.707L67.1374 164.707Z" fill="black"/>
<path d="M61.6374 161.707L59.6374 160.207L61.1374 159.207L62.6374 160.707L61.6374 161.707Z" fill="black"/>
<path d="M80.1374 115.207V117.707L69.1374 118.707C66.7374 117.107 68.1374 115.707 69.1374 115.207L79.6374 114.707L80.1374 115.207Z" fill="black"/>
<path d="M101.137 112.707L92.6374 113.207L93.6374 115.207L90.6374 116.207C93.804 116.04 100.237 115.707 100.637 115.707C103.037 114.507 101.971 113.207 101.137 112.707Z" fill="black"/>
<path d="M94.6374 140.707L89.6374 141.207L91.1374 146.207C93.304 146.04 97.8374 145.807 98.6374 146.207C99.4374 146.607 103.637 149.707 105.637 151.207L108.137 154.707C109.471 156.874 112.237 161.607 112.637 163.207C113.637 164.707 115.137 176.207 115.137 178.207C115.137 180.207 113.137 186.707 111.137 189.707C109.137 192.707 106.137 194.707 102.137 195.207C98.1374 195.707 91.6374 191.707 87.1374 186.707C83.5374 182.707 81.304 174.374 80.6374 170.707C79.9707 164.707 80.5374 151.807 88.1374 148.207C88.1374 147.407 87.1374 144.207 86.6374 142.707C83.6374 140.707 66.1374 165.207 81.1374 186.207C93.1374 203.007 104.804 202.207 109.137 199.707C112.804 197.54 120.237 190.507 120.637 179.707C121.137 166.207 113.637 153.707 112.637 152.207C111.037 146.207 99.9707 142.04 94.6374 140.707Z" fill="black"/>
<path d="M63.6374 163.207L63.8284 163.36M63.8284 163.36L66.1374 165.207L67.1374 164.707L64.1374 162.707L63.8284 163.36ZM44.1374 148.707C43.7374 148.307 41.9707 146.54 41.1374 145.707L42.1374 143.207L43.1374 142.707L44.1374 148.707ZM39.6374 144.207L40.6374 142.707L39.6374 138.707C36.804 136.874 29.9374 134.007 25.1374 137.207C19.1374 141.207 16.6374 148.207 16.6374 151.207C16.6374 154.207 16.1374 168.207 22.1374 175.207C28.1374 182.207 38.1374 189.707 47.1374 179.707L47.6374 178.207L47.1374 171.707C45.804 174.54 43.1374 178.207 40.1374 179.207C33.6374 179.707 27.6374 178.707 22.1374 167.207C21.1374 163.54 20.1374 157.707 20.1374 152.707C20.6374 148.207 23.6374 140.207 29.6374 140.707C35.6374 141.207 39.1374 143.207 39.6374 144.207ZM49.6374 183.707V185.707L54.6374 187.207L57.1374 185.207L49.6374 183.707ZM59.6374 160.207L61.6374 161.707L62.6374 160.707L61.1374 159.207L59.6374 160.207ZM80.1374 117.707V115.207L79.6374 114.707L69.1374 115.207C68.1374 115.707 66.7374 117.107 69.1374 118.707L80.1374 117.707ZM92.6374 113.207L101.137 112.707C101.971 113.207 103.037 114.507 100.637 115.707C100.237 115.707 93.804 116.04 90.6374 116.207L93.6374 115.207L92.6374 113.207ZM89.6374 141.207L94.6374 140.707C99.9707 142.04 111.037 146.207 112.637 152.207C113.637 153.707 121.137 166.207 120.637 179.707C120.237 190.507 112.804 197.54 109.137 199.707C104.804 202.207 93.1374 203.007 81.1374 186.207C66.1374 165.207 83.6374 140.707 86.6374 142.707C87.1374 144.207 88.1374 147.407 88.1374 148.207C80.5374 151.807 79.9707 164.707 80.6374 170.707C81.304 174.374 83.5374 182.707 87.1374 186.707C91.6374 191.707 98.1374 195.707 102.137 195.207C106.137 194.707 109.137 192.707 111.137 189.707C113.137 186.707 115.137 180.207 115.137 178.207C115.137 176.207 113.637 164.707 112.637 163.207C112.237 161.607 109.471 156.874 108.137 154.707L105.637 151.207C103.637 149.707 99.4374 146.607 98.6374 146.207C97.8374 145.807 93.304 146.04 91.1374 146.207L89.6374 141.207Z" stroke="black"/>
<path d="M18.6374 79.7071V75.2071H19.1374M22.6374 79.7071V75.2071H21.6374M19.1374 75.2071L18.6374 73.7071L18.1374 72.2071V70.7071L19.1374 68.7071L19.6374 67.7071H22.1374L22.6374 68.2071V69.7071V70.7071L23.1374 71.2071V72.7071L22.1374 74.2071V74.7071L21.6374 75.2071M19.1374 75.2071H21.6374M40.1374 79.7071V75.2071H40.6374M44.1374 79.7071V75.2071H43.1374M40.6374 75.2071L40.1374 73.7071L39.6374 72.2071V70.7071L40.6374 68.7071L41.1374 67.7071H43.6374L44.1374 68.2071V69.7071V70.7071L44.6374 71.2071V72.7071L43.6374 74.2071V74.7071L43.1374 75.2071M40.6374 75.2071H43.1374" stroke="black"/>
<path d="M10.1374 25.7071C10.9707 25.2071 12.8374 24.5071 13.6374 25.7071C13.804 25.0404 14.5374 23.7071 16.1374 23.7071" stroke="black"/>
<path d="M83.1374 39.6142C84.0826 39.3885 86.0734 39.2833 86.4748 40.6685C86.8345 40.083 87.9354 39.0325 89.4611 39.5144" stroke="black"/>
<path d="M95.1374 14.6142C96.0826 14.3885 98.0734 14.2833 98.4748 15.6685C98.8345 15.083 99.9354 14.0325 101.461 14.5144" stroke="black"/>
<path d="M47.1374 29.5943C48.0893 29.3984 50.0824 29.3561 50.4399 30.7533C50.8179 30.1794 51.9514 29.1642 53.4611 29.694" stroke="black"/>
</svg>
