<svg width="411" height="237" viewBox="0 0 411 237" fill="none" xmlns="http://www.w3.org/2000/svg">
<g clip-path="url(#clip0_15_284)">
<path d="M411 0H0V237H411V0Z" fill="white"/>
<path d="M5 84.5H-0.5H-2.5L-7.5 -4.5L416.5 -8.5L412.5 80H403.5L404 73.5L402 72H399.5V80L399 80.5H387L376 94.5V102L373.5 102.5L373 107.5L375 109V144L375.5 145.5H373.5L373 149.5L375 152L374.5 174.5L374 175H369L368.5 178.5L366 177V172L366.5 171V169.5L364 167V140.5L365 140V138.5L364 137.5V134L367.5 131.5H364.5L364 130.5V129H362L360.5 127H352.5L351 129H349.5V131L346 131.5L347 132.5L349 135V136V138.5L347.5 139V140.5H349.5L349 167.5L347 169.5H346V171.5H347.5V174.5C347.5 174.9 344.833 174.667 343.5 174.5L343 173.5L342.5 172L342 168.5L342.5 166.5V165L340 162V135L341 135.5V133.5L340 133V129.5L343.5 126.5H340V124H338L336.5 122H331L330 120.5V113.5L329.5 111.5H331V107.5V101L330 100V89.5L329.5 88H326L324.5 87V82H323.5V79.5L322.5 76L320.5 73L318.5 71.5V65C318.167 64.1667 317.4 62.5 317 62.5C316.5 62.5 315.5 64 315.5 64.5V71L313 73L312.5 71L311.5 70V64.5L310.5 64L310 60L307 54L302 49L301.5 39L299.5 36L297.5 38.5V48L296 50L291.5 54.5L288.5 62V65V69.5L287 71.5V72.5C286.833 73.6667 286.5 75.9 286.5 75.5C286.5 75.1 285.5 74 285 73.5L283.5 71.5L283 66L282.5 64L281.5 63.5L280 65V71.5L279 72L275.5 77.5L275 83V87.5C274.667 87.6667 274 88.1 274 88.5C274 88.9 272.333 88.6667 271.5 88.5L269 89V110.5H264V120.5L263.5 121.5L250 125.5L246 120V116.5L244 116L243.5 118.5H240V116H238V119L236 118.5L235.5 111.5H228.5L228 112.5L222 113L221.5 108H217L216.5 110.5H208.5V109L206.5 106L206 100L197.5 101.5V102.5L184.5 101.5L184 98H181V101.5C181 101.9 179 101.667 178 101.5L171.5 101V99.5L171 95.5L170.5 94H169.5L160 96V98L139 96.5L138 94.5H137.5V93.5C137.5 92.7 137.167 92.1667 137 92C136.833 92 136.5 92.1 136.5 92.5C136.5 92.9 136.167 94 136 94.5H134.5C134.5 93.8333 134.4 92.4 134 92C133.5 91.5 133.5 92 133.5 92.5C133.5 93 133.5 94.5 133 94.5H132L131.5 92H130L129.5 94.5L129 95.5L129.5 101.5L127 106.5V115.5L124.5 123.5L123.5 128L124.5 128.5V132.5V139.5C124.5 140.3 124.167 140.167 124 140L123 139.5H121L120 140L119 139.5V138L119.5 136L122 134L121.5 133.5V131.5V119L122.5 118.5V116L121.5 115.5V101L123.5 98.5C123.667 97.1667 123.9 94.5 123.5 94.5H121.5V88L122 87.5L122.5 84H70L66 89L67.5 91L68 95.5L66.5 96.5L65 100H67.5V116C67.5 116.4 66.8333 116.5 66.5 116.5V118L67.5 119L67 138L61.5 118.5L63.5 114.5L62.5 114V112H60.5L56.5 71.5L55 28L56 26.5L56.5 22L55.5 21.5L55 18.5L52 15.5L49 18.5V21L48 21.5V25.5L49 27.5L46.5 71L42 112H40V114H39L40.5 119L34 142.5V114.5L35 112.5V107L33 106.5L32 100L22 85H9.5V76.5L6.5 77L5 78V84.5Z" fill="white" id="city-skyline"/>
<path d="M87.5 118V141.5H100.5V119.5H99V117.5L101 117L98.5 112L95 109.5H91L88.5 112.5V114.5L89 116.5L87.5 118Z" fill="white"/>
<path d="M47 124.5L42.5 146H60L56.5 124.5H47Z" fill="white"/>
<path d="M250.5 125.5L263.5 121.5H274M330 122L329 121.5H319M277.5 138L280.5 131H282L286.5 121.5M286.5 121.5H284M286.5 121.5H309M262.5 137.5C263.3 136.7 266.167 132.5 267.5 130.5H269.5L274 121.5M274 121.5H276.5M275 138L278 130.5H279.5L284 121.5M284 121.5H276.5M264.5 138L269 131.5H271.5L276.5 121.5M309 121.5L312 130.5H314L316.5 137M309 121.5H310.5M318.5 137L316 129.5H313L310.5 121.5M310.5 121.5H317.5M317.5 121.5L319 125.5M317.5 121.5H319M320.5 128.5L321 129.5H322.5M319 121.5L320.5 125M267.5 135.5H274M269.5 133.5H275M273.5 131.5H276M274 129.5H276.5M275 127H279.5M276.5 124.5H280M313 123.5H316M314 126H317.5M315 128H318.5M318.5 131.5H322.5M319.5 133.5H321.5M319.5 135.5H321.5" stroke="black"/>
<path d="M264 121V113M264 113H267M264 113V110.5H273.5M267 113V121M267 113H329.5M271.5 121C271.1 121 271.333 115.667 271.5 113H274.5V121M287 121V113H290.5V121M304 121.5V113H307.5V121.5M319.5 121V113H322.5V121M326.5 121V113H329.5M330 121V113H329.5M277 121.5C276.833 120 277.3 116.9 280.5 116.5C283.7 116.1 284.833 119.667 285 121.5M293 121C292.833 119.5 293.3 116.4 296.5 116C299.7 115.6 300.833 119.167 301 121M309.5 121.5C309.333 120 309.8 116.9 313 116.5C316.2 116.1 317.333 119.667 317.5 121.5M329.5 113V110.5H325.5M285.5 110.5H288M285.5 110.5V101M285.5 110.5H283M285.5 99H288M285.5 99V101M285.5 99H276M285.5 99V95.5M288 99V101M288 99H289.5M288 110.5V101M288 110.5H289.5M311 110.5H313M311 110.5L310.565 100.5M311 110.5H294.5M313 110.5L312.587 101M313 110.5H315.5M288 101L310.565 100.5M310.565 100.5L310.5 99H312.5L312.587 101M325.5 110.5L325 98.5L323.5 98.55M325.5 110.5H323.5M312.587 101H323L323.5 110.5M323.5 110.5H318.5M273.5 99V110.5M273.5 99H276M273.5 99V89.5L275 87.5M273.5 110.5H275.5M275.5 110.5V101H285.5M275.5 110.5H283M285.5 81.5L287.5 77L289.5 81.5V84M285.5 81.5L284 81H278L275 82.5M285.5 81.5V95.5M289.5 99V87M289.5 99H292.5M309 99H310L313 98.9M309 99V87M309 99H306M312.587 81.5L315 81H320.5L323.5 81.75M312.587 81.5L311 77.9677M312.587 81.5L312.896 94.5M313 98.9L323.5 98.55M313 98.9L312.896 94.5M289.5 84L296 79M289.5 84V85M296 79V85M296 79V76L299 74M296 85H289.5M296 85H299.25M289.5 85V87M289.5 87H295.5M295.5 87V99M295.5 87H303M295.5 99H303M295.5 99H292.5M303 99V87M303 99H306M303 87H309M309 87V85M309 85H302.5M309 85V84M302.5 85V79M302.5 85H299.25M302.5 79L309 84M302.5 79V76L299 74M309 84V81.5L310.565 77L311 77.9677M299 74V71.5M298 72.5H300M285 130.5C285.4 130.1 293.833 130.333 298 130.5M302.5 130.5H307.5M324.5 87V82L323.5 81.75M324.5 87L323.5 88V94.5M324.5 87L326 88M323.5 98.55V94.5M326 88L326.5 100.5H330M326 88H329V86.5H330V100.5M331 108V100.5H330M323.5 81.75C323.667 79.6667 322.9 74.6 318.5 71V69M317 62.5L318.5 64.5V65.5M317 62.5V61M317 62.5L315.5 64.5V65.5M311 77.9677C311.155 76.1683 311.8 74.7143 312.587 73.5988M315.5 69V71C314.751 71.3568 313.56 72.2187 312.587 73.5988M315.5 69H318.5M315.5 69V65.5M318.5 69V65.5M315.5 65.5H318.5M312.587 73.5988V72.0494M311.5 70L312.587 70.5V72.0494M311.5 70V64.5L310.565 64C310.71 61.3333 309.3 54.7 302.5 49.5C302.187 49.3437 301.581 48.4246 301.507 46M311.5 70C302.3 65.2 292.333 67.6667 288.5 69.5V65C291 63.5 298.4 61.1 308 63.5M299.5 36C301.1 37.6 301.5 39 301.5 39.5C301.5 39.8085 301.5 40.3271 301.5 41M299.5 36V33M299.5 36C297.911 37.6 297.514 39 297.514 39.5V41M300.5 34.5H298.5M288.51 64C288.366 61.3333 289.766 54.7 296.52 49.5C296.831 49.3437 297.433 48.4246 297.506 46M297.506 46C297.511 45.84 297.514 45.6734 297.514 45.5V41M297.506 46H301.507M301.507 46C301.503 45.84 301.5 45.6734 301.5 45.5C301.5 43.7365 301.5 42.1449 301.5 41M297.514 41C298.176 40.6667 299.9 40.2 301.5 41M281.5 63L283 65V66M281.5 63V61.5M281.5 63L280 65V66M280 69.5V71.5C278.333 72.5 275 76 275 82V82.5M280 69.5H283M280 69.5V66M283 69.5V71.5C284 71.8333 286.34 74.2103 287.14 77.8103M283 69.5V66M280 66H283M275 82.5V87.5M275 87.5L276 89.5V95.5M276 99V95.5M274 88.5H269.5L269 89V99M280.5 103V110M283 106.5V110.5M315.5 106V110.5M315.5 110.5H318.5M318.5 103V110.5M317 84V88M319 84V88M277.5 91L279 90.5H284M322 90.5L320.5 89.5H316M280 88V85M282 88V85M276 95.5C277.5 93.5 281.5 90.7 285.5 95.5M312.896 94.5C314.097 93 317.9 90.9 323.5 94.5M289.5 110.5C289.333 108 289.6 103.1 292 103.5C294.4 103.9 294.667 108.333 294.5 110.5M289.5 110.5H294.5M297 110.5C296.833 108 297.1 103.1 299.5 103.5C301.9 103.9 302.167 108.333 302 110.5M304.5 110.5C304.333 108 304.6 103.1 307 103.5C309.4 103.9 309.667 108.333 309.5 110.5M287 71V72.5M287 74V72.5M287 72.5C290.391 70.0329 300.257 66.4889 312.587 72.0494M299 90.5V95.5M292.5 94.5V99M306 99V94.5M289.5 76.5V79M292.5 75V80M306.5 75V80M309.5 76V77.9677M299.25 85V78.5" stroke="black"/>
<path d="M120 140.5C120.5 139.5 122.1 138.1 124.5 140.5C125.5 139.5 127.9 137.8 129.5 139C132.5 136 134.5 140.5 134 140.5C135.667 140 138.8 139.9 138 143.5C142.4 142.7 141.5 145.833 140.5 147.5C145 145.5 142 152.5 142.5 153.5C146 151.5 146.5 152.5 147 152.5C147 149.3 150.333 149.833 152 150.5C152 148.1 154 148.167 155 148.5C154.2 145.3 156.667 144.833 158 145C161.2 140.6 164 143.167 165 145C165 143 167.667 143.167 169 143.5C175.8 140.3 176.5 143.833 176 146C180.4 144 181.167 146.833 181 148.5C183 146.9 183.833 150.5 184 152.5L187 151.5C186.2 148.3 187.333 147.5 188 147.5C196 138.7 199.667 142.833 200.5 146C204 146 203 148.5 204 148.5C205.6 144.5 208.667 144.5 210 145C214.8 140.6 218.667 142.167 220 143.5C226.5 139.5 226 143.5 226.5 143.5C231.7 142.3 232 144.667 231.5 146C236.5 146 234 149.5 234.5 149.5C237.5 148.5 236.5 150.5 237.5 151.5L239.5 150.5C242.7 145.3 245.5 146.333 246.5 147.5C246.5 142.7 250.5 142.833 252.5 143.5C255.7 139.5 258.167 141.833 259 143.5C265.4 138.7 268.333 143.167 269 146C271.4 144.8 272.667 147.833 273 149.5C273 147.9 275.333 146.5 276.5 146C276.5 143.2 279.833 143.167 281.5 143.5C284.3 137.9 286 140.167 286.5 142H288.5C290.833 139.5 295.3 136.8 294.5 146C295.555 146.301 296.17 146.849 296.5 147.477M309.173 147.5C312.044 143.635 314.226 145.797 315 147.5C317.8 146.3 318.5 149.667 318.5 151.5C320 150.5 321.5 152.5 321.5 153C322.3 151.8 324.167 152.167 325 152.5M309.173 147.5C308.953 147.797 308.728 148.129 308.5 148.5C308 149.5 307.5 147.5 306 149.5C305.5 149.167 304.5 149.1 304.5 151.5C303.667 150.833 301.6 150.1 300 152.5C300 151.167 299.3 148.9 296.5 150.5C296.812 149.773 297.045 148.515 296.5 147.477M309.173 147.5C309.712 145.9 307.282 145.5 306 145.5C306.167 143.508 305.6 140.318 302 143.5C301.333 143.333 300 143.2 300 144C299.167 143.833 297.6 144.1 298 146.5C297.667 146.485 296.9 146.659 296.5 147.477" stroke="black"/>
<path d="M330 214.838C336.115 209.451 344.61 206.55 345.425 213.181C345.68 215.253 340.191 221.469 333.603 221.054M339.376 207.794L334.076 231M343.452 229.757L352.42 211.109C352.964 209.728 354.051 207.877 354.051 211.523C354.051 215.17 353.507 225.198 353.236 229.757M344.675 222.298C348.208 221.607 355.518 219.977 356.497 218.982M358.535 229.757L360.595 219.811M362.611 209.451L361.796 214.01M361.796 214.01C365.057 210.28 371.172 207.794 368.726 214.424C368.224 215.864 366.071 218.819 361.389 219.688M361.796 214.01L360.595 219.811M360.595 219.811C360.867 219.777 361.132 219.735 361.389 219.688M361.389 219.688C361.932 219.315 363.407 220.186 366.28 226.027C367.911 229.342 371.444 227.685 372.395 224.784M377.694 211.109C376.743 215.391 374.922 224.867 375.248 228.514M378.51 206.551L377.694 204.479C377.83 204.064 378.51 203.65 378.51 204.479C378.51 205.789 380.484 202.95 379.732 204.479C378.917 206.136 379.053 206.136 378.51 206.136M389.516 211.523C388.972 209.313 384.217 207.379 382.994 213.181C382.481 215.612 386.662 219.811 387.07 222.712C387.749 224.784 388.211 229.259 384.624 230.586C382.178 231.49 380.955 229.481 381.363 228.099C382.178 226.303 385.847 222.298 394 220.64" stroke="black"/>
<path d="M166.5 229C168.564 229 194.306 226.895 222 224.134M301.5 201C297.9 201.4 297.333 204.5 297.5 206C297.333 207 296.1 210 292.5 214C290.064 216.706 254.673 220.877 222 224.134M301.5 201L302 180M301.5 201C303.098 200.823 305.082 200.77 307 200.78M313 201C309.667 202 303.2 204.8 304 208C305 212 308.5 218 288 221.5M313 201C311.702 200.907 309.404 200.794 307 200.78M313 201V189.5C313.167 187.667 314.2 184.1 317 184.5C319.8 184.9 321.167 187.667 321.5 189V199.152M313 201L321.5 199.152M324.5 198.5L332.5 200M324.5 198.5V180M324.5 198.5L321.5 199.152M332.5 200L340 198.5M332.5 200V180M340 198.5V180M340 198.5L344 198.735M365.5 200V201H368.5V200.25M365.5 200V195H366.5M365.5 200L356.5 199.471M288 221.5C297.333 219.167 296 216.405 295 216.5C281 217.833 277 221.5 265.5 222.5C258.849 223.078 243.1 224.911 226.5 226.981M288 221.5C274.32 223.836 245.053 227.062 226.5 229.544M210 232.5C210.665 231.835 217.251 230.782 226.5 229.544M185 232.5C195.292 230.984 211.255 228.882 226.5 226.981M226.5 229.544V226.981M226.5 226.981L222 224.134M405 199.5C400.6 199.5 394.5 199.167 392 199M392 199L386.5 201M392 199V185.5M386.5 201V196M386.5 201H384V200.25M386.5 196H385.25M386.5 196C387.333 196.5 389.6 195.1 392 185.5M384 196H385.25M384 196V198.125M384 196C379.667 196 371.006 196 371.028 196M389.5 185.5V183H392V185.5M389.5 185.5H392M389.5 185.5C389.283 186.325 388.985 187.379 388.639 188.5M385.25 196C385.681 195.754 386.17 194.965 386.665 193.899M368.5 195H366.5M368.5 195L375 186M368.5 195V199.5M366.5 195L371.5 188.077M373 186H375M373 186V182M373 186L372.639 186.5M375 186V190.5M375 186V182M368.5 199.5V200.25M368.5 199.5L369.5 198.115M375 190.5L373.917 192M375 190.5L375.306 190.092M375 182H373M375 182L376.5 181V188.5M373 182L368.765 179M376.5 188.5L375.306 190.092M376.5 188.5H388.639M302 180H301L300 179.5L300.5 178.5H311M302 180H307.5M371.5 188.077L360.5 180H356.5M371.5 188.077L372.639 186.5M372.639 186.5L361 178.5M361 178.5V173.5M361 178.5H356.5M361 173.5H356.5V174.5M361 173.5L368.765 179M356.5 178.5H324M356.5 178.5V177M332.5 180H340M332.5 180H324.5M340 180H356.5M324.5 180H307.5M307 200.78L307.5 180M356.5 199.471V180M356.5 199.471L354 199.324M368.5 200.25H384M384 200.25V198.125M369.5 198.115L384 198.125M369.5 198.115L371.028 196M371.028 196L372.545 193.899M372.545 193.899H386.665M372.545 193.899L373.917 192M386.665 193.899C386.928 193.331 387.193 192.685 387.452 192M373.917 192H387.452M387.452 192C387.685 191.386 387.912 190.74 388.128 190.092M375.306 190.092H388.128M388.128 190.092C388.307 189.558 388.479 189.021 388.639 188.5M368.765 179L411 179.5M368.765 179V175L411 176M344 198.735V189.5C344.167 187.667 345.5 184.1 349.5 184.5C353.5 184.9 354.167 188.333 354 190V199.324M344 198.735L354 199.324M324 178.5V175H311V178.5M324 178.5H311M340 179V174.5H341.5M356.5 174.5H350.5M356.5 174.5V177M347.5 174.5H341.5M347.5 174.5V177H341.5V174.5M347.5 174.5H350.5M350.5 174.5V177H356.5" stroke="black"/>
<path d="M392 175.55V169.275M392 163V167M392 163C391.2 163.4 390.667 163.167 390.5 163C388.5 165.4 387.333 164.333 387 163.5C383 165.5 382.333 163.333 382.5 162C376.9 163.2 376.833 159.167 377.5 157C377.5 154.333 378.6 148.9 383 148.5C382.6 142.1 387.5 141.833 390 142.5C390.333 141.667 391.2 140.1 392 140.5C391.667 138.667 391.9 135.4 395.5 137C397.333 133.667 402.4 128.3 408 133.5C408.5 133 409.8 132.5 411 134.5M392 163C392.5 163.667 393.6 164.9 394 164.5M392 169.275L388.5 164.453M392 169.275V167M392 167L394 164.5M394 164.5C395 164.667 397.1 164.3 397.5 161.5M405 163L405.071 167M405.227 175.863L405.088 168M405.088 168L408.5 162M405.088 168L405.071 167M408.5 162C407.3 163.2 404.667 162.833 403.5 162.5C400.7 165.7 396.333 160.5 394.5 157.5M408.5 162C408.833 162.333 409.8 162.6 411 161M405.071 167L401 163.5M400 157C399.6 156.2 398.167 154.667 397.5 154C396.5 154.5 394.9 154.6 396.5 151C394.1 152.2 394.167 149.167 394.5 147.5" stroke="black"/>
<path d="M283 216.5C266.259 208.501 250.087 202.079 234.576 197M180.5 183.906C169.488 182.196 158.972 181.16 149 180.678M180.5 183.906C191.979 185.689 203.996 188.205 216.5 191.592M180.5 183.906C168.125 183.277 150.868 188.055 138 192.609M156.855 177C181.855 179.333 244 190 292 214M130 173.5L43.5 176.5C42.8947 176.5 42.2214 176.5 41.5 176.5M130 173.5V175.5M130 173.5L132 171.5L134 172L135 171L135.5 169.5L134 169.75L131.5 169.5L130 167L131.5 166L132.5 168H135L136 167L135.5 166L136 165H137.5H139L139.5 166.5L139 167.5H140.5M130 175.5L43.5 178L42.5 178.289M130 175.5H130.75M155.5 175.5L159.5 175.677M155.5 175.5C157.1 175.9 157.167 178.333 157 179.5H155C155.4 177.269 153.5 176.237 152.5 176L150.75 177.5M155.5 175.5V174.5M302 182L159.5 175.677M162 174L160.5 173L159 173.5L155 171.5L152 172.5L151 170L151.5 168.5C151.5 167.904 151.394 167.103 151.114 166.281M162 174L159.5 175.677M162 174L163 174.04M300 179.5L163 174.04M46 196.711C45.8281 196.809 45.6614 196.905 45.5 197H43.5L43 197.667M46 196.711C46.6027 196.368 47.2698 196.007 48 195.63M46 196.711V182.5C45.6 184.1 43.8333 183.833 43 183.5M48 195.63V182.5C48.3333 183.167 49.7 184.1 50.5 182.5C51.3333 182.79 52.6 183.009 53 181.615V192M48 195.63C60.1043 189.385 89.5643 178.879 130.75 176.726M43 182C43.8333 182.5 45.6 182.7 46 179.5H48C48 180.667 48.8 182.1 50 180.5C50.8333 180.936 52.6 181.789 53 179H55C55 180.017 56.3 181.394 57.5 180C58.3333 180.5 60.1 182.2 60.5 179H62.5C62.5 180.167 63.3 181.6 64.5 180C65.3333 180.5 67.1 181.489 67.5 178.289H69.5C69.5 179.456 70.3 180.6 71.5 179C72.3333 179.5 74.1 180.7 74.5 177.5H76.5C76.5 178.667 77.8 180.6 79 179C79.8333 179.5 81.1 181.2 81.5 178H83.5C83.7303 181.097 86.5 179 87.5 178.5M55 190.5V183C55.3333 183.581 56.7 184.394 57.5 183C58.3333 183.333 60.1 183.6 60.5 182V189M62.5 188V182C62.8333 182.667 63.7 183.6 64.5 182C65.3333 182.333 67.1 182.889 67.5 181.289V186.5M69.5 186V181.289C69.8333 181.956 71.2 182.6 72 181C72.8333 181.333 74.1 182.1 74.5 180.5V184.5M76.5 183.5V180.5C76.6667 181.333 77.8 181.8 79 181C79.8333 181.333 81.1 182.6 81.5 181V183M83.5 182.289V181C84 181.5 86.5 181 88 180M297.5 187.527C296.019 188.308 292.878 188.62 292.167 183.623H288.611C288.611 185.445 287.189 187.683 285.056 185.185C283.574 185.865 280.433 187.198 279.722 182.842H276.167C276.167 184.43 273.856 186.582 271.722 184.404C270.241 185.185 267.1 187.84 266.389 182.842H262.833C262.833 184.664 261.411 186.903 259.278 184.404C257.796 185.185 254.656 186.729 253.944 181.732H250.389C250.389 183.554 248.967 185.341 246.833 182.842C245.352 183.623 242.211 185.497 241.5 180.5H237.944C237.944 182.322 235.633 185.341 233.5 182.842C232.019 183.623 229.767 186.278 229.056 181.281H225.5C225.091 186.118 220.167 182.842 218.389 182.062M297.5 189.87C296.019 190.39 292.878 190.807 292.167 188.308V210.5M288.611 208.812V188.308C288.019 189.349 285.589 190.807 284.167 188.308C282.685 188.762 280.433 189.103 279.722 186.925V203.143M276.167 200.801V189.089C275.574 189.996 273.144 191.266 271.722 189.089C270.241 189.609 267.1 190.026 266.389 187.527V198.458M262.833 196.897V187.527C262.241 188.568 260.7 190.026 259.278 187.527C257.796 188.048 254.656 188.915 253.944 186.417V194.554M250.389 193.774V186.417C249.796 187.458 247.367 188.464 245.944 185.966C244.463 186.486 242.211 187.683 241.5 185.185V191.431M237.944 189.87V185.185C237.648 186.486 235.633 187.215 233.5 185.966C232.019 186.486 229.767 188.464 229.056 185.966V189.089M225.5 187.978V185.966C224.611 186.746 220.167 185.966 217.5 184.404M138 179H136L137.5 177L136 176.5C135.33 176.523 134.664 176.548 134 176.575M138 179L139.5 177L138.5 175.5L139.5 173.5H140.5V171H142M138 179H142M142 171V175H143.5L144.5 177H146.5L148 175H149.5V171L147.5 168H145H144L142 171ZM134 176.575V174L138 173L139 171V169.75M134 176.575C132.909 176.619 131.825 176.67 130.75 176.726M139 168.5V169.75M139 169.75H140.5V167.5M140.5 167.5C140.798 165.861 142.161 162.838 145.303 162.5M133 173.5L131.5 174V175.5H130.75M130.75 175.5V176.726M144.5 178.5L143.5 179.5V180.465M143.5 180.465C96.9072 179.125 62.8725 189.858 46.5 199.5C46.9 199.267 99.3333 198.069 125.5 197.5C127.3 196.711 129.501 195.8 132 194.832M143.5 180.465C144.494 180.494 145.494 180.528 146.5 180.568M146.5 178.5C146.5 178.9 146.5 180.045 146.5 180.568M146.5 180.568C147.329 180.601 148.163 180.637 149 180.678M149 180.678V179L150.75 177.5M151.5 174.5V177M150.75 177.5L150 176M143.5 163C143.667 162.5 143.7 161.4 142.5 161M148.354 163C148.403 162.333 148.9 161 150.5 161M148.354 163C147.952 162.809 147.502 162.661 147 162.57M148.354 163C149.847 163.71 150.685 165.021 151.114 166.281M145.303 162.5C145.676 162.46 146.075 162.457 146.5 162.5C146.672 162.517 146.839 162.541 147 162.57M145.303 162.5C145.535 161 145.6 158.2 144 159M147 162.57C147.083 161.167 147.6 158.488 149 159M151.114 166.281L152.5 164.5H154.5L155.5 165.5L155 166.5L154.5 167.5L155.5 168H158.5L160.298 166.281L161.5 166.5L160.298 168.662L158 170L159.5 171.5L161.5 171.5L163 172.5V174.04M41.5 172.5L131.2 169M41.5 172.5V172H37.5M41.5 172.5V176.5M159.717 169L301.5 174M301.5 174V178M301.5 174L303 172.5L306.5 173M301.5 174L306.5 175M306.5 173H309.5L310.5 175H306.5M306.5 173V175M306.5 178V175M42 203.5V199L43 197.667M42 203.5L132 201V199.5M42 203.5L37 204V199L38 198M132 194.832V196M132 194.832C133.851 194.114 135.865 193.365 138 192.609M38 198C36.4 198.4 12 199.5 0 200M38 198L37.5 179M38 198L43 197.667M0 205.5C5.5 205 10 207 14.5 205C19 203 29.5 203.5 30.5 204C31.3 204.4 35.1667 203.5 37 203M37.5 179H25M37.5 179L42.5 178.289M25 179V196.711M25 179L18.5 179.5M25 196.711L18.5 197M25 196.711L27.5 197M18.5 197C17.7 196.769 12.5 196.57 10 196.5M18.5 197V179.5M18.5 177.5V179.5M10 196.5L9.5641 179.5M10 196.5L-1 197L7 196.5V187C7 185.5 6.29848 183.5 3 183.5C-0.5 183.5 -1 184 -1.5 187M9.5641 179.5L9.5 177H-1V179.5H9.5641ZM9.5641 179.5H18.5M34.5 198.319V197M27.5 197V188.089C27.9118 184.858 28.3235 184.319 31.2059 184.319C33.9223 184.319 34.5 186.473 34.5 188.089V197M27.5 197L34.5 197M42.5 178.289L43 197.667M25 176.5C25.7002 176.5 29.9531 176.5 34.5 176.5M34.5 176.5C35.4973 176.5 36.5088 176.5 37.5 176.5M34.5 176.5C34.3737 176.5 34.4089 174.543 34.4614 173M37.5 172H34.5C34.4875 172.289 34.474 172.633 34.4614 173M37.5 172V176.5M37.5 176.5C38.9069 176.5 40.273 176.5 41.5 176.5M34.4614 173H29M234.576 197C233.867 196.769 165.896 198.57 132 199.5M234.576 197C228.445 194.992 222.418 193.195 216.5 191.592M132 199.5V196M132 196L226 194M216.5 191.592L138 192.609" stroke="black"/>
<path d="M29.3439 154.281L29.3876 149.931M29.3439 154.281L32.3945 154.312M29.3439 154.281L27.1309 158.609M72.0518 154.712L72.0955 150.362M72.0518 154.712L69.0012 154.681M72.0518 154.712L74.2267 159.084M78.0327 166.735L75.8579 162.363M78.0327 166.735C73.9783 165.4 65.8235 162.635 65.6395 162.26M78.0327 166.735L80 171M68.8592 168.818L67.0546 165.142M68.8592 168.818L75.8579 162.363M68.8592 168.818L70.5 172M61.8833 154.609L65.6395 162.26M39.5125 154.384L35.6676 161.957M30.175 172.777L34.0198 165.203M33.4988 145.623L29.4313 145.582L29.3876 149.931M33.4988 145.623L42.6504 145.715M33.4988 145.623L36.4552 134.777M33.4988 145.623L44.4275 136.715M61.227 118.715L40.8899 118.509L40.8064 118.816M61.227 118.715L62.0132 121.441M61.227 118.715L63.3045 114.385L40.2219 114.152M69.0887 145.982L72.1392 146.013L72.0955 150.362M69.0887 145.982L59.937 145.89M69.0887 145.982L65.944 135.075M69.0887 145.982L58.0126 134.995M33.2256 172.808C38.0401 165.969 51.2949 155.807 65.7977 169.874L68 172M34.0198 165.203C39.0431 160.278 52.6826 153.371 67.0546 165.142M34.0198 165.203L35.6676 161.957M67.0546 165.142L65.6395 162.26M29.3876 149.931L32.4382 149.962M72.0955 150.362L69.045 150.332M32.4382 149.962L32.3945 154.312M32.4382 149.962L35.4888 149.993M32.3945 154.312L35.445 154.342M35.4888 149.993L35.445 154.342M35.4888 149.993L38.5393 150.024M35.445 154.342L38.4956 154.373M38.5393 150.024L38.4956 154.373M38.5393 150.024L53.7921 150.178M38.4956 154.373L41.5462 154.404M41.579 151.142L41.5462 154.404M41.5462 154.404L44.5967 154.435M44.6295 151.173L44.5967 154.435M44.5967 154.435L47.6473 154.466M47.6801 151.203L47.6473 154.466M47.6473 154.466L50.6979 154.496M50.7306 151.234L50.6979 154.496M50.6979 154.496L53.7484 154.527M53.7921 150.178L53.7484 154.527M53.7921 150.178L56.8427 150.208M53.7484 154.527L56.799 154.558M56.8427 150.208L56.799 154.558M56.8427 150.208L59.8933 150.239M56.799 154.558L59.8496 154.589M59.8933 150.239L59.8496 154.589M59.8933 150.239L62.9438 150.27M59.8496 154.589L62.9001 154.62M62.9438 150.27L63.9607 150.28L65.9944 150.301M62.9438 150.27L62.9001 154.62M62.9001 154.62L65.9507 154.65M65.9944 150.301L65.9507 154.65M65.9944 150.301L69.045 150.332M65.9507 154.65L69.0012 154.681M69.045 150.332L69.0012 154.681M42.6504 145.715L59.937 145.89M42.6504 145.715C42.6853 145.538 38.5348 138.35 36.4552 134.777M42.6504 145.715L44.4275 136.715M46.9364 124.008L39.4117 123.932M46.9364 124.008L56.0881 124.1M46.9364 124.008L46.2046 127.714M62.7994 124.168L62.0132 121.441M62.7994 124.168L56.0881 124.1M62.7994 124.168L65.944 135.075M62.7994 124.168L58.0126 134.995M39.4117 123.932L40.1508 121.221M39.4117 123.932L36.4552 134.777M39.4117 123.932L44.4275 136.715M40.1508 121.221L62.0132 121.441M40.1508 121.221L40.8064 118.816M56.0881 124.1L65.944 135.075M56.0881 124.1L58.0126 134.995M59.937 145.89L65.944 135.075M59.937 145.89L58.0126 134.995M40.8064 118.816L38.8999 114.139L40.2219 114.152M40.2219 114.152L40.2437 111.978L41.9724 111.995M62.9196 112.207L62.1061 112.198L60.2758 112.18M41.9724 111.995L60.2758 112.18M41.9724 111.995L51.2224 102.301M41.9724 111.995L43.0601 102.218M46.4441 71.8019L46.6862 67.4543M46.4441 71.8019L51.4738 77.2903M46.4441 71.8019L51.5284 71.8533M46.4441 71.8019L45.7908 77.6738M60.2758 112.18L51.2224 102.301M60.2758 112.18L58.7532 95.4399M56.6127 71.9046L56.458 67.5529M56.6127 71.9046L51.4738 77.2903M56.6127 71.9046L57.1478 77.7884M56.6127 71.9046L51.5284 71.8533M48.9805 21.8016L47.9637 21.7913L47.9309 25.0536M48.9805 21.8016L49.0133 18.5394L52.0966 15.3079M48.9805 21.8016L55.0816 21.8632M52.0966 15.3079L55.1144 18.601L55.0816 21.8632M52.0966 15.3079L52.0966 7.00001L51 7.00001L53 7.00001M55.0816 21.8632L56.0985 21.8734L56.0657 25.1357M47.9309 25.0536L47.9199 26.141L48.9259 27.2386L48.7261 30.8262M47.9309 25.0536L56.0657 25.1357M56.0657 25.1357L56.0548 26.2231L55.027 27.3002L55.1547 30.8911M48.7261 30.8262L55.1547 30.8911M48.7261 30.8262L48.3811 37.0208M48.7261 30.8262L55.3793 37.2096M55.1547 30.8911L48.3811 37.0208M55.1547 30.8911L55.3793 37.2096M46.6862 67.4543L56.458 67.5529M46.6862 67.4543C47.341 67.4609 53.2036 59.9309 56.0531 56.165M46.6862 67.4543L47.1962 58.2973L47.3199 56.0769M56.458 67.5529L56.0531 56.165M56.458 67.5529L47.3199 56.0769M36.4552 134.777L46.2046 127.714M46.2046 127.714L44.4275 136.715M64.0297 158.981L74.2267 159.084M74.2267 159.084L75.8579 162.363M75.8579 162.363L65.6395 162.26M37.435 158.713L27.1309 158.609M27.1309 158.609L27.1309 161.957L35.6676 161.957M51.2224 102.301L43.831 95.2893M51.2224 102.301L58.7532 95.4399M43.831 95.2893L50.3367 89.2416M43.831 95.2893L43.0601 102.218M43.831 95.2893L44.4843 89.4175M50.3367 89.2416L45.1375 83.5456M50.3367 89.2416L52.3704 89.2621M58.7532 95.4399L58.1967 89.3209M52.3704 89.2621L58.4101 95.4365M52.3704 89.2621L57.6829 83.6723M57.6829 83.6723L51.4738 77.2903M57.6829 83.6723L58.1967 89.3209M57.6829 83.6723L57.1478 77.7884M51.4738 77.2903L45.1375 83.5456M45.1375 83.5456L45.7908 77.6738M45.1375 83.5456L44.4843 89.4175M43.0601 102.218L51.1241 112.087L59.3572 102.383L51.288 95.7763M43.0601 102.218L51.288 95.7763M51.288 95.7763L58.1967 89.3209M51.288 95.7763L44.4843 89.4175M58.1967 89.3209L51.4103 83.6089M51.4103 83.6089L57.1478 77.7884M51.4103 83.6089L45.7908 77.6738M51.4103 83.6089L44.4843 89.4175M57.1478 77.7884L51.5284 71.8533M51.5284 71.8533L45.7908 77.6738M56.0531 56.165L47.7062 49.1403M56.0531 56.165L55.8285 49.8465M47.7062 49.1403L55.6039 43.5281M47.7062 49.1403L48.0436 43.0805M47.7062 49.1403L47.3199 56.0769M55.6039 43.5281L48.3811 37.0208M55.6039 43.5281L55.3793 37.2096M55.6039 43.5281L55.8285 49.8465M48.3811 37.0208L48.0436 43.0805M55.3793 37.2096L48.0436 43.0805M48.0436 43.0805L55.8285 49.8465M55.8285 49.8465L47.3199 56.0769" stroke="black"/>
<path d="M9.50003 165.203L9.50003 169.874L8.5 171C8.43222 171.245 8.33687 171.613 8.24758 172M9.50003 165.203L8 165.203L8 163.5L9.00002 163.5M9.50003 165.203L17.5 165M9.00002 163.5L11 161M9.00002 163.5L17.5 163.5M11 161L11.5 134.5M11 161L13.5 161M11.5 134.5L9.50003 134.5L9.50003 132.5L11 132.5M11.5 134.5L14.5 134.5M14.5 134.5L13.5 134.5L13.5 161M14.5 134.5L14.5 133M13.5 161L17 161M17 161L17 134.5L16 134.5L16 133M17 161L17.5 161M26 161L26 134M26 161L23.5 161M26 161L28.5 163.5M26 134L27 134L27 132L26 132M26 134L23.5 134M20 161L19.5 134.5L20.5 134.5L20.5 133M20 161L23.5 161M20 161L17.5 161M23.5 161L23.5 134M23.5 134L22.5 134L22.5 133M17.5 165C17.5 164.6 17.5 163.833 17.5 163.5M17.5 165L28 165.194M17.5 163.5L17.5 161M17.5 163.5L28.5 163.5M28.5 163.5L28.5 165.203L28 165.194M28 165.194L28 169.874L29 172M29 172L29 173L25 173L25 177L17 177M29 172L17 172M17 177L10 177L10 173.5L8 173.5C8 173.172 8.11733 172.565 8.24758 172M17 177L17 172M17 172L17.5 170.5L17.5 165.203M17 172L8.24758 172M11 132.5L14.5 132.5L14.5 133M11 132.5L11 131M11 128.5L17.5 127.5M11 128.5L11 131M11 128.5L7.50001 125.5L17 124.5M17.5 127.5L26 128M17.5 127.5L17.5 130M17.5 127.5L17 124.5M17.5 132.5L16 132.5L16 133M17.5 132.5L20.5 132.5L20.5 133M17.5 132.5L17.5 130M26 128L26 130.5M26 128L29.5 125.5L26 125.22M26 132L22.5 132L22.5 133M26 132L26 130.5M11 131L17.5 130M17.5 130L26 130.5M17 124.5L26 125.22M11.5 125L11.5 123L13.2719 122.852M17.5 122.5L17.5 124.5M17.5 122.5L13.2719 122.852M17.5 122.5L24 122.882M26 125.22L26 123L24 122.882M13.2719 122.852L14.5 121L15 121L15.5 121L22.5 121L24 122.882M14.5 133L16 133M20.5 133L22.5 133" stroke="black"/>
<path d="M323.517 166.354L323.517 171.025L322.517 172.151C322.449 172.396 322.354 172.764 322.265 173.151M323.517 166.354L322.017 166.354L322.017 164.651L323.017 164.651M323.517 166.354L331.517 166.151M323.017 164.651L325.017 162.151M323.017 164.651L331.517 164.651M325.017 162.151L325.517 135.651M325.017 162.151L327.517 162.151M325.517 135.651L323.517 135.651L323.517 133.651L325.017 133.651M325.517 135.651L328.517 135.651M328.517 135.651L327.517 135.651L327.517 162.151M328.517 135.651L328.517 134.151M327.517 162.151L331.017 162.151M331.017 162.151L331.017 135.651L330.017 135.651L330.017 134.151M331.017 162.151L331.517 162.151M340.017 162.151L340.017 135.151M340.017 162.151L337.517 162.151M340.017 162.151L342.517 164.651M340.017 135.151L341.017 135.151L341.017 133.151L340.017 133.151M340.017 135.151L337.517 135.151M334.017 162.151L333.517 135.651L334.517 135.651L334.517 134.151M334.017 162.151L337.517 162.151M334.017 162.151L331.517 162.151M337.517 162.151L337.517 135.151M337.517 135.151L336.517 135.151L336.517 134.151M331.517 166.151C331.517 165.751 331.517 164.984 331.517 164.651M331.517 166.151L342.017 166.345M331.517 164.651L331.517 162.151M331.517 164.651L342.517 164.651M342.517 164.651L342.517 166.354L342.017 166.345M342.017 166.345L342.017 171.025L343.017 173.151M343.017 173.151L343.017 174.151L340.017 174.151L340.017 178.151L331.017 178.151M343.017 173.151L331.017 173.151M331.017 178.151L324.017 178.151L324.017 174.651L322.017 174.651C322.017 174.322 322.135 173.716 322.265 173.151M331.017 178.151L331.017 173.151M331.017 173.151L331.517 171.651L331.517 166.354M331.017 173.151L322.265 173.151M325.017 133.651L328.517 133.651L328.517 134.151M325.017 133.651L325.017 132.151M325.017 129.651L331.517 128.651M325.017 129.651L325.017 132.151M325.017 129.651L321.517 126.651L331.017 125.651M331.517 128.651L340.017 129.151M331.517 128.651L331.517 131.151M331.517 128.651L331.017 125.651M331.517 133.651L330.017 133.651L330.017 134.151M331.517 133.651L334.517 133.651L334.517 134.151M331.517 133.651L331.517 131.151M340.017 129.151L340.017 131.651M340.017 129.151L343.517 126.651L340.017 126.371M340.017 133.151L336.517 133.151L336.517 134.151M340.017 133.151L340.017 131.651M325.017 132.151L331.517 131.151M331.517 131.151L340.017 131.651M331.017 125.651L340.017 126.371M325.517 126.151L325.517 124.151L327.289 124.003M331.517 123.651L331.517 125.651M331.517 123.651L327.289 124.003M331.517 123.651L338.017 124.033M340.017 126.371L340.017 124.151L338.017 124.033M327.289 124.003L328.517 122.151L329.017 122.151L329.517 122.151L336.517 122.151L338.017 124.033M328.517 134.151L330.017 134.151M334.517 134.151L336.517 134.151" stroke="black"/>
<path d="M347.517 174.5L347.517 171.354M347.517 171.354L346.017 171.354L346.017 169.651L347.017 169.651M347.517 171.354L355.517 171.151M347.017 169.651L349.017 167.151M347.017 169.651L355.517 169.651M349.017 167.151L349.517 140.651M349.017 167.151L351.517 167.151M349.517 140.651L347.517 140.651L347.517 138.651L349.017 138.651M349.517 140.651L352.517 140.651M352.517 140.651L351.517 140.651L351.517 167.151M352.517 140.651L352.517 139.151M351.517 167.151L355.017 167.151M355.017 167.151L355.017 140.651L354.017 140.651L354.017 139.151M355.017 167.151L355.517 167.151M364.017 167.151L364.017 140.151M364.017 167.151L361.517 167.151M364.017 167.151L366.517 169.651M364.017 140.151L365.017 140.151L365.017 138.151L364.017 138.151M364.017 140.151L361.517 140.151M358.017 167.151L357.517 140.651L358.517 140.651L358.517 139.151M358.017 167.151L361.517 167.151M358.017 167.151L355.517 167.151M361.517 167.151L361.517 140.151M361.517 140.151L360.517 140.151L360.517 139.151M355.517 171.151C355.517 170.751 355.517 169.984 355.517 169.651M355.517 171.151L366.017 171.345M355.517 169.651L355.517 167.151M355.517 169.651L366.517 169.651M366.517 169.651L366.517 171.354L366.017 171.345M366.017 171.345L366.017 177M355.517 174.5L355.517 171.354M349.017 138.651L352.517 138.651L352.517 139.151M349.017 138.651L349.017 137.151M349.017 134.651L355.517 133.651M349.017 134.651L349.017 137.151M349.017 134.651L345.517 131.651L355.017 130.651M355.517 133.651L364.017 134.151M355.517 133.651L355.517 136.151M355.517 133.651L355.017 130.651M355.517 138.651L354.017 138.651L354.017 139.151M355.517 138.651L358.517 138.651L358.517 139.151M355.517 138.651L355.517 136.151M364.017 134.151L364.017 136.651M364.017 134.151L367.517 131.651L364.017 131.371M364.017 138.151L360.517 138.151L360.517 139.151M364.017 138.151L364.017 136.651M349.017 137.151L355.517 136.151M355.517 136.151L364.017 136.651M355.017 130.651L364.017 131.371M349.517 131.151L349.517 129.151L351.289 129.003M355.517 128.651L355.517 130.651M355.517 128.651L351.289 129.003M355.517 128.651L362.017 129.033M364.017 131.371L364.017 129.151L362.017 129.033M351.289 129.003L352.517 127.151L353.017 127.151L353.517 127.151L360.517 127.151L362.017 129.033M352.517 139.151L354.017 139.151M358.517 139.151L360.517 139.151" stroke="black"/>
<path d="M104 170L104.517 142.651M104.517 142.651L102.517 142.651L102.517 140.651L104.017 140.651M104.517 142.651L107.517 142.651M107.517 142.651L106.517 142.651L106.5 170M107.517 142.651L107.517 141.151M110.017 169.5L110.017 142.651L109.017 142.651L109.017 141.151M119.017 169.151L119.017 142.151M119.017 142.151L120.017 142.151L120.017 140.151L119.017 140.151M119.017 142.151L116.517 142.151M113 169.5L112.517 142.651L113.517 142.651L113.517 141.151M116.517 169.151L116.517 142.151M116.517 142.151L115.517 142.151L115.517 141.151M104.017 140.651L107.517 140.651L107.517 141.151M104.017 140.651L104.017 139.151M104.017 136.651L110.517 135.651M104.017 136.651L104.017 139.151M104.017 136.651L100.517 133.651L110.017 132.651M110.517 135.651L119.017 136.151M110.517 135.651L110.517 138.151M110.517 135.651L110.017 132.651M110.517 140.651L109.017 140.651L109.017 141.151M110.517 140.651L113.517 140.651L113.517 141.151M110.517 140.651L110.517 138.151M119.017 136.151L119.017 138.651M119.017 136.151L122.517 133.651L119.017 133.371M119.017 140.151L115.517 140.151L115.517 141.151M119.017 140.151L119.017 138.651M104.017 139.151L110.517 138.151M110.517 138.151L119.017 138.651M110.017 132.651L119.017 133.371M104.517 133.151L104.517 131.151L106.289 131.003M110.517 130.651L110.517 132.651M110.517 130.651L106.289 131.003M110.517 130.651L117.017 131.033M119.017 133.371L119.017 131.151L117.017 131.033M106.289 131.003L107.517 129.151L108.017 129.151L108.517 129.151L115.517 129.151L117.017 131.033M107.517 141.151L109.017 141.151M113.517 141.151L115.517 141.151" stroke="black"/>
<path d="M251.144 127.306L247.321 121.311M251.144 127.306H238.028M251.144 127.306C251.144 129.025 251.144 131.09 251.144 133.301M251.144 127.306V133.301M235.957 118.646V111.319H228.363V112.651H221.46M235.957 118.646L238.028 123.309M235.957 118.646H237.855M221.46 112.651V107.989H216.627V110.653H208.343M221.46 112.651V115.316M208.343 110.653V108.655L206.272 105.99V99.9951H204.201M208.343 110.653L208.281 114.65M204.201 99.9951L197.298 101.327V102.66M204.201 99.9951L203.971 105.99M197.298 102.66H201.44L202.13 103.326L203.971 105.99M197.298 102.66L184.181 101.66M160.02 97.9967V95.9984L168.994 94H171.065V100.661L180.73 101.397M160.02 97.9967L140 96.6645H138.5M160.02 97.9967H165.542L171.755 107.989M171.755 107.989V114.65M171.755 107.989L140 106.656M171.755 142.426V138.63M207.818 144.625L208.22 118.646M224.221 141.775C224.221 140.571 224.221 141.801 224.221 131.969M224.221 123.309C224.221 125.72 224.221 128.749 224.221 131.969M224.221 123.309L223.991 122.643M224.221 123.309H238.028M221.46 115.316L223.991 122.643M221.46 115.316L208.281 114.65M238.028 123.309L237.833 131.969M237.818 151V132.635M247.321 121.311L245.621 118.646V115.982H243.55V118.646H239.754M247.321 121.311H238.028M251.144 133.301C251.144 142.228 251.144 142.665 251.144 143.092V133.301ZM251.144 133.301L237.818 132.635M237.818 132.635L237.833 131.969M224.221 131.969H237.833M247.1 144.625H239.408M235.957 139.962H226.292M223.991 122.643H210.414M208.281 114.65L208.25 116.648M208.25 116.648L208.22 118.646M208.25 116.648L206.272 116.54M171.755 114.65L206.272 116.54M171.755 114.65V115.649M171.755 116.648L208.22 118.646M171.755 116.648V134.633M171.755 116.648V115.649M171.755 138.63L140 137.964M171.755 138.63V134.633M140 137.964V143.5M140 137.964V133.967M171.755 134.633L140 133.967M140 133.967V128.5M140 106.656V111.319M140 106.656L138.5 101.66V96.6645M206.272 116.54V109.321M206.272 109.321L203.971 105.99M206.272 109.321L175.207 107.322M205.582 105.99H203.971M171.065 112.651L140 111.319M140 111.319V114.65M171.755 115.649L140 114.65M140 114.65V126.5M239.754 118.646V115.982H237.818L237.855 118.646M239.754 118.646H237.855M184.181 101.66V97.9967H182.11M184.181 101.66L182.11 101.503M180.73 101.397V97.9967H182.11M180.73 101.397L182.11 101.503M182.11 101.503V97.9967M166.923 123.309V119.313H164.162V123.309M166.923 123.309H164.162M166.923 123.309L167.613 123.975V125.308H163.471V123.975L164.162 123.309M160.02 123.309V119.313H157.258V123.309M160.02 123.309H157.258M160.02 123.309L160.71 123.975V125.308H156.568V123.975L157.258 123.309M153.116 123.309V119.313H150.355V123.309M153.116 123.309H150.355M153.116 123.309L153.807 123.975V125.308H149.665V123.975L150.355 123.309M146.213 123.309V119.313H143.452V123.309M146.213 123.309H143.452M146.213 123.309L146.903 123.975V125.308H142.761V123.975L143.452 123.309M249.38 134.615V137.219M246.585 134.615V137.219M243.789 134.615V137.219M240.994 134.615V137.219M249.38 139.172V141.775M246.585 139.172V141.775M243.789 139.172V141.775M240.994 139.172V141.775M249.38 128.107V130.71M246.585 128.107V130.71M243.789 128.107V130.71M240.994 128.107V130.71M240.994 145.68V146.982M234.705 141.124V145.03M234.705 133.964V137.87M231.211 133.964V137.87M227.717 133.964V137.87M234.705 125.503V129.408M231.211 125.503V129.408M227.717 125.503V129.408M221.428 133.314V137.219M216.536 133.314V137.219M211.644 133.314V137.219M221.428 124.852V128.757M216.536 124.852V128.757M211.644 124.852V128.757M166.222 105.976L162.728 102.071M158.535 105.325L155.74 102.071M151.547 104.675L148.752 101.42M144.559 104.024L141.764 100.769M201.162 107.441L197.668 104.512M193.476 106.953L190.68 104.512M186.488 106.464L183.692 104.024M179.5 105.976L176.704 103.535M138.5 96.6645V94.5L137.375 94.5773M127 115.5V106.656L129 101.66V95L131.5 94.8684M127 115.5L136 115.649L140 126.5M127 115.5L123.5 126.5M140 126.5H123.5M140 126.5V128.5M123.5 126.5V128.5H124.5M140 128.5H124.5M124.5 128.5V140.5M146.5 152V144.5H149.665V150M130 94.9474V92.0263H131.5V94.8684M131.5 94.8684L133.125 94.7829M133.125 94.7829H134.5M133.125 94.7829V93.4046V92.0263L134.5 92.0263V94.7829M134.5 94.7829L136.25 94.6546M136.25 94.6546V92.0263L137.5 92L137.375 94.5773M136.25 94.6546L137.375 94.5773M167.62 142.426C167.62 141.905 167.62 140.473 167.62 139.822H164.126V142.426H167.62ZM160.632 142.426V139.822H157.138V142.426H160.632ZM152.945 142.426V139.822H149.451V142.426H152.945ZM145.957 142.426V139.822H142.463V142.426H145.957ZM166.921 133.314V129.408H164.825V133.314H166.921ZM159.933 133.314V129.408H157.837V133.314H159.933ZM152.945 133.314V129.408H150.849V133.314H152.945ZM145.258 133.314V129.408H143.162V133.314H145.258ZM204.656 124.201H201.861V120.296H204.656V124.201ZM198.367 124.201H195.572V120.296H198.367V124.201ZM192.078 124.201H189.283V120.296H192.078V124.201ZM185.789 124.201H182.994V120.296H185.789V124.201ZM179.5 124.201H176.704V120.296H179.5V124.201ZM204.656 131.361H201.861V127.456H204.656V131.361ZM198.367 131.361H195.572V127.456H198.367V131.361ZM192.078 131.361H189.283V127.456H192.078V131.361ZM185.789 131.361H182.994V127.456H185.789V131.361ZM179.5 131.361H176.704V127.456H179.5V131.361ZM204.656 139.822H201.861V135.917H204.656V139.822ZM198.367 139.822H195.572V135.917H198.367V139.822ZM192.078 139.822H189.283V135.917H192.078V139.822ZM185.789 139.822H182.994V135.917H185.789V139.822ZM179.5 139.822H176.704V135.917H179.5V139.822ZM126.5 137L126 131.361H129.5V137H126.5ZM134 137V130.5H137.5V137H134Z" stroke="black"/>
<path d="M22 230.5C22.8929 230.069 24.8127 229.466 25.3484 230.5M253.5 211.5C254.616 211.285 256.982 210.983 257.518 211.5M238.5 207C240.063 206.569 243.188 205.967 243.188 207" stroke="black"/>
<path d="M42.399 212.03C45.267 214.96 47.389 214.911 51.727 213C55.451 210.986 57.094 211.158 59.5 213C61.943 214.669 63.464 214.411 66.237 213.485C70.264 211.44 71.576 211.913 73.492 213.485C75.339 214.907 76.911 214.731 80.229 213.485C83.845 211.792 85.888 212.082 89.557 214.455M0 219.118C3.0394 217.415 4.741 217.721 7.7732 219.603C9.6392 220.659 10.8163 220.868 13.4739 219.603C16.0849 218.465 17.2119 218.47 18.6559 219.603M205.308 215.91C210.675 213.256 213.001 212.814 216.19 214.94C218.438 216.558 220.508 216.334 225 214.455C228.482 213.131 230.756 213.334 235.364 215.425M58.982 230.03C60.006 232.295 61.479 232.722 65.718 231.97C69.688 230.802 71.257 230.702 73.492 231C77.803 232.48 78.67 232.492 79.192 231.97M151 208C153.868 210.93 155.99 210.881 160.328 208.97C164.052 206.956 165.695 207.128 168.101 208.97C170.544 210.639 172.065 210.381 174.838 209.455C178.865 207.41 180.177 207.883 182.093 209.455C183.94 210.877 185.512 210.701 188.83 209.455C192.446 207.762 194.489 208.052 198.158 210.425M111.444 220.573C114.483 218.87 116.185 219.176 119.217 221.058C121.083 222.114 122.26 222.323 124.918 221.058C127.529 219.92 128.656 219.925 130.1 221.058" stroke="black"/>
<path d="M74.7612 141.31L74.7612 134.444L75.5225 134.444M80.8511 141.31L80.8511 134.444L79.3286 134.444M75.5225 134.444L74.7612 132.155L74 129.866L74 127.578L75.5225 124.526L76.2837 123L80.0898 123L80.8511 123.763L80.8511 126.052L80.8511 127.578L81.6123 128.341L81.6123 130.629L80.0898 132.918L80.0898 133.681L79.3286 134.444M75.5225 134.444L79.3286 134.444" stroke="black"/>
<path d="M84.8219 141.47C84.8219 140.762 84.8219 125.26 84.8219 117.598M87.3098 141.47V117.598M67.4065 118.482C67.4065 125.85 67.4065 140.762 67.4065 141.47H100.579C100.579 140.694 100.579 138.167 100.579 137M67.4065 118.482L69.8944 116.713M67.4065 118.482H66.5772V116.713L67.4065 116.05M69.8944 116.713L88.1391 117.598L88.9684 116.713V114.945L85.6512 114.791M69.8944 116.713V141.47M69.8944 114.061V100.799M69.8944 114.061L67.4065 116.05M69.8944 114.061L85.6512 114.791M69.8944 100.799L67.4065 102.567M69.8944 100.799L121.311 102.567M69.8944 100.799V97.2622M67.4065 102.567V116.05M67.4065 102.567V99.9147M121.311 102.567V116.05M121.311 102.567V100.799L122.97 99.0305M121.311 116.05H122.141V118.482H121.311M121.311 116.05H106.384M103.896 116.05V118.482M103.896 116.05C104.725 114.503 100.579 106.988 95.6028 106.988C93.7794 106.988 92.2344 107.977 91.0156 109.276M103.896 116.05L100.579 117.082M103.896 116.05H106.384M103.896 118.482L100.579 119.071M103.896 118.482V128.5M103.896 118.482H106.384M121.311 118.482H106.384M121.311 118.482V131.5M100.579 119.071L98.9201 119.366V117.598L100.579 117.082M100.579 119.071V131.5M106.384 118.482V126.5M88.1391 114.061C88.5885 112.783 89.5737 110.813 91.0156 109.276M91.0156 109.276C93.0975 108.464 97.9249 108.889 100.579 117.082M85.6512 114.791V104.335L93.1149 104.667M85.6512 114.791C85.9276 112.117 87.8074 106.347 93.1149 104.667M106.384 116.05V113.177M93.1149 104.667H100.181M100.181 104.667H105.555H106.384V113.177M100.181 104.667C101.84 105.846 105.057 109.64 106.384 113.177M69.8944 97.2622L122.97 99.0305M69.8944 97.2622V93.7256M69.8944 97.2622L67.4065 99.9147M122.97 99.0305H123.799V94.6098C123.004 94.5965 122.173 94.5827 121.311 94.5683M67.4065 99.9147H64.9185L65.6245 97.7229L67.7594 95.7243M69.8944 93.7256L67.7594 95.7243M69.8944 93.7256V87.5366M69.8944 93.7256C70.054 93.7256 72.2341 93.7598 75.6995 93.8157M67.7594 95.7243V91.0732L69.8944 87.5366M69.8944 87.5366H75.6995M67.4065 91.0732L65.7479 89.3049L69.8944 84H122.141V85.7683V86.6524V87.5366H121.311M121.311 87.5366V94.5683M121.311 87.5366H116.335M121.311 94.5683C119.746 94.5423 118.078 94.5145 116.335 94.4856M75.6995 87.5366V93.8157M75.6995 87.5366H80.6753M75.6995 93.8157C77.1507 93.8391 78.8273 93.8664 80.6753 93.8966M80.6753 87.5366V93.8966M80.6753 87.5366H84.8219M80.6753 93.8966C81.9786 93.9179 83.3671 93.9406 84.8219 93.9645M84.8219 87.5366V93.9645M84.8219 87.5366H89.7977M84.8219 93.9645C86.4097 93.9905 88.0765 94.0179 89.7977 94.0463M89.7977 87.5366V94.0463M89.7977 87.5366H94.7735M89.7977 94.0463C91.4151 94.0729 93.0805 94.1004 94.7735 94.1283M94.7735 87.5366V94.1283M94.7735 87.5366H98.9201M94.7735 94.1283C96.1413 94.1509 97.5271 94.1738 98.9201 94.1968M98.9201 87.5366V94.1968M98.9201 87.5366H103.896M98.9201 94.1968C100.574 94.2242 102.239 94.2517 103.896 94.2792M103.896 87.5366V94.2792M103.896 87.5366H108.042M103.896 94.2792C105.287 94.3022 106.673 94.3252 108.042 94.3479M108.042 87.5366C108.042 88.2439 108.042 92.3722 108.042 94.3479M108.042 87.5366H112.189M108.042 94.3479C109.445 94.3712 110.831 94.3942 112.189 94.4167M112.189 87.5366C112.189 88.2439 112.189 92.418 112.189 94.4167M112.189 87.5366H116.335M112.189 94.4167C113.607 94.4402 114.993 94.4633 116.335 94.4856M116.335 87.5366V94.4856M73.2116 91.9573V90.189M78.1874 91.9573V90.189M83.1633 91.9573V90.189M87.3098 91.9573V90.189M92.2856 91.9573V90.189M97.2614 91.9573V90.189M101.408 91.9573V90.189M106.384 91.9573V90.189M110.53 91.9573V90.189M114.677 91.9573V90.189M118.823 91.9573V90.189M72.3823 110.524V105.22H83.1633V110.524H72.3823ZM108.872 112.293V106.988H117.994V112.293H108.872Z" stroke="black"/>
<path d="M374.5 175V152L373 150M373 150V146L375 145.692M373 150L376.5 149.5M376.5 175C376.167 171.667 376.2 164.9 379 164.5C381.8 164.1 382.5 171.333 382.5 175M375 145.692V109M375 145.692L377.25 145.346M375 109L373 107.5L373.5 107.375M375 109L383 106.778M383 105L384 106.5M383 105L373.5 107.375M383 105H383.5M384 106.5H411.5M384 106.5L383 106.778M411.5 105H383.5M383 106.778V109.5M383 142V109.5M383 109.5H387M395.5 109.5H399.5C399.5 115.5 399.5 127.9 399.5 129.5M409 109.5H409.5M411.5 109.5H409.5M397 132C397 131.6 397 119.5 397 113.5M409.5 130.5V109.5M373.5 107.375V102.5L376 102M383.5 100.5V105M383.5 100.5H411.5M383.5 100.5L376 102M376 102C376 100.8 376 96.8333 376 95M376 95L384 93H413M376 95L377.517 93M399.5 80.5H387L377.517 93M399.5 80.5V72H401.5M399.5 80.5V86.5H402M402 86.5L403.5 81V73.5L402 72H401.5M402 86.5L401.5 72M377.517 93L384 91.5H413.5M388.5 117.5H391M388.5 117.5V114.5M388.5 117.5H387.5M393.5 117.5H391M393.5 117.5V114.5M393.5 117.5H394.5M391 117.5V109M391 117.5V114.5M391 109H388.5V114.5M391 109H393.5V114.5M391 109V114.5M388.5 114.5H393.5M388.5 114.5H391M393.5 114.5H391M388.5 130.5H391M388.5 130.5V127.5M388.5 130.5H387.5M393.5 130.5H391M393.5 130.5V127.5M393.5 130.5H394.5M391 130.5V127.5M391 122H388.5V127.5M391 122H393.5V127.5M391 122V127.5M388.5 127.5H391M393.5 127.5H391M401.5 118H404M401.5 118V115M401.5 118H400.5M406.5 118H404M406.5 118V115M406.5 118H407.5M404 118V115M404 109.5H401.5V115M404 109.5H406.5V115M404 109.5V115M401.5 115H404M406.5 115H404M401.5 130.5H404M401.5 130.5V127.5M401.5 130.5H400.5M406.5 130.5H404M406.5 130.5V127.5M406.5 130.5H407.5M404 130.5V127.5M404 122H401.5V127.5M404 122H406.5V127.5M404 122V127.5M401.5 127.5H404M406.5 127.5H404M378.5 97H380.5V100M389.5 100V96H392M392 96V99M392 96H393.5V99.5M402.5 100V96H406.5V100M377.25 145.346L379.5 145H380.5V136M377.25 145.346L377.517 136.5M377.517 136.5L380.5 136M377.517 136.5H376.5L377.25 134.5L380.5 134L381.5 136H380.5M388.5 142V135M388.5 135H393M388.5 135H387L388 133H393.5L394.5 135H393M393 135V136.5M384 167.5H388.5M385 166L385.5 174M394.5 167.5H398.5M402.5 167.5H398.5M394.5 169V173.5M398.5 167.5V175M409 167.5V175.5M407.5 167.5H411.5M392 87V84H395V87H392ZM403.5 87.5V84.5H407V87.5H403.5ZM377 118C377 117.6 377 112.5 377 110L380.5 109V117.5L377 118ZM377 131.5V122.5L380.5 121.5V130.5L377 131.5Z" stroke="black"/>
<path d="M33.5 114L35.5 112.5L35 112.375M33.5 114L25.5 111.778M33.5 114V140.5M25.5 110L24.5 111.5M25.5 110L35 112.375M25.5 110H25M24.5 111.5H-3M24.5 111.5L25.5 111.778M-3 110H25M25.5 111.778V114.5V120.5M-0.5 114.5H-1M-3 114.5H-1M-1 135.5V114.5M35 112.375V107.5L32.5 107M25 105.5V110M25 105.5H-3M25 105.5L32.5 107M32.5 107C32.5 105.8 32.5 101.833 32.5 100M32.5 100L24.5 98H-4.5M32.5 100L30.9828 98M9 85.5H21.5L30.9828 98M9 85.5V77H7M9 85.5V91.5H6.5M6.5 91.5L5 86V78.5L6.5 77H7M6.5 91.5L7 77M30.9828 98L24.5 96.5H-5M17.5 114H20V118.5M17.5 114H15V119M17.5 114V118.5M7 123H4.5M7 123V120M7 123H8M2 123H4.5M2 123V120M2 123H1M4.5 123V120M4.5 114.5H7V120M4.5 114.5H2V120M4.5 114.5V120M7 120H4.5M2 120H4.5M7 135.5H4.5M7 135.5V132.5M7 135.5H8M2 135.5H4.5M2 135.5V132.5M2 135.5H1M4.5 135.5V132.5M4.5 127H7V132.5M4.5 127H2V132.5M4.5 127V132.5M7 132.5H4.5M2 132.5H4.5M30 102H28V105M19 105V101H16.5M16.5 101V104M16.5 101H15V104.5M6 105V101H2V105M-0.5 137.5C1.5 137.5 1.66667 139.5 1.5 140.5C3.9 139.3 4.16667 142.333 4 144C6 141.6 7.16667 142.667 7.5 143.5C8 142.833 9.1 141.7 9.5 142.5M16.5 92V89H13.5V92H16.5ZM5 92.5V89.5H1.5V92.5H5ZM31.5 123C31.5 122.6 31.5 117.5 31.5 115L28 114V122.5L31.5 123ZM29 139V130.5L31.5 131V139H29Z" stroke="black"/>
</g>
<defs>
<clipPath id="clip0_15_284">
<rect width="411" height="237" fill="white"/>
</clipPath>
</defs>
</svg>
