<svg width="69" height="69" viewBox="0 0 69 69" fill="none" xmlns="http://www.w3.org/2000/svg">
<g clip-path="url(#clip0_18_494)">
<path d="M34.1384 0.0181449C35.3357 -0.113165 36.4034 0.473545 37.3611 1.60506L37.5505 1.83846L37.5564 1.84529L37.5622 1.85311C38.5336 3.19307 39.478 3.58561 40.2419 3.60018C41.0332 3.61497 41.7542 3.22746 42.2527 2.78182C42.8394 2.25737 43.8191 1.60757 44.863 1.58553C45.4065 1.57416 45.9591 1.73424 46.4509 2.15096C46.8733 2.50896 47.2276 3.03541 47.5046 3.74764L47.6189 4.06404L47.6218 4.07479L47.7126 4.37752C48.1666 5.79504 48.787 6.54266 49.5163 6.90193C50.3114 7.29348 51.3631 7.28846 52.7663 6.941L52.7849 6.93611L52.8034 6.93318C53.7166 6.77859 54.4789 6.72126 55.1052 6.78768C55.7376 6.85481 56.2657 7.05244 56.6648 7.43416C57.0613 7.81357 57.2753 8.3227 57.3865 8.90096C57.4958 9.47023 57.5134 10.1476 57.487 10.9166C57.5266 12.7888 57.8388 13.5529 58.2156 13.9039C58.3991 14.0748 58.6354 14.1827 58.9636 14.2535C59.3025 14.3265 59.6997 14.3524 60.197 14.3834C60.2982 14.3897 60.4034 14.3967 60.5105 14.4039H60.5232L60.5359 14.4058C62.3615 14.6198 63.6365 15.1147 64.2527 16.109C64.8677 17.1017 64.7044 18.3986 64.2038 19.8697L64.1931 19.9L64.1794 19.9293C63.6083 21.0903 63.4671 21.844 63.6638 22.4752C63.8647 23.1195 64.459 23.7751 65.7351 24.6207C66.5258 25.0412 67.154 25.4142 67.6101 25.7779C68.0686 26.1436 68.4131 26.5462 68.532 27.0396C68.6532 27.5437 68.5135 28.032 68.2566 28.5054C68.0021 28.9741 67.5983 29.4907 67.0954 30.0797L67.072 30.107L67.0456 30.1304C66.0482 31.0114 65.8493 31.6807 65.9021 32.2281C65.9615 32.8427 66.338 33.4418 66.8318 34.1998C66.9852 34.4353 67.1473 34.6837 67.2986 34.939C67.4006 35.1113 67.51 35.2895 67.6247 35.4752C67.8762 35.8823 68.1525 36.3278 68.3757 36.774C68.5978 37.2179 68.7862 37.6979 68.8425 38.1783C68.9003 38.6719 68.819 39.1789 68.49 39.6334C68.1689 40.0765 67.6508 40.4155 66.9441 40.6666L66.9265 40.6724L66.9099 40.6773C65.4424 41.0813 64.7549 41.7519 64.5437 42.5543C64.3341 43.3512 64.5459 44.4351 65.2741 45.8189L65.4265 46.0992L65.4499 46.1422L65.4656 46.1881C65.9542 47.6834 66.0697 48.8125 65.5007 49.6724C65.2212 50.0945 64.8081 50.401 64.3161 50.65C63.8261 50.898 63.2232 51.1061 62.53 51.314L62.4714 51.3316L62.4099 51.3346C61.4484 51.3803 60.7589 51.4497 60.2575 51.564C59.7585 51.6779 59.4984 51.825 59.3445 51.9869C59.193 52.1464 59.0869 52.3809 59.0202 52.7926C58.9522 53.213 58.9351 53.7491 58.9128 54.4771C58.9055 54.7151 58.8971 54.9714 58.8865 55.2447L58.8904 55.4566C58.9085 56.2932 58.9248 56.9996 58.8894 57.5679C58.8545 58.1277 58.7666 58.6349 58.5241 59.0318C58.2598 59.4643 57.8538 59.7011 57.3406 59.8023C56.8538 59.8982 56.2429 59.879 55.5036 59.7984L55.4509 59.7926L55.4001 59.776C54.0551 59.3304 53.0297 59.3531 52.2507 59.776C51.4682 60.201 50.8112 61.0968 50.3562 62.6734C50.1271 63.5537 49.8686 64.2553 49.5476 64.7789C49.2196 65.3137 48.8089 65.6896 48.279 65.8609C47.7605 66.0284 47.2021 65.9752 46.6247 65.8101C46.0522 65.6464 45.4121 65.3575 44.699 64.9947C43.1428 64.2798 42.314 64.2248 41.7771 64.4029C41.2242 64.5867 40.8442 65.0505 40.2507 65.815C40.088 66.0246 39.9117 66.2527 39.7175 66.4859L39.7136 66.4898C38.5538 67.8493 37.554 68.6525 36.4929 68.7115C35.4153 68.771 34.4869 68.0541 33.5134 67.0474L33.4939 67.0269L33.4763 67.0035C32.4341 65.6433 31.7131 65.1519 31.0534 65.1099C30.3724 65.0669 29.5545 65.4832 28.2663 66.5504L28.2478 66.566L28.2273 66.5797C27.4628 67.0954 26.7999 67.4543 26.2116 67.6392C25.6142 67.827 25.0616 67.8452 24.5534 67.6363C24.0551 67.4313 23.6723 67.0373 23.3474 66.5523C23.023 66.0681 22.7281 65.4496 22.4255 64.7359L22.4148 64.7086L22.406 64.6803C21.9629 63.1562 21.421 62.5669 20.9128 62.3482C20.3804 62.1194 19.7153 62.2149 18.8113 62.4879L18.7995 62.4918C18.2798 62.6353 17.7059 62.7885 17.1413 62.8785C16.579 62.968 15.9885 63.0009 15.4411 62.8795C14.8797 62.7548 14.3648 62.4666 13.9851 61.9342C13.6139 61.4135 13.4036 60.7031 13.3523 59.7857L13.3513 59.775V59.7642C13.3287 58.0349 13.0638 57.0909 12.573 56.5543C12.0955 56.0324 11.2918 55.778 9.83274 55.7554H9.81419L9.79563 55.7535C8.87291 55.6699 8.12075 55.5302 7.53294 55.3062C6.93948 55.0799 6.48007 54.7548 6.19407 54.2828C5.91001 53.8138 5.83789 53.2671 5.88255 52.6803C5.92674 52.1002 6.08804 51.4383 6.31712 50.6988C6.7689 48.8856 6.66819 48.0708 6.39817 47.6383C6.26659 47.4275 6.06731 47.2638 5.76927 47.1119C5.4614 46.955 5.08537 46.8282 4.61302 46.6715C4.51801 46.6399 4.41564 46.6067 4.31517 46.5728L4.30247 46.5679L4.29173 46.564C3.43701 46.2275 2.7489 45.9 2.23411 45.5484C1.71855 45.1962 1.33575 44.7917 1.15501 44.2877C0.971991 43.7769 1.02551 43.2454 1.21751 42.7037C1.40698 42.1695 1.74435 41.5855 2.18138 40.9361L2.19895 40.9097L2.22044 40.8853C3.05018 39.9404 3.4144 39.0934 3.38841 38.2594C3.36211 37.4196 2.93744 36.4826 1.95091 35.3668C0.626872 34.1306 -0.0921884 32.9804 0.00950135 31.815C0.111695 30.6471 1.02017 29.6926 2.31321 28.8033L2.34153 28.7838L2.37278 28.7681C3.05768 28.4263 3.4809 28.0442 3.73704 27.6646C3.9914 27.2875 4.10098 26.8838 4.11595 26.4654C4.14618 25.614 3.78767 24.7267 3.44602 23.9586C2.68797 22.9134 2.20727 21.5394 2.54173 20.2818C2.89569 18.9523 4.09729 17.9576 6.27708 17.6178C7.91938 17.2245 8.74493 16.7577 9.18431 16.1031C9.63452 15.432 9.76234 14.4488 9.68235 12.7906C9.64221 11.9584 9.63028 11.2369 9.69798 10.6412C9.76541 10.0486 9.91749 9.51418 10.2595 9.10799C10.614 8.68725 11.1118 8.47345 11.7165 8.39998C12.2994 8.32925 13.019 8.38416 13.8904 8.52889C15.9949 8.65504 17.1608 8.201 17.8835 7.57772C18.6278 6.93559 18.9851 6.053 19.3484 5.11092C19.6226 4.30179 19.9152 3.62774 20.2546 3.10408C20.5984 2.57385 21.0077 2.16995 21.5202 1.94979C22.5497 1.50796 23.7446 1.90272 25.1316 2.71932L25.6169 2.98299C26.7135 3.55392 27.5607 3.81625 28.2712 3.78865C29.039 3.75861 29.7401 3.38293 30.4949 2.43318L30.5085 2.41561C31.7107 1.03344 32.91 0.153098 34.1384 0.0181449ZM34.3816 4.71541C18.3654 4.71541 5.38171 17.6993 5.38157 33.7154C5.38157 49.7317 18.3653 62.7154 34.3816 62.7154C50.3978 62.7154 63.3816 49.7317 63.3816 33.7154C63.3814 17.6993 50.3977 4.71541 34.3816 4.71541Z" fill="black"/>
<path d="M26.3642 55L26.9447 53.8414M26.9447 53.8414C28.0613 53.3586 30.367 52.3352 30.6572 52.1035M26.9447 53.8414H29.4519L27.8839 52.0242M26.9447 53.8414L27.8839 52.0242M30.6572 52.1035L31.6975 50.0759M30.6572 52.1035L30.2115 52.9724M30.6572 52.1035L27.8839 52.0242M27.8839 52.0242L28.2921 51.2345M28.8905 50.0759V48.9172M28.8905 50.0759H29.7326M28.8905 50.0759L28.2921 51.2345M28.8905 48.9172V47.7586H30.0133M28.8905 48.9172H29.7326M29.7326 50.0759V48.9172M29.7326 50.0759H30.5747M28.2921 51.2345H31.1361M30.0133 47.7586H32.5396M30.0133 47.7586L30.7993 44.8621M30.0133 47.7586L33.0056 45.3566M29.7326 48.9172H30.5747M30.5747 50.0759V48.9172M30.5747 50.0759H31.4168M40.68 50.0759V48.9172M40.68 50.0759H39.8379M40.68 50.0759L41.2925 51.2345M40.68 48.9172V47.7586H39.8379M40.68 48.9172H39.8379M39.8379 50.0759H38.9958M39.8379 50.0759V48.9172M41.2925 51.2345H38.4776M41.2925 51.2345L41.7517 52.1035M39.8379 47.7586H37.3116M39.8379 47.7586L38.9396 44.8621M39.8379 47.7586L36.7502 44.8621M39.8379 48.9172H38.9958M38.9958 50.0759H38.1537M38.9958 50.0759V48.9172M41.7517 52.1035L42.3642 53.2621C41.2414 52.9173 38.9829 52.2027 38.9312 52.1035M41.7517 52.1035H38.9312M41.7517 52.1035L39.8379 53.8414L39.3298 52.8673M37.873 50.0759L38.9312 52.1035M38.9312 52.1035L39.3298 52.8673M39.3298 52.8673C35.3304 49.7707 31.5847 51.6471 30.2115 52.9724M30.2115 52.9724L29.7326 53.8414M32.5396 47.7586H37.3116M32.5396 47.7586C32.5492 47.7115 31.3831 45.808 30.7993 44.8621M32.5396 47.7586L33.0056 45.3566M30.7993 44.8621L31.5852 41.9655M30.7993 44.8621L33.471 42.9546M33.0056 45.3566L31.5852 41.9655M33.0056 45.3566L33.471 42.9546M37.3116 47.7586L38.9396 44.8621M37.3116 47.7586L36.7502 44.8621M31.5852 41.9655H33.6624M31.5852 41.9655L31.7817 41.2414M33.471 42.9546L33.6624 41.9655M37.5923 40.5172H31.9782L31.9563 40.599M37.5923 40.5172L37.8168 41.2414M37.5923 40.5172L38.1537 39.3586H31.7817M31.9563 40.599L31.7817 41.2414M31.9563 40.599L31.4168 39.3586H31.7817M37.8168 41.2414L38.0414 41.9655M37.8168 41.2414H31.7817M31.7817 39.3586V38.7793H32.2589M38.0414 41.9655L38.9396 44.8621M38.0414 41.9655L36.7502 44.8621M38.0414 41.9655H36.1888M32.2589 38.7793H37.3116M32.2589 38.7793L34.7853 36.1724M32.2589 38.7793L32.5323 36.1724M38.9396 44.8621L36.1888 41.9655M36.7502 44.8621L36.1888 41.9655M36.1888 41.9655H33.6624M30.0133 55C31.3236 53.1655 34.9537 50.4235 38.9958 54.131C39.5652 54.6297 39.7408 54.8479 39.5 55M30.5747 48.9172H31.4168M38.9958 48.9172H38.4344H38.1537M31.4168 48.9172V50.0759M31.4168 48.9172H35.6274M31.4168 50.0759H32.2589M35.6274 48.9172V50.0759M35.6274 48.9172H36.4695M32.2589 50.0759V49.2069M32.2589 50.0759H33.101M35.6274 50.0759H34.7853M35.6274 50.0759H36.4695M36.4695 48.9172V50.0759M36.4695 48.9172H37.3116M33.101 50.0759V49.2069M33.101 50.0759H33.9431M33.9431 50.0759V49.2069M33.9431 50.0759H34.7853M34.7853 50.0759V49.2069M36.4695 50.0759H37.3116M37.3116 48.9172V50.0759M37.3116 48.9172H38.1537M37.3116 50.0759H38.1537M38.1537 48.9172V50.0759M37.3116 38.7793H37.8168H38.0414M37.3116 38.7793L34.7853 36.1724M37.3116 38.7793L36.845 34.3248M34.7853 36.1724L32.726 34.3248M34.7853 36.1724L36.845 34.3248M32.5323 36.1724L32.726 34.3248M32.5323 36.1724L34.7853 38.7793L37.0309 36.1724L34.7853 34.4345M32.5323 36.1724L34.7853 34.4345M36.845 34.3248L36.6744 32.6966M32.726 34.3248L34.5046 32.6966M32.726 34.3248L32.89 32.7591M34.7853 34.4345L32.89 32.7591M34.7853 34.4345L36.6744 32.6966M33.3817 28.0621L33.4368 26.9035M33.3817 28.0621L34.7853 29.5103M33.3817 28.0621H34.7853M33.3817 28.0621L33.2178 29.6278M33.4368 26.9035H36.1343M33.4368 26.9035C33.6175 26.9035 35.2147 24.8821 35.9906 23.8714M33.4368 26.9035L33.5518 24.4632L33.5799 23.8714M34.7853 29.5103L36.1888 28.0621M34.7853 29.5103L36.5172 31.1935M34.7853 29.5103L33.0539 31.1935M34.7853 28.0621H36.1888M34.7853 28.0621L36.3533 29.6278M34.7853 28.0621L33.2178 29.6278M33.2178 29.6278L33.0539 31.1935M33.2178 29.6278L34.7853 31.1935M36.1343 26.9035L36.1888 28.0621M36.1343 26.9035L35.9906 23.8714M36.1343 26.9035L33.5799 23.8714M35.9906 23.8714L33.6675 22.0229M35.9906 23.8714L35.9114 22.1891M33.5799 23.8714L33.6675 22.0229M33.5799 23.8714L35.9114 22.1891M36.1888 28.0621L36.3533 29.6278M36.5172 31.1935L36.3533 29.6278M36.5172 31.1935L35.066 32.6966M36.5172 31.1935L36.6744 32.6966M33.0539 31.1935L34.5046 32.6966M33.0539 31.1935L32.89 32.7591M36.3533 29.6278L34.7853 31.1935M34.7853 31.1935L32.89 32.7591M34.7853 31.1935L36.6744 32.6966M33.9431 14.7379H33.6624V15.6069M33.9431 14.7379V13.869L34.7853 13M33.9431 14.7379H35.6274M33.6624 15.6069V15.8966L33.9431 16.1862L33.8982 17.1423M33.6624 15.6069H35.9081M34.7853 13L35.6274 13.869V14.7379M34.7853 13V9.14435M35.6274 14.7379H35.9081V15.6069M33.8982 17.1423H35.6728M33.8982 17.1423L33.8202 18.7931M33.8982 17.1423L35.7526 18.8246M35.9081 15.6069V15.8966L35.6274 16.1862L35.6728 17.1423M35.6728 17.1423L33.8202 18.7931M35.6728 17.1423L35.7526 18.8246M33.8202 18.7931L35.8317 20.5068M33.8202 18.7931L33.7438 20.408M35.7526 18.8246L35.8317 20.5068M35.7526 18.8246L33.7438 20.408M35.8317 20.5068L33.6675 22.0229M35.8317 20.5068L35.9114 22.1891M33.7438 20.408L33.6675 22.0229M33.7438 20.408L35.9114 22.1891M34.5046 32.6966H35.066M35.066 32.6966L36.7502 34.3248" stroke="black" stroke-width="0.5"/>
<path d="M50.5207 57.2558C50.2159 56.6648 49.1168 57.0692 48.9323 57.8978C48.8608 58.2189 48.3194 55.9176 47.0342 57.8786C45.7489 59.8396 47.6933 55.2533 44.5 58.182M35.1921 57.1153C35.202 56.1284 35.6615 54.488 37.4199 55.8218C37.9366 54.7742 39.1159 54.9616 39.641 55.1862C39.5399 54.7465 39.7168 53.9368 41.2327 54.2153C42.0051 52.9071 43.2418 53.6872 43.7635 54.2408L45.0289 54.2536C45.4607 53.271 46.7624 51.7707 48.5155 53.6308C49.3038 50.7436 50.5444 51.129 51.0662 51.6826C51.6043 52.3471 51.7378 53.0076 51.5001 55C52.7556 53.8572 54.0001 53.5 54.5001 54M35.7951 60.0824C35.2995 59.0246 36.0236 58.33 36.4476 58.115C36.6051 56.9389 38.4762 56.3065 38.3491 57.8051C39.6145 57.8179 38.962 59.7853 38.9587 60.1143M40.2472 57.8243C40.7767 57.6103 41.7684 57.5765 41.4994 59.1529C41.7192 58.2778 42.3451 56.8585 43.0911 58.182C43.5999 57.9239 43.9314 58.5195 44.0336 58.8495M24.5819 57.7093L24.5752 58.3673M24.5752 58.3673L24.5587 60.0121M24.5752 58.3673C23.9425 58.3609 22.7417 58.2172 23.0001 57.6934C22.3476 57.453 21.5009 56.5456 22.8446 56.3775C22.2373 56.2203 20.9945 53.6385 23 54.5C22.954 53.9247 24.1235 53.1137 24.6182 54.0907C25.151 53.5478 26.1486 52.9218 25.877 54.7614C27.1504 53.9847 26.3966 55.5343 25.8605 56.4063C26.8162 55.7579 26.1636 57.7253 25.8473 57.7221C26.0924 58.5142 25.1014 58.4822 24.5752 58.3673ZM28.8584 57.7093L28.8518 58.3673M28.8518 58.3673L28.8353 60.0121M28.8518 58.3673C28.2191 58.3609 27.0182 58.2172 27.2766 57.6934C26.8603 57.1408 26.2801 56.1041 27.2898 56.3775C27.2931 56.0486 26.3672 53.7362 27.6227 54.7359C27.9457 54.0812 28.6522 53.0355 28.8948 54.0907C29.4275 53.5478 30.4252 52.9218 30.1536 54.7614C31.4269 53.9847 30.6731 55.5343 30.137 56.4063C31.0927 55.7579 30.4402 57.7253 30.1238 57.7221C30.369 58.5142 29.3779 58.4823 28.8518 58.3673ZM31.1059 54.4421C31.7387 54.4484 32.9382 54.7237 32.6745 55.7739C33.5372 55.7826 33.3461 56.5962 33.5393 56.9937M33.5393 56.9937C33.5587 57.0335 33.5819 57.0691 33.6104 57.0993C33.5858 57.0601 33.5621 57.025 33.5393 56.9937ZM33.5393 56.9937C32.9853 56.2323 32.9463 57.7246 32.3449 57.0865C31.844 56.5551 30.8664 57.291 30.4402 57.7253" stroke="black" stroke-width="0.7"/>
<path d="M11.75 51.2727C12.0695 51.3485 12.7083 51.5909 12.7083 51.9545M12.7083 51.9545C13.1077 51.803 14.0021 51.8182 14.3854 53.0909C14.7049 53.0151 15.3438 52.9545 15.3438 53.3182C15.8229 53.394 16.6854 53.7273 16.3021 54.4545C17.2058 53.1744 19.3223 55.6432 18.5 57.5M12.7083 51.9545C12.7083 51.7727 12.7083 49.7576 12.7083 47.8636M12.7083 47.8636L13.4271 47.4091M12.7083 47.8636H12.4688V47.4091L12.7083 47.2386M19.0773 54.5C19.2931 54.3485 19.7798 54.1364 20 54.5M19.1771 51.9545C19.4167 51.6515 19.9917 51.1364 20.375 51.5C20.5347 51.197 21.0458 50.6364 21.8125 50.8182M17.7307 54.4545C17.7307 54.2727 17.7396 49.606 17.7396 47.6364M18.4583 55.5V47.6364M13.4271 47.4091L18.6979 47.6364L18.9375 47.4091V46.9545L17.9792 46.915M13.4271 47.4091V51.7898M12.7083 47.2386L13.4271 46.7273M12.7083 47.2386V43.7727M17.9792 46.915L13.4271 46.7273M17.9792 46.915V44.2273L20.1354 44.3125M17.9792 46.915C18.059 46.2275 18.6021 44.7443 20.1354 44.3125M13.4271 46.7273V43.3182M12.7083 43.7727L13.4271 43.3182M12.7083 43.7727V43.0909M20.1354 44.3125H22.1768M13.4271 43.3182L28.2812 43.7727M13.4271 43.3182V42.4091M28.2812 43.7727V47.2386M28.2812 43.7727V43.3182L28.7604 42.8636M13.4271 42.4091L28.7604 42.8636M13.4271 42.4091V41.5M13.4271 42.4091L12.7083 43.0909M12.7083 43.0909H11.9896L12.1935 42.5275L12.8103 42.0138M28.2812 47.2386H28.5208V47.8636H28.2812M28.2812 47.2386H23.9688M28.7604 42.8636H29V41.7273C28.7703 41.7239 28.5303 41.7203 28.2812 41.7166M13.4271 41.5L12.8103 42.0138M13.4271 41.5V39.9091M13.4271 41.5C13.4732 41.5 14.103 41.5088 15.1042 41.5231M12.8103 42.0138V40.8182L13.4271 39.9091M28.2812 47.8636H23.9688M28.2812 47.8636V51.2727M23.9688 47.2386H23.25M23.9688 47.2386V46.5M28.2812 41.7166V39.9091M28.2812 41.7166C27.8291 41.7099 27.3472 41.7028 26.8437 41.6954M23.9688 47.8636H23.25M23.9688 47.8636V54M23.25 47.2386V47.8636M23.25 47.2386C23.4896 46.8409 22.2917 44.9091 20.8542 44.9091C20.3274 44.9091 19.881 45.1635 19.5289 45.4974M23.25 47.2386L22.2917 47.5038M23.9688 46.5V44.3125H23.7292H22.1768M23.9688 46.5C23.5854 45.5909 22.6559 44.6155 22.1768 44.3125M23.25 47.8636L22.2917 48.0151M23.25 47.8636V53.7727M19.5289 45.4974C19.1124 45.8924 18.8277 46.3988 18.6979 46.7273M19.5289 45.4974C20.1304 45.2886 21.525 45.3977 22.2917 47.5038M22.2917 47.5038L21.8125 47.6364V48.0909L22.2917 48.0151M22.2917 48.0151V54.1426M13.4271 39.9091H15.1042M15.1042 41.5231V39.9091M15.1042 41.5231C15.5234 41.5292 16.0078 41.5362 16.5417 41.544M28.2812 39.9091H28.5208V39.6818V39.4545V39H13.4271L12.2292 40.3636L12.7083 40.8182M28.2812 39.9091H26.8437M26.8437 41.6954V39.9091M26.8437 41.6954C26.4559 41.6896 26.0554 41.6837 25.6458 41.6776M15.1042 39.9091H16.5417M16.5417 41.544V39.9091M16.5417 41.544C16.9182 41.5494 17.3193 41.5553 17.7396 41.5614M16.5417 39.9091H17.7396M26.8437 39.9091H25.6458M25.6458 39.9091H24.4479M25.6458 39.9091C25.6458 40.0909 25.6458 41.1639 25.6458 41.6776M25.6458 41.6776C25.2536 41.6719 24.8532 41.666 24.4479 41.66M17.7396 39.9091V41.5614M17.7396 39.9091H19.1771M17.7396 41.5614C18.1983 41.5681 18.6798 41.5751 19.1771 41.5824M19.1771 39.9091V41.5824M19.1771 39.9091H20.6146M19.1771 41.5824C19.6443 41.5893 20.1255 41.5963 20.6146 41.6035M20.6146 39.9091V41.6035M20.6146 39.9091H21.8125M20.6146 41.6035C21.0097 41.6093 21.4101 41.6152 21.8125 41.6211M21.8125 39.9091V41.6211M21.8125 39.9091H23.25M21.8125 41.6211C22.2904 41.6281 22.7714 41.6352 23.25 41.6423M23.25 39.9091V41.6423M23.25 39.9091H24.4479M23.25 41.6423C23.6519 41.6482 24.0523 41.6541 24.4479 41.66M24.4479 39.9091C24.4479 40.0909 24.4479 41.1521 24.4479 41.66M14.3854 41.0455V40.5909M15.8229 41.0455V40.5909M17.2604 41.0455V40.5909M18.4583 41.0455V40.5909M19.8958 41.0455V40.5909M21.3333 41.0455V40.5909M22.5313 41.0455V40.5909M23.9688 41.0455V40.5909M25.1667 41.0455V40.5909M26.3646 41.0455V40.5909M27.5625 41.0455V40.5909M14.1458 45.8182V44.4545H17.2604V45.8182H14.1458ZM24.6875 46.2727V44.9091H27.3229V46.2727H24.6875Z" stroke="black" stroke-width="0.45"/>
<path d="M15.2264 53V51.75H15.4528M15.4528 51.75L15.2264 51L15 50.25V49.5L15.4528 48.5L15.6792 48H16.8113L17.0377 48.25V49V49.5L17.2642 49.75V50.5L16.8113 51.25V51.5L16.5849 51.75M15.4528 51.75H16.5849M16.5849 51.75H17.0377V54M24.9623 54V51.75H25.1887M25.1887 51.75L24.9623 51L24.7358 50.25V49.5L25.1887 48.5L25.4151 48H26.5472L26.7736 48.25V49V49.5L27 49.75V50.5L26.5472 51.25V51.5L26.3208 51.75M25.1887 51.75H26.3208M26.3208 51.75H26.7736V54" stroke="black" stroke-width="0.45"/>
<path d="M39.5 46.5L41.2516 46H44.6855M44.6855 46L43.2138 49.2727H42.5597C42.1237 50 41.5132 51.0527 41.2516 51.3436M44.6855 46H45.5031M60.5 46H59.4025M59.4025 46H58.9119M59.4025 46L59.8931 47.2727M45.8302 52L46.8113 49.4545H47.3019L48.7736 46M48.7736 46H47.956M48.7736 46H56.1321M47.956 46L46.4843 49.2727H45.9937L45.0126 52M47.956 46H45.5031M56.1321 46L57.1132 49.2727H57.7673L58 50M56.1321 46H56.6226M45.5031 46L43.8679 49.6364H43.0503L41.5786 52M56.6226 46L57.4403 48.9091H58.4214L58.5849 49.2727M56.6226 46H58.9119M58.9119 46L59.4025 47.4545M42.5597 51.0909H44.6855M43.2138 50.3636H45.0126M44.522 49.6364H45.3396M44.6855 48.9091H45.5031M45.0126 48H46.4843M45.5031 47.0909H46.6478M57.4403 46.7273H58.4214M57.7673 47.6364H58.9119M58.0943 48.3636H59.239" stroke="black" stroke-width="0.45"/>
<path d="M41 45.8821V43.2564M41 43.2564H41.9851M41 43.2564V42.4359H44.1194M41.9851 43.2564V45.8821M41.9851 43.2564H61.5224M44.1194 42.4359V38.6615M44.1194 42.4359H44.7761M43.4627 45.8821C43.3313 45.8821 43.408 44.1316 43.4627 43.2564H44.4478V45.8821M48.5522 45.8821V43.2564H49.7015V45.8821M54.1343 46.0462V43.2564H55.2836V46.0462M59.2239 45.8821V43.2564H60.209V45.8821M45.2687 46.0462C45.2139 45.5538 45.3672 44.5364 46.4179 44.4051C47.4687 44.2738 47.8408 45.4444 47.8955 46.0462M50.5224 45.8821C50.4677 45.3897 50.6209 44.3723 51.6716 44.241C52.7224 44.1097 53.0945 45.2803 53.1493 45.8821M55.9403 46.0462C55.8856 45.5538 56.0388 44.5364 57.0896 44.4051C58.1403 44.2738 58.5124 45.4444 58.5672 46.0462M61.8 42.4359H61.194M61.194 42.4359L61.0299 38.4974L60.5373 38.5138M61.194 42.4359H60.5373M48.0597 42.4359H48.8806M48.0597 42.4359V39.3179M48.0597 42.4359H47.2388M48.8806 42.4359V39.3179M48.8806 42.4359H49.3731M48.0597 39.3179V38.6615M48.0597 39.3179H44.7761V42.4359M47.2388 42.4359H44.7761M47.2388 42.4359V41.1231M48.0597 38.6615H48.8806M48.0597 38.6615H44.9403M48.0597 38.6615V37.5128M48.8806 38.6615V39.3179M48.8806 38.6615H49.3731M44.9403 38.6615H44.1194M44.9403 38.6615V37.5128M48.0597 37.5128V32.9179M48.0597 37.5128C46.7463 35.9374 45.4328 36.8564 44.9403 37.5128M48.8806 39.3179L56.2901 39.1538M49.3731 38.6615V34.7231M49.3731 38.6615H50.3582M49.3731 42.4359C49.3184 41.6154 49.406 40.0072 50.194 40.1385C50.9821 40.2697 51.0697 41.7248 51.0149 42.4359M49.3731 42.4359H51.0149M56.4328 42.4359H57.0896M56.4328 42.4359L56.2901 39.1538M56.4328 42.4359H51.0149M57.0896 42.4359L56.9539 39.3179M57.0896 42.4359H57.9104M56.2901 39.1538L56.2687 38.6615H56.9254L56.9539 39.3179M56.9539 39.3179H60.3731L60.5373 42.4359M57.9104 42.4359V40.959M57.9104 42.4359H58.8955M60.5373 38.5138L57.0896 38.6287M60.5373 38.5138V37.1846M60.5373 42.4359H58.8955M58.8955 42.4359V39.9744M44.1194 38.6615V35.5436L44.6119 34.8872M44.6119 34.8872V33.2462M44.6119 34.8872L44.9403 35.5436V37.5128M48.0597 32.9179L48.7164 31.441L49.3731 32.9179V33.7385M48.0597 32.9179L47.5672 32.7538H45.597L44.6119 33.2462M49.3731 33.7385L51.5075 32.0974M49.3731 33.7385V34.0667M44.6119 33.2462V33.0821C44.6119 31.1128 45.7065 29.9641 46.2537 29.6359V28.9795M49.3731 34.7231V34.0667M49.3731 34.7231H51.3433M50.3582 38.6615H51.3433M50.3582 38.6615V37.1846M55.7761 38.6615H56.1045L57.0896 38.6287M55.7761 38.6615V34.7231M55.7761 38.6615H54.791M57.0896 38.6287L57.0553 37.1846M55.7761 34.7231H53.806M55.7761 34.7231V34.0667M54.791 38.6615H53.806M54.791 38.6615V37.1846M56.9539 32.9179L57.7463 32.7538H59.5522L60.5373 33M56.9539 32.9179L56.4328 31.7586M56.9539 32.9179L57.0553 37.1846M60.5373 33L60.8657 33.0821V34.7231M60.5373 33C60.592 32.3162 60.3403 30.6533 58.8955 29.4718V28.8154M56.4328 31.7586L56.2901 31.441L55.7761 32.9179V33.7385M56.4328 31.7586C56.4839 31.1681 56.6956 30.6908 56.9539 30.3247M57.0553 37.1846C57.4498 36.6923 58.6985 36.0031 60.5373 37.1846M51.5075 32.0974V34.0667M51.5075 32.0974V31.1128L52.4925 30.4564M49.3731 34.0667H51.5075M51.5075 34.0667H52.5746M52.4925 30.4564L53.6418 31.1128V32.0974M52.4925 30.4564V29.6359M52.5746 34.0667H53.6418M52.5746 34.0667V31.9333M51.3433 34.7231V38.6615M51.3433 34.7231H53.806M51.3433 38.6615H53.806M53.806 34.7231V38.6615M55.7761 34.0667H53.6418M55.7761 34.0667V33.7385M53.6418 34.0667V32.0974M55.7761 33.7385L53.6418 32.0974M52.1642 29.9641H52.8209M47.8955 49C48.0269 48.8687 50.796 48.9453 52.1642 49M53.6418 49H55.2836M60.8657 34.7231L60.5373 35.0513V37.1846M60.8657 34.7231L61.3582 35.0513M61.3582 35.0513L61.8 42M61.3582 35.0513H62.3433V34.559H62.6716V38.5M58.8955 28.8154H57.9104M58.8955 28.8154V27.6667M58.403 26.6821L58.8955 27.3385V27.6667M58.403 26.6821V26.1897M58.403 26.6821L57.9104 27.3385V27.6667M58.8955 27.6667H57.9104M57.9104 27.6667V28.8154M56.9539 30.3247C57.2735 29.8718 57.6644 29.5889 57.9104 29.4718V28.8154M56.9539 30.3247V29.8162M56.9539 29.8162V29.3077L56.597 29.1436M56.9539 29.8162C52.9051 27.9912 49.6658 29.1544 48.5522 29.9641M56.597 29.1436V27.3385L56.2901 27.1744C56.3377 26.2991 55.8746 24.1221 53.6418 22.4154C53.5391 22.3641 53.3401 22.0624 53.3159 21.2667M56.597 29.1436C53.5761 27.5682 50.3035 28.3778 49.0448 28.9795V27.5026C49.8657 27.0103 52.2955 26.2226 55.4478 27.0103M53.3159 21.2667H52.002M53.3159 21.2667C53.3143 21.2141 53.3134 21.1595 53.3134 21.1026C53.3134 20.5238 53.3134 20.0014 53.3134 19.6256M52.6567 17.9846C53.1821 18.5097 53.3134 18.9692 53.3134 19.1333C53.3134 19.2346 53.3134 19.4048 53.3134 19.6256M52.6567 17.9846V17M52.6567 17.9846C52.1349 18.5097 52.0044 18.9692 52.0044 19.1333V19.6256M53.3134 19.6256C52.7881 19.3631 52.2219 19.5162 52.0044 19.6256M52.0044 19.6256V21.1026C52.0044 21.1595 52.0036 21.2141 52.002 21.2667M52.9851 17.4923H52.3284M49.048 27.1744C49.0007 26.2991 49.4606 24.1221 51.6783 22.4154C51.7803 22.3641 51.9779 22.0624 52.002 21.2667M46.7463 26.8462L47.2388 27.5026V27.8308M46.7463 26.8462V26.3538M46.7463 26.8462L46.2537 27.5026V27.8308M47.2388 27.8308V28.9795M47.2388 27.8308H46.2537M46.2537 27.8308V28.9795M46.2537 28.9795H47.2388M47.2388 28.9795V29.6359C47.5672 29.7453 48.3355 30.5254 48.5982 31.707M44.2836 35.2154H42.806L42.6418 35.3795V42.4359M46.4179 39.9744V42.2718M58.403 33.7385V35.0513M59.0597 33.7385V35.0513M45.4328 36.0359L45.9254 35.8718H47.5672M60.0448 35.8718L59.5522 35.5436H58.0746M46.2537 35.0513V34.0667M46.9104 35.0513V34.0667M51.8358 42.4359C51.7811 41.6154 51.8687 40.0072 52.6567 40.1385C53.4448 40.2697 53.5323 41.7248 53.4776 42.4359M54.2985 42.4359C54.2438 41.6154 54.3313 40.0072 55.1194 40.1385C55.9075 40.2697 55.995 41.7248 55.9403 42.4359M48.5522 29.4718V29.9641M48.5522 29.9641V30.4564M52.4925 35.8718V37.5128M49.3731 31.2769V32.0974M50.3582 30.7846V32.4256M54.9552 30.7846V32.4256M55.9403 31.1128V31.7586" stroke="black" stroke-width="0.45"/>
<path d="M26.85 17.15H12.15V25.85H26.85V17.15Z" stroke="black" stroke-width="0.3"/>
<path d="M17 17H12V26H17V17Z" fill="black"/>
<path d="M27 17H22V26H27V17Z" fill="black"/>
<mask id="mask0_18_494" style="mask-type:luminance" maskUnits="userSpaceOnUse" x="21" y="30" width="1" height="1">
<path d="M21.153 30.9042C21.1904 30.8945 21.205 30.826 21.1856 30.7512C21.1663 30.6763 21.1202 30.6235 21.0828 30.6332C21.0454 30.6429 21.0308 30.7114 21.0502 30.7863C21.0696 30.8611 21.1156 30.9139 21.153 30.9042Z" fill="white"/>
</mask>
<g mask="url(#mask0_18_494)">
<path d="M21.1856 30.7511L20.992 30.8013C20.9956 30.8152 20.9932 30.819 20.995 30.8103C20.996 30.806 20.9997 30.7904 21.0133 30.7713C21.0278 30.7507 21.0567 30.7225 21.1028 30.7105L21.153 30.9041L21.2032 31.0977C21.3347 31.0637 21.3754 30.9447 21.3862 30.8938C21.3999 30.8297 21.395 30.7619 21.3793 30.701L21.1856 30.7511ZM21.153 30.9041L21.1028 30.7105C21.149 30.6986 21.1879 30.7092 21.2106 30.7201C21.2318 30.7303 21.2426 30.742 21.2456 30.7454C21.2514 30.7521 21.2474 30.7499 21.2438 30.7361L21.0502 30.7862L20.8566 30.8364C20.8724 30.8973 20.9011 30.959 20.9441 31.0083C20.9783 31.0476 21.0716 31.1318 21.2032 31.0977L21.153 30.9041ZM21.0502 30.7862L21.2438 30.7361C21.2402 30.7222 21.2426 30.7184 21.2408 30.727C21.2399 30.7314 21.2361 30.7469 21.2225 30.7661C21.208 30.7866 21.1792 30.8148 21.133 30.8268L21.0828 30.6332L21.0326 30.4396C20.9011 30.4737 20.8605 30.5926 20.8496 30.6436C20.8359 30.7076 20.8408 30.7754 20.8566 30.8364L21.0502 30.7862ZM21.0828 30.6332L21.133 30.8268C21.0868 30.8388 21.0479 30.8281 21.0252 30.8172C21.004 30.8071 20.9932 30.7953 20.9903 30.7919C20.9845 30.7853 20.9884 30.7874 20.992 30.8013L21.1856 30.7511L21.3793 30.701C21.3635 30.64 21.3347 30.5783 21.2917 30.529C21.2575 30.4898 21.1642 30.4055 21.0326 30.4396L21.0828 30.6332Z" fill="black"/>
</g>
<path d="M19.4459 30.7321C19.4941 30.8064 19.461 30.8366 19.4384 30.8425C19.3753 30.7384 19.2443 30.5675 19.2252 30.717C19.1489 30.5344 19.2353 30.2446 19.288 30.1225L19.2047 30.1168C18.9975 30.3511 19.0534 30.6831 19.1073 30.8199L19.0746 30.9729C18.8649 31.0561 18.8443 30.8278 18.8602 30.7032C18.7975 30.6471 18.721 30.5007 18.9167 30.3633C18.9147 30.1325 19.0898 30.1016 19.1776 30.115L19.2047 30.1168L19.288 30.1225L19.4485 30.0447C19.4427 30.0222 19.4631 29.9615 19.5915 29.8993C19.72 29.8371 19.8098 29.9511 19.8386 30.0159C19.9089 29.9616 20.0601 29.9224 20.1032 30.2004C20.4052 30.5847 20.061 30.5486 19.8511 30.4825C19.8049 30.6391 19.6287 30.6004 19.5463 30.5615C19.5413 30.6351 19.5142 30.7722 19.4459 30.7321Z" fill="black"/>
<path d="M20.4304 31.7419C20.5145 31.6479 20.6532 31.4023 20.5359 31.1725M20.4141 31.8184C20.4451 31.7984 20.517 31.7412 20.5571 31.6729C20.6073 31.5877 20.6487 31.4685 20.6399 31.4346C20.6329 31.4076 20.6186 31.2595 20.6124 31.1888L20.6036 31.1549M20.0203 31.4145L19.9952 31.4571L20.0705 31.3292M19.7845 31.6202L19.9638 31.7544L19.9889 31.7118L19.8096 31.5775L19.8008 31.5437L19.792 31.5098M19.8485 31.1699C19.8573 31.2038 19.8934 31.2595 19.9677 31.2113M19.9576 31.0332L20.0592 31.0069M19.9213 30.7535C19.9472 30.807 20.0126 30.9105 20.0668 30.8965M20.0405 30.7949L20.0229 30.7272M19.7695 30.8651L19.752 30.7974M19.6328 30.756C19.6383 30.7305 19.6712 30.681 19.7595 30.687M19.9627 30.6343L20.0304 30.6168L20.0643 30.608L20.0468 30.5403L20.0994 30.7435L20.1082 30.7773M19.288 30.1225L19.4485 30.0447C19.4427 30.0222 19.4631 29.9615 19.5915 29.8993C19.72 29.8371 19.8098 29.9511 19.8386 30.0159C19.9089 29.9616 20.0601 29.9224 20.1032 30.2004C20.4052 30.5847 20.061 30.5486 19.8511 30.4825C19.8049 30.6391 19.6287 30.6004 19.5463 30.5615C19.5413 30.6351 19.5142 30.7722 19.4459 30.7321C19.4941 30.8064 19.461 30.8366 19.4384 30.8425C19.3753 30.7384 19.2443 30.5675 19.2252 30.717C19.1489 30.5344 19.2353 30.2446 19.288 30.1225ZM19.288 30.1225L19.2047 30.1168M19.2047 30.1168L19.1776 30.115C19.0898 30.1016 18.9147 30.1325 18.9167 30.3633C18.721 30.5007 18.7975 30.6471 18.8602 30.7032C18.8443 30.8278 18.8649 31.0561 19.0746 30.9729L19.1073 30.8199C19.0534 30.6831 18.9975 30.3511 19.2047 30.1168Z" stroke="black" stroke-width="0.2"/>
<path d="M20.0992 33.2531L20.1605 33.908C20.1747 33.9164 20.2084 33.9535 20.2295 34.0347C19.6976 34.5484 18.7451 34.7687 18.3354 34.8147C18.1612 33.9563 18.0746 32.1066 19.1222 31.5749C19.2635 31.8877 19.6349 32.389 19.9701 31.8974M18.9478 32.0177C19.164 32.1544 19.5998 32.4415 19.6138 32.4957C19.5963 32.4919 19.5787 32.4999 19.5613 32.5172M19.5613 32.5172C19.4807 32.5968 19.4032 32.8736 19.3527 33.1054M19.5613 32.5172L19.7932 32.6299M18.7054 32.8952C18.8719 33.0263 19.2269 33.2898 19.3152 33.2959M19.3152 33.2959C19.3378 33.29 19.401 33.2643 19.4682 33.189M19.3152 33.2959C19.3248 33.2408 19.3375 33.1752 19.3527 33.1054M19.3527 33.1054C19.654 33.3513 20.1382 33.512 20.3415 32.8853M20.3415 32.8853L20.379 32.9143M20.3415 32.8853C20.4079 32.6805 20.4444 32.3915 20.4346 31.9938M20.4029 31.4961C20.4206 31.6783 20.4309 31.8438 20.4346 31.9938M20.4346 31.9938C20.5364 32.0759 20.754 32.2363 20.6998 32.2504C20.657 32.2615 20.5291 32.5352 20.44 32.755M19.7932 32.6299L19.7768 32.7064M19.7932 32.6299C19.8806 32.2699 20.062 31.5194 20.0881 31.3969M20.379 32.9143L20.4165 32.9433L20.4993 32.8444M20.379 32.9143C20.3949 32.8692 20.416 32.8141 20.44 32.755M20.44 32.755C20.5622 32.9012 20.859 33.1447 21.0687 32.9499C21.2785 32.755 21.1136 31.8678 21.0049 31.4485C21.0861 31.3431 21.2363 31.1139 21.1881 31.0396M20.7088 32.5372L20.6738 31.4259L20.7491 31.2979" stroke="black" stroke-width="0.2"/>
<mask id="mask1_18_494" style="mask-type:luminance" maskUnits="userSpaceOnUse" x="19" y="30" width="1" height="2">
<path d="M19.2891 31.2426C19.3827 31.2183 19.431 31.0926 19.397 30.9616C19.3631 30.8307 19.2598 30.7442 19.1663 30.7684C19.0728 30.7927 19.0245 30.9185 19.0584 31.0494C19.0923 31.1803 19.1956 31.2668 19.2891 31.2426Z" fill="white"/>
</mask>
<g mask="url(#mask1_18_494)">
<path d="M19.397 30.9616L19.2034 31.0118C19.2111 31.0416 19.2071 31.0627 19.2041 31.0704C19.2028 31.0738 19.2031 31.0711 19.2084 31.0658C19.2142 31.06 19.2245 31.0527 19.2389 31.049L19.2891 31.2426L19.3393 31.4362C19.4648 31.4037 19.5416 31.3074 19.5775 31.2138C19.6137 31.1198 19.6168 31.0126 19.5906 30.9115L19.397 30.9616ZM19.2891 31.2426L19.2389 31.049C19.2533 31.0452 19.2659 31.0466 19.2738 31.0489C19.281 31.0509 19.2825 31.0531 19.2798 31.0508C19.2735 31.0455 19.2597 31.029 19.2519 30.9992L19.0583 31.0494L18.8647 31.0996C18.8909 31.2007 18.9458 31.2929 19.023 31.3575C19.0998 31.4219 19.2138 31.4687 19.3393 31.4362L19.2891 31.2426ZM19.0583 31.0494L19.2519 30.9992C19.2442 30.9695 19.2483 30.9483 19.2512 30.9406C19.2525 30.9372 19.2522 30.9399 19.247 30.9452C19.2412 30.951 19.2308 30.9583 19.2164 30.962L19.1662 30.7684L19.1161 30.5748C18.9906 30.6074 18.9137 30.7036 18.8778 30.7972C18.8417 30.8912 18.8385 30.9984 18.8647 31.0996L19.0583 31.0494ZM19.1662 30.7684L19.2164 30.962C19.202 30.9658 19.1894 30.9644 19.1815 30.9621C19.1743 30.9601 19.1728 30.9579 19.1756 30.9602C19.1819 30.9655 19.1957 30.982 19.2034 31.0118L19.397 30.9616L19.5906 30.9115C19.5644 30.8103 19.5096 30.7181 19.4324 30.6535C19.3555 30.5891 19.2416 30.5423 19.1161 30.5748L19.1662 30.7684Z" fill="black"/>
</g>
<path d="M19.1161 30.8537C19.0291 30.6112 18.9739 30.1099 19.4485 30.0447C19.0938 30.1624 19.1343 30.5216 19.2184 30.7426M19.2184 30.7426C19.229 30.7704 19.2403 30.796 19.2515 30.8186M19.2184 30.7426C19.229 30.7198 19.2776 30.6962 19.387 30.7835C19.5866 31.1076 19.4108 31.2472 19.2979 31.2764M19.2803 31.2087L19.2979 31.2764M19.2979 31.2764L19.1525 31.5236M19.1525 31.5236L19.1222 31.5749M19.1525 31.5236C19.1918 31.5984 19.253 31.6978 19.3222 31.7889M19.3222 31.7889C19.4349 31.8518 19.6804 31.9435 19.7606 31.8071L19.7481 31.6785M19.3222 31.7889C19.4119 31.9068 19.515 32.0106 19.6013 32.0291C19.644 32.0541 19.7511 32.077 19.8384 31.9676C19.8825 31.9124 19.9155 31.86 19.9425 31.8116M19.7481 31.6785L19.9425 31.8116M19.7481 31.6785L19.792 31.5098L19.8171 31.4672M19.9425 31.8116C19.9824 31.7402 20.0092 31.6773 20.0391 31.6265L20.0881 31.3969C20.0617 31.2953 20.0224 31.0598 20.0756 30.9303C20.1421 30.7686 20.0819 30.6757 20.1747 30.6155C20.249 30.5674 20.3578 30.5319 20.403 30.5202M19.8171 31.4672L19.6729 31.4684M19.8171 31.4672C19.8711 31.4893 19.9872 31.5098 20.0203 31.4145M20.403 30.5202L20.4456 30.5453L20.4544 30.5792L20.4293 30.6218M20.403 30.5202L20.5838 30.4734M20.4293 30.6218L20.3955 30.6306L20.3365 30.682L20.2688 30.6996L20.2437 30.7422L20.2361 30.8526C20.2754 30.8183 20.3761 30.7513 20.4644 30.7573C20.5748 30.7648 20.6262 30.8238 20.6011 30.8664M20.4293 30.6218L20.5577 30.5886M20.5838 30.4734L20.5577 30.5886M20.5838 30.4734L20.7417 30.4325L20.8196 30.5022M20.6011 30.8664L20.6275 30.968M20.6011 30.8664C20.5359 30.8472 20.3904 30.8343 20.3302 30.9367M20.5577 30.5886L20.8357 30.5165L20.8196 30.5022M20.6275 30.968C20.551 30.9517 20.3964 30.9412 20.3904 31.0295M20.6275 30.968L20.6406 31.0188M20.6406 31.0188L20.6538 31.0696M20.6406 31.0188C20.7077 31.0918 20.8437 31.2445 20.8507 31.2716M20.6538 31.0696C20.5773 31.0533 20.4245 31.0495 20.4255 31.1649M20.6538 31.0696L20.6801 31.1712C20.6649 31.165 20.6448 31.1589 20.623 31.1555M20.623 31.1555C20.5674 31.1467 20.5007 31.1554 20.4769 31.2239C20.4355 31.3431 20.5622 31.2741 20.4117 31.5299M20.623 31.1555L20.7579 31.3318M20.6805 31.0627C20.6829 31.0284 20.6968 30.9879 20.7313 30.9874M20.7313 30.9874C20.7369 30.9873 20.7431 30.9883 20.7499 30.9905M20.7313 30.9874L20.6716 30.8121L20.6753 30.7027L20.7266 30.6532L20.9887 30.5492L20.9328 30.4728L20.8196 30.5022M20.9435 31.2114C20.8522 31.0632 20.7905 31.004 20.7499 30.9905M20.7499 30.9905C20.7613 30.9147 20.8309 30.8311 21.0174 31.0533M21.0174 31.0533C21.0314 31.0699 21.0461 31.0883 21.0614 31.1086M21.0174 31.0533L21.0514 30.9305" stroke="black" stroke-width="0.2"/>
<mask id="mask2_18_494" style="mask-type:luminance" maskUnits="userSpaceOnUse" x="20" y="30" width="2" height="2">
<path d="M21.1881 31.0396C21.2816 31.0154 21.326 30.8745 21.2872 30.7248C21.2485 30.5752 21.1412 30.4735 21.0477 30.4978C20.9542 30.522 20.9098 30.663 20.9486 30.8126C20.9873 30.9622 21.0946 31.0639 21.1881 31.0396Z" fill="white"/>
</mask>
<g mask="url(#mask2_18_494)">
<path d="M21.2872 30.7248L21.0936 30.775C21.1051 30.8193 21.1015 30.8533 21.0965 30.8692C21.0942 30.8767 21.0931 30.875 21.0984 30.869C21.1046 30.8621 21.1177 30.8513 21.1379 30.846L21.1881 31.0396L21.2383 31.2332C21.3759 31.1976 21.4482 31.0842 21.478 30.9893C21.5089 30.8913 21.5081 30.7799 21.4808 30.6746L21.2872 30.7248ZM21.1881 31.0396L21.1379 30.846C21.1582 30.8408 21.1749 30.8438 21.1836 30.8469C21.1912 30.8496 21.1911 30.8515 21.1854 30.8461C21.1733 30.8347 21.1537 30.8067 21.1422 30.7624L20.9486 30.8126L20.755 30.8627C20.7822 30.968 20.8356 31.0657 20.9102 31.1364C20.9824 31.2049 21.1007 31.2689 21.2383 31.2332L21.1881 31.0396ZM20.9486 30.8126L21.1422 30.7624C21.1307 30.718 21.1343 30.6841 21.1393 30.6682C21.1416 30.6607 21.1427 30.6623 21.1374 30.6683C21.1312 30.6753 21.1181 30.6861 21.0979 30.6913L21.0477 30.4977L20.9975 30.3041C20.8599 30.3398 20.7876 30.4532 20.7578 30.5481C20.7269 30.6461 20.7277 30.7574 20.755 30.8627L20.9486 30.8126ZM21.0477 30.4977L21.0979 30.6913C21.0776 30.6966 21.0609 30.6935 21.0522 30.6904C21.0446 30.6877 21.0447 30.6858 21.0504 30.6912C21.0625 30.7027 21.0821 30.7306 21.0936 30.775L21.2872 30.7248L21.4808 30.6746C21.4536 30.5693 21.4002 30.4716 21.3256 30.4009C21.2534 30.3325 21.1351 30.2685 20.9975 30.3041L21.0477 30.4977Z" fill="black"/>
</g>
<path fill-rule="evenodd" clip-rule="evenodd" d="M18.4119 34.831L19.1192 36.1656C19.1672 36.1456 19.2227 36.1223 19.2821 36.097C19.4765 36.0144 19.713 35.9117 19.8658 35.8392C19.9626 35.7932 20.0259 35.7594 20.0236 35.7506C20.0165 35.7235 19.8468 35.2543 19.7628 35.0231L20.1453 35.1046L20.7625 34.8363C20.826 34.6632 20.9735 34.3118 21.0548 34.2907C21.136 34.2696 20.5217 34.1397 20.2044 34.0774C19.9744 34.3056 19.2939 34.7759 18.4119 34.831Z" fill="black"/>
<path d="M19.2821 36.097C19.2227 36.1223 19.1672 36.1456 19.1192 36.1656L18.4119 34.831C19.2939 34.7759 19.9744 34.3056 20.2044 34.0774C20.5217 34.1397 21.136 34.2696 21.0548 34.2907C20.9735 34.3118 20.826 34.6632 20.7625 34.8363L20.1453 35.1046L19.7628 35.0231C19.8468 35.2543 20.0165 35.7235 20.0236 35.7506C20.0259 35.7594 19.9626 35.7932 19.8658 35.8392M19.2821 36.097C19.339 36.2236 19.4648 36.4953 19.513 36.5696C19.5732 36.6624 19.6095 36.9421 19.6534 37.1114C19.6885 37.2469 19.9615 37.7424 20.0935 37.9732L20.2239 38.3369C20.2892 38.3562 20.4229 38.3794 20.4359 38.3182C20.4522 38.2417 20.3757 38.2253 20.5363 38.1476C20.4051 37.6877 20.1338 36.734 20.0987 36.5985C20.0548 36.4292 19.9364 35.8325 19.8658 35.8392M19.2821 36.097C19.4765 36.0144 19.713 35.9117 19.8658 35.8392" stroke="black" stroke-width="0.2"/>
<path d="M20.0936 37.9732C20.1839 37.9498 20.3813 37.8842 20.4485 37.8089M20.224 38.337C20.2193 38.4057 20.2168 38.5054 20.2238 38.59M20.2238 38.59C20.2318 38.6865 20.2521 38.7634 20.2954 38.7521C20.397 38.7258 20.8385 38.756 21.0078 38.7121C21.104 38.7113 21.2961 38.6808 21.2951 38.5654C21.2948 38.5337 21.2868 38.5059 21.2734 38.4815M20.2238 38.59C20.5221 38.6337 21.1496 38.6733 21.2734 38.4815M20.5363 38.1476C20.5044 38.1754 20.6171 38.2295 20.7447 38.2743M20.7447 38.2743C20.696 38.258 20.6264 38.3411 20.5977 38.3847M20.7447 38.2743C20.7783 38.2861 20.8129 38.2973 20.8462 38.3072M21.2734 38.4815C21.2254 38.3948 21.1079 38.353 21.0217 38.3471C21.0025 38.3458 20.9736 38.3405 20.9392 38.3323M20.9392 38.3323C20.9111 38.3256 20.8793 38.3171 20.8462 38.3072M20.9392 38.3323C20.9004 38.3135 20.8542 38.4146 20.836 38.4675M20.8462 38.3072C20.7973 38.2935 20.7396 38.3807 20.7169 38.4261" stroke="black" stroke-width="0.2"/>
<path d="M19.9358 35.4119C19.9508 35.408 20.353 35.2371 20.8174 35.0389M20.8174 35.0389L21.002 35.0633C20.9635 35.1938 20.8818 35.492 20.8627 35.6416C20.8436 35.7911 20.7803 36.2532 20.751 36.4656M20.8174 35.0389C21.0764 34.9284 21.3547 34.8093 21.5961 34.706M20.7835 37.2884L20.9202 37.3976M20.7835 37.2884C20.684 37.2299 20.4584 37.1775 20.352 37.4364M20.7835 37.2884L20.7045 36.9836M20.7835 37.2884L20.9282 36.934M20.9202 37.3976C20.9609 37.4443 21.0054 37.5096 21.0379 37.5839M20.9202 37.3976C20.976 37.258 21.0406 37.0973 21.1102 36.9255M20.9282 36.934L20.7459 36.8645C20.6771 36.8533 20.6638 36.784 20.6751 36.7021M20.9282 36.934L20.9603 36.8552M21.0379 37.5839C21.1148 37.7598 21.1246 37.9861 20.8586 38.1363M21.0379 37.5839L21.1083 37.5657L21.0051 37.231M21.1102 36.9255C21.1552 36.8142 21.2023 36.6981 21.2505 36.5801M21.1102 36.9255C21.2778 37.011 21.6292 37.156 21.6932 37.0527M22.1547 34.9092C22.143 34.864 22.1093 34.7619 22.0682 34.7148C22.0374 34.6795 21.6145 35.6875 21.2505 36.5801M22.1547 34.9092C22.2421 34.8745 22.4151 34.7984 22.4081 34.7713M22.1547 34.9092L22.1723 34.9769L22.2488 34.9933M21.2505 36.5801C21.2464 36.5902 21.3414 36.6699 21.4229 36.7353M22.4081 34.7713C22.4011 34.7442 22.1126 34.2816 21.9692 34.0538M22.4081 34.7713L22.4595 34.8302L22.4771 34.898M22.2488 34.9933L22.3842 34.9581L22.4771 34.898M22.2488 34.9933C22.2124 35.0388 22.1655 35.1739 22.2688 35.3495L23.3021 37.1056C23.3592 37.1566 23.4567 37.2092 23.4313 37.0546M21.9692 34.0538C21.9127 34.0684 21.7948 34.1062 21.7748 34.1403M21.9692 34.0538L22.0281 34.0023L21.9767 33.9434L21.7986 33.9534L21.744 34.0217M22.4771 34.898C22.5364 34.8946 22.6675 34.9354 22.7166 35.125M21.7748 34.1403C21.7589 34.1672 21.8237 34.2797 21.8799 34.366M21.7748 34.1403L21.707 34.1578L21.6895 34.0901L21.744 34.0217M21.744 34.0217L21.5415 33.6586M21.8799 34.366C21.895 34.3891 21.9094 34.4103 21.9215 34.4275L21.8799 34.366ZM21.8799 34.366L19.8581 35.2514M20.6643 37.247C20.6573 37.2199 20.2175 36.2665 19.9985 35.7932M20.0724 36.4969L20.0975 36.4542C20.2129 36.7135 20.4521 37.237 20.4862 37.257L20.2655 37.242M20.8586 38.1363L20.7107 37.7048C20.6625 37.6306 20.617 37.6689 20.6003 37.6973L20.7232 38.1714M20.8586 38.1363L20.9025 38.3057M20.7232 38.1714C20.6961 38.1785 20.5814 38.1359 20.5275 38.1137M20.7232 38.1714C20.729 38.194 20.7425 38.246 20.7495 38.273M20.0685 38.0158L18.7164 37.6795C18.6365 37.6038 18.5207 37.4266 18.6963 37.3233M18.6963 37.3233C18.6502 37.4798 18.6729 37.5583 18.69 37.5779L19.9042 37.6609M18.6963 37.3233L19.1104 36.1318M19.2208 36.1393C19.1106 36.4639 18.9169 37.0417 18.8361 37.3047M18.8361 37.3047L18.9422 37.2957C18.9673 37.2531 19.026 37.1728 19.0601 37.1929C19.0531 37.1658 19.2053 36.6373 19.2822 36.3764M18.8361 37.3047C18.8117 37.3842 18.7976 37.4349 18.7992 37.4412C18.8015 37.4501 18.8609 37.4591 18.9505 37.4673M19.8264 37.5003C19.695 37.5077 19.2029 37.4904 18.9505 37.4673M18.9505 37.4673C19.1169 37.4415 19.1437 37.3546 19.1291 37.2835M19.3675 36.4266L19.1027 37.218C19.1138 37.2357 19.124 37.2586 19.1291 37.2835M19.1291 37.2835L19.7487 37.3397M19.1379 37.3535L19.8089 37.4326M23.4313 37.0546L23.5555 36.9677C23.5869 36.9957 23.6493 37.0229 23.6483 36.9075M23.4313 37.0546C23.4288 37.0394 23.4251 37.0222 23.42 37.0028L23.3847 36.9396M22.5724 35.1262C22.4078 34.9376 22.3968 35.0995 22.4118 35.204L23.3847 36.9396M23.3847 36.9396L23.4953 36.8748M22.694 35.4561L23.4953 36.8748M23.4953 36.8748C23.5091 36.8351 23.559 36.786 23.6483 36.9075M23.6483 36.9075L22.8545 35.3784M21.5415 33.6586L21.381 33.7364C21.386 33.6628 21.3757 33.5209 21.2944 33.5419C21.2131 33.563 21.7849 33.3426 22.0809 33.2297C22.1378 33.2632 22.2261 33.3439 22.1248 33.399C22.0521 33.4386 21.8622 33.5221 21.7044 33.5897M21.5415 33.6586C21.5846 33.6406 21.642 33.6164 21.7044 33.5897M21.7044 33.5897C21.7095 33.6097 21.8429 33.8455 21.909 33.9609M20.751 36.4656C20.7911 36.5275 20.8967 36.6375 20.9981 36.5823C21.004 36.5333 21.037 36.4405 21.1212 36.4612M20.751 36.4656C20.7217 36.5272 20.6863 36.6209 20.6751 36.7021M21.1212 36.4612L21.2949 36.0355M21.1212 36.4612L20.9603 36.8552M20.6751 36.7021C20.7019 36.7168 20.8764 36.8103 20.9603 36.8552M21.5961 34.706C21.7025 34.6604 21.8016 34.6179 21.8888 34.5805L21.2949 36.0355M21.5961 34.706C21.6146 34.8579 21.5803 35.3365 21.2949 36.0355M21.0297 34.3334C21.2024 34.3488 21.5395 34.4041 21.5134 34.5265M21.0783 37.0313C21.3224 37.1367 21.7899 37.2951 21.7067 37.0853C21.7022 37.0741 21.6977 37.0632 21.6932 37.0527M21.6932 37.0527C21.6133 36.8677 21.5255 36.7994 21.49 36.7884M21.49 36.7884L21.3594 36.8609M21.49 36.7884C21.471 36.7735 21.4476 36.7551 21.4229 36.7353M21.4229 36.7353C21.3779 36.7262 21.3032 36.775 21.2715 36.8006" stroke="black" stroke-width="0.2"/>
<path d="M19.1969 36.3262L19.4528 36.4767L19.2797 36.0879L19.2208 36.1393L19.1969 36.3262Z" fill="black"/>
<path d="M19.1104 36.1318L19.069 36.2509C19.0176 36.192 18.7454 36.1179 18.3302 36.1894C17.9151 36.2608 17.8523 36.8554 17.8974 37.1689C17.9852 37.5076 18.1553 37.8852 18.2874 38.116C18.8617 38.7984 19.2857 38.7608 19.7172 38.6128C19.9028 38.4924 20.0191 38.1973 20.0597 37.982L20.2076 38.4135L20.2001 38.5238C19.766 39.3591 18.957 39.0267 18.4278 38.6578C17.8985 38.289 17.6867 37.332 17.634 37.1288C17.5813 36.9256 17.6278 36.4075 17.964 36.0313C18.233 35.7303 18.7484 35.8039 18.9725 35.8784L19.1104 36.1318Z" fill="black"/>
<path d="M20.4748 38.8864L20.4396 38.7509L20.974 38.7209L20.8398 38.9002L20.4748 38.8864Z" fill="black"/>
<path d="M21.2915 37.1568L21.2325 37.2082L21.0437 37.1236L21.0532 37.074L21.2915 37.1568Z" fill="black"/>
<path d="M20.8663 37.0501L20.7045 36.9836L20.7886 36.8896L20.9165 36.9648L20.8663 37.0501Z" fill="black"/>
<path d="M21.3032 33.5758L21.3471 33.7451L20.6196 34.0059C20.4289 33.9397 20.4992 33.8203 20.5581 33.7689L21.2606 33.5507L21.3032 33.5758Z" fill="black"/>
<path d="M22.6817 33.0379L22.1148 33.2209L22.2176 33.3388L22.032 33.4592C22.2435 33.3924 22.6734 33.2569 22.7005 33.2498C22.842 33.1264 22.747 33.0571 22.6817 33.0379Z" fill="black"/>
<path d="M22.7329 35.0485L22.403 35.1701L22.5924 35.4825C22.7362 35.4332 23.0392 35.3378 23.1004 35.3508C23.1616 35.3639 23.5005 35.5001 23.6623 35.5666L23.8931 35.7598C24.0214 35.8832 24.2919 36.1552 24.3471 36.2566C24.4411 36.3406 24.7446 37.0932 24.7797 37.2287C24.8148 37.3642 24.7934 37.8395 24.7106 38.0778C24.6278 38.3162 24.4597 38.5043 24.1975 38.6083C23.9354 38.7124 23.4249 38.5556 23.0323 38.2959C22.7183 38.0881 22.4207 37.5629 22.3112 37.3262C22.1608 36.9315 21.9727 36.0478 22.4243 35.6706C22.4103 35.6164 22.2864 35.4172 22.2262 35.3244C21.9879 35.2416 21.2325 37.2082 22.6171 38.3673C23.7248 39.2946 24.501 39.0357 24.7506 38.7903C24.961 38.5792 25.341 37.9723 25.1785 37.2338C24.9755 36.3106 24.248 35.5956 24.154 35.5115C23.9403 35.1332 23.1176 35.0452 22.7329 35.0485Z" fill="black"/>
<path d="M21.0281 37.1166L21.0437 37.1236M21.0437 37.1236L21.2325 37.2082L21.2915 37.1568L21.0532 37.074L21.0437 37.1236ZM19.4528 36.4767C19.4187 36.4567 19.268 36.368 19.1969 36.3262L19.2208 36.1393L19.2797 36.0879L19.4528 36.4767ZM19.069 36.2509L19.1104 36.1318L18.9725 35.8784C18.7484 35.8039 18.233 35.7303 17.964 36.0313C17.6278 36.4075 17.5813 36.9256 17.634 37.1288C17.6867 37.332 17.8985 38.289 18.4278 38.6578C18.957 39.0267 19.766 39.3591 20.2001 38.5238L20.2076 38.4135L20.0597 37.982C20.0191 38.1973 19.9028 38.4924 19.7172 38.6128C19.2857 38.7608 18.8617 38.7984 18.2874 38.116C18.1553 37.8852 17.9852 37.5076 17.8974 37.1689C17.8523 36.8554 17.9151 36.2608 18.3302 36.1894C18.7454 36.1179 19.0176 36.192 19.069 36.2509ZM20.4396 38.7509L20.4748 38.8864L20.8398 38.9002L20.974 38.7209L20.4396 38.7509ZM20.7045 36.9836L20.8663 37.0501L20.9165 36.9648L20.7886 36.8896L20.7045 36.9836ZM21.3471 33.7451L21.3032 33.5758L21.2606 33.5507L20.5581 33.7689C20.4992 33.8203 20.4289 33.9397 20.6196 34.0059L21.3471 33.7451ZM22.1148 33.2209L22.6817 33.0379C22.747 33.0571 22.842 33.1264 22.7005 33.2498C22.6734 33.2569 22.2435 33.3924 22.032 33.4592L22.2176 33.3388L22.1148 33.2209ZM22.403 35.1701L22.7329 35.0485C23.1176 35.0452 23.9403 35.1332 24.154 35.5115C24.248 35.5956 24.9755 36.3106 25.1785 37.2338C25.341 37.9723 24.961 38.5792 24.7506 38.7903C24.501 39.0357 23.7248 39.2946 22.6171 38.3673C21.2325 37.2082 21.9879 35.2416 22.2262 35.3244C22.2864 35.4172 22.4103 35.6164 22.4243 35.6706C21.9727 36.0478 22.1608 36.9315 22.3112 37.3262C22.4207 37.5629 22.7183 38.0881 23.0323 38.2959C23.4249 38.5556 23.9354 38.7124 24.1975 38.6083C24.4597 38.5043 24.6278 38.3162 24.7106 38.0778C24.7934 37.8395 24.8148 37.3642 24.7797 37.2287C24.7446 37.0932 24.4411 36.3406 24.3471 36.2566C24.2919 36.1552 24.0214 35.8832 23.8931 35.7598L23.6623 35.5666C23.5005 35.5001 23.1616 35.3639 23.1004 35.3508C23.0392 35.3378 22.7362 35.4332 22.5924 35.4825L22.403 35.1701Z" stroke="black" stroke-width="0.2"/>
</g>
<defs>
<clipPath id="clip0_18_494">
<rect width="69" height="69" fill="white"/>
</clipPath>
</defs>
</svg>
