<svg width="245" height="134" viewBox="0 0 245 134" fill="none" xmlns="http://www.w3.org/2000/svg">
<path d="M77.3277 77.5685C78.0041 78.6894 80.0294 80.5251 82.7193 78.9018L84.1247 80.6224L79.8231 84.1358C78.8599 83.2492 76.8548 82.2575 75.1341 83.6629C73.4135 85.0682 73.9848 87.231 74.6612 88.3518L72.0803 90.4598C70.3938 88.3951 67.9648 89.5185 66.9611 90.3382C64.9594 91.3995 65.8118 93.9064 66.4882 95.0272L63.9073 97.1352C58.2517 93.7228 58.1095 98.5241 58.7454 101.351L55.7343 103.811C53.7668 101.402 51.5018 102.726 50.6152 103.689M42.8002 102.901L40.7283 103.876L38.6203 101.295C41.4705 94.9512 36.9972 95.2105 34.4042 96.1332L32.2962 93.5522C34.8654 86.8642 30.3218 87.0375 27.7288 87.9602L26.6748 86.6697L25.6393 85.4019C27.0714 83.0579 28.1789 78.6777 21.1521 79.9079L19.081 77.3723C20.5131 75.0283 21.6897 70.7326 14.939 72.3009L12.8679 69.7653L14.2434 67.9373M45.0659 103.919C46.0291 104.805 47.4235 107.156 45.2956 109.468L46.701 111.189L50.5724 108.027C50.0777 107.714 49.19 106.861 49.5972 105.955M61.5 55C59.5098 54.4892 56.5779 54.4912 58.5757 49.3417L56.5047 46.806C53.922 47.7412 49.4778 48.0363 52.3626 41.7347L50.2916 39.199L48.2258 40.1818M45.9848 39.194C45.036 38.325 43.6716 36.0107 45.8044 33.7051L44.4237 32.0147L40.1221 35.528C40.7841 36.6312 41.3328 38.7663 39.6122 40.1717C37.8916 41.577 35.909 40.613 34.9602 39.744L32.3793 41.8521C34.0361 43.8806 32.4429 46.0273 31.4392 46.8471C29.9947 48.5905 27.736 47.2884 26.7872 46.4194L24.2063 48.5275C26.3516 54.666 21.6589 53.8959 19.0444 52.7435L16.0333 55.2028C17.9663 57.5695 16.212 59.5189 15.0932 60.1979M13.723 65.5442C13.061 64.441 11.0657 62.6419 8.38068 64.2713L7 62.5809L10.8714 59.4189C11.0732 59.9586 11.7179 60.982 12.6823 60.758M63 66L43.7503 42.6042L18.3711 63.3331L47.8833 99.4663L73.2626 78.7374L72.3016 77.5685" stroke="black"/>
<path d="M50.6647 91.4576L50.4001 90.3692M50.4001 90.3692C50.8542 89.4546 51.7774 87.5483 51.8368 87.2388M50.4001 90.3692L52.0178 89.0478L50.0036 88.6468M50.4001 90.3692L50.0036 88.6468M51.8368 87.2388L51.3895 85.3211M51.8368 87.2388L52.0286 88.0606M51.8368 87.2388L50.0036 88.6468M50.0036 88.6468L49.8313 87.8984M49.5783 86.8004L48.9392 86.0179M49.5783 86.8004L50.1217 86.3566M49.5783 86.8004L49.8313 87.8984M48.9392 86.0179L48.3 85.2353L49.0245 84.6436M48.9392 86.0179L49.4825 85.5741M50.1217 86.3566L49.4825 85.5741M50.1217 86.3566L50.665 85.9128M49.8313 87.8984L51.6664 86.3995M49.0245 84.6436L50.6546 83.3122M49.0245 84.6436L47.9338 82.273M49.0245 84.6436L49.6302 81.4443M49.4825 85.5741L50.0259 85.1303M50.665 85.9128L50.0259 85.1303M50.665 85.9128L51.2084 85.469M57.1853 80.5873L56.5462 79.8048M57.1853 80.5873L56.642 81.0311M57.1853 80.5873L58.2197 81.0471M56.5462 79.8048L55.907 79.0222L55.3637 79.466M56.5462 79.8048L56.0028 80.2486M56.642 81.0311L56.0986 81.4749M56.642 81.0311L56.0028 80.2486M58.2197 81.0471L56.4034 82.5305M58.2197 81.0471L58.9954 81.392M55.3637 79.466L53.7336 80.7974M55.3637 79.466L53.1862 77.983M55.3637 79.466L51.7735 79.1369M56.0028 80.2486L55.4595 80.6924M56.0986 81.4749L55.5553 81.9187M56.0986 81.4749L55.4595 80.6924M58.9954 81.392L60.0297 81.8517C59.115 82.2106 57.2636 82.9182 57.1755 82.8784M58.9954 81.392L57.1755 82.8784M58.9954 81.392L58.7192 83.5744L57.854 83.1842M55.3741 82.0666L57.1755 82.8784M57.1755 82.8784L57.854 83.1842M57.854 83.1842C53.5652 83.2005 52.1835 86.4418 52.0286 88.0606M52.0286 88.0606L52.1989 88.8999M50.6546 83.3122L53.7336 80.7974M50.6546 83.3122C50.6347 83.2754 48.8323 82.6042 47.9338 82.273M50.6546 83.3122L49.6302 81.4443M47.9338 82.273L46.843 79.9025M47.9338 82.273L48.6054 79.5767M49.6302 81.4443L46.843 79.9025M49.6302 81.4443L48.6054 79.5767M53.7336 80.7974L53.1862 77.983M53.7336 80.7974L51.7735 79.1369M46.843 79.9025L48.1833 78.8078M46.843 79.9025L46.5703 79.3098M48.6054 79.5767L48.1833 78.8078M49.92 75.7586L46.2976 78.7172L46.3286 78.784M49.92 75.7586L50.4644 76.1293M49.92 75.7586L49.6431 74.6802L45.5317 78.0382M46.3286 78.784L46.5703 79.3098M46.3286 78.784L45.2962 78.2305L45.5317 78.0382M50.4644 76.1293L51.0087 76.5001M50.4644 76.1293L46.5703 79.3098M45.5317 78.0382L45.2121 77.6469L45.52 77.3955M51.0087 76.5001L53.1862 77.983M51.0087 76.5001L51.7735 79.1369M51.0087 76.5001L49.8134 77.4764M45.52 77.3955L48.7802 74.7327M45.52 77.3955L45.712 74.3034M45.52 77.3955L44.2583 75.4907M53.1862 77.983L49.8134 77.4764M51.7735 79.1369L49.8134 77.4764M49.8134 77.4764L48.1833 78.8078M53.0192 89.5345C52.8527 87.6049 53.6822 83.8399 58.3356 84.2138C58.9781 84.2505 59.2118 84.3054 59.1403 84.535M50.0259 85.1303L50.5692 84.6865M55.4595 80.6924L55.0972 80.9882L54.9161 81.1362M50.5692 84.6865L51.2084 85.469M50.5692 84.6865L53.286 82.4675M51.2084 85.469L51.7518 85.0253M53.286 82.4675L53.9252 83.2501M53.286 82.4675L53.8294 82.0237M51.7518 85.0253L51.2724 84.4383M51.7518 85.0253L52.2951 84.5815M53.9252 83.2501L53.3818 83.6939M53.9252 83.2501L54.4685 82.8063M53.8294 82.0237L54.4685 82.8063M53.8294 82.0237L54.3727 81.58M52.2951 84.5815L51.8157 83.9946M52.2951 84.5815L52.8385 84.1377M52.8385 84.1377L52.3591 83.5508M52.8385 84.1377L53.3818 83.6939M53.3818 83.6939L52.9025 83.107M54.4685 82.8063L55.0119 82.3625M54.3727 81.58L55.0119 82.3625M54.3727 81.58L54.9161 81.1362M55.0119 82.3625L55.5553 81.9187M54.9161 81.1362L55.5553 81.9187M48.7802 74.7327L49.1062 74.4664L49.2511 74.3481M48.7802 74.7327L45.712 74.3034M48.7802 74.7327L46.0218 71.97M45.712 74.3034L43.3641 74.1407M45.712 74.3034L46.0218 71.97M44.2583 75.4907L43.3641 74.1407M44.2583 75.4907L47.1501 76.0641L47.161 73.1199L44.7533 73.1295M44.2583 75.4907L44.7533 73.1295M46.0218 71.97L45.0135 70.9602M43.3641 74.1407L43.6134 72.1037M43.3641 74.1407L42.6062 72.9968M44.7533 73.1295L42.6062 72.9968M44.7533 73.1295L45.0135 70.9602M40.3324 69.5652L39.7287 68.7537M40.3324 69.5652L42.0369 69.8037M40.3324 69.5652L41.2379 68.8256M40.3324 69.5652L41.0903 70.7091M39.7287 68.7537L41.4693 67.3321M39.7287 68.7537C39.8453 68.6584 39.7608 66.4515 39.7039 65.3599M39.7287 68.7537L38.4568 67.0448L38.1484 66.6304M42.0369 69.8037L42.1435 68.0859M42.0369 69.8037L44.0829 70.0278M42.0369 69.8037L41.8482 71.853M41.2379 68.8256L42.1435 68.0859M41.2379 68.8256L43.1134 69.0567M41.2379 68.8256L41.0903 70.7091M41.0903 70.7091L41.8482 71.853M41.0903 70.7091L42.9654 70.9405M41.4693 67.3321L42.1435 68.0859M41.4693 67.3321L39.7039 65.3599M41.4693 67.3321L38.1484 66.6304M39.7039 65.3599L37.1852 65.3357M39.7039 65.3599L38.7248 64.2654M38.1484 66.6304L37.1852 65.3357M38.1484 66.6304L38.7248 64.2654M42.1435 68.0859L43.1134 69.0567M44.0829 70.0278L43.1134 69.0567M44.0829 70.0278L43.9757 71.8078M44.0829 70.0278L45.0135 70.9602M41.8482 71.853L43.6134 72.1037M41.8482 71.853L42.6062 72.9968M43.1134 69.0567L42.9654 70.9405M42.9654 70.9405L42.6062 72.9968M42.9654 70.9405L45.0135 70.9602M33.3443 60.2701L33.1632 60.418L33.6426 61.0049M33.3443 60.2701L32.865 59.6832L32.929 58.6525M33.3443 60.2701L34.4311 59.3825M33.6426 61.0049L33.8024 61.2006L34.1433 61.2483L34.6417 61.9177M33.6426 61.0049L35.0915 59.8215M32.929 58.6525L33.9517 58.7956L34.4311 59.3825M32.929 58.6525L30.802 56.0484M34.4311 59.3825L34.6122 59.2346L35.0915 59.8215M34.6417 61.9177L35.7868 60.9825M34.6417 61.9177L35.5021 63.0738M34.6417 61.9177L36.7662 62.0767M35.0915 59.8215L35.2513 60.0171L35.23 60.3607L35.7868 60.9825M35.7868 60.9825L35.5021 63.0738M35.7868 60.9825L36.7662 62.0767M35.5021 63.0738L37.7453 63.1712M35.5021 63.0738L36.3436 64.2047M36.7662 62.0767L37.7453 63.1712M36.7662 62.0767L36.3436 64.2047M37.7453 63.1712L37.1852 65.3357M37.7453 63.1712L38.7248 64.2654M36.3436 64.2047L37.1852 65.3357M36.3436 64.2047L38.7248 64.2654M43.6134 72.1037L43.9757 71.8078M43.9757 71.8078L45.9606 72.02" stroke="black" stroke-width="0.5"/>
<path d="M67.4672 79.2107C66.9073 78.9676 66.3609 79.8932 66.7107 80.5893C66.8464 80.8591 65.1253 79.5375 65.3503 81.6778C65.5752 83.8181 64.2945 79.4287 63.725 83.3648M64.619 74.9321C63.9267 74.8415 62.821 75.2878 63.937 77.798C61.6107 77.4936 61.5564 79.3159 61.8201 80.2651L60.9131 80.9907C60.2207 80.9001 58.8887 81.0636 59.0991 82.442C57.8598 83.1242 58.2042 83.8025 58.5313 84.0564C58.0277 84.2016 57.0805 84.7531 57.3214 85.7979C55.297 85.8707 55.9228 87.3035 56.4888 88.0109M58.6402 89.77C57.6737 89.3058 57.7852 88.3916 57.9617 87.9925C57.3908 87.0651 58.3538 85.5292 59.1336 86.6683C60.0406 85.9426 60.719 87.7201 60.9076 87.9559M60.4941 85.5798C60.7462 85.1203 61.4315 84.5204 62.1556 85.7972C61.8037 85.0476 61.4246 83.6752 62.7234 84.1829C62.9353 83.704 63.5167 83.9349 63.781 84.1102M49.2911 94.5937L49.6684 95.0653M49.6684 95.0653L50.6117 96.2441M49.6684 95.0653C49.2149 95.4281 48.2778 96.0231 48.1574 95.5008C47.5539 95.7087 46.4252 95.5553 47.2828 94.6556C46.7599 94.8965 44.3773 93.7828 46.3032 93.2307C45.9364 92.8485 46.2969 91.5929 47.2159 92.0002C47.2794 91.3049 47.6251 90.2806 48.5002 91.7461C48.9544 90.4546 49.3183 91.9939 49.4435 92.925C49.7464 91.9092 50.4248 93.6866 50.1981 93.868C50.8322 94.2888 50.1092 94.8415 49.6684 95.0653ZM52.3312 92.1107L52.7085 92.5822M52.7085 92.5822L53.6518 93.7611M52.7085 92.5822C52.255 92.945 51.3179 93.5401 51.1975 93.0177C50.5807 92.8667 49.5663 92.4665 50.4428 92.0746C50.2542 91.8389 48.2534 90.7327 49.7263 90.7144C49.5758 90.0614 49.4709 88.9078 50.256 89.5172C50.3195 88.8218 50.6652 87.7976 51.5403 89.263C51.9945 87.9715 52.3584 89.5108 52.4836 90.4419C52.7865 89.4261 53.4649 91.2036 53.2382 91.385C53.8723 91.8057 53.1493 92.3585 52.7085 92.5822ZM52.0319 88.483C52.4854 88.1202 53.4979 87.6195 53.9202 88.5191C54.5386 88.0244 54.8751 88.7137 55.2433 88.8841M55.2433 88.8841C55.2801 88.9011 55.3173 88.913 55.3551 88.9179C55.3148 88.9043 55.2776 88.8931 55.2433 88.8841ZM55.2433 88.8841C54.4074 88.6645 55.2461 89.748 54.4481 89.6436C53.7835 89.5566 53.5157 90.6474 53.4649 91.2036" stroke="black" stroke-width="0.7"/>
<path d="M216.897 49.9701C217.936 50.5987 218.431 51.7217 218.504 53.2157L218.513 53.5189V53.5279V53.5376C218.469 55.2092 218.986 56.1054 219.591 56.5872C220.217 57.0858 221.034 57.2175 221.707 57.1663C222.499 57.1061 223.682 57.1868 224.531 57.809C224.973 58.133 225.317 58.6003 225.455 59.2351C225.574 59.7804 225.534 60.4186 225.319 61.159L225.216 61.4826L225.212 61.4921L225.208 61.5024C224.59 63.0747 224.606 64.1386 224.995 64.9251C225.393 65.7286 226.24 66.3713 227.579 66.9545L227.597 66.9619L227.613 66.9708C228.44 67.4074 229.085 67.8294 229.546 68.2667C230.011 68.7084 230.313 69.1901 230.398 69.7399C230.482 70.286 230.342 70.8234 230.076 71.3546C229.815 71.8764 229.415 72.4281 228.923 73.0266L228.544 73.5666C227.752 74.7517 227.593 75.4259 227.669 75.8768C227.711 76.1275 227.835 76.3599 228.054 76.6184C228.281 76.8854 228.584 77.1499 228.964 77.48L229.204 77.6893L229.212 77.6972L229.222 77.7057C230.554 78.9979 231.27 80.1762 231.153 81.3491C231.037 82.52 230.112 83.4575 228.808 84.3292L228.78 84.3474L228.752 84.3616C227.582 84.9417 227.004 85.4603 226.774 86.0887C226.539 86.7299 226.612 87.6218 227.116 89.0826C227.491 89.9055 227.766 90.5899 227.909 91.1612C228.052 91.7355 228.08 92.2683 227.873 92.7354C227.661 93.2125 227.251 93.5174 226.755 93.7389C226.263 93.9581 225.623 94.1243 224.858 94.2877L224.824 94.295L224.789 94.2975C223.448 94.3913 222.875 94.8055 222.58 95.2785C222.25 95.8087 222.184 96.5217 222.114 97.4321C222.092 97.7151 222.07 98.0138 222.035 98.3112C222.011 98.5119 221.989 98.7217 221.967 98.9408C221.919 99.4216 221.866 99.9483 221.771 100.443C221.677 100.935 221.534 101.435 221.284 101.854C221.028 102.284 220.652 102.639 220.11 102.801C219.582 102.958 218.96 102.913 218.241 102.68L218.223 102.674L218.207 102.668C216.782 102.09 215.817 102.205 215.153 102.72C214.495 103.231 213.998 104.231 213.732 105.787L213.682 106.107L213.676 106.155L213.659 106.201C213.133 107.699 212.534 108.673 211.553 109.012C211.07 109.179 210.552 109.17 210.004 109.068C209.46 108.965 208.85 108.763 208.167 108.504L208.11 108.482L208.059 108.447C207.26 107.893 206.664 107.526 206.192 107.31C205.721 107.094 205.422 107.053 205.198 107.088C204.977 107.123 204.747 107.246 204.441 107.535C204.128 107.831 203.785 108.25 203.32 108.82C203.165 109.01 202.997 109.215 202.816 109.433L202.701 109.591C202.202 110.273 201.781 110.848 201.403 111.282C201.032 111.709 200.651 112.062 200.214 112.231C199.738 112.415 199.269 112.355 198.796 112.122C198.348 111.9 197.871 111.509 197.328 110.991L197.29 110.954L197.26 110.91C196.455 109.727 195.618 109.115 194.732 108.975C193.842 108.835 192.764 109.15 191.431 110.135C190.707 110.7 190.07 111.104 189.492 111.326C188.901 111.553 188.342 111.602 187.813 111.415C187.296 111.231 186.882 110.846 186.521 110.36C186.163 109.877 185.827 109.253 185.479 108.524C184.67 106.996 184.039 106.441 183.498 106.254C182.94 106.061 182.35 106.2 181.405 106.448C181.146 106.517 180.864 106.591 180.565 106.659H180.56C178.795 107.037 177.502 107.068 176.618 106.464C175.72 105.852 175.416 104.709 175.254 103.304L175.251 103.276L175.252 103.247C175.251 101.516 174.975 100.678 174.47 100.238C173.949 99.7844 173.036 99.6162 171.349 99.6807L171.324 99.6812L171.299 99.6796C170.37 99.6236 169.62 99.505 169.035 99.2922C168.442 99.0761 167.989 98.7513 167.711 98.273C167.438 97.804 167.372 97.2545 167.41 96.667C167.447 96.0802 167.591 95.404 167.786 94.6465L167.794 94.6176L167.805 94.5904C168.385 93.0963 168.314 92.2899 168.039 91.8008C167.752 91.2889 167.159 90.9566 166.267 90.6203L166.255 90.6163C165.75 90.4121 165.196 90.1825 164.688 89.908C164.183 89.6346 163.69 89.2993 163.327 88.8666C162.954 88.4227 162.718 87.8766 162.741 87.2182C162.763 86.5742 163.03 85.8763 163.552 85.1101L163.558 85.1009L163.565 85.0924C164.608 83.6924 164.977 82.7723 164.913 82.0389C164.851 81.3254 164.361 80.6271 163.205 79.7131L163.189 79.7012L163.176 79.6884C162.488 79.0551 161.971 78.4823 161.638 77.9424C161.302 77.3972 161.134 76.8549 161.195 76.3023C161.255 75.7536 161.532 75.2725 161.927 74.8302C162.317 74.3947 162.849 73.9656 163.483 73.5158C164.965 72.336 165.387 71.6186 165.437 71.1031C165.461 70.8522 165.402 70.5971 165.256 70.2918C165.105 69.9768 164.881 69.6443 164.599 69.2288C164.542 69.1451 164.481 69.055 164.421 68.9661L164.407 68.9456C163.929 68.1513 163.579 67.4664 163.383 66.8691C163.186 66.2708 163.127 65.7126 163.292 65.199C163.458 64.6787 163.826 64.2874 164.312 63.9716C164.791 63.6599 165.42 63.3988 166.169 63.1466L166.199 63.1364L166.231 63.13C167.477 62.882 168.289 62.4259 168.781 61.7402C169.276 61.0509 169.511 60.0402 169.407 58.5437C169.103 56.7366 169.233 55.3722 170.029 54.5011C170.827 53.6293 172.138 53.4218 173.721 53.5028L173.756 53.5051L173.79 53.5117C174.549 53.6583 175.124 53.6113 175.563 53.464C176 53.3176 176.335 53.0607 176.605 52.7339C177.153 52.0687 177.411 51.1363 177.609 50.3106C177.643 49.0086 178.1 47.6138 179.138 46.8124C180.236 45.9652 181.808 45.9057 183.763 46.9713C185.321 47.6645 186.271 47.7972 187.026 47.5419C187.801 47.28 188.508 46.5692 189.462 45.1907C189.941 44.4993 190.373 43.9146 190.793 43.4791C191.21 43.0456 191.66 42.7116 192.182 42.5962C192.723 42.4769 193.253 42.6101 193.782 42.9221C194.293 43.2238 194.839 43.7109 195.45 44.365C197.057 45.7542 198.269 46.1056 199.232 46.0497C200.218 45.9924 201.042 45.5095 201.905 44.9815C202.628 44.4957 203.282 44.1323 203.88 43.9194C204.48 43.7057 205.055 43.6339 205.6 43.7716C206.694 44.0486 207.408 45.0964 208.018 46.6024L208.019 46.6029C208.629 48.0278 209.209 48.9151 209.881 49.3892C210.516 49.8376 211.309 49.9664 212.498 49.6684L212.509 49.6656L212.521 49.6634C214.332 49.2937 215.832 49.3253 216.897 49.9701ZM214.213 53.8798C201.376 44.0472 182.998 46.4828 173.166 59.3195C163.333 72.1564 165.769 90.5338 178.606 100.366C191.442 110.199 209.819 107.763 219.652 94.9261C229.484 82.0894 227.049 63.7124 214.213 53.8798Z" fill="black"/>
<path d="M204.209 104.874C204.084 103.654 205 100.628 201.157 103.553C202.251 99.4915 196.478 98.8311 194.562 101.55C195.747 96.3196 190.06 97.8669 190.099 100.157C190.138 102.446 189.38 94.302 186.687 98.5659C184.041 95.4487 179.611 97.5172 180.051 100.596" stroke="black" stroke-width="0.45"/>
<path d="M168.238 72.2406C170.257 71.2899 174.191 75.3238 172.204 77.5281M172.204 77.5281C173.2 77.8248 174.904 79.1768 173.754 82.2108C174.483 82.5363 175.807 83.3636 175.267 84.0685C176.079 84.9239 177.249 86.8455 175.43 87.6884C179.075 86.5431 179.495 94.4585 175.151 96.8421M172.204 77.5281C172.474 77.1756 175.466 73.2692 178.278 69.5977M178.278 69.5977L180.341 69.7794M178.278 69.5977L177.816 69.2435L178.491 68.3623L179.206 68.3862M178.187 89.8009C178.457 89.4484 185.404 80.4151 188.329 76.5968M178.04 92.9035L189.716 77.6597M180.341 69.7794L190.179 78.0139L190.979 77.9276L191.654 77.0465L189.862 75.5527M180.341 69.7794L173.836 78.2714M179.206 68.3862L181.353 68.4577M179.206 68.3862L184.353 61.6674M189.862 75.5527L181.353 68.4577M189.862 75.5527L193.853 70.3425L197.889 73.6962M189.862 75.5527C191.037 74.338 194.288 72.2659 197.889 73.6962M181.353 68.4577L186.415 61.8491M184.353 61.6674L186.415 61.8491M184.353 61.6674L185.365 60.3457M197.889 73.6962L201.83 76.7147M186.415 61.8491L214.416 84.695M186.415 61.8491L187.765 60.0868M214.416 84.695L209.27 91.4138M214.416 84.695L215.091 83.8139L216.691 83.6413M187.765 60.0868L216.691 83.6413M187.765 60.0868L189.115 58.3245M187.765 60.0868L185.365 60.3457M185.365 60.3457L183.977 59.2829L185.208 58.4923L187.161 58.4084M209.27 91.4138L209.732 91.768L208.804 92.9796L208.342 92.6253M209.27 91.4138L200.944 85.0369M216.691 83.6413L217.153 83.9955L218.841 81.7927C218.403 81.4465 217.944 81.0847 217.469 80.7092M189.115 58.3245L187.161 58.4084M189.115 58.3245L191.477 55.2405M189.115 58.3245C189.204 58.3927 190.407 59.341 192.318 60.8492M187.161 58.4084L188.937 56.0907L191.477 55.2405M208.342 92.6253L200.016 86.2485M208.342 92.6253L201.149 102.015M200.944 85.0369L199.557 83.9741M200.944 85.0369L202.041 83.605M217.469 80.7092L220.153 77.2053M217.469 80.7092C216.606 80.0276 215.686 79.3011 214.726 78.5424M200.016 86.2485L198.629 85.1857M200.016 86.2485L189.964 99.3728M199.557 83.9741L198.629 85.1857M199.557 83.9741C200.61 83.5573 201.166 78.0411 198.391 75.9155C197.374 75.1365 196.134 74.9696 194.959 75.0962M199.557 83.9741L197.313 83.071M202.041 83.605L205.289 79.3645L204.827 79.0102L201.83 76.7147M202.041 83.605C202.651 81.2759 202.305 78.0107 201.83 76.7147M198.629 85.1857L196.554 84.0623M198.629 85.1857L189.052 97.6885M194.959 75.0962C193.568 75.2461 192.267 75.8069 191.528 76.2516M194.959 75.0962C196.43 75.581 198.96 77.8547 197.313 83.071M197.313 83.071L196.191 82.6195L195.516 83.5006L196.554 84.0623M196.554 84.0623L185.904 97.966M191.477 55.2405L194.715 57.7204M192.318 60.8492L194.715 57.7204M192.318 60.8492C193.118 61.4809 194.043 62.2107 195.062 63.0152M220.153 77.2053L220.615 77.5595L220.953 77.119L221.29 76.6784L221.965 75.7972L192.827 53.4782L188.49 54.3503L188.74 55.94M220.153 77.2053L217.378 75.0796M214.726 78.5424L217.378 75.0796M214.726 78.5424C213.985 77.9577 213.221 77.354 212.439 76.7367M194.715 57.7204L197.49 59.846M195.062 63.0152L197.49 59.846M195.062 63.0152C195.781 63.5825 196.547 64.187 197.349 64.8204M197.49 59.846L199.802 61.6174M217.378 75.0796L215.065 73.3083M215.065 73.3083L212.753 71.5369M215.065 73.3083C214.795 73.6607 213.202 75.7407 212.439 76.7367M212.439 76.7367C211.691 76.1455 210.927 75.542 210.153 74.931M199.802 61.6174L197.349 64.8204M199.802 61.6174L202.577 63.743M197.349 64.8204C198.225 65.5117 199.144 66.2373 200.093 66.9867M202.577 63.743L200.093 66.9867M202.577 63.743L205.353 65.8686M200.093 66.9867C200.985 67.691 201.903 68.4161 202.837 69.1533M205.353 65.8686L202.837 69.1533M205.353 65.8686L207.665 67.64M202.837 69.1533C203.591 69.7488 204.355 70.3521 205.123 70.9588M207.665 67.64L205.123 70.9588M207.665 67.64L210.44 69.7656M205.123 70.9588C206.035 71.6791 206.953 72.404 207.867 73.1254M210.44 69.7656L207.867 73.1254M210.44 69.7656L212.753 71.5369M207.867 73.1254C208.634 73.7313 209.398 74.3347 210.153 74.931M212.753 71.5369C212.483 71.8894 210.907 73.9465 210.153 74.931M191.64 58.8604L192.315 57.9793M194.415 60.9861L195.09 60.1049M197.19 63.1117L197.865 62.2305M199.503 64.883L200.177 64.0019M202.278 67.0087L202.953 66.1275M205.053 69.1343L205.728 68.2531M207.365 70.9056L208.04 70.0245M210.14 73.0313L210.815 72.1501M212.453 74.8026L213.128 73.9215M214.766 76.574L215.44 75.6928M217.078 78.3453L217.753 77.4642M184.091 67.7582L186.115 65.1148L192.128 69.7203L190.103 72.3637L184.091 67.7582ZM203.766 84.2273L205.791 81.5838L210.879 85.4808L208.854 88.1242L203.766 84.2273Z" stroke="black" stroke-width="0.45"/>
<path d="M175.513 83.2782L177.369 80.855L177.806 81.1898M177.806 81.1898L178.482 79.4011L179.159 77.6124L180.273 76.1585L182.632 74.8896L183.811 74.2552L185.997 75.9292L186.062 76.7486L184.949 78.2025L184.206 79.1717L184.272 79.9912L183.159 81.4451L181.171 82.2294L180.8 82.714L179.991 82.8638M177.806 81.1898L179.991 82.8638M179.991 82.8638L180.866 83.5334L177.525 87.8951M194.003 98.0726L196.164 95.2514L196.601 95.5862M196.601 95.5862L197.277 93.7975L197.954 92.0088L199.068 90.5549L201.427 89.286L202.606 88.6515L204.792 90.3255L204.857 91.145L203.744 92.5988L203.001 93.5681L203.067 94.3875L201.954 95.8414L199.966 96.6257L199.595 97.1104L198.786 97.2602M196.601 95.5862L198.786 97.2602M198.786 97.2602L199.661 97.9298L197.99 100.111" stroke="black" stroke-width="0.45"/>
<path d="M110.263 8.56576L55.9367 16.3328L64.8159 78.4385L119.143 70.6714L110.263 8.56576Z" stroke="black"/>
<path d="M108.17 10.4698L58.4802 17.5738C58.0701 17.6325 57.7852 18.0124 57.8438 18.4224L66.0611 75.8981C66.1197 76.3082 66.4996 76.593 66.9097 76.5344L116.599 69.4303C117.009 69.3717 117.294 68.9918 117.236 68.5817L109.018 11.1061C108.96 10.696 108.58 10.4112 108.17 10.4698Z" stroke="black" stroke-width="0.5"/>
<path d="M108.771 8.72859L57.4145 16.071C56.5671 16.1922 55.9783 16.9774 56.0995 17.8248L64.5541 76.9607C64.6752 77.8081 65.4604 78.3969 66.3078 78.2757L117.665 70.9333C118.512 70.8121 119.101 70.0269 118.98 69.1795L110.525 10.0436C110.404 9.19619 109.619 8.60743 108.771 8.72859Z" stroke="black" stroke-width="0.9"/>
<path d="M87.1121 25.0996C87.0318 24.5379 86.8277 23.1104 86.7357 22.4668" stroke="black" stroke-width="0.7"/>
<path d="M86.6082 34.127L89.9496 33.6493M86.2318 31.4942L89.5732 31.0165M85.5018 40.1957C85.6425 40.1756 90.1328 39.5336 92.3605 39.2152M85.3765 38.0644C85.5172 38.0442 89.8903 37.419 92.0593 37.1089M87.7102 54.3877L94.5689 53.4072M94.7446 54.6358L87.71 55.6415M88.3876 60.3806L95.598 59.3497M95.7485 60.4028L88.5381 61.4337M89.2408 66.3482L96.4512 65.3174M96.6268 66.546L89.4164 67.5769" stroke="black" stroke-width="0.7"/>
<path d="M89.3453 41.9746L89.5711 43.5543L90.5508 44.1307M87.6134 32.3713L87.8392 33.951M87.0858 32.4468L87.3116 34.0264M88.141 32.2959L88.3668 33.8756M88.6686 32.2205L88.8944 33.8001M89.1962 32.145L89.422 33.7247M87.3096 46.5643L92.5855 45.81L92.7613 45.7848L91.9834 40.3437L86.5317 41.1231L87.3096 46.5643Z" stroke="black" stroke-width="0.7"/>
<path d="M90.094 72.3159L87.2333 52.3066L86.6561 48.2697M86.6561 48.2697L86.1285 48.3451L84.9742 40.2712L85.6776 40.1706L85.3765 38.0644L86.6082 34.127L86.2067 31.3187L87.1121 25.0996L89.5481 30.841L89.9496 33.6493L92.2352 37.0838L92.5614 39.3655L93.089 39.2901L94.2182 47.1885L93.6906 47.2639M86.6561 48.2697L93.6906 47.2639M93.6906 47.2639L97.3044 71.2851L97.3796 71.8116M88.7918 46.8897L88.8921 47.5918M87.9124 47.0154L88.0128 47.7175M89.6711 46.764L89.7715 47.466M90.5504 46.6383L90.6508 47.3403M91.4297 46.5125L91.5301 47.2146M92.309 46.3868L92.4094 47.0889M87.6475 38.6352L87.8483 40.0394M86.733 38.766L86.9338 40.1701M88.562 38.5045L88.7628 39.9086M89.4765 38.3737L89.6773 39.7779M90.391 38.243L90.5917 39.6471M91.3055 38.1122L91.5062 39.5164M88.8769 48.4895L89.6046 53.5796M87.9624 48.6202L88.6901 53.7103M89.7914 48.3587L90.5191 53.4488M90.7059 48.228L91.4336 53.3181M91.6204 48.0972L92.3481 53.1873M92.5349 47.9665L93.2626 53.0566M89.9309 55.8613L90.4829 59.7228M89.0164 55.9921L89.5684 59.8535M90.8453 55.7306L91.3974 59.592M91.7598 55.5998L92.3119 59.4613M92.6743 55.4691L93.2264 59.3305M93.5888 55.3383L94.1409 59.1998M90.759 61.6535L91.311 65.5149M89.8445 61.7842L90.3965 65.6457M91.6734 61.5227L92.2255 65.3842M92.5879 61.392L93.14 65.2534M93.5024 61.2613L94.0545 65.1227M94.4169 61.1305L94.969 64.992M91.6623 67.9722L92.114 71.1316M90.7478 68.103L91.1995 71.2623M92.5768 67.8415L93.0285 71.0008M93.4913 67.7107L93.943 70.8701M94.4058 67.58L94.8575 70.7393M95.3203 67.4492L95.772 70.6086" stroke="black" stroke-width="0.7"/>
<path d="M89.4703 41.5935C90.4451 41.4541 91.3474 42.1304 91.4862 43.1017C91.6249 44.0728 90.9482 44.974 89.9735 45.1134C88.9988 45.2527 88.0966 44.5773 87.9576 43.6062C87.8188 42.6349 88.4954 41.7329 89.4703 41.5935Z" stroke="black" stroke-width="0.7"/>
<path d="M109.389 69.1991C109.339 68.8481 108.259 63.8083 108.611 63.758C108.892 63.7178 111.073 63.406 112.128 63.2551L111.752 60.6223L114.39 60.2452M114.39 60.2452L115.445 60.0943M114.39 60.2452C114.947 56.6932 111.337 41.5148 109.896 38.8574C108.406 35.548 104.984 29.3506 103.215 31.0363C101.446 32.7221 100.601 37.8579 100.4 40.2151C100.123 42.0457 99.67 46.6598 100.071 50.4712C100.473 54.2825 100.975 57.2078 101.175 58.1941C101.719 61.1611 103.068 67.6669 104.113 69.9534M101.575 69.7789C101.558 69.6575 100.565 62.7111 99.8691 57.8435M99.8691 57.8435C99.7597 57.0786 99.6577 56.365 99.568 55.7373L100.096 55.6618M99.8691 57.8435C99.7284 57.8636 98.0518 58.1033 97.2311 58.2206L97.7832 62.0821M97.7832 62.0821L96.0246 62.3335M97.7832 62.0821L98.3108 62.0067L99.6157 71.1337M96.7529 63.6622L97.8081 63.5114M97.0793 64.6902L97.7828 64.5896M97.2405 65.8175L98.1198 65.6917M97.3805 66.7965L98.0839 66.6959M97.531 67.8496L98.4104 67.7239" stroke="black" stroke-width="0.8"/>
<path d="M100.822 36.0722C102.218 35.6916 105.685 34.9381 108.35 34.9988L108.339 35.4987L108.33 35.8599C108.429 35.8567 108.529 35.8531 108.629 35.8508L108.64 36.3503L108.647 36.6808L108.826 36.6403C109.019 37.4811 109.059 38.3595 109.001 39.2295C109.391 39.7665 109.849 40.3047 110.384 40.7957L109.709 41.5335C109.39 41.2411 109.097 40.9326 108.828 40.6196C108.758 41.0081 108.671 41.3894 108.575 41.7597C108.978 42.2704 109.407 42.7817 109.86 43.2786C109.909 42.9958 109.92 42.7206 109.899 42.4011L110.398 42.3681L110.896 42.3354C110.94 43.0045 110.868 43.5331 110.675 44.1259C110.881 44.3297 111.089 44.5306 111.303 44.7247L110.967 45.0943L110.631 45.465C110.51 45.3558 110.392 45.2444 110.274 45.1322C110.241 45.2061 110.209 45.2831 110.173 45.3608L110.165 45.3788L110.155 45.3968C110.011 45.6536 109.836 46.0006 109.635 46.4193C109.957 46.7807 110.277 47.1273 110.591 47.4556C110.593 47.4499 110.595 47.4444 110.597 47.4388C110.707 47.1324 110.805 46.8716 110.886 46.6734C110.927 46.5749 110.966 46.4849 111.004 46.41C111.035 46.3466 111.084 46.2545 111.149 46.1791L111.527 46.5049L111.906 46.8314C111.93 46.8041 111.928 46.7975 111.9 46.8541C111.877 46.8996 111.847 46.9659 111.811 47.0542C111.738 47.2307 111.647 47.4738 111.538 47.7768C111.486 47.9223 111.432 48.0806 111.373 48.2493C111.9 48.7601 112.401 49.1992 112.857 49.5396L112.557 49.9406L112.258 50.3404C111.866 50.0477 111.449 49.6894 111.013 49.2834C110.918 49.5589 110.816 49.8511 110.71 50.1573C110.65 50.33 110.585 50.5066 110.522 50.6873C111.048 51.2846 111.566 51.8745 112.034 52.4234C112.124 52.1515 112.204 51.8999 112.269 51.6707C112.357 51.3549 112.419 51.0885 112.455 50.8775C112.493 50.6567 112.495 50.5323 112.488 50.4821L112.984 50.4162L113.48 50.3512C113.506 50.5534 113.483 50.7979 113.441 51.0444C113.397 51.3016 113.326 51.6048 113.232 51.9414C113.118 52.3455 112.965 52.8079 112.784 53.3155C112.786 53.3176 112.788 53.3194 112.79 53.3215C113.17 53.7816 113.494 54.1893 113.729 54.5101C113.801 54.6077 113.865 54.7013 113.922 54.7865L114.287 54.8073C114.274 55.0401 114.239 55.2827 114.191 55.5272C114.008 56.4581 113.602 57.5061 113.237 58.3508C113.657 58.8091 113.957 59.1222 114.096 59.2471L113.761 59.6195L113.428 59.9908C113.3 59.8764 113.082 59.6508 112.792 59.3398C112.766 59.3948 112.742 59.4482 112.719 59.4982C112.65 59.6459 112.592 59.769 112.548 59.8649C112.527 59.9125 112.509 59.9518 112.496 59.9819C112.49 59.9965 112.485 60.0089 112.481 60.0175C112.479 60.0245 112.477 60.029 112.477 60.029L112.003 59.8709L111.528 59.7119C111.568 59.5925 111.687 59.3433 111.813 59.0743C111.886 58.9179 111.969 58.7377 112.059 58.541C111.756 58.2046 111.417 57.825 111.053 57.4131C110.872 57.792 110.679 58.1751 110.482 58.5613C111.097 59.3353 111.503 59.9452 111.661 60.334L111.199 60.5225L110.736 60.712C110.651 60.5032 110.406 60.107 109.971 59.5329C109.752 59.9388 109.528 60.3466 109.295 60.7493C109.211 60.8937 109.132 61.0387 109.052 61.1806C109.322 61.5307 109.56 61.8474 109.746 62.1074C109.879 62.2946 109.989 62.4547 110.068 62.5762C110.107 62.6363 110.142 62.6922 110.169 62.7395C110.182 62.7626 110.196 62.7903 110.209 62.8185C110.215 62.8312 110.249 62.8998 110.261 62.9857L109.271 63.1272C109.278 63.1735 109.29 63.2069 109.294 63.2167C109.299 63.2301 109.303 63.2392 109.304 63.2419C109.303 63.24 109.301 63.2371 109.299 63.2327C109.286 63.2101 109.264 63.1729 109.23 63.1203C109.162 63.016 109.061 62.8691 108.932 62.6884C108.817 62.5277 108.68 62.3437 108.528 62.1414C108.135 62.8888 107.792 63.5946 107.499 64.2537C107.768 64.55 108.038 64.8381 108.311 65.1103L107.957 65.4637L107.604 65.818C107.425 65.64 107.248 65.4558 107.071 65.2677C106.815 65.9012 106.605 66.4781 106.437 66.9911C106.424 67.0312 106.411 67.0717 106.399 67.111C106.888 67.7116 107.415 68.3276 107.974 68.9377L107.236 69.6134C106.827 69.1669 106.435 68.7166 106.062 68.2719C106.006 68.4898 105.959 68.6839 105.924 68.853C105.876 69.0784 105.847 69.2563 105.831 69.3832C105.812 69.5324 105.818 69.5638 105.814 69.5316L104.824 69.6732C104.806 69.5529 104.822 69.3929 104.839 69.2566C104.859 69.0973 104.894 68.8922 104.945 68.6476C105.019 68.2938 105.13 67.8487 105.286 67.3234C104.928 66.8735 104.594 66.4331 104.283 66.0137C104.15 66.3761 104.042 66.6949 103.965 66.9597L103.485 66.8192L103.005 66.6797C103.131 66.2442 103.331 65.6857 103.58 65.0417C102.875 64.0389 102.353 63.2191 102.072 62.7319L102.141 62.6915L101.718 62.5132C101.981 61.8911 102.368 60.9461 102.836 59.8083C102.499 59.3025 102.186 58.8143 101.901 58.3577C101.883 58.4108 101.866 58.4561 101.854 58.4936L100.898 58.1962C100.952 58.0209 101.068 57.6926 101.228 57.2514C100.972 56.819 100.755 56.4385 100.585 56.1269L101.025 55.8875L101.464 55.649C101.528 55.7663 101.601 55.8918 101.678 56.0279C101.849 55.5702 102.041 55.0636 102.246 54.5271C101.948 54.0412 101.664 53.5546 101.403 53.0949C101.383 53.2118 101.333 53.3261 101.275 53.4456L100.824 53.2299L100.373 53.0133C100.398 52.9618 100.412 52.9295 100.42 52.9119C100.426 52.8648 100.435 52.7988 100.449 52.748C100.484 52.6184 100.567 52.3932 100.764 51.9364C100.64 51.7051 100.528 51.4916 100.43 51.3014L100.875 51.0731L101.231 50.8901C101.253 50.8411 101.276 50.7906 101.3 50.7391L101.754 50.9474L101.785 50.9617L101.755 50.9473L101.303 50.7327C101.455 50.4129 101.649 49.9734 101.877 49.4481C101.434 48.7731 101.036 48.1585 100.719 47.6584C100.69 47.6116 100.661 47.5656 100.633 47.5209L100.348 47.3869L99.8954 47.1744C99.9651 47.0263 100.036 46.8663 100.115 46.6992C100.073 46.6337 100.039 46.5776 100.011 46.5325C99.99 46.4997 99.973 46.4733 99.9599 46.453C99.9534 46.4428 99.9478 46.4349 99.9436 46.4287C99.9416 46.4256 99.9399 46.4233 99.9387 46.4215L99.9373 46.4187L100.348 46.1331L100.391 46.1023C100.574 45.7077 100.775 45.2817 100.98 44.8333C100.529 43.9515 100.24 43.1305 100.08 42.693L101.02 42.3515C101.133 42.6613 101.298 43.1201 101.523 43.638C101.771 43.0875 102.022 42.5229 102.267 41.9641C102.052 41.5795 101.85 41.2024 101.663 40.839C101.534 41.1194 101.411 41.3773 101.301 41.5931C101.203 41.7868 101.112 41.9547 101.037 42.0787C101.001 42.1391 100.961 42.2005 100.922 42.2521C100.903 42.2767 100.874 42.3126 100.838 42.3469C100.823 42.3608 100.717 42.4657 100.546 42.4903L100.404 41.5004C100.311 41.5138 100.245 41.551 100.217 41.5686C100.185 41.5887 100.164 41.6087 100.154 41.6181C100.14 41.6306 100.131 41.64 100.129 41.6434C100.135 41.6354 100.152 41.611 100.181 41.5628C100.238 41.4688 100.316 41.3253 100.41 41.1405C100.597 40.7726 100.833 40.2675 101.065 39.7279C101.073 39.7105 101.079 39.692 101.086 39.6746C100.732 38.9281 100.46 38.2907 100.285 37.8378L100.751 37.6577L100.776 37.6473L100.726 37.4817L100.583 37.0031C100.712 36.9645 100.865 36.9213 101.04 36.8755L100.953 36.5546L100.822 36.0722ZM105.372 63.2989C105.13 63.8728 104.906 64.4138 104.709 64.9081C104.998 65.3101 105.316 65.7358 105.657 66.1772C105.842 65.6497 106.065 65.0697 106.329 64.4436C106.005 64.0715 105.684 63.6892 105.372 63.2989ZM102.91 62.2482L102.939 62.2322C103.155 62.6072 103.527 63.2003 104.025 63.9314C104.225 63.4446 104.441 62.9271 104.669 62.3922C104.266 61.8593 103.877 61.3231 103.51 60.7961C103.284 61.3439 103.082 61.8343 102.91 62.2482ZM105.82 62.2484C106.132 62.6494 106.451 63.0459 106.776 63.4306C107.088 62.753 107.445 62.0309 107.856 61.2727C107.524 60.8578 107.163 60.4226 106.794 60.0039C106.462 60.7649 106.133 61.5195 105.82 62.2484ZM103.965 59.6942C104.33 60.2312 104.719 60.7838 105.126 61.3355C105.426 60.6427 105.738 59.9217 106.053 59.2004C105.734 58.8714 105.42 58.5713 105.126 58.3257C104.987 58.2095 104.845 58.0713 104.698 57.9183C104.442 58.5395 104.195 59.136 103.965 59.6942ZM107.233 58.9952C107.632 59.432 108.023 59.8907 108.382 60.3304C108.398 60.3031 108.413 60.2751 108.429 60.2477C108.729 59.7305 109.017 59.2071 109.292 58.686C108.929 58.2528 108.498 57.7669 107.999 57.2323C107.748 57.8134 107.491 58.4044 107.233 58.9952ZM112.377 54.4006C112.126 55.0335 111.836 55.7136 111.514 56.4219C111.6 56.5195 111.684 56.6162 111.767 56.7104C112.026 57.0042 112.271 57.2787 112.497 57.5313C112.773 56.8578 113.034 56.1299 113.177 55.4798C113.173 55.4728 113.17 55.464 113.165 55.4559C113.112 55.3685 113.032 55.2499 112.923 55.1009C112.779 54.9047 112.593 54.6696 112.377 54.4006ZM102.332 57.1458C102.618 57.618 102.94 58.141 103.298 58.6916C103.511 58.1734 103.736 57.6282 103.968 57.0658C103.617 56.6147 103.26 56.1069 102.916 55.5826C102.694 56.1669 102.497 56.6979 102.332 57.1458ZM105.12 56.8971C105.351 57.1663 105.567 57.3925 105.766 57.5585C105.998 57.7522 106.239 57.9742 106.482 58.2137C106.744 57.6134 107.004 57.0201 107.251 56.4475C107.081 56.2741 106.908 56.0942 106.726 55.9128C106.464 55.6513 106.188 55.3476 105.902 55.0135C105.638 55.6492 105.375 56.281 105.12 56.8971ZM108.429 56.2278C108.944 56.7692 109.397 57.2674 109.787 57.7204C109.978 57.3404 110.16 56.9633 110.334 56.5926C109.892 56.0858 109.422 55.5435 108.938 54.9801C108.773 55.3974 108.602 55.8146 108.429 56.2278ZM110.141 51.7677C109.894 52.4581 109.628 53.184 109.348 53.9212C109.845 54.5021 110.33 55.065 110.79 55.5942C111.033 55.0462 111.255 54.5187 111.452 54.0219C111.52 53.8485 111.584 53.6777 111.646 53.5127C111.194 52.9758 110.678 52.3812 110.141 51.7677ZM103.988 52.7982C103.771 53.3535 103.558 53.9002 103.357 54.4225C103.363 54.4317 103.369 54.4412 103.375 54.4505C103.721 54.9995 104.073 55.5243 104.412 55.9921C104.665 55.3829 104.923 54.7604 105.184 54.1357C104.811 53.6613 104.43 53.1529 104.053 52.6321C104.032 52.6874 104.01 52.7431 103.988 52.7982ZM106.355 53.9248C106.349 53.9402 106.342 53.9557 106.335 53.9711C106.722 54.4438 107.091 54.8652 107.432 55.2052C107.514 55.2865 107.592 55.3694 107.671 55.4492C107.852 55.0078 108.029 54.5621 108.201 54.1186C107.782 53.6268 107.357 53.1252 106.936 52.6225C106.929 52.6142 106.921 52.6062 106.914 52.5979C106.729 53.0361 106.542 53.4795 106.355 53.9248ZM107.352 51.5607C107.468 51.7002 107.585 51.8407 107.702 51.9803C108.003 52.3393 108.306 52.6977 108.607 53.0524C108.883 52.313 109.144 51.5893 109.385 50.907C109.347 50.864 109.31 50.8201 109.272 50.7772C108.913 50.3721 108.551 49.971 108.202 49.5827C107.929 50.209 107.644 50.8741 107.352 51.5607ZM104.493 51.5255C104.87 52.0585 105.253 52.5819 105.628 53.0739C105.817 52.6236 106.006 52.1748 106.194 51.7322C105.785 51.2408 105.384 50.7533 104.996 50.2777C104.83 50.6863 104.661 51.1046 104.493 51.5255ZM102.534 50.4423C102.411 50.7175 102.302 50.9572 102.208 51.1548L102.209 51.1557C102.078 51.4405 101.968 51.6833 101.876 51.8888C102.122 52.3376 102.402 52.8348 102.703 53.345C102.819 53.0453 102.937 52.7398 103.057 52.4332C103.158 52.1764 103.261 51.9175 103.364 51.6584C103.079 51.249 102.801 50.8397 102.534 50.4423ZM106.21 47.3913C105.97 47.9338 105.706 48.5565 105.429 49.2235C105.815 49.7011 106.219 50.1951 106.632 50.6958C106.919 50.0252 107.2 49.3773 107.467 48.7683C107.119 48.3847 106.794 48.0251 106.502 47.7067C106.401 47.5962 106.303 47.4915 106.21 47.3913ZM109.171 47.403C109.005 47.7659 108.828 48.1596 108.643 48.5775C109.005 48.9793 109.383 49.4013 109.764 49.8289C109.928 49.3565 110.083 48.9133 110.223 48.5114C109.878 48.1622 109.525 47.7921 109.171 47.403ZM103.435 48.3236C103.286 48.6848 103.143 49.0279 103.007 49.3478C103.094 49.48 103.181 49.6157 103.272 49.7509C103.446 50.0116 103.626 50.2756 103.808 50.5413C103.965 50.1508 104.125 49.7652 104.279 49.3888C103.984 49.021 103.702 48.6642 103.435 48.3236ZM103.873 47.2578C104.135 47.5981 104.417 47.9587 104.715 48.334C104.985 47.6939 105.242 47.1035 105.472 46.5961C105.397 46.5164 105.336 46.4505 105.287 46.4006C105.254 46.366 105.228 46.3407 105.211 46.3237C105.207 46.3193 105.203 46.3158 105.201 46.3133L105.168 46.2894L105.126 46.2343C105.111 46.2147 105.097 46.1983 105.083 46.1812C104.906 45.9648 104.732 45.7429 104.56 45.5171C104.33 46.1142 104.098 46.6993 103.873 47.2578ZM107.289 45.2078C107.134 45.5224 106.983 45.7998 106.847 46.0326L106.848 46.0335C106.845 46.0391 106.842 46.0448 106.839 46.0505L106.665 46.4118C106.835 46.5951 107.029 46.8022 107.239 47.0311C107.447 47.2582 107.671 47.5067 107.91 47.7688C108.099 47.3449 108.281 46.9485 108.449 46.5868C108.06 46.1385 107.671 45.6764 107.289 45.2078ZM101.252 46.6284C101.346 46.7778 101.451 46.9441 101.564 47.1233C101.789 47.4788 102.054 47.8931 102.346 48.3452C102.471 48.0465 102.598 47.7314 102.731 47.4053C102.431 47.0075 102.16 46.6422 101.933 46.3168L101.91 46.3359C101.8 46.1909 101.695 46.0412 101.595 45.8907C101.477 46.1475 101.36 46.3937 101.252 46.6284ZM108.228 42.922C108.078 43.3697 107.917 43.7951 107.752 44.1887C108.137 44.6686 108.53 45.1409 108.922 45.5999C109.051 45.3402 109.167 45.115 109.27 44.9306C109.363 44.7271 109.444 44.5418 109.514 44.3717C109.064 43.8999 108.634 43.4131 108.228 42.922ZM102.124 44.7378C102.14 44.7721 102.159 44.8126 102.183 44.8576C102.266 45.0093 102.386 45.2035 102.541 45.4368C102.713 45.6945 102.926 45.9915 103.169 46.3226C103.397 45.7488 103.631 45.1532 103.86 44.5498C103.517 44.0511 103.194 43.5411 102.889 43.0353C102.633 43.6122 102.374 44.1867 102.124 44.7378ZM105.338 43.4506C105.222 43.7688 105.102 44.088 104.983 44.407C105.211 44.726 105.449 45.0365 105.691 45.3386L105.693 45.3384C105.733 45.3881 105.763 45.4278 105.788 45.4599C105.825 45.505 105.86 45.5517 105.897 45.5963C105.905 45.6045 105.913 45.6103 105.917 45.6141C105.922 45.6188 105.927 45.6236 105.932 45.6288C105.939 45.6147 105.946 45.6001 105.953 45.5862L105.962 45.5692L105.973 45.5509C106.158 45.2379 106.372 44.8252 106.594 44.3414C106.361 44.045 106.13 43.7489 105.906 43.4543C105.775 43.282 105.648 43.1083 105.52 42.9373C105.46 43.1074 105.4 43.2795 105.338 43.4506ZM106.366 40.428C106.229 40.8669 106.079 41.3258 105.918 41.7962C106.171 42.1422 106.433 42.4947 106.702 42.8492C106.812 42.9937 106.925 43.1369 107.037 43.2817C107.194 42.8723 107.344 42.4344 107.477 41.9778C107.077 41.4523 106.706 40.9302 106.366 40.428ZM103.569 41.482C103.509 41.6225 103.445 41.7629 103.383 41.9051C103.667 42.3977 103.97 42.899 104.291 43.3941C104.326 43.2986 104.364 43.2038 104.398 43.1085C104.539 42.722 104.675 42.3379 104.807 41.9611C104.489 41.518 104.187 41.0876 103.91 40.6757C103.799 40.9391 103.686 41.2094 103.569 41.482ZM107.033 37.9306C106.963 38.2882 106.869 38.6879 106.754 39.1158C106.748 39.1356 106.742 39.1556 106.736 39.1755C107.052 39.6679 107.404 40.1894 107.789 40.7218C107.87 40.3201 107.934 39.914 107.975 39.5085C107.594 38.952 107.285 38.4085 107.033 37.9306ZM104.773 38.5004C104.656 38.8225 104.517 39.1762 104.368 39.5527C104.622 39.9429 104.9 40.3592 105.202 40.7908C105.369 40.2783 105.522 39.7881 105.654 39.3322C105.375 38.885 105.127 38.4663 104.915 38.0874C104.87 38.2188 104.824 38.3576 104.773 38.5004ZM102.593 38.5713C102.473 38.9145 102.329 39.2805 102.181 39.6434C102.36 40.0101 102.559 40.3979 102.772 40.7998C102.939 40.4078 103.098 40.026 103.246 39.6627C102.997 39.269 102.777 38.902 102.593 38.5713ZM103.134 37.4384C103.181 37.5387 103.236 37.6517 103.301 37.7766C103.413 37.9918 103.549 38.2331 103.705 38.4962C103.748 38.38 103.793 38.268 103.832 38.1594C103.958 37.8136 104.054 37.513 104.125 37.2691C103.776 37.3242 103.444 37.3803 103.134 37.4384ZM105.503 37.0789C105.646 37.3483 105.813 37.6509 106.003 37.9782C106.055 37.7407 106.095 37.5256 106.122 37.3357C106.14 37.2131 106.148 37.1039 106.155 37.0095C105.934 37.0316 105.716 37.0537 105.503 37.0789ZM107.97 37.5648C107.942 37.3329 107.905 37.104 107.854 36.8799C107.779 36.8836 107.703 36.8864 107.628 36.8906C107.729 37.0975 107.842 37.3246 107.97 37.5648ZM101.361 37.8261C101.431 37.9962 101.51 38.1839 101.598 38.386C101.63 38.2971 101.662 38.2101 101.691 38.1251C101.742 37.9762 101.784 37.8383 101.82 37.714C101.653 37.753 101.5 37.7903 101.361 37.8261Z" fill="black"/>
<path d="M88.4879 61.0826L87.847 61.1743M87.847 61.1743L87.6964 60.1211L81.9346 60.9449L82.0851 61.998M87.847 61.1743L85.7343 61.4763M82.0851 61.998L81.1248 62.1353M82.0851 61.998L85.7343 61.4763M85.7343 61.4763L86.9639 70.0768M81.1248 62.1353L80.9241 60.7312L73.8178 61.7471M81.1248 62.1353L82.505 71.7889M72.7515 57.0637L77.9372 56.3223L78.6147 61.0613M72.7515 57.0637L71.02 44.9528L69.8677 45.1175M72.7515 57.0637L71.5991 57.2284M69.8677 45.1175L69.4411 42.1337L65.7919 42.6554L66.2185 45.6393L63.9388 46.1443L65.1183 54.3937M69.8677 45.1175L71.5991 57.2284M71.5991 57.2284L70.4468 57.3932M65.1183 54.3937L63.3897 54.6409M65.1183 54.3937L68.1912 53.9544L70.0231 66.7674M70.1379 57.9747L71.5934 68.1548M78.269 62.7227L79.7746 73.2539M76.9246 62.9149L78.1793 71.6909M75.3881 63.1346L76.8937 73.6658M77.4199 58.1873L71.2739 59.066M84.1814 62.9521L84.3069 63.8297M82.6449 63.1718L82.7704 64.0494M84.4574 64.8828L84.5829 65.7604M82.9209 65.1025L83.0464 65.9801M84.7586 66.989L84.884 67.8666M83.2221 67.2087L83.3475 68.0863M85.0346 68.9198L85.1601 69.7974M83.4981 69.1394L83.6236 70.017M67.9596 63.3011L66.4231 63.5208M68.2598 61.288L65.5709 61.6724M67.8168 59.5603L65.1279 59.9447M67.5157 57.454L64.6347 57.8659M67.4819 55.8469L64.2168 56.3137M77.6708 59.9425L71.5248 60.8212" stroke="black"/>
<path d="M79.544 62.5405L81.0496 73.0717" stroke="black"/>
<path d="M75.3496 55.7967C75.2894 55.3755 74.2219 38.7039 73.6957 30.4208M74.626 25.631L79.3945 55.2184L80.1975 60.8351M74.626 25.631L72.9688 20.3155L73.5406 56.9509M74.626 25.631L73.5721 18.2591L74.8027 20.5907L86.9305 60.2307M83.9408 60.6581L78.1418 33.9046" stroke="black"/>
<path d="M176.753 29.0875L176.951 26.6343L173.624 25.5321C168.414 30.858 167.018 26.2817 166.971 23.3278L163.644 22.2257C157.991 27.4047 156.483 22.7916 156.437 19.8377L154.773 19.2867L153.139 18.7453C151.354 21.0922 147.439 23.9087 146.058 16.3992L142.79 15.3164C141.005 17.6633 137.198 20.5159 136.253 13.1507L132.985 12.0679L131.688 14.157M178.595 30.957C179.826 31.5747 182.662 32.0526 184.158 29.0223L186.376 29.757L184.496 35.4307C183.14 35.1913 180.794 35.4633 180.042 37.7328C179.29 40.0023 181.009 41.6215 182.24 42.2392L181.113 45.6434C178.451 44.7617 176.909 47.189 176.47 48.5129C175.275 50.6354 177.438 52.4015 178.669 53.0193M164.525 74C163.006 73.7731 162.145 74.2867 160.597 75.9957L157.27 74.8935C156.271 67.5103 152.418 70.3476 150.617 72.6892L147.29 71.5871C145.847 64.0569 141.884 66.8575 140.083 69.1991L138.419 68.648L136.785 68.1066C136.755 65.1581 135.295 60.561 129.704 65.7605L126.436 64.6777C126.405 61.7292 125.055 57.1682 119.899 62.5121L118 62M129.134 14.5698C127.8 14.3379 125.287 13.0435 125.904 9.72185L123.725 8.99997L121.845 14.6737C123.054 15.2839 124.738 16.8913 123.986 19.1607C123.234 21.4302 120.923 21.7141 119.59 21.4822L118.462 24.8864C121.076 25.7527 120.853 28.6169 120.414 29.9408C120.098 32.3547 117.352 32.4942 116.018 32.2622L114.5 37.5M175.616 34.3775L129.043 18.9475L117.953 52.4224L164.525 67.8525L175.616 34.3775Z" stroke="black"/>
<path d="M139.989 25.9764L138.574 30.2481M138.574 30.2481C138.332 30.1652 138.227 30.2145 138.063 30.3752C137.961 30.5592 137.967 30.6474 138.051 30.7662M138.574 30.2481C138.819 30.3373 138.903 30.4053 138.937 30.5658C138.951 30.7079 138.929 30.8007 138.789 31.0108M138.789 31.0108L137.945 30.7312L137.811 30.7853C137.089 32.9871 136.747 33.7544 136.298 33.9382M138.789 31.0108L138.865 31.1347C138.121 33.3479 138.057 34.0104 138.302 34.6022M138.395 35.0281L138.407 34.6371L136.087 33.8684L135.863 34.1894M135.34 34.7075L135.547 34.0845L138.711 35.1329L138.817 35.1678L138.64 35.7018M138.64 35.7018L134.843 34.4438L134.636 35.0667L134.607 35.1557M138.64 35.7018L138.956 35.8066L139.061 35.8415L138.826 36.5535M134.607 35.1557L138.826 36.5535M134.607 35.1557L134.396 35.0858L133.953 36.4207M138.826 36.5535L139.037 36.6234L138.594 37.9583M132.559 39.2177L133.532 36.2809L135.114 36.8051L134.141 39.7419M136.461 40.5107L137.434 37.5739L139.016 38.098L138.043 41.0348M133.746 55.0659L134.32 53.3318M134.32 53.3318L138.36 41.1397L136.145 40.4058L132.105 52.5979L130.418 52.0388L134.457 39.8467L132.242 39.1129L129.5 47.3893M134.32 53.3318L134.953 53.5414L134.393 55.2322M129.5 47.3893L128.203 51.305M129.5 47.3893L127.918 46.8651M127.628 53.0392L128.203 51.305M128.203 51.305L127.57 51.0954L126.996 52.8295M127.918 46.8651L127.285 46.6555M127.918 46.8651L127.838 46.0483M128.429 55.9227L128.871 54.5878L129.21 53.5633L126.785 52.7596L126.062 54.9411M131.493 56.7406L132.216 54.559L134.524 55.3236L134.037 56.7932M134.037 56.7932L133.742 57.6831M134.037 56.7932L135.157 57.1645L134.863 58.0544M135.268 51.1768L136.429 51.5612L134.689 56.8116M126.94 39.9241L123.815 49.3573L122.311 53.896M126.94 39.9241L127.514 40.3117L124.3 50.0121L122.944 54.1057M126.94 39.9241L126.313 40.052M126.313 40.052L127.15 37.5246L124.898 37.9635C124.667 38.2482 124.377 39.1907 123.928 40.5378M126.313 40.052L123.928 40.5378M123.928 40.5378L123.802 40.5633L121.856 46.4369L119.674 53.0224M126.652 46.4458L126.125 46.2711L124.71 50.5426L123.471 54.2804M126.652 46.4458L127.099 45.8037M126.652 46.4458L127.285 46.6555M127.099 45.8037L126.783 45.6988L127.254 44.275L128.111 44.1636L128.626 44.7293L128.154 46.1531L127.838 46.0483M127.099 45.8037L127.521 45.9435M127.285 46.6555L127.521 45.9435M127.838 46.0483L127.521 45.9435M127.697 33.7552L126.399 37.6709" stroke="black" stroke-width="0.5"/>
<path d="M150.114 32.4915L149.04 35.7342M149.04 35.7342C148.729 35.8773 148.554 36.2026 148.243 36.9695M149.04 35.7342C149.225 35.9891 149.181 36.342 148.942 37.2012M147.652 37.9731C147.955 37.1556 148.131 36.7202 148.652 36.9052C149.035 37.0011 149.027 37.3847 148.817 38.3594M147.652 37.9731C147.111 38.0956 146.968 38.3768 146.797 38.9896M147.652 37.9731C147.911 37.9513 148.106 37.96 148.283 38.0181M148.817 38.3594C149.179 38.7382 149.115 39.0624 148.896 39.6848M148.817 38.3594C148.623 38.1838 148.461 38.0762 148.283 38.0181M148.283 38.0181L148.443 37.5357M146 40.2249C146.064 39.578 146.108 39.272 146.767 39.0797C147.023 39.0166 147.247 38.9776 147.451 38.9698M147.451 38.9698L147.472 38.5136M147.451 38.9698C147.629 38.9632 147.793 38.9804 147.949 39.0265M147.949 39.0265C148.131 39.0799 148.303 39.1721 148.479 39.3107M147.949 39.0265L148.115 38.5265M148.914 41.1904C149.152 40.6691 149.32 40.3796 148.982 39.8136C148.805 39.6031 148.641 39.4375 148.479 39.3107M148.479 39.3107L148.755 38.9385M145.143 41.6403C145.421 40.6201 145.697 40.2623 146.439 40.0705C146.642 40.0199 146.823 39.9863 146.989 39.9722M146.989 39.9722L146.911 39.4272M146.989 39.9722C147.22 39.9527 147.423 39.9705 147.616 40.0317M147.616 40.0317C147.821 40.0965 148.014 40.21 148.218 40.3793M147.616 40.0317L147.787 39.5174M148.787 42.7475C149.013 41.8109 149.071 41.3299 148.654 40.8044C148.5 40.6354 148.357 40.4944 148.218 40.3793M148.787 42.7475L148.697 43.0178L148.458 43.7384M148.787 42.7475C149.311 42.9641 149.155 43.847 148.181 46.5453M148.218 40.3793L148.614 39.9913M148.458 43.7384C148.748 42.8779 148.849 42.4039 148.239 41.6665C148.134 41.5692 148.034 41.4827 147.937 41.4063M148.458 43.7384L147.593 46.3506M148.181 46.5453L147.01 46.1575C147.504 44.3923 147.998 42.9955 147.731 42.657M148.181 46.5453L147.357 46.6723L146.999 47.7532L148.164 48.1395M148.181 46.5453C148.17 46.5749 148.159 46.6046 148.148 46.6346M147.937 41.4063C147.717 41.2323 147.51 41.1108 147.284 41.0354M147.937 41.4063L148.302 41.0874M147.731 42.657C147.592 42.4924 147.459 42.3626 147.326 42.2637M147.731 42.657L148.117 42.4258M148.164 48.1395L148.493 47.1485L149.078 46.9427L148.148 46.6346M148.164 48.1395L148.398 48.2167L146.851 52.8856M148.148 46.6346C148.138 46.6641 148.127 46.6939 148.116 46.7238M147.284 41.0354C147.064 40.9622 146.826 40.9326 146.539 40.9407M147.284 41.0354L147.458 40.5082M143.862 45.1147L144.698 42.5925C144.832 42.2754 144.939 42.0032 145.066 41.7742M145.066 41.7742C145.283 41.3859 145.561 41.1215 146.141 40.9713C146.284 40.9545 146.416 40.9442 146.539 40.9407M145.066 41.7742C144.412 41.4331 143.992 42.7597 143.279 44.9215M146.539 40.9407L146.437 40.4695M143.279 44.9215C143.26 44.9809 143.24 45.0409 143.22 45.1017L142.404 44.8313L142.751 45.3461L142.482 46.1567M143.279 44.9215L143.513 44.9988M143.513 44.9988L144.562 45.3464C145.124 43.6483 145.427 42.2207 146.028 42.0928M143.513 44.9988L143.946 45.6422L143.618 46.6332L142.219 46.1697L138.007 58.8818M146.028 42.0928C146.254 42.0327 146.454 42.0033 146.637 42.0109M146.028 42.0928L145.763 41.7213M146.637 42.0109L146.634 41.4346M146.637 42.0109C146.886 42.0213 147.106 42.1 147.326 42.2637M147.326 42.2637L147.663 41.7754M143.085 47.5446L142.762 48.521M144.414 47.9849L144.091 48.9613M145.743 48.4252L145.42 49.4016M142.582 49.0634L142.294 49.9313M142.115 50.4737L141.863 51.233L141.827 51.3416M143.911 49.5037L143.623 50.3716M145.24 49.944L144.952 50.8119M143.444 50.914L143.156 51.7819M144.773 51.3543L144.485 52.2222M146.882 48.8026L146.72 49.2908L146.559 49.779M146.379 50.3214L146.091 51.1893M145.912 51.7317L145.624 52.5996M141.67 51.8162L141.346 52.7926M142.999 52.2565L142.675 53.2329M144.328 52.6968L144.004 53.6732M141.167 53.3351L140.879 54.2029M140.699 54.7454L140.448 55.5047L140.412 55.6132M142.496 53.7754L142.208 54.6432M143.825 54.2157L143.537 55.0835M142.028 55.1857L141.741 56.0535M143.357 55.626L143.199 56.1051M145.467 53.0742L145.305 53.5624L145.143 54.0506M144.964 54.5931L144.676 55.4609M144.496 56.0034L144.209 56.8713M140.255 56.0879L139.931 57.0643M141.584 56.5282L141.422 57.0164M139.751 57.6067L139.468 58.461M144.052 57.3459L143.89 57.8341L143.894 57.8205M145.067 46.0136L144.744 46.99M146.396 46.4539L146.073 47.4303M146.251 44.3494L145.927 45.3258M146.722 42.9255L146.399 43.9019" stroke="black" stroke-width="0.5"/>
<path d="M138.796 50.8141L140.436 51.3572M135.038 51.1743L136.207 47.6484L136.821 47.8521M136.821 47.8521L137.573 47.2986M136.821 47.8521L137.436 48.0558M137.573 47.2986L137.163 47.1628L137.613 45.8068M137.573 47.2986L137.778 47.3665M137.436 48.0558L138.768 48.497M137.436 48.0558L137.778 47.3665M138.048 53.0741L139.485 48.7347L138.768 48.497M138.048 53.0741L138.355 53.1759M138.048 53.0741L137.228 52.8025L135.461 58.1366M138.768 48.497L138.495 47.6041M138.495 47.6041L138.905 47.7399L139.354 46.3839M138.495 47.6041L138.393 47.5702M134.231 57.7293L136.075 58.3403M139.499 59.6752L139.769 58.8615L140.383 59.0652L140.982 57.2571L141.905 57.5626L142.354 56.2066L143.276 56.5121L142.827 57.8681L144.773 58.5131M144.773 58.5131L145.183 58.6489L144.674 60.1857L144.981 60.2876L144.622 61.3725M144.773 58.5131L146.601 52.9984L148.035 53.4737M145.092 61.3275L147.308 54.6374L147.616 54.7393M147.616 54.7393L147.855 54.0161L149.597 54.5932L149.358 55.3164M147.616 54.7393L149.358 55.3164M149.358 55.3164L149.767 55.4521L147.85 61.2381L147.491 62.323M147.389 55.7676L148.926 56.2768M147.119 56.5813L148.656 57.0905M146.82 57.4855L148.356 57.9947M146.49 58.4799L148.027 58.9891M146.221 59.2936L147.757 59.8028M145.921 60.1976L147.458 60.7068M148.15 53.8127L149.558 49.5638L149.925 49.4848L150.554 47.5862L151.126 47.5751M151.126 47.5751L153.043 48.3105L152.427 50.5143M151.126 47.5751L150.335 49.6206L150.04 49.8238L148.662 53.9824M150.377 49.8353L152.704 50.7064L150.038 58.7526L149.321 58.5149M150.141 58.7865L150.243 58.8205L149.944 59.7244L150.251 59.8262L149.233 62.9001M137.778 47.3665L138.085 47.4683M138.393 47.5702L138.085 47.4683M138.393 47.5702L138.286 48.237M138.085 47.4683L137.876 48.1012M138.702 45.2647L137.54 45.6824L139.487 46.3273L138.702 45.2647Z" stroke="black" stroke-width="0.5"/>
<path d="M163.064 32.568L160.842 39.2748M158.999 39.4476C160.425 39.3469 161.172 39.6075 162.418 40.5806M158.882 39.8006L159.116 39.0946C160.523 39.0201 161.455 39.3597 162.535 40.2276L162.301 40.9336M160.709 40.0141L157.989 39.7987L150.069 63.0295L160.709 40.0141ZM160.709 40.0141L162.847 41.3101L156.2 61.3709L160.709 40.0141ZM157.307 61.7375L160.708 51.4721L165.234 52.9717L160.731 66.5619M160.948 52.4329L164.468 53.5993M160.655 53.3155L164.175 54.4818M160.363 54.1979L163.883 55.3642M160.07 55.0805L163.591 56.2468M159.82 56.1727L163.24 57.3058M159.469 57.2317L162.889 58.3648M159.148 58.2024L162.567 59.3354M158.826 59.1731L162.246 60.3061M158.475 60.232L161.895 61.3651M158.183 61.1146L161.603 62.2477M159.672 62.6851L161.281 63.2183M162.599 61.5984L163.102 61.7651M163.102 61.7651L163.956 60.8727M163.102 61.7651L164.209 62.1316M163.102 61.7651L165.264 61.3059M163.956 60.8727L163.755 60.806L164.193 59.4823M163.956 60.8727L164.559 61.0726M163.956 60.8727L165.508 62.464M164.209 62.1316L164.559 61.0726M164.209 62.1316L165.516 62.5648L165.508 62.464M165.264 61.3059L165.465 61.3726L165.903 60.0489M165.264 61.3059L164.559 61.0726M165.264 61.3059L165.508 62.464M163.075 62.3437L162.812 63.138M164.081 62.677L163.818 63.4713M165.087 63.0102L164.823 63.8045M162.666 63.5793L162.432 64.2853M162.285 64.7266L162.081 65.3443L162.052 65.4326M161.876 65.9619L161.642 66.6679M163.672 63.9126L163.438 64.6186M164.677 64.2458L164.443 64.9518M163.291 65.0599L163.058 65.7658M164.297 65.3931L164.063 66.099M162.882 66.2952L162.648 67.0012M163.888 66.6284L163.654 67.3344M164.193 59.4823L165.203 59.1313L165.903 60.0489M164.193 59.4823L165.903 60.0489M152.443 63.8157L153.543 60.4933L159.24 62.3779L158.898 63.4082L159.379 63.5675L158.677 65.6857M159.243 63.959L160.666 64.4308L160.095 66.1553" stroke="black" stroke-width="0.5"/>
<path d="M97.0307 85.845C97.1723 86.185 96.2365 86.547 96.1399 86.5542C95.9593 86.0808 95.631 84.8558 95.442 85.4537C95.2661 84.6491 95.834 83.5268 96.1399 83.0662C95.1197 83.871 95.1016 85.2722 95.22 85.8723L95.3349 86.5542C95.0777 86.6058 94.8991 86.5686 94.7789 86.4771C94.4696 86.242 94.5455 85.6488 94.6589 85.29C94.4443 85.0139 94.2405 84.3573 95.142 83.9404C95.2721 83.186 95.7676 83.0354 96.1399 83.0662L97.5515 83.0325C97.5439 82.9357 97.6816 82.7024 98.294 82.5435C98.9063 82.3845 99.209 82.9185 99.2837 83.2054C99.9574 83.1182 101.013 83.4105 100.613 84.4862C101.578 86.2835 100.079 85.8787 99.2837 85.4537C99.0888 86.2461 98.0066 85.8509 97.5515 85.4537C97.4709 85.7513 97.2796 86.0603 97.0307 85.845Z" fill="black"/>
<path d="M100.639 85.8723C100.971 86.9007 99.8039 88.5875 99.2837 88.7863C99.0915 88.9302 98.8897 89.0451 98.6826 89.133M95.3349 86.5542L94.8511 86.1625C94.2076 88.3428 96.6942 89.9773 98.6826 89.133M95.3349 86.5542C94.4162 86.7388 94.5014 85.7883 94.6589 85.29C94.4443 85.0139 94.2405 84.3573 95.142 83.9404C95.3053 82.9939 96.0436 82.9978 96.3924 83.1181L96.1399 83.0662M95.3349 86.5542L95.22 85.8723C95.1016 85.2722 95.1197 83.871 96.1399 83.0662M101.27 95.6799L101.647 97.5077L101.884 97.4436M96.1399 83.0662L97.5515 83.0325C97.5439 82.9357 97.6816 82.7024 98.294 82.5435C98.9063 82.3845 99.209 82.9185 99.2837 83.2054C99.9574 83.1182 101.013 83.4105 100.613 84.4862C101.578 86.2835 100.079 85.8787 99.2837 85.4537C99.0888 86.2461 98.0066 85.8509 97.5515 85.4537C97.4709 85.7513 97.2796 86.0603 97.0307 85.845C97.1723 86.185 96.2365 86.547 96.1399 86.5542C95.9593 86.0808 95.631 84.8558 95.442 85.4537C95.2661 84.6491 95.834 83.5268 96.1399 83.0662ZM99 90L98.6826 89.133M99 90C99 92.4 97.1792 91.0233 96.2688 90.0349M99 90C100.296 90 101.688 89.5663 102.5 90.5C103.882 92.0888 104.225 95.5616 104.21 96.8146L104.17 96.8254M94.604 102.521C96.3122 102.638 101.538 101.933 104.092 100.226C104.066 99.8778 103.956 99.701 103.904 99.6561M94.604 102.521V97.9425M94.604 102.521L93.5 104C93.1667 104.333 92.4 105 92 105C91.6 105 90.8333 105 90.5 105C90.3333 104.833 90.3 104.2 91.5 103C92.7 101.8 92.3333 99.5786 92 98.6179M96.2688 89.2025V90.0349M96.2688 90.0349C95.5166 90.1506 94.2971 89.9559 93.5 91C92.3106 92.558 91.6616 95.8396 91.6907 98.6981L92 98.6179M94.604 97.9425L93.1474 98.3203L92 98.6179M94.604 97.9425C94.7119 96.4184 94.8927 95.7793 95.4364 95.0292M101.884 97.4436C101.859 98.3213 102.227 99.9389 103.904 99.3874C106 98.6981 106.113 97.7358 106.806 98.6179C107.361 99.3236 108.167 98.9119 108.5 98.6179C108.5 98.5786 108.5 98.4 108.5 98C108.5 97.6 108.049 97.0431 107.824 96.8146L106.5 96.5L105.5 97C105.083 97.0503 104.232 97.0857 104.17 96.8254M101.884 97.4436L104.17 96.8254" stroke="black" stroke-width="0.9"/>
<path d="M97.4606 87.2356C97.0587 87.0628 96.9008 87.1799 96.685 87.5377M98.7659 87.1215C99.0917 86.7122 99.4599 86.953 99.5983 87.1215" stroke="black" stroke-width="0.3"/>
<path d="M95.229 86.0404C95.2554 86.0377 95.3244 86.0425 95.4145 86.1648C95.5059 86.2891 95.5853 86.5 95.5915 86.7726C95.5976 87.0441 95.529 87.2846 95.4309 87.4493C95.329 87.6205 95.2303 87.6604 95.1893 87.665C95.1633 87.6678 95.0934 87.6628 95.0028 87.5397C94.9114 87.4153 94.8329 87.2044 94.8267 86.9318C94.8207 86.6603 94.8892 86.4198 94.9873 86.2551C95.0894 86.084 95.1882 86.0448 95.229 86.0404Z" stroke="black" stroke-width="0.9"/>
<path fill-rule="evenodd" clip-rule="evenodd" d="M95.8526 102.521C95.4547 105.74 96.3281 106.623 97.9739 108.124C98.1848 108.078 98.0882 108.183 98.3497 108.124C99.2054 107.931 101.049 107.282 101.727 107.098C102.157 106.983 101.98 107.136 101.977 107.098C101.969 106.982 101.623 104.935 101.452 103.925L102.954 104.544L105.675 103.906C106.063 103.244 106.926 101.915 107.274 101.89C107.622 101.864 105.208 100.874 103.958 100.382C102.849 101.145 99.4972 102.952 95.8526 102.521Z" fill="black"/>
<path d="M98.3497 108.124C98.0882 108.183 98.1848 108.078 97.9739 108.124C96.3281 106.623 95.4547 105.74 95.8526 102.521C99.4972 102.952 102.849 101.145 103.958 100.382C105.208 100.874 107.622 101.864 107.274 101.89C106.926 101.915 106.063 103.244 105.675 103.906L102.954 104.544L101.452 103.925C101.623 104.935 101.969 106.982 101.977 107.098C101.98 107.136 102.157 106.983 101.727 107.098M98.3497 108.124C98.4882 108.685 98.6326 109.669 98.7659 110.012C99.8306 112.752 99.8051 112.605 99.5983 112.59C98.9392 113.871 99.8325 117.912 100.431 121.234C100.683 121.361 101.628 121.475 101.727 121.234C101.85 120.933 101.55 120.809 102.264 120.61C102.069 118.629 102.264 114.174 102.512 113.342C102.76 112.509 102.57 106.228 101.727 107.098M98.3497 108.124C99.2054 107.931 101.049 107.282 101.727 107.098" stroke="black" stroke-width="0.9"/>
<path d="M100.539 119.576C100.926 119.548 101.781 119.426 102.112 119.168M100.802 121.163C100.732 121.441 100.648 121.847 100.614 122.199M100.614 122.199C100.574 122.6 100.6 122.93 100.786 122.916C101.22 122.884 103.002 123.337 103.726 123.283C104.12 123.351 104.927 123.37 105.009 122.896C105.031 122.767 105.019 122.647 104.982 122.537M100.614 122.199C101.8 122.6 104.334 123.23 104.982 122.537M102.219 120.62C102.068 120.711 102.488 121.016 102.976 121.294M102.976 121.294C102.789 121.191 102.443 121.48 102.294 121.637M102.976 121.294C103.104 121.368 103.238 121.44 103.367 121.505M104.982 122.537C104.851 122.146 104.402 121.887 104.054 121.799C103.976 121.779 103.862 121.736 103.728 121.677M103.728 121.677C103.618 121.629 103.494 121.57 103.367 121.505M103.728 121.677C103.583 121.571 103.32 121.95 103.206 122.154M103.367 121.505C103.177 121.412 102.876 121.727 102.75 121.895" stroke="black" stroke-width="0.9"/>
<path d="M101.87 105.646C101.934 105.642 103.704 105.242 105.749 104.776M105.749 104.776L106.485 105.014C106.231 105.519 105.675 106.68 105.487 107.278C105.298 107.875 104.696 109.721 104.418 110.568M105.749 104.776C106.889 104.517 108.115 104.237 109.177 103.993M103.94 113.962L104.418 114.51M103.94 113.962C103.577 113.648 103.139 113.193 102.512 114.174M103.94 113.962L103.844 112.655M103.94 113.962L104.795 112.618M104.418 114.51C104.55 114.732 104.683 115.033 104.761 115.361M104.418 114.51C104.75 113.981 105.133 113.371 105.544 112.719M104.795 112.618L104.102 112.198C103.829 112.101 103.826 111.807 103.933 111.48M104.795 112.618L104.985 112.32M104.761 115.361C104.944 116.139 104.816 117.073 103.618 117.49M104.761 115.361L105.062 115.339L104.889 113.892M105.544 112.719C105.811 112.297 106.09 111.857 106.374 111.409M105.544 112.719C106.166 113.194 107.494 114.05 107.832 113.675M111.309 105.242C111.295 105.048 111.233 104.605 111.1 104.381C111 104.214 108.524 108.026 106.374 111.409M111.309 105.242C111.692 105.165 112.455 104.982 112.447 104.866M111.309 105.242L111.33 105.532L111.631 105.656M106.374 111.409C106.35 111.448 106.679 111.845 106.964 112.173M112.447 104.866C112.438 104.75 111.603 102.641 111.186 101.601M112.447 104.866L112.613 105.146L112.634 105.436M111.631 105.656L112.211 105.613L112.634 105.436M111.631 105.656C111.448 105.816 111.157 106.334 111.448 107.13L114.367 115.09C114.562 115.342 114.921 115.63 114.932 114.978M111.186 101.601C110.945 101.619 110.435 101.686 110.327 101.81M111.186 101.601L111.465 101.434L111.299 101.155L110.564 101.063L110.29 101.302M112.634 105.436C112.879 105.467 113.385 105.731 113.445 106.544M110.327 101.81C110.243 101.909 110.424 102.418 110.59 102.813M110.327 101.81L110.038 101.832L110.016 101.541L110.29 101.302M110.29 101.302L109.732 99.6641M110.59 102.813C110.634 102.919 110.677 103.016 110.714 103.096L110.59 102.813ZM110.59 102.813L101.671 104.931M103.484 113.703C103.476 113.587 103.055 111.697 102.512 109.596M103.618 117.49L103.334 115.613C103.192 115.273 102.978 115.395 102.888 115.499L103.038 117.532M103.618 117.49L103.672 118.216M103.038 117.532C102.922 117.541 102.486 117.281 102.282 117.15M103.038 117.532C103.046 117.629 103.062 117.852 103.071 117.968M99.5983 116.255L95.2042 114.022C94.9342 113.653 94.5926 112.841 95.3869 112.549M95.3869 112.549C95.082 113.155 95.1166 113.493 95.1721 113.587L99.4359 114.757M95.3869 112.549L97.9631 107.979M98.4085 108.092C97.7175 109.339 96.497 111.56 95.9716 112.577M95.9716 112.577L96.4118 112.619C96.5459 112.463 96.8454 112.178 96.9699 112.286C96.9613 112.17 97.9754 110.119 98.4835 109.108M95.9716 112.577C95.8128 112.884 95.7175 113.081 95.7195 113.108C95.7223 113.146 95.9583 113.227 96.3184 113.328M99.4359 114.022C98.8934 113.955 97.3324 113.611 96.3184 113.328M96.3184 113.328C97.0172 113.346 97.1915 113.01 97.1845 112.708M98.7947 109.377L97.1255 112.421C97.1575 112.501 97.182 112.603 97.1845 112.708M97.1845 112.708L99.4359 113.328M97.1684 113.001L99.4359 113.587M114.932 114.978L115.504 114.714C115.612 114.853 115.847 115.01 115.928 114.537M114.932 114.978C114.933 114.914 114.931 114.84 114.925 114.757L114.827 114.472M112.854 106.442C112.322 105.547 112.157 106.201 112.141 106.641L114.827 114.472M114.827 114.472L115.327 114.289M113.106 107.883L115.327 114.289M115.327 114.289C115.413 114.137 115.654 113.973 115.928 114.537M115.928 114.537L113.82 107.685M109.732 99.6641L109.018 99.8628C109.093 99.5652 109.157 98.9766 108.809 99.0022C108.461 99.0279 110.961 98.5514 112.254 98.31C112.462 98.4894 112.763 98.8857 112.308 99.0361C111.982 99.1438 111.144 99.3444 110.449 99.5034M109.732 99.6641C109.922 99.6226 110.174 99.5662 110.449 99.5034M110.449 99.5034C110.455 99.5892 110.825 100.654 111.009 101.176M104.418 110.568C104.536 110.852 104.886 111.381 105.341 111.23C105.402 111.034 105.606 110.679 105.934 110.826M104.418 110.568C104.253 110.799 104.039 111.156 103.933 111.48M105.934 110.826L106.96 109.213M105.934 110.826L104.985 112.32M103.933 111.48C104.031 111.56 104.675 112.073 104.985 112.32M109.177 103.993C109.646 103.886 110.083 103.786 110.467 103.698L106.96 109.213M109.177 103.993C109.14 104.629 108.645 106.563 106.96 109.213M107.14 102.045C107.834 102.238 109.171 102.715 108.973 103.197M105.336 113.129C106.255 113.742 108.047 114.739 107.863 113.818C107.853 113.769 107.843 113.721 107.832 113.675M107.832 113.675C107.643 112.857 107.335 112.512 107.198 112.441M107.198 112.441L106.611 112.641M107.198 112.441C107.131 112.366 107.049 112.273 106.964 112.173M106.964 112.173C106.786 112.102 106.445 112.247 106.296 112.328" stroke="black" stroke-width="0.9"/>
<path d="M97.6095 109.337L98.7468 110.294L98.2371 108.252L97.8972 108.45L97.6095 109.337Z" fill="black"/>
<path d="M97.3547 108.315L97.0408 108.858C96.8382 108.526 95.5506 107.925 93.4196 107.905C91.2886 107.885 90.4385 110.718 90.3795 112.282C90.51 114.005 91.0153 115.99 91.464 117.228C93.7056 121.051 95.8497 121.244 98.131 120.907C99.1484 120.492 99.6041 119.331 99.9966 118.331L100.015 118.285L100.615 120.901C97.6992 124.576 93.9735 122.245 91.6728 119.985C89.3721 117.725 89.1832 112.887 89.1048 111.854C89.0265 110.82 89.7262 108.344 91.7398 106.813C93.3506 105.589 95.8493 106.402 96.8972 106.962L97.3547 108.315Z" fill="black"/>
<path d="M102.776 118.866L102.733 118.285L104.939 118.56L104.257 119.195L102.776 118.866Z" fill="black"/>
<path d="M106.114 113.801L105.835 113.968L105.126 113.481L105.201 113.285L106.114 113.801Z" fill="black"/>
<path d="M104.456 113.048L103.844 112.655L104.257 112.332L104.724 112.736L104.456 113.048Z" fill="black"/>
<path d="M108.82 99.1474L108.873 99.8735L105.707 100.399C104.978 99.9858 105.353 99.5492 105.632 99.3827L108.664 99.0129L108.82 99.1474Z" fill="black"/>
<path d="M114.852 97.9724L112.399 98.2993L112.732 98.8588L111.884 99.2133C112.798 99.0972 114.655 98.8629 114.771 98.8543C115.441 98.4545 115.104 98.0997 114.852 97.9724Z" fill="black"/>
<path d="M113.474 106.243L112.073 106.485L112.601 107.847C113.209 107.756 114.483 107.598 114.717 107.693C114.951 107.788 116.201 108.566 116.797 108.943L117.575 109.866C117.997 110.442 118.876 111.704 119.023 112.142C119.336 112.539 119.999 115.712 120.041 116.269C120.083 116.826 119.654 118.678 119.152 119.554C118.651 120.431 117.846 121.05 116.728 121.271C115.609 121.492 113.692 120.511 112.318 119.211C111.218 118.171 110.414 115.895 110.149 114.887C109.836 113.23 109.727 109.624 111.796 108.466C111.78 108.243 111.431 107.372 111.258 106.964C110.37 106.469 105.943 113.653 110.614 119.195C114.351 123.629 117.626 123.166 118.797 122.381C119.786 121.702 121.737 119.591 121.624 116.574C121.484 112.803 119.107 109.475 118.793 109.078C118.216 107.439 115.007 106.505 113.474 106.243Z" fill="black"/>
<path d="M105.067 113.441L105.126 113.481M105.126 113.481L105.835 113.968L106.114 113.801L105.201 113.285L105.126 113.481ZM98.7468 110.294C98.5951 110.167 97.9254 109.603 97.6095 109.337L97.8972 108.45L98.2371 108.252L98.7468 110.294ZM97.0408 108.858L97.3547 108.315L96.8972 106.962C95.8493 106.402 93.3506 105.589 91.7398 106.813C89.7262 108.344 89.0265 110.82 89.1048 111.854C89.1832 112.887 89.3721 117.725 91.6728 119.985C93.9735 122.245 97.6992 124.576 100.615 120.901L100.015 118.285C99.6178 119.295 99.1639 120.486 98.131 120.907C95.8497 121.244 93.7056 121.051 91.464 117.228C91.0153 115.99 90.51 114.005 90.3795 112.282C90.4385 110.718 91.2886 107.885 93.4196 107.905C95.5506 107.925 96.8382 108.526 97.0408 108.858ZM102.733 118.285L102.776 118.866L104.257 119.195L104.939 118.56L102.733 118.285ZM103.844 112.655L104.456 113.048L104.724 112.736L104.257 112.332L103.844 112.655ZM108.873 99.8735L108.82 99.1474L108.664 99.0129L105.632 99.3827C105.353 99.5492 104.978 99.9858 105.707 100.399L108.873 99.8735ZM112.399 98.2993L114.852 97.9724C115.104 98.0997 115.441 98.4545 114.771 98.8543C114.655 98.8629 112.798 99.0972 111.884 99.2133L112.732 98.8588L112.399 98.2993ZM112.073 106.485L113.474 106.243C115.007 106.505 118.216 107.439 118.793 109.078C119.107 109.475 121.484 112.803 121.624 116.574C121.737 119.591 119.786 121.702 118.797 122.381C117.626 123.166 114.351 123.629 110.614 119.195C105.943 113.653 110.37 106.469 111.258 106.964C111.431 107.372 111.78 108.243 111.796 108.466C109.727 109.624 109.836 113.23 110.149 114.887C110.414 115.895 111.218 118.171 112.318 119.211C113.692 120.511 115.609 121.492 116.728 121.271C117.846 121.05 118.651 120.431 119.152 119.554C119.654 118.678 120.083 116.826 120.041 116.269C119.999 115.712 119.336 112.539 119.023 112.142C118.876 111.704 117.997 110.442 117.575 109.866L116.797 108.943C116.201 108.566 114.951 107.788 114.717 107.693C114.483 107.598 113.209 107.756 112.601 107.847L112.073 106.485Z" stroke="black" stroke-width="0.9"/>
<path d="M129.445 112.308L129.159 113.377L148.586 118.583L148.873 117.514L129.445 112.308Z" fill="black"/>
<path d="M136.561 107.339L130.068 105.599C129.481 105.442 128.878 105.79 128.721 106.377L127.287 111.73L129.445 112.308M136.561 107.339L137.004 105.684C137.076 105.417 137.35 105.259 137.617 105.33L138.213 105.49M136.561 107.339L145.195 109.653M129.445 112.308L129.159 113.377L148.586 118.583L148.873 117.514M129.445 112.308L148.873 117.514M138.213 105.49C137.698 106.156 142.128 102.692 141.011 99.3639C140.32 97.3042 139.038 94.6209 139.492 92.0812C139.994 89.2791 142.737 87.2212 146.321 88.1812C149.905 89.1413 151.37 92.2684 150.285 94.9732C149.116 97.8898 146.977 99.0529 145.328 100.521C142.515 103.026 144.392 108.121 144.689 107.225M138.213 105.49L144.689 107.225M145.195 109.653L151.688 111.392C152.275 111.55 152.623 112.153 152.466 112.74L151.031 118.092L148.873 117.514M145.195 109.653L145.639 107.997C145.71 107.73 145.552 107.456 145.285 107.385L144.689 107.225" stroke="black"/>
</svg>
