<svg width="71" height="57" viewBox="0 0 71 57" fill="none" xmlns="http://www.w3.org/2000/svg">
<g clip-path="url(#clip0_22_17)">
<path d="M69 48.5L71 48V45C65.4 42.2 68.6667 39.8333 71 39V36C65.4 32.8 68.6667 30.3333 71 29.5V28V26.5263C68.6667 25.7076 65.4 23.2842 71 20.1404V17.193C68.6667 16.3743 65.4 14.0491 71 11.2982V8.35088L69 7.85965M68 50.5C67.8333 51.6667 68.2 54.1 71 54.5V56.5H66.5C66.6667 56 66.8 54.9 66 54.5M64 53.5C62.8333 53.3333 60.5 53.7 60.5 56.5H57C55.8333 54.1667 53 50.9 51 56.5H48C47.8333 55.3333 47 53.1 45 53.5C43.8333 53.5 41.5 54.1 41.5 56.5C40.6667 56.5 38.9 56.5 38.5 56.5C38.3333 55.3333 37.5 53.5 35.5 53.5C33.5 53.5 32.6667 55.3333 32.5 56.5H29.5C29.5 54.1 27.1667 53.5 26 53.5C24 53.1 23.1667 55.3333 23 56.5H20C18 50.9 15.1667 54.1667 14 56.5H10.5C10.5 53.7 8.16667 53.3333 7 53.5M2 48.5L0 48L0 45C5.6 42.2 2.33333 39.8333 0 39L7.62939e-06 36C5.60001 32.8 2.33334 30.3333 7.62939e-06 29.5L7.62939e-06 28L7.62939e-06 26.5263C2.33334 25.7076 5.60001 23.2842 7.62939e-06 20.1404L0 17.193C2.33333 16.3743 5.6 14.0491 0 11.2982L0 8.35088L2 7.85965M3 50.5C3.16667 51.6667 2.8 54.1 0 54.5L7.62939e-06 56.5H4.5C4.33333 56 4.2 54.9 5 54.5M68 5.89474C67.8333 4.74854 68.2 2.35789 71 1.96491V0H66.5C66.6667 0.491228 66.8 1.57193 66 1.96491M64 2.94737C62.8333 3.11111 60.5 2.75088 60.5 0H57C55.8333 2.2924 53 5.50175 51 0H48C47.8333 1.1462 47 3.34035 45 2.94737C43.8333 2.94737 41.5 2.35789 41.5 0H38.5C38.3333 1.1462 37.5 2.94737 35.5 2.94737C33.5 2.94737 32.6667 1.1462 32.5 0H29.5C29.5 2.35789 27.1667 2.94737 26 2.94737C24 3.34035 23.1667 1.1462 23 0H20C18 5.50175 15.1667 2.2924 14 0H10.5C10.5 2.75088 8.16667 3.11111 7 2.94737M3 5.89474C3.16667 4.74854 2.8 2.35789 0 1.96491L7.62939e-06 0H4.5C4.33333 0.491228 4.2 1.57193 5 1.96491M63.5 49V7H7.5V49H63.5Z" stroke="black"/>
<g clip-path="url(#clip1_22_17)">
<path d="M44.993 34.2919C43.9572 33.8839 40.6801 33.0112 35.8588 32.7852C32.2427 32.7852 28.4509 33.7897 27.007 34.2919" stroke="black" stroke-width="0.5"/>
<path d="M2.61756 30.8077L2.71172 31.2786C2.80589 31.3727 3.01306 31.5611 3.0884 31.5611H3.46507M2.61756 30.8077L2.71172 30.6194H3.27673L3.55923 30.8077C4.0431 30.7472 4.6474 30.6309 5.34842 30.4486M2.61756 30.8077C2.27247 30.7831 1.7077 30.7081 1.01671 30.5623M20.8861 20.7318C20.2967 21.3681 19.6989 21.9679 19.0969 22.5329M3.55923 31.2786C6.79232 31.6552 14.784 30.1862 20.8861 21.2968M-2.75 29.301C-2.18405 29.5743 -1.61009 29.8028 -1.05498 29.9926M2.42922 31.2786C2.14672 31.2786 2.05255 31.4669 -2.75 30.8077M-1.05498 32.1261L-1.05498 29.9926M-1.05498 29.9926C-0.308599 30.2478 0.403717 30.4329 1.01671 30.5623M1.01671 32.1261V30.5623M5.34842 32.1261V30.4486M5.34842 30.4486C5.96872 30.2873 6.66476 30.0743 7.42011 29.8026M7.42011 32.0319V29.8026M7.42011 29.8026C8.04212 29.5789 8.70435 29.3154 9.39763 29.0082M9.39763 32.0319V29.0082M9.39763 29.0082C10.0915 28.7007 10.8166 28.3494 11.5635 27.9504M11.5635 32.0319V27.9504M11.5635 27.9504C12.2083 27.6059 12.8694 27.2259 13.541 26.8077M13.541 32.0319L13.541 26.8077M13.541 26.8077C14.1922 26.4023 14.8532 25.961 15.5185 25.4816M15.5185 32.0319L15.5185 25.4816M15.5185 25.4816C16.1436 25.0312 16.7725 24.5472 17.4008 24.0276M17.4008 24.0276L17.4008 32.0319M17.4008 24.0276C17.9677 23.5588 18.5342 23.0611 19.0969 22.5329M19.0969 32.0319L19.0969 22.5329M2.99423 31.1844L3.18256 31.2786L3.27673 31.1844L3.3709 30.9961L3.27673 30.9019H2.99423L2.90006 30.9961L2.99423 31.1844Z" stroke="black" stroke-width="0.5"/>
<path d="M69.2883 30.7324L69.1941 31.0149C69.0999 31.0714 68.8928 31.1844 68.8174 31.1844H68.4408M69.2883 30.7324L69.1941 30.6194H68.6291H68.8174C68.3336 30.5831 67.2584 30.323 66.5574 30.1477M69.2883 30.7324C68.9587 30.8171 70.1981 30.3973 70.8891 30.257M51.0197 20.7318C51.6091 21.3681 52.2069 21.9894 52.8089 22.5329M68.3466 31.0149C65.1135 31.2409 57.1218 30.1862 51.0197 21.2968M74.6558 29.1127C74.0899 29.3859 73.5159 29.5264 72.9608 29.709M69.4766 31.0149C69.7591 31.0149 69.8533 31.4669 74.6558 30.8077M72.9608 31.7614V29.709M72.9608 29.709C72.2144 29.9545 71.5021 30.1326 70.8891 30.257M70.8891 31.7614V30.257M66.5574 31.7614V30.1477M66.5574 30.1477C65.9371 29.9925 65.2411 29.7876 64.4857 29.5263M64.4857 31.6708V29.5263M64.4857 29.5263C63.8637 29.3111 63.2015 29.0576 62.5082 28.762M62.5082 31.6708V28.762M62.5082 28.762C61.8143 28.4662 61.0893 28.1283 60.3423 27.7444M60.3423 31.6708V27.7444M60.3423 27.7444C59.6975 27.4131 59.0364 27.0475 58.3648 26.6452M58.3648 31.6708V26.6452M58.3648 26.6452C57.7136 26.2552 57.0527 25.8306 56.3873 25.3695M56.3873 31.6708V25.3695M56.3873 25.3695C55.7623 24.9362 55.1334 24.4706 54.505 23.9708M54.505 23.9708V31.6708M54.505 23.9708C53.9381 23.5198 53.3716 23.041 52.8089 22.5329M52.8089 31.6708V22.5329M68.9116 30.9584L68.7233 31.0149L68.6291 30.9584L68.5349 30.8454L68.6291 30.7889H68.9116L69.0058 30.8454L68.9116 30.9584Z" stroke="black" stroke-width="0.5"/>
<path d="M46.0289 19.7901L36.8946 19.7901M36.8946 20.4493H25.877H25.7828V18.8484H25.877H30.1145V19.4134M36.8946 20.4493L46.0289 20.4493H46.123V18.9426H46.0289H41.6971M36.8946 20.4493V18.3776L36.5179 18.6601L35.9529 18.0009L35.4821 18.7543L35.0112 18.2834V18.8484M35.0112 20.3551V18.8484M34.9171 19.7901H30.1145M25.7828 19.7901H30.1145M30.1145 19.7901V19.4134M31.0562 19.6959C31.0562 19.6394 31.0562 19.2606 31.0562 18.9426C31.0562 18.9104 31.0562 18.8789 31.0562 18.8484M30.1145 19.4134V18.6601H31.0562C31.0562 18.7144 31.0562 18.7788 31.0562 18.8484M31.0562 18.8484H35.0112M36.8946 18.9426L40.8496 18.9426M40.8496 18.9426V19.5076V19.7901M40.8496 18.9426V18.7543H41.6971V18.9426M41.6971 19.7901V19.1309V18.9426" stroke="black" stroke-width="0.5"/>
<path d="M21.1686 24.4043H24.6528M23.2403 24.4043H23.1461H24.6528M24.6528 24.4043C24.6528 24.4796 24.6528 29.3952 24.6528 31.8436M21.0744 26.9468H25.5003M21.1686 27.606H25.5003M22.4869 28.171V28.736M22.4869 29.1127V29.3481V29.5835M22.4869 29.9602V30.3369M23.0519 31.9377C23.0519 31.8624 23.0519 31.4669 23.0519 31.2786L23.3344 31.0902L23.6169 31.2786V31.5611V31.8436M24.0878 30.384V30.0073M23.1461 29.5835V28.8302L23.3344 28.6419L23.5228 28.8302V29.5835M24.0878 28.2181V28.7831M24.0878 29.1127V29.3952V29.6306M22.0161 24.4043V31.8436M22.5811 26.5702H22.4869V25.7227L22.6753 25.5343L22.7694 25.7227V26.5702H22.5811ZM23.2403 26.5702H23.1461V25.7227L23.3344 25.5343L23.4286 25.7227V26.5702H23.2403ZM23.8994 26.5702H23.8053V25.7227L23.9936 25.5343L24.0878 25.7227V26.5702H23.8994ZM22.5811 23.1801H22.4869V22.3326L22.6753 22.1443L22.7694 22.3326V23.1801H22.5811ZM23.2403 23.1801H23.1461V22.3326L23.3344 22.1443L23.4286 22.3326V23.1801H23.2403ZM23.8994 23.1801H23.8053V22.3326L23.9936 22.1443L24.0878 22.3326V23.1801H23.8994Z" stroke="black" stroke-width="0.5"/>
<path d="M23.2403 20.0726H22.5811V19.5076H23.2403M22.5811 18.4718C22.5811 18.5471 22.5811 19.0054 22.5811 19.2251M22.9578 18.4718V19.2251M23.3344 18.4718V19.2251M22.9578 16.4001V17.1534M23.3344 16.4001V17.2476" stroke="black" stroke-width="0.5"/>
<path d="M22.0161 21.6735L21.9219 22.6151V23.7451H21.0744H23.1461" stroke="black" stroke-width="0.5"/>
<path d="M22.0161 18.0951C22.0161 18.1704 22.0161 19.8843 22.0161 20.7318H25.6886H20.8861" stroke="black" stroke-width="0.5"/>
<path d="M20.8861 18.0951H23.5228" stroke="black" stroke-width="0.5"/>
<path d="M21.0744 21.5793L20.8861 21.2968V16.1176M22.2044 16.1176H20.8861M22.2044 16.1176V17.4359M22.2044 16.1176L21.8748 15.0346M20.8861 16.1176V16.0234L21.5453 13.8575V13.3867V13.9517L21.8748 15.0346M22.2044 17.7184V17.4359M22.2044 17.4359H22.5811V16.1176L23.3344 14.8934M21.8748 15.0346H22.4869L23.1461 12.5078M23.3344 10.9383V11.7858L23.1461 12.5078M23.1461 12.5078H23.3344" stroke="black" stroke-width="0.5"/>
<path d="M21.0744 21.4851H25.5944" stroke="black" stroke-width="0.5"/>
<path d="M21.0744 31.8436V22.0501V21.4851" stroke="black" stroke-width="0.5"/>
<path d="M23.2403 20.0726H24.0878V19.5076H23.2403M24.0878 18.4718C24.0878 18.5471 24.0878 19.0054 24.0878 19.2251M23.7111 18.4718V19.2251M23.3344 18.5659V19.3193M23.7111 16.4001V17.1534M23.3344 16.4942V17.3417" stroke="black" stroke-width="0.5"/>
<path d="M24.6528 21.6735L24.7469 22.6151V23.7451M24.7469 23.7451H25.5945M24.7469 23.7451H23.1461" stroke="black" stroke-width="0.5"/>
<path d="M24.6528 18.1892C24.6528 18.2646 24.6528 19.9784 24.6528 20.8259" stroke="black" stroke-width="0.5"/>
<path d="M25.6886 18.0951H23.4286" stroke="black" stroke-width="0.5"/>
<path d="M25.5944 21.5793L25.7828 21.2968V16.1176M24.4644 16.1176H25.7828M24.4644 16.1176V17.4359M24.4644 16.1176L24.794 15.0346M25.7828 16.1176V16.0234L25.1236 13.8575V13.3867V13.9517L24.794 15.0346M24.4644 17.7184V17.4359M24.4644 17.4359H24.0878V16.1176L23.3344 14.8934M24.794 15.0346H24.1819L23.5228 12.5078M23.3344 10.9383V11.7858L23.5228 12.5078M23.5228 12.5078H23.3344" stroke="black" stroke-width="0.5"/>
<path d="M25.5945 31.9377V22.1443V21.5793" stroke="black" stroke-width="0.5"/>
<path d="M46.4055 24.216H49.8897M48.4772 24.216H48.3831H49.8897M49.8897 24.216C49.8897 24.2913 49.8897 29.2069 49.8897 31.6552M46.3114 26.7585H50.7373M46.4055 27.4177H50.7373M47.7239 27.9827V28.5477M47.7239 28.9244V29.1598V29.3952M47.7239 29.7719V30.1485M48.2889 31.7494C48.2889 31.6741 48.2889 31.2786 48.2889 31.0902L48.5714 30.9019L48.8539 31.0902V31.3727V31.6552M49.3247 30.1956V29.819M48.3831 29.3952V28.6419L48.5714 28.4535L48.7597 28.6419V29.3952M49.3247 28.0298V28.5948M49.3247 28.9244V29.2069V29.4423M47.253 24.216V31.6552M47.8181 26.3818H47.7239V25.5343L47.9122 25.346L48.0064 25.5343V26.3818H47.8181ZM48.4772 26.3818H48.3831V25.5343L48.5714 25.346L48.6656 25.5343V26.3818H48.4772ZM49.1364 26.3818H49.0422V25.5343L49.2306 25.346L49.3247 25.5343V26.3818H49.1364ZM47.8181 22.9918H47.7239V22.1443L47.9122 21.956L48.0064 22.1443V22.9918H47.8181ZM48.4772 22.9918H48.3831V22.1443L48.5714 21.956L48.6656 22.1443V22.9918H48.4772ZM49.1364 22.9918H49.0422V22.1443L49.2306 21.956L49.3247 22.1443V22.9918H49.1364Z" stroke="black" stroke-width="0.5"/>
<path d="M48.4772 19.8843H47.8181V19.3193H48.4772M47.8181 18.2834C47.8181 18.3588 47.8181 18.817 47.8181 19.0368M48.1947 18.2834V19.0368M48.5714 18.2834V19.0368M48.1947 16.2117V16.9651M48.5714 16.2117V17.0592" stroke="black" stroke-width="0.5"/>
<path d="M47.253 21.4851L47.1589 22.4268V23.5568H46.3114H48.3831" stroke="black" stroke-width="0.5"/>
<path d="M47.253 17.9067C47.253 17.9821 47.253 19.6959 47.253 20.5434H50.9256H46.123" stroke="black" stroke-width="0.5"/>
<path d="M46.123 17.9067H48.7597" stroke="black" stroke-width="0.5"/>
<path d="M46.3114 21.3909L46.123 21.1084V15.9292M47.4414 15.9292H46.123M47.4414 15.9292V17.2476M47.4414 15.9292L47.1118 14.8463M46.123 15.9292V15.8351L46.7822 13.6692V13.1984V13.7634L47.1118 14.8463M47.4414 17.5301V17.2476M47.4414 17.2476H47.818V15.9292L48.5714 14.705M47.1118 14.8463H47.7239L48.383 12.3195M48.5714 10.75V11.5975L48.383 12.3195M48.383 12.3195H48.5714" stroke="black" stroke-width="0.5"/>
<path d="M46.3114 21.2968H50.8314" stroke="black" stroke-width="0.5"/>
<path d="M46.3114 31.6552V21.8618V21.2968" stroke="black" stroke-width="0.5"/>
<path d="M48.4772 19.8843H49.3247V19.3193H48.4772M49.3247 18.2834C49.3247 18.3588 49.3247 18.817 49.3247 19.0368M48.9481 18.2834V19.0368M48.5714 18.3776V19.1309M48.9481 16.2117V16.9651M48.5714 16.3059V17.1534" stroke="black" stroke-width="0.5"/>
<path d="M49.8897 21.4851L49.9839 22.4268V23.5568M49.9839 23.5568H50.8314M49.9839 23.5568H48.3831" stroke="black" stroke-width="0.5"/>
<path d="M49.8897 18.0009C49.8897 18.0762 49.8897 19.7901 49.8897 20.6376" stroke="black" stroke-width="0.5"/>
<path d="M50.9256 17.9067H48.6655" stroke="black" stroke-width="0.5"/>
<path d="M50.8314 21.3909L51.0197 21.1084V15.9292M49.7014 15.9292H51.0197M49.7014 15.9292V17.2476M49.7014 15.9292L50.031 14.8463M51.0197 15.9292V15.8351L50.3606 13.6692V13.1984V13.7634L50.031 14.8463M49.7014 17.5301V17.2476M49.7014 17.2476H49.3247V15.9292L48.5714 14.705M50.031 14.8463H49.4189L48.7597 12.3195M48.5714 10.75V11.5975L48.7597 12.3195M48.7597 12.3195H48.5714" stroke="black" stroke-width="0.5"/>
<path d="M50.8314 31.7494V21.956V21.3909" stroke="black" stroke-width="0.5"/>
<path d="M52.2439 32.5027L74.6558 32.5027" stroke="black" stroke-width="0.5"/>
<path d="M52.1498 32.0319C52.1539 32.1844 52.2183 34.5742 52.25 35.75" stroke="black" stroke-width="0.5"/>
<path d="M45.0872 31.9377L45.25 35.75" stroke="black" stroke-width="0.5"/>
<path d="M27.1953 32.5969L28.0428 33.9152V32.5969L29.4553 33.6327V32.5969L30.6795 33.3502V32.5969L31.8095 33.0677V32.5969L33.0337 33.0677V32.5969" stroke="black" stroke-width="0.5"/>
<path d="M27.1953 32.5969L44.8047 32.4086" stroke="black" stroke-width="0.5"/>
<path d="M-2.65582 33.0677L19.6619 32.6911" stroke="black" stroke-width="0.5"/>
<path d="M-2.75 32.1261L45.2755 31.7494L64.4857 31.7494H74.75" stroke="black" stroke-width="0.5"/>
<path d="M27.007 35.7044V31.8436" stroke="black" stroke-width="0.5"/>
<path d="M19.8503 35.7986V31.9377" stroke="black" stroke-width="0.5"/>
<path d="M52.8089 23.7451C53.3739 23.7451 54.5039 23.7828 54.5039 23.9335C54.5039 24.0841 55.7595 26.0052 56.3873 26.9468L58.2707 26.7585L60.3423 29.3952L62.3199 28.736L64.4857 30.7135L66.5574 30.1485C66.5574 30.4624 66.5574 31.0714 66.5574 30.9961C66.5574 30.9207 65.1763 29.8974 64.4857 29.3952L62.5082 30.2427L60.3423 27.7002L58.3648 28.3594L56.3873 25.4402H54.5039L52.8089 22.6151" stroke="black" stroke-width="0.5"/>
<path d="M70.8891 31.0902C71.3411 30.8642 72.4586 30.1172 72.9608 29.7719L74.5617 30.7135M74.5617 29.2069L72.9608 31.0902L70.8891 30.2427M-2.65583 30.7135L-1.14915 30.0544L0.92254 31.1844M0.92254 30.5621C0.771871 30.6079 -0.458586 30.8705 -1.05498 30.9961L-2.75 29.3952M5.44259 31.2786C5.51792 31.2032 6.79233 30.3055 7.42011 29.866L9.4918 30.431L11.5635 28.0769L13.541 28.4535L15.4244 25.6285L17.4019 25.4402L19.0969 22.6151V23.7451L17.4019 24.0276L15.5185 27.041L13.541 26.8527L11.5635 29.5835L9.39763 29.0185L7.42011 30.9961L5.34842 30.5252" stroke="black" stroke-width="0.5"/>
<path d="M46.0289 34.5744C46.123 34.4803 48.4772 32.6911 51.2081 34.5744M20.6978 34.4803C20.7919 34.3861 23.1461 32.5969 25.877 34.4803" stroke="black" stroke-width="0.5"/>
<path d="M30.7471 43.3182C30.4333 43.3182 25.5175 43.3182 23.0988 43.3182C23.2623 43.197 23.6479 42.8455 23.8833 42.4091M23.8833 42.4091C24.1774 41.8636 23.9813 41.9545 24.3735 41.5909H24.4716M23.8833 42.4091H26.8249M25.5502 40.9545H25.0109M25.5502 40.9545H27.5113M25.5502 40.9545V41.2727M24.4716 41.5909V40.9545H25.0109M24.4716 41.5909H25.0109M25.0109 41.5909H25.5502V41.2727M25.0109 41.5909V40.9545M26.8249 39.5V42.4091M26.8249 42.4091H42.0233M49.3774 42.4091H44.3766M42.3175 39.5L42.0233 41.4091V42.4091M42.0233 42.4091H44.2786H44.3766M42.6117 39.7727V41.3182H43.4941M44.3766 41.3182V40.0455M44.3766 41.3182H43.4941M44.3766 41.3182V42.4091M44.3766 41.3182C45.4879 41.5606 47.9654 42.0455 48.9852 42.0455M43.4941 41.3182V39.7727M44.5727 41.1364H46.926M49.0832 42.0455C49.9657 42.1364 51.9268 42.2091 52.7113 41.7727C52.8747 41.7121 53.1427 41.7182 52.9074 42.2273M52.9074 42.2273C52.9074 42.3182 51.2404 42.8636 51.3385 43.7727C50.7191 43.6818 49.2544 43.5545 48.3503 43.7727M52.9074 42.2273C51.8614 42.3182 49.4951 42.5727 49.1813 42.8636C49.0976 42.9412 48.9425 42.8864 48.3503 43.7727M48.0046 44.3182C48.134 44.105 48.2486 43.925 48.3503 43.7727M39.4739 43.3182C41.6638 43.3485 46.2004 43.3364 46.828 43.0455M25.5502 41.2727H27.7074C27.8381 41.0152 28.2369 40.3727 28.786 39.8636L28.2957 39.5H25.7463C25.6809 39.2273 25.864 38.6818 27.1191 38.6818C27.7666 38.6818 29.6601 38.6818 31.7276 38.6818M38.5914 38.5L37.5128 37.5H33.5906C32.9696 37.5 31.7276 37.7364 31.7276 38.6818M38.5914 38.5L37.3167 38.6576M38.5914 38.5C38.6699 38.5 43.2 38.6818 45.4552 38.7727C45.7821 38.8114 46.5927 38.9382 47.2202 39.1364M31.7276 38.6818C32.7411 38.6818 33.7965 38.6818 34.7673 38.6818M34.7673 38.6818C34.7346 38.4091 34.7281 37.8636 34.9634 37.8636M34.7673 38.6818C35.2142 38.6818 35.6432 38.6818 36.042 38.6818M36.042 38.6818C36.4348 38.6818 36.7982 38.6818 37.1206 38.6818L37.3167 38.6576M36.042 38.6818C36.042 38.5364 36.042 37.8939 36.042 37.5909L37.3167 38.6576M40.4545 41.2273H42.0233M40.4545 41.2273V39.4091M40.4545 41.2273H38.5914M38.5914 41.2273V39.3666M38.5914 41.2273L36.7284 41.2273M38.5914 39.3666C40.386 39.3964 41.9814 39.4549 42.9058 39.5C44.1805 39.7424 46.7495 40.4091 46.828 41.1364V41.7727M38.5914 39.3666C37.987 39.3566 37.36 39.3498 36.7284 39.3479M36.7284 39.3479V41.2273M36.7284 39.3479C36.0868 39.346 35.4405 39.3491 34.8084 39.359M36.7284 41.2273H34.7673M34.7673 41.2273L34.8084 39.359M34.7673 41.2273L33.0023 41.2273M33.0023 39.4091C33.5786 39.3848 34.1866 39.3686 34.8084 39.359M33.0023 39.4091V41.2273M33.0023 39.4091C32.2359 39.4414 31.5874 39.5221 31.0412 39.6341M33.0023 41.2273L31.0412 41.2273M31.0412 41.2273L28.3938 41.2273C28.47 40.8029 29.1279 40.0265 31.0412 39.6341M31.0412 41.2273V39.6341M25.5502 41.6818V42.4091M24.0794 44.1364C24.0727 44.1333 24.0657 44.1297 24.0583 44.1256M24.0583 44.1256C23.9226 44.0496 23.6872 43.8012 23.6872 43.3182M24.0583 44.1256C23.9825 44.1617 23.9233 44.1976 23.8833 44.2273M24.0583 44.1256C24.2922 44.0141 24.6841 43.8996 25.158 43.9545C25.9424 44.0455 25.9424 44.1364 26.5307 44.1364C27.1191 44.1364 27.8054 43.8636 28.0996 43.9545C28.4134 43.9545 29.0148 44.1364 29.2763 44.2273C29.3743 44.2879 29.6685 44.3909 30.0607 44.3182C30.551 44.2273 30.649 43.9545 31.6296 44.0455C32.6101 44.1364 32.7082 44.3182 33.3945 44.2273C34.0809 44.1364 33.9829 43.8636 34.6692 43.9545C35.3556 44.0455 35.6498 44.5 36.4342 44.2273C37.2187 43.9545 36.8264 43.9545 37.5128 43.9545C38.1992 43.9545 38.2973 44.4091 39.4739 44.2273C40.6506 44.0455 40.7486 43.9545 41.6311 44.0455C42.5136 44.1364 42.5136 44.5 43.7883 44.2273C45.063 43.9545 45.5533 44.1364 45.9455 44.2273C46.3377 44.3182 46.3377 44.1364 47.0241 44.0455C47.5732 43.9727 48.1027 44.3182 48.2988 44.5M47.2202 39.1364C49.214 39.7424 53.0839 41.1182 52.6132 41.7727M47.2202 39.1364C47.1187 39.1394 47.0207 39.1427 46.926 39.1461M46.926 40.3607C46.2484 40.0637 45.435 39.7671 44.4747 39.5C44.3807 39.4129 44.755 39.2256 46.926 39.1461M46.926 40.3607V39.1461M46.926 40.3607C47.251 40.5031 47.5448 40.6456 47.8085 40.7849M47.8085 40.7849V39.6818C48.691 39.9242 50.3972 40.5 50.1618 40.8636M47.8085 40.7849C47.9167 40.842 48.0199 40.8987 48.1181 40.9545M49.5735 42.0455C49.3825 41.8093 48.9125 41.4065 48.1181 40.9545M48.1181 40.9545C48.3411 40.8818 49.3774 40.9242 49.8677 40.9545M49.3774 41.2273C49.5343 41.3 51.077 41.5 51.8288 41.5909M20.5494 43.3182C20.6148 43.2879 20.8632 43.2273 21.3338 43.2273C21.9222 43.2273 21.628 43.5 22.3144 43.2273M18 39.6818C18.1307 39.4901 18.5099 39.1308 18.9805 39.2273C19.5689 39.3479 19.4708 39.9545 20.3533 39.6818C21.0593 39.4636 21.6934 39.5591 21.9222 39.6341M19.3728 44.1364C19.4708 44.0455 19.8042 43.8818 20.3533 43.9545C21.0397 44.0455 20.9416 44.1364 21.1377 44.1364C21.3338 44.1364 21.628 43.8636 22.1183 43.9545C22.6086 44.0455 22.9027 44.3182 23.1969 44.1364" stroke="black" stroke-width="0.5"/>
</g>
</g>
<defs>
<clipPath id="clip0_22_17">
<rect width="56.5" height="71" fill="white" transform="matrix(0 -1 1 0 0 56.5)"/>
</clipPath>
<clipPath id="clip1_22_17">
<rect width="46" height="56" fill="white" transform="matrix(0 -1 1 0 7.25 48.75)"/>
</clipPath>
</defs>
</svg>
